<svg xmlns="http://www.w3.org/2000/svg" width="81" height="81" viewBox="0 0 81 81">
  <g id="Grupo_1107154" data-name="Grupo 1107154" transform="translate(-180.051 -4167)">
    <rect id="Rectángulo_401730" data-name="Rectángulo 401730" width="81" height="81" rx="40.5" transform="translate(180.051 4167)" fill="#10314b"/>
    <g id="layer1" transform="translate(194.786 3901.667)">
      <path id="rect6716" d="M11.84,280.6H22.575a1.64,1.64,0,0,1,1.644,1.644v46.034a1.641,1.641,0,0,1-1.644,1.644H11.84a1.641,1.641,0,0,1-1.644-1.644V282.24A1.64,1.64,0,0,1,11.84,280.6Z" transform="translate(20.924 0.554)" fill="#ffc861"/>
      <g id="Grupo_1100914" data-name="Grupo 1100914" transform="translate(0.265 280.333)">
        <path id="path6828" d="M10.212,7.895v4.638l14.045,13.94V21.835Z" transform="translate(20.693 15.807)" fill="#ffab61"/>
        <path id="path6697" d="M2.741.53A2.23,2.23,0,0,0,.53,2.894V45.609c0,3.064,1.782,4.3,4.322,4.322H47.568c2.552,0,3.025-2.758,1.478-4.3L4.835,1.416A2.871,2.871,0,0,0,2.741.53Zm9.637,24.954L24.955,38.061c.44.44.306,1.224-.42,1.224H12.383a1.107,1.107,0,0,1-1.229-1.23V25.9C11.155,25.1,11.967,25.073,12.378,25.484Z" transform="translate(0.293 0.288)" fill="#55a1ff"/>
        <path id="path6835" d="M.6,15.587c.559,1.827,2.1,2.6,4.1,2.62H45.325A1.647,1.647,0,0,0,44,15.587Z" transform="translate(0.446 32.014)" fill="#488bff"/>
        <path id="path8104" d="M.265,3.448V46.164c0,3.317,1.935,5.146,5.139,5.146H48.126c3.28,0,4.136-3.634,2.06-5.71L46.04,41.454V2.733A2.479,2.479,0,0,0,43.572.266H32.814a2.477,2.477,0,0,0-2.467,2.467V22.9a.824.824,0,0,0,1.647,0V2.733a.8.8,0,0,1,.82-.82H43.572a.8.8,0,0,1,.82.82V6.586h-4.43a.825.825,0,0,0,.079,1.648h4.351V12.92H41.731a.824.824,0,1,0,0,1.647h2.661V19.2H41.731a.824.824,0,1,0,0,1.647h2.661v4.115H41.646a.825.825,0,0,0,.085,1.647h2.661v4.716H40.041a.824.824,0,1,0,0,1.647h4.351v6.829L5.975,1.388C3.706-.881.265.54.265,3.448Zm4.546-.9L8.67,6.412,5.63,9.455A.825.825,0,1,0,6.8,10.622L9.835,7.576l3.316,3.316L11.3,12.743a.826.826,0,0,0,1.167,1.167l1.848-1.854,3.28,3.28-1.852,1.849a.825.825,0,1,0,1.166,1.166L18.758,16.5l2.907,2.907-1.851,1.851a.826.826,0,0,0,1.167,1.167l1.848-1.854,3.337,3.337-3.039,3.046a.823.823,0,1,0,1.161,1.159l3.044-3.039,3.313,3.313L28.8,30.24A.823.823,0,1,0,29.958,31.4l1.854-1.848,3.279,3.279L33.24,34.684A.823.823,0,1,0,34.4,35.845L36.255,34,39.161,36.9l-1.849,1.852a.823.823,0,1,0,1.161,1.161l1.854-1.848,4.057,4.057-3.042,3.042A.823.823,0,1,0,42.5,46.334l3.046-3.044,3.473,3.473c1.18,1.18.747,2.9-.9,2.9H5.411c-2.215,0-3.5-1.027-3.5-3.5V3.448C1.912,1.482,3.926,1.668,4.811,2.553ZM10.89,26.458V38.5a2.132,2.132,0,0,0,2.2,2.163h1.235a.823.823,0,1,0,0-1.647H13.1c-.474.011-.566-.295-.566-.516V26.8L24.749,39.016H18.484a.823.823,0,1,0,0,1.647h6.609a1.5,1.5,0,0,0,1-2.629L13.519,25.456A1.513,1.513,0,0,0,10.89,26.458Z" transform="translate(-0.265 -0.266)" fill="#00003a"/>
      </g>
    </g>
  </g>
</svg>
