<svg xmlns="http://www.w3.org/2000/svg" width="357.341" height="131" viewBox="0 0 357.341 131">
  <g id="Grupo_1107512" data-name="Grupo 1107512" transform="translate(-389.096 -4826)">
    <path id="Trazado_879709" data-name="Trazado 879709" d="M.766,10.93a5.641,5.641,0,0,1,.871-3.289,2.807,2.807,0,0,1,2.441-1.25,3.027,3.027,0,0,1,1.316.273,2.7,2.7,0,0,1,.98.8V2.813H7.914V15H6.734L6.5,13.93a2.743,2.743,0,0,1-1.023.922,3.058,3.058,0,0,1-1.414.313,2.9,2.9,0,0,1-2.422-1.121,4.659,4.659,0,0,1-.875-2.949Zm1.539.164a3.588,3.588,0,0,0,.523,2.051,1.828,1.828,0,0,0,1.625.77A2.039,2.039,0,0,0,5.609,13.6a2.334,2.334,0,0,0,.766-.875V8.781a2.37,2.37,0,0,0-.77-.832,2.033,2.033,0,0,0-1.137-.309,1.759,1.759,0,0,0-1.637.914A4.718,4.718,0,0,0,2.3,10.93Zm11.406,4.07A3.576,3.576,0,0,1,10.871,14a4.48,4.48,0,0,1-1.02-3.062v-.344A4.386,4.386,0,0,1,10.9,7.582a3.3,3.3,0,0,1,2.566-1.191,3.067,3.067,0,0,1,2.543,1.055,4.345,4.345,0,0,1,.848,2.8v.813H11.453l-.023.039a3.494,3.494,0,0,0,.563,2.066,1.965,1.965,0,0,0,1.719.793,3.872,3.872,0,0,0,1.371-.223,3.061,3.061,0,0,0,1.012-.613l.6,1a3.7,3.7,0,0,1-1.2.738A4.762,4.762,0,0,1,13.711,15.164ZM13.469,7.6a1.673,1.673,0,0,0-1.332.621,2.938,2.938,0,0,0-.645,1.59l.016.039H15.32V9.727A2.462,2.462,0,0,0,14.867,8.2,1.638,1.638,0,0,0,13.469,7.6ZM19.227,15V7.688h-1.32V6.547h1.32V5.477a2.9,2.9,0,0,1,.707-2.09,2.6,2.6,0,0,1,1.973-.738,3.4,3.4,0,0,1,.535.043q.27.043.6.121l-.187,1.172q-.141-.031-.34-.055a3.579,3.579,0,0,0-.418-.023,1.215,1.215,0,0,0-1,.4,1.809,1.809,0,0,0-.328,1.168v1.07H22.3V7.688H20.766V15Zm13.516-2.273a1.026,1.026,0,0,0-.387-.828,3.732,3.732,0,0,0-1.465-.562,6.146,6.146,0,0,1-2.293-.9,1.814,1.814,0,0,1-.8-1.547,2.229,2.229,0,0,1,.879-1.766,3.879,3.879,0,0,1,4.605.047,2.239,2.239,0,0,1,.852,1.82l-.016.047H32.648a1.331,1.331,0,0,0-.48-.992A1.717,1.717,0,0,0,30.953,7.6a1.751,1.751,0,0,0-1.215.367,1.146,1.146,0,0,0-.4.875.927.927,0,0,0,.348.773,3.848,3.848,0,0,0,1.434.5,6.058,6.058,0,0,1,2.359.93,1.872,1.872,0,0,1,.8,1.57,2.226,2.226,0,0,1-.91,1.836,3.754,3.754,0,0,1-2.379.711,3.715,3.715,0,0,1-2.547-.82,2.341,2.341,0,0,1-.883-1.914l.016-.047h1.469a1.424,1.424,0,0,0,.609,1.2,2.358,2.358,0,0,0,1.336.379,2.1,2.1,0,0,0,1.285-.348A1.063,1.063,0,0,0,32.742,12.727ZM41.391,15q-.078-.383-.121-.676a4.96,4.96,0,0,1-.051-.59,3.589,3.589,0,0,1-1.121,1.02,2.867,2.867,0,0,1-1.488.41,2.763,2.763,0,0,1-2.012-.676,2.486,2.486,0,0,1-.691-1.863,2.183,2.183,0,0,1,.98-1.895,4.579,4.579,0,0,1,2.66-.684h1.672V9.211a1.551,1.551,0,0,0-.453-1.176A1.779,1.779,0,0,0,39.484,7.6a1.859,1.859,0,0,0-1.211.375,1.125,1.125,0,0,0-.461.9l-1.461.016-.016-.047A2.023,2.023,0,0,1,37.2,7.156a3.578,3.578,0,0,1,2.371-.766,3.49,3.49,0,0,1,2.313.73,2.588,2.588,0,0,1,.875,2.105V13.3a7.923,7.923,0,0,0,.047.875,4.5,4.5,0,0,0,.172.828Zm-2.555-1.125a2.739,2.739,0,0,0,1.508-.43,2.042,2.042,0,0,0,.875-.984V11.086H39.492A2.24,2.24,0,0,0,38,11.555a1.4,1.4,0,0,0-.559,1.1,1.159,1.159,0,0,0,.352.891A1.472,1.472,0,0,0,38.836,13.875ZM46.656,15H45.117V2.813h1.539Zm7.734-1.25A2.863,2.863,0,0,1,53.367,14.8a2.8,2.8,0,0,1-1.445.367,2.716,2.716,0,0,1-2.156-.883,4.1,4.1,0,0,1-.773-2.75V6.547h1.539v5a3.147,3.147,0,0,0,.4,1.859,1.481,1.481,0,0,0,1.242.508,2.531,2.531,0,0,0,1.355-.332,2.077,2.077,0,0,0,.809-.941V6.547h1.539V15H54.492Zm3.375-2.82a5.641,5.641,0,0,1,.871-3.289,2.807,2.807,0,0,1,2.441-1.25,3.027,3.027,0,0,1,1.316.273,2.7,2.7,0,0,1,.98.8V2.813h1.539V15h-1.18L63.5,13.93a2.743,2.743,0,0,1-1.023.922,3.058,3.058,0,0,1-1.414.313,2.9,2.9,0,0,1-2.422-1.121,4.659,4.659,0,0,1-.875-2.949Zm1.539.164a3.588,3.588,0,0,0,.523,2.051,1.828,1.828,0,0,0,1.625.77,2.039,2.039,0,0,0,1.156-.312,2.334,2.334,0,0,0,.766-.875V8.781a2.37,2.37,0,0,0-.77-.832,2.033,2.033,0,0,0-1.137-.309,1.759,1.759,0,0,0-1.637.914A4.718,4.718,0,0,0,59.3,10.93ZM72.406,15q-.078-.383-.121-.676a4.96,4.96,0,0,1-.051-.59,3.589,3.589,0,0,1-1.121,1.02,2.867,2.867,0,0,1-1.488.41,2.763,2.763,0,0,1-2.012-.676,2.486,2.486,0,0,1-.691-1.863,2.183,2.183,0,0,1,.98-1.895,4.579,4.579,0,0,1,2.66-.684h1.672V9.211a1.551,1.551,0,0,0-.453-1.176A1.779,1.779,0,0,0,70.5,7.6a1.859,1.859,0,0,0-1.211.375,1.125,1.125,0,0,0-.461.9l-1.461.016-.016-.047a2.023,2.023,0,0,1,.863-1.687,3.578,3.578,0,0,1,2.371-.766,3.49,3.49,0,0,1,2.313.73,2.588,2.588,0,0,1,.875,2.105V13.3a7.923,7.923,0,0,0,.047.875,4.5,4.5,0,0,0,.172.828Zm-2.555-1.125a2.739,2.739,0,0,0,1.508-.43,2.042,2.042,0,0,0,.875-.984V11.086H70.508a2.24,2.24,0,0,0-1.488.469,1.4,1.4,0,0,0-.559,1.1,1.159,1.159,0,0,0,.352.891A1.472,1.472,0,0,0,69.852,13.875ZM80.008,7.906l-.789-.047a1.762,1.762,0,0,0-1.027.289,1.854,1.854,0,0,0-.645.813V15H76.008V6.547h1.375l.148,1.234a2.934,2.934,0,0,1,.887-1.023,2.073,2.073,0,0,1,1.215-.367,1.9,1.9,0,0,1,.328.027,2.175,2.175,0,0,1,.258.059Zm1.516,2.477a10.458,10.458,0,0,1,1.242-5.258,7.19,7.19,0,0,1,2.609-2.906l.047.008.3.906a6.665,6.665,0,0,0-1.863,2.68,11.54,11.54,0,0,0-.793,4.555v.1a11.591,11.591,0,0,0,.789,4.555,7.25,7.25,0,0,0,1.867,2.75l-.3.844h-.047a7.193,7.193,0,0,1-2.609-2.9,10.452,10.452,0,0,1-1.242-5.262Zm6.766-3.836L88.4,7.8a3.069,3.069,0,0,1,1.059-1.043,2.824,2.824,0,0,1,1.449-.371,2.759,2.759,0,0,1,2.117.8,3.515,3.515,0,0,1,.75,2.473V15H92.234V9.7a2.287,2.287,0,0,0-.441-1.586,1.768,1.768,0,0,0-1.348-.469,2.386,2.386,0,0,0-1.207.285,2.072,2.072,0,0,0-.785.8V15H86.914V6.547ZM95.648,10.7a4.654,4.654,0,0,1,1.016-3.09,3.764,3.764,0,0,1,5.535,0,4.639,4.639,0,0,1,1.02,3.094v.172a4.631,4.631,0,0,1-1.016,3.094,3.781,3.781,0,0,1-5.535,0,4.623,4.623,0,0,1-1.02-3.09Zm1.539.172a4.009,4.009,0,0,0,.566,2.219,2.046,2.046,0,0,0,3.355,0,3.988,3.988,0,0,0,.57-2.219V10.7a3.976,3.976,0,0,0-.574-2.211A1.882,1.882,0,0,0,99.422,7.6a1.856,1.856,0,0,0-1.668.883,4.018,4.018,0,0,0-.566,2.211Zm9.289-4.32.109,1.109a2.871,2.871,0,0,1,1.051-.934,3.158,3.158,0,0,1,1.48-.332,2.615,2.615,0,0,1,1.449.391,2.363,2.363,0,0,1,.91,1.172,3.162,3.162,0,0,1,1.059-1.145,2.769,2.769,0,0,1,1.527-.418,2.531,2.531,0,0,1,2.039.887,4.051,4.051,0,0,1,.75,2.668V15h-1.539V9.93a2.81,2.81,0,0,0-.43-1.77,1.567,1.567,0,0,0-1.281-.52,1.631,1.631,0,0,0-1.277.547,2.381,2.381,0,0,0-.574,1.383V15H110.2V9.93a2.772,2.772,0,0,0-.441-1.738,1.532,1.532,0,0,0-1.27-.551,2.115,2.115,0,0,0-1.156.289,1.867,1.867,0,0,0-.7.813V15H105.1V6.547ZM126.3,11.094a4.645,4.645,0,0,1-.879,2.949,2.9,2.9,0,0,1-2.418,1.121,3.064,3.064,0,0,1-1.465-.332,2.719,2.719,0,0,1-1.027-.98L120.266,15h-1.18V2.813h1.539V7.547a2.671,2.671,0,0,1,.988-.859,3.03,3.03,0,0,1,1.379-.3,2.809,2.809,0,0,1,2.438,1.25,5.622,5.622,0,0,1,.875,3.289Zm-1.539-.164a4.666,4.666,0,0,0-.535-2.371,1.762,1.762,0,0,0-1.629-.918,2.014,2.014,0,0,0-1.2.348,2.452,2.452,0,0,0-.777.934v3.664a2.517,2.517,0,0,0,.777.977,2,2,0,0,0,1.215.352,1.829,1.829,0,0,0,1.617-.773,3.552,3.552,0,0,0,.531-2.047Zm7.414-3.023-.789-.047a1.762,1.762,0,0,0-1.027.289,1.855,1.855,0,0,0-.645.813V15H128.18V6.547h1.375l.148,1.234a2.934,2.934,0,0,1,.887-1.023,2.073,2.073,0,0,1,1.215-.367,1.9,1.9,0,0,1,.328.027,2.174,2.174,0,0,1,.258.059Zm4.953,7.258A3.576,3.576,0,0,1,134.293,14a4.48,4.48,0,0,1-1.02-3.062v-.344a4.386,4.386,0,0,1,1.051-3.012,3.3,3.3,0,0,1,2.566-1.191,3.067,3.067,0,0,1,2.543,1.055,4.345,4.345,0,0,1,.848,2.8v.813h-5.406l-.023.039a3.494,3.494,0,0,0,.563,2.066,1.965,1.965,0,0,0,1.719.793,3.872,3.872,0,0,0,1.371-.223,3.061,3.061,0,0,0,1.012-.613l.6,1a3.7,3.7,0,0,1-1.2.738A4.762,4.762,0,0,1,137.133,15.164ZM136.891,7.6a1.673,1.673,0,0,0-1.332.621,2.938,2.938,0,0,0-.645,1.59l.016.039h3.813V9.727a2.462,2.462,0,0,0-.453-1.523A1.638,1.638,0,0,0,136.891,7.6Zm8.242,2.852a10.426,10.426,0,0,1-1.246,5.262,7.244,7.244,0,0,1-2.605,2.9h-.047l-.3-.844a6.653,6.653,0,0,0,1.855-2.7,11.749,11.749,0,0,0,.8-4.605v-.1a11.354,11.354,0,0,0-.824-4.559,7.532,7.532,0,0,0-1.832-2.746l.3-.844h.047a7.241,7.241,0,0,1,2.605,2.906,10.431,10.431,0,0,1,1.246,5.258ZM149.055,15h-1.539V13.422h1.539Zm0-6.844h-1.539V6.578h1.539ZM21.023,33.906l-.789-.047a1.762,1.762,0,0,0-1.027.289,1.854,1.854,0,0,0-.645.813V41H17.023V32.547H18.4l.148,1.234a2.934,2.934,0,0,1,.887-1.023,2.073,2.073,0,0,1,1.215-.367,1.9,1.9,0,0,1,.328.027,2.175,2.175,0,0,1,.258.059Zm4.953,7.258A3.576,3.576,0,0,1,23.137,40a4.48,4.48,0,0,1-1.02-3.062v-.344a4.386,4.386,0,0,1,1.051-3.012,3.3,3.3,0,0,1,2.566-1.191,3.067,3.067,0,0,1,2.543,1.055,4.345,4.345,0,0,1,.848,2.8v.813H23.719L23.7,37.1a3.494,3.494,0,0,0,.563,2.066,1.965,1.965,0,0,0,1.719.793,3.872,3.872,0,0,0,1.371-.223,3.061,3.061,0,0,0,1.012-.613l.6,1a3.7,3.7,0,0,1-1.2.738A4.762,4.762,0,0,1,25.977,41.164ZM25.734,33.6a1.673,1.673,0,0,0-1.332.621,2.938,2.938,0,0,0-.645,1.59l.016.039h3.813v-.125a2.462,2.462,0,0,0-.453-1.523A1.638,1.638,0,0,0,25.734,33.6Zm7.258-3.094v2.039h1.6v1.141h-1.6V38.82a1.149,1.149,0,0,0,.246.836.89.89,0,0,0,.652.242,1.429,1.429,0,0,0,.3-.035,2.2,2.2,0,0,0,.273-.074l.211,1.055a1.36,1.36,0,0,1-.508.23,2.562,2.562,0,0,1-.664.09,1.993,1.993,0,0,1-1.492-.566,2.46,2.46,0,0,1-.555-1.777V33.688H30.109V32.547h1.344V30.508Zm8.617,9.242A2.863,2.863,0,0,1,40.586,40.8a2.8,2.8,0,0,1-1.445.367,2.716,2.716,0,0,1-2.156-.883,4.1,4.1,0,0,1-.773-2.75V32.547H37.75v5a3.147,3.147,0,0,0,.4,1.859,1.481,1.481,0,0,0,1.242.508,2.531,2.531,0,0,0,1.355-.332,2.077,2.077,0,0,0,.809-.941V32.547h1.539V41H41.711Zm7.727-5.844-.789-.047a1.762,1.762,0,0,0-1.027.289,1.855,1.855,0,0,0-.645.813V41H45.336V32.547h1.375l.148,1.234a2.934,2.934,0,0,1,.887-1.023,2.073,2.073,0,0,1,1.215-.367,1.9,1.9,0,0,1,.328.027,2.175,2.175,0,0,1,.258.059Zm2.977-1.359.109,1.258a3.069,3.069,0,0,1,1.059-1.043,2.824,2.824,0,0,1,1.449-.371,2.759,2.759,0,0,1,2.117.8,3.515,3.515,0,0,1,.75,2.473V41H56.258V35.7a2.287,2.287,0,0,0-.441-1.586,1.768,1.768,0,0,0-1.348-.469,2.386,2.386,0,0,0-1.207.285,2.072,2.072,0,0,0-.785.8V41H50.938V32.547ZM64.648,41V33.688h-1.32V32.547h1.32v-1.07a2.9,2.9,0,0,1,.707-2.09,2.6,2.6,0,0,1,1.973-.738,3.4,3.4,0,0,1,.535.043q.27.043.6.121l-.187,1.172q-.141-.031-.34-.055a3.579,3.579,0,0,0-.418-.023,1.215,1.215,0,0,0-1,.4,1.809,1.809,0,0,0-.328,1.168v1.07h1.531v1.141H66.188V41Zm8.578-9.266-.789,1.953H71.68V29.625h1.547Zm-2.414,0-.789,1.953h-.758l.008-1.875V29.625h1.539ZM83.938,41H82.4V35.977H76.875V41H75.336V29.625h1.539v5.141H82.4V29.625h1.539Zm2.086-4.3a4.654,4.654,0,0,1,1.016-3.09,3.764,3.764,0,0,1,5.535,0,4.639,4.639,0,0,1,1.02,3.094v.172a4.631,4.631,0,0,1-1.016,3.094,3.781,3.781,0,0,1-5.535,0,4.623,4.623,0,0,1-1.02-3.09Zm1.539.172a4.009,4.009,0,0,0,.566,2.219,2.046,2.046,0,0,0,3.355,0,3.988,3.988,0,0,0,.57-2.219V36.7a3.976,3.976,0,0,0-.574-2.211A1.882,1.882,0,0,0,89.8,33.6a1.856,1.856,0,0,0-1.668.883,4.018,4.018,0,0,0-.566,2.211ZM97.141,41H95.6V28.813h1.539Zm7.563,0q-.078-.383-.121-.676a4.96,4.96,0,0,1-.051-.59,3.589,3.589,0,0,1-1.121,1.02,2.867,2.867,0,0,1-1.488.41,2.763,2.763,0,0,1-2.012-.676,2.486,2.486,0,0,1-.691-1.863,2.183,2.183,0,0,1,.98-1.895,4.579,4.579,0,0,1,2.66-.684h1.672v-.836a1.551,1.551,0,0,0-.453-1.176A1.779,1.779,0,0,0,102.8,33.6a1.859,1.859,0,0,0-1.211.375,1.125,1.125,0,0,0-.461.9l-1.461.016-.016-.047a2.023,2.023,0,0,1,.863-1.687,3.578,3.578,0,0,1,2.371-.766,3.49,3.49,0,0,1,2.313.73,2.588,2.588,0,0,1,.875,2.105V39.3a7.923,7.923,0,0,0,.047.875,4.5,4.5,0,0,0,.172.828Zm-2.555-1.125a2.739,2.739,0,0,0,1.508-.43,2.042,2.042,0,0,0,.875-.984V37.086H102.8a2.24,2.24,0,0,0-1.488.469,1.4,1.4,0,0,0-.559,1.1,1.159,1.159,0,0,0,.352.891A1.472,1.472,0,0,0,102.148,39.875Zm7.5.75-1.172,2.391h-.914l.547-2.469V39.273h1.539Zm9.6,3.219a3.72,3.72,0,0,1-2.164-1.367,3.919,3.919,0,0,1-.641-2.266v-1.6a2.086,2.086,0,0,0-.4-1.363,1.5,1.5,0,0,0-1.23-.488V35.609a1.514,1.514,0,0,0,1.23-.48,2.066,2.066,0,0,0,.4-1.363V32.156a3.914,3.914,0,0,1,.641-2.27,3.729,3.729,0,0,1,2.164-1.363l.313.914a1.957,1.957,0,0,0-1.219.98,3.807,3.807,0,0,0-.359,1.738v1.609a3.035,3.035,0,0,1-.332,1.445,2.328,2.328,0,0,1-1,.977,2.368,2.368,0,0,1,1,.988,3.024,3.024,0,0,1,.332,1.434v1.6a3.758,3.758,0,0,0,.359,1.73,1.991,1.991,0,0,0,1.219.98Zm3-11.3.109,1.258a3.069,3.069,0,0,1,1.059-1.043,2.824,2.824,0,0,1,1.449-.371,2.759,2.759,0,0,1,2.117.8,3.515,3.515,0,0,1,.75,2.473V41H126.2V35.7a2.287,2.287,0,0,0-.441-1.586,1.768,1.768,0,0,0-1.348-.469,2.386,2.386,0,0,0-1.207.285,2.072,2.072,0,0,0-.785.8V41h-1.539V32.547Zm7.359,4.148a4.654,4.654,0,0,1,1.016-3.09,3.764,3.764,0,0,1,5.535,0,4.639,4.639,0,0,1,1.02,3.094v.172a4.631,4.631,0,0,1-1.016,3.094,3.781,3.781,0,0,1-5.535,0,4.623,4.623,0,0,1-1.02-3.09Zm1.539.172a4.009,4.009,0,0,0,.566,2.219,2.046,2.046,0,0,0,3.355,0,3.988,3.988,0,0,0,.57-2.219V36.7a3.976,3.976,0,0,0-.574-2.211,1.882,1.882,0,0,0-1.684-.883,1.856,1.856,0,0,0-1.668.883,4.018,4.018,0,0,0-.566,2.211Zm9.289-4.32.109,1.109a2.871,2.871,0,0,1,1.051-.934,3.158,3.158,0,0,1,1.48-.332,2.615,2.615,0,0,1,1.449.391,2.363,2.363,0,0,1,.91,1.172,3.162,3.162,0,0,1,1.059-1.145,2.769,2.769,0,0,1,1.527-.418,2.531,2.531,0,0,1,2.039.887,4.051,4.051,0,0,1,.75,2.668V41h-1.539V35.93a2.81,2.81,0,0,0-.43-1.77,1.567,1.567,0,0,0-1.281-.52,1.631,1.631,0,0,0-1.277.547,2.381,2.381,0,0,0-.574,1.383V41h-1.547V35.93a2.772,2.772,0,0,0-.441-1.738,1.532,1.532,0,0,0-1.27-.551,2.115,2.115,0,0,0-1.156.289,1.867,1.867,0,0,0-.7.813V41h-1.539V32.547Zm19.828,4.547a4.645,4.645,0,0,1-.879,2.949,2.9,2.9,0,0,1-2.418,1.121,3.064,3.064,0,0,1-1.465-.332,2.719,2.719,0,0,1-1.027-.98L154.227,41h-1.18V28.813h1.539v4.734a2.671,2.671,0,0,1,.988-.859,3.03,3.03,0,0,1,1.379-.3,2.809,2.809,0,0,1,2.438,1.25,5.622,5.622,0,0,1,.875,3.289Zm-1.539-.164a4.666,4.666,0,0,0-.535-2.371,1.762,1.762,0,0,0-1.629-.918,2.014,2.014,0,0,0-1.2.348,2.452,2.452,0,0,0-.777.934v3.664a2.517,2.517,0,0,0,.777.977,2,2,0,0,0,1.215.352,1.829,1.829,0,0,0,1.617-.773,3.552,3.552,0,0,0,.531-2.047Zm7.414-3.023-.789-.047a1.762,1.762,0,0,0-1.027.289,1.855,1.855,0,0,0-.645.813V41h-1.539V32.547h1.375l.148,1.234a2.934,2.934,0,0,1,.887-1.023,2.073,2.073,0,0,1,1.215-.367,1.9,1.9,0,0,1,.328.027,2.175,2.175,0,0,1,.258.059Zm4.953,7.258A3.576,3.576,0,0,1,168.254,40a4.48,4.48,0,0,1-1.02-3.062v-.344a4.386,4.386,0,0,1,1.051-3.012,3.3,3.3,0,0,1,2.566-1.191,3.067,3.067,0,0,1,2.543,1.055,4.345,4.345,0,0,1,.848,2.8v.813h-5.406l-.023.039a3.494,3.494,0,0,0,.563,2.066,1.965,1.965,0,0,0,1.719.793,3.872,3.872,0,0,0,1.371-.223,3.061,3.061,0,0,0,1.012-.613l.6,1a3.7,3.7,0,0,1-1.2.738A4.762,4.762,0,0,1,171.094,41.164Zm-.242-7.562a1.673,1.673,0,0,0-1.332.621,2.938,2.938,0,0,0-.645,1.59l.016.039H172.7v-.125a2.462,2.462,0,0,0-.453-1.523A1.638,1.638,0,0,0,170.852,33.6Zm4.164,9.32a2.02,2.02,0,0,0,1.219-.98,3.691,3.691,0,0,0,.367-1.73v-1.6a2.93,2.93,0,0,1,.352-1.461,2.293,2.293,0,0,1,1.086-.961,2.212,2.212,0,0,1-1.086-.945,2.963,2.963,0,0,1-.352-1.477V32.156a3.739,3.739,0,0,0-.367-1.738,1.985,1.985,0,0,0-1.219-.98l.32-.914a3.744,3.744,0,0,1,2.16,1.363,3.9,3.9,0,0,1,.645,2.27v1.609a2.1,2.1,0,0,0,.395,1.363,1.51,1.51,0,0,0,1.238.48v1.148a1.5,1.5,0,0,0-1.238.488,2.114,2.114,0,0,0-.395,1.363v1.6a3.9,3.9,0,0,1-.645,2.266,3.735,3.735,0,0,1-2.16,1.367Zm8.148-5.656h-1.539V29.625h1.539ZM183.172,41h-1.547V39.406h1.547Zm6.273-9.266-.789,1.953H187.9V29.625h1.547Zm-2.414,0-.789,1.953h-.758l.008-1.875V29.625h1.539ZM8.32,89.094a4.659,4.659,0,0,1-.875,2.949,2.893,2.893,0,0,1-2.414,1.121A3.354,3.354,0,0,1,3.66,92.9a2.622,2.622,0,0,1-1-.785V96.25H1.117v-11.7H2.3l.242,1.094a2.792,2.792,0,0,1,1.031-.93,3.078,3.078,0,0,1,1.438-.32,2.809,2.809,0,0,1,2.441,1.246A5.638,5.638,0,0,1,8.32,88.93ZM6.781,88.93a4.467,4.467,0,0,0-.566-2.363,1.835,1.835,0,0,0-1.668-.926,2.053,2.053,0,0,0-1.133.3,2.25,2.25,0,0,0-.758.824v4.086a2.186,2.186,0,0,0,.758.816,2.126,2.126,0,0,0,1.148.293,1.894,1.894,0,0,0,1.656-.8,3.516,3.516,0,0,0,.563-2.066Zm7.43-3.023-.789-.047a1.762,1.762,0,0,0-1.027.289,1.854,1.854,0,0,0-.645.813V93H10.211V84.547h1.375l.148,1.234a2.934,2.934,0,0,1,.887-1.023,2.073,2.073,0,0,1,1.215-.367,1.9,1.9,0,0,1,.328.027,2.174,2.174,0,0,1,.258.059ZM17.477,93H15.938V84.547h1.539Zm0-10.617H15.938v-1.57h1.539Zm3.742,2.164.109,1.258a3.069,3.069,0,0,1,1.059-1.043,2.824,2.824,0,0,1,1.449-.371,2.759,2.759,0,0,1,2.117.8,3.515,3.515,0,0,1,.75,2.473V93H25.164V87.7a2.287,2.287,0,0,0-.441-1.586,1.768,1.768,0,0,0-1.348-.469,2.386,2.386,0,0,0-1.207.285,2.072,2.072,0,0,0-.785.8V93H19.844V84.547Zm9.859-2.039v2.039h1.6v1.141h-1.6V90.82a1.149,1.149,0,0,0,.246.836.89.89,0,0,0,.652.242,1.429,1.429,0,0,0,.3-.035,2.2,2.2,0,0,0,.273-.074l.211,1.055a1.36,1.36,0,0,1-.508.23,2.562,2.562,0,0,1-.664.09,1.993,1.993,0,0,1-1.492-.566,2.46,2.46,0,0,1-.555-1.777V85.688H28.2V84.547h1.344V82.508Zm3.164,5.875a10.457,10.457,0,0,1,1.242-5.258,7.19,7.19,0,0,1,2.609-2.906l.047.008.3.906a6.665,6.665,0,0,0-1.863,2.68,11.54,11.54,0,0,0-.793,4.555v.1a11.591,11.591,0,0,0,.789,4.555,7.25,7.25,0,0,0,1.867,2.75l-.3.844h-.047a7.193,7.193,0,0,1-2.609-2.9,10.452,10.452,0,0,1-1.242-5.262Zm10.3,2.344a1.026,1.026,0,0,0-.387-.828,3.733,3.733,0,0,0-1.465-.562,6.146,6.146,0,0,1-2.293-.9,1.814,1.814,0,0,1-.8-1.547,2.229,2.229,0,0,1,.879-1.766,3.879,3.879,0,0,1,4.605.047,2.239,2.239,0,0,1,.852,1.82l-.016.047H44.453a1.331,1.331,0,0,0-.48-.992,1.717,1.717,0,0,0-1.215-.445,1.751,1.751,0,0,0-1.215.367,1.146,1.146,0,0,0-.4.875.927.927,0,0,0,.348.773,3.848,3.848,0,0,0,1.434.5,6.058,6.058,0,0,1,2.359.93,1.872,1.872,0,0,1,.8,1.57,2.226,2.226,0,0,1-.91,1.836,3.754,3.754,0,0,1-2.379.711,3.715,3.715,0,0,1-2.547-.82,2.341,2.341,0,0,1-.883-1.914l.016-.047h1.469a1.424,1.424,0,0,0,.609,1.2,2.358,2.358,0,0,0,1.336.379,2.1,2.1,0,0,0,1.285-.348A1.063,1.063,0,0,0,44.547,90.727ZM53.2,93q-.078-.383-.121-.676a4.96,4.96,0,0,1-.051-.59,3.589,3.589,0,0,1-1.121,1.02,2.867,2.867,0,0,1-1.488.41,2.763,2.763,0,0,1-2.012-.676,2.486,2.486,0,0,1-.691-1.863,2.183,2.183,0,0,1,.98-1.895,4.579,4.579,0,0,1,2.66-.684h1.672v-.836a1.551,1.551,0,0,0-.453-1.176,1.779,1.779,0,0,0-1.281-.434,1.859,1.859,0,0,0-1.211.375,1.125,1.125,0,0,0-.461.9l-1.461.016-.016-.047A2.023,2.023,0,0,1,49,85.156a3.578,3.578,0,0,1,2.371-.766,3.49,3.49,0,0,1,2.313.73,2.588,2.588,0,0,1,.875,2.105V91.3a7.923,7.923,0,0,0,.047.875,4.5,4.5,0,0,0,.172.828Zm-2.555-1.125a2.739,2.739,0,0,0,1.508-.43,2.042,2.042,0,0,0,.875-.984V89.086H51.3a2.24,2.24,0,0,0-1.488.469,1.4,1.4,0,0,0-.559,1.1,1.159,1.159,0,0,0,.352.891A1.472,1.472,0,0,0,50.641,91.875ZM58.461,93H56.922V80.813h1.539ZM66.2,91.75A2.863,2.863,0,0,1,65.172,92.8a2.8,2.8,0,0,1-1.445.367,2.716,2.716,0,0,1-2.156-.883,4.1,4.1,0,0,1-.773-2.75V84.547h1.539v5a3.147,3.147,0,0,0,.4,1.859,1.481,1.481,0,0,0,1.242.508,2.531,2.531,0,0,0,1.355-.332,2.077,2.077,0,0,0,.809-.941V84.547H67.68V93H66.3Zm3.375-2.82a5.641,5.641,0,0,1,.871-3.289,2.807,2.807,0,0,1,2.441-1.25,3.027,3.027,0,0,1,1.316.273,2.7,2.7,0,0,1,.98.8V80.813h1.539V93h-1.18L75.3,91.93a2.743,2.743,0,0,1-1.023.922,3.058,3.058,0,0,1-1.414.313,2.9,2.9,0,0,1-2.422-1.121,4.659,4.659,0,0,1-.875-2.949Zm1.539.164a3.588,3.588,0,0,0,.523,2.051,1.828,1.828,0,0,0,1.625.77,2.039,2.039,0,0,0,1.156-.312,2.334,2.334,0,0,0,.766-.875V86.781a2.37,2.37,0,0,0-.77-.832,2.033,2.033,0,0,0-1.137-.309,1.759,1.759,0,0,0-1.637.914,4.718,4.718,0,0,0-.527,2.375ZM84.211,93q-.078-.383-.121-.676a4.96,4.96,0,0,1-.051-.59,3.589,3.589,0,0,1-1.121,1.02,2.867,2.867,0,0,1-1.488.41,2.763,2.763,0,0,1-2.012-.676,2.486,2.486,0,0,1-.691-1.863,2.183,2.183,0,0,1,.98-1.895,4.579,4.579,0,0,1,2.66-.684h1.672v-.836a1.551,1.551,0,0,0-.453-1.176A1.779,1.779,0,0,0,82.3,85.6a1.859,1.859,0,0,0-1.211.375,1.125,1.125,0,0,0-.461.9l-1.461.016-.016-.047a2.023,2.023,0,0,1,.863-1.687,3.578,3.578,0,0,1,2.371-.766,3.49,3.49,0,0,1,2.313.73,2.588,2.588,0,0,1,.875,2.105V91.3a7.923,7.923,0,0,0,.047.875A4.5,4.5,0,0,0,85.8,93Zm-2.555-1.125a2.739,2.739,0,0,0,1.508-.43,2.042,2.042,0,0,0,.875-.984V89.086H82.313a2.24,2.24,0,0,0-1.488.469,1.4,1.4,0,0,0-.559,1.1,1.159,1.159,0,0,0,.352.891A1.472,1.472,0,0,0,81.656,91.875Zm10.156-5.969-.789-.047A1.762,1.762,0,0,0,90,86.148a1.854,1.854,0,0,0-.645.813V93H87.813V84.547h1.375l.148,1.234a2.934,2.934,0,0,1,.887-1.023,2.073,2.073,0,0,1,1.215-.367,1.9,1.9,0,0,1,.328.027,2.174,2.174,0,0,1,.258.059Zm1.516,2.477a10.457,10.457,0,0,1,1.242-5.258,7.19,7.19,0,0,1,2.609-2.906l.047.008.3.906a6.665,6.665,0,0,0-1.863,2.68,11.54,11.54,0,0,0-.793,4.555v.1a11.591,11.591,0,0,0,.789,4.555,7.25,7.25,0,0,0,1.867,2.75l-.3.844H97.18a7.193,7.193,0,0,1-2.609-2.9,10.452,10.452,0,0,1-1.242-5.262Zm9.219-4.648-.789,1.953H101V81.625h1.547Zm-2.414,0-.789,1.953h-.758l.008-1.875V81.625h1.539Zm9.57,6.336h-4.281L104.406,93h-1.57l4.1-11.375h1.32L112.273,93H110.7Zm-3.836-1.289h3.4L107.609,83.9h-.047Zm9.242-4.234.109,1.258a3.069,3.069,0,0,1,1.059-1.043,2.824,2.824,0,0,1,1.449-.371,2.759,2.759,0,0,1,2.117.8,3.515,3.515,0,0,1,.75,2.473V93h-1.539V87.7a2.287,2.287,0,0,0-.441-1.586,1.768,1.768,0,0,0-1.348-.469,2.386,2.386,0,0,0-1.207.285,2.072,2.072,0,0,0-.785.8V93h-1.539V84.547ZM128.023,93q-.078-.383-.121-.676a4.96,4.96,0,0,1-.051-.59,3.589,3.589,0,0,1-1.121,1.02,2.867,2.867,0,0,1-1.488.41,2.763,2.763,0,0,1-2.012-.676,2.486,2.486,0,0,1-.691-1.863,2.183,2.183,0,0,1,.98-1.895,4.579,4.579,0,0,1,2.66-.684h1.672v-.836a1.551,1.551,0,0,0-.453-1.176,1.779,1.779,0,0,0-1.281-.434,1.859,1.859,0,0,0-1.211.375,1.125,1.125,0,0,0-.461.9l-1.461.016-.016-.047a2.023,2.023,0,0,1,.863-1.687,3.578,3.578,0,0,1,2.371-.766,3.49,3.49,0,0,1,2.313.73,2.588,2.588,0,0,1,.875,2.105V91.3a7.923,7.923,0,0,0,.047.875,4.5,4.5,0,0,0,.172.828Zm-2.555-1.125a2.739,2.739,0,0,0,1.508-.43,2.042,2.042,0,0,0,.875-.984V89.086h-1.727a2.24,2.24,0,0,0-1.488.469,1.4,1.4,0,0,0-.559,1.1,1.159,1.159,0,0,0,.352.891A1.472,1.472,0,0,0,125.469,91.875Zm9.461-8.141-.789,1.953h-.758V81.625h1.547Zm-2.414,0-.789,1.953h-.758l.008-1.875V81.625h1.539Zm7.438,4.719a10.426,10.426,0,0,1-1.246,5.262,7.244,7.244,0,0,1-2.605,2.9h-.047l-.3-.844a6.653,6.653,0,0,0,1.855-2.7,11.749,11.749,0,0,0,.8-4.605v-.1a11.354,11.354,0,0,0-.824-4.559,7.532,7.532,0,0,0-1.832-2.746l.3-.844h.047a7.241,7.241,0,0,1,2.605,2.906,10.431,10.431,0,0,1,1.246,5.258Zm5.367,0a10.426,10.426,0,0,1-1.246,5.262,7.244,7.244,0,0,1-2.605,2.9h-.047l-.3-.844a6.653,6.653,0,0,0,1.855-2.7,11.749,11.749,0,0,0,.8-4.605v-.1a11.354,11.354,0,0,0-.824-4.559,7.532,7.532,0,0,0-1.832-2.746l.3-.844h.047a7.241,7.241,0,0,1,2.605,2.906,10.431,10.431,0,0,1,1.246,5.258ZM159.961,89.8h-1.992l-.625,3.2h-1.18l.625-3.2h-1.844V88.7h2.063l.531-2.719h-2V84.875h2.219l.641-3.25h1.18l-.641,3.25h1.992l.641-3.25h1.18l-.641,3.25h1.555v1.109H161.9l-.531,2.719h1.711V89.8h-1.93l-.625,3.2h-1.187ZM158.188,88.7h1.992l.531-2.719h-1.992ZM171.375,93h-1.547V81.625h1.547Zm3.984-8.453.109,1.109a2.871,2.871,0,0,1,1.051-.934,3.158,3.158,0,0,1,1.48-.332,2.615,2.615,0,0,1,1.449.391,2.363,2.363,0,0,1,.91,1.172,3.162,3.162,0,0,1,1.059-1.145,2.769,2.769,0,0,1,1.527-.418,2.531,2.531,0,0,1,2.039.887,4.051,4.051,0,0,1,.75,2.668V93H184.2V87.93a2.81,2.81,0,0,0-.43-1.77,1.567,1.567,0,0,0-1.281-.52,1.631,1.631,0,0,0-1.277.547,2.381,2.381,0,0,0-.574,1.383V93h-1.547V87.93a2.772,2.772,0,0,0-.441-1.738,1.532,1.532,0,0,0-1.27-.551,2.115,2.115,0,0,0-1.156.289,1.867,1.867,0,0,0-.7.813V93h-1.539V84.547Zm19.813,4.547a4.659,4.659,0,0,1-.875,2.949,2.893,2.893,0,0,1-2.414,1.121,3.354,3.354,0,0,1-1.371-.262,2.622,2.622,0,0,1-1-.785V96.25h-1.539v-11.7h1.18l.242,1.094a2.792,2.792,0,0,1,1.031-.93,3.078,3.078,0,0,1,1.438-.32,2.809,2.809,0,0,1,2.441,1.246,5.637,5.637,0,0,1,.871,3.293Zm-1.539-.164a4.467,4.467,0,0,0-.566-2.363,1.835,1.835,0,0,0-1.668-.926,2.053,2.053,0,0,0-1.133.3,2.25,2.25,0,0,0-.758.824v4.086a2.186,2.186,0,0,0,.758.816,2.126,2.126,0,0,0,1.148.293,1.894,1.894,0,0,0,1.656-.8,3.516,3.516,0,0,0,.563-2.066Zm7.43-3.023-.789-.047a1.762,1.762,0,0,0-1.027.289,1.855,1.855,0,0,0-.645.813V93h-1.539V84.547h1.375l.148,1.234a2.934,2.934,0,0,1,.887-1.023,2.073,2.073,0,0,1,1.215-.367,1.9,1.9,0,0,1,.328.027,2.173,2.173,0,0,1,.258.059ZM204.328,93h-1.539V84.547h1.539Zm0-10.617h-1.539v-1.57h1.539Zm3.742,2.164.109,1.109a2.871,2.871,0,0,1,1.051-.934,3.158,3.158,0,0,1,1.48-.332,2.615,2.615,0,0,1,1.449.391,2.363,2.363,0,0,1,.91,1.172,3.162,3.162,0,0,1,1.059-1.145,2.769,2.769,0,0,1,1.527-.418,2.531,2.531,0,0,1,2.039.887,4.051,4.051,0,0,1,.75,2.668V93h-1.539V87.93a2.81,2.81,0,0,0-.43-1.77,1.567,1.567,0,0,0-1.281-.52,1.631,1.631,0,0,0-1.277.547,2.381,2.381,0,0,0-.574,1.383V93H211.8V87.93a2.772,2.772,0,0,0-.441-1.738,1.532,1.532,0,0,0-1.27-.551,2.115,2.115,0,0,0-1.156.289,1.867,1.867,0,0,0-.7.813V93H206.7V84.547Zm16.109,8.617A3.576,3.576,0,0,1,221.34,92a4.48,4.48,0,0,1-1.02-3.062v-.344a4.386,4.386,0,0,1,1.051-3.012,3.3,3.3,0,0,1,2.566-1.191,3.067,3.067,0,0,1,2.543,1.055,4.345,4.345,0,0,1,.848,2.8v.813h-5.406l-.023.039a3.494,3.494,0,0,0,.563,2.066,1.965,1.965,0,0,0,1.719.793,3.872,3.872,0,0,0,1.371-.223,3.061,3.061,0,0,0,1.012-.613l.6,1a3.7,3.7,0,0,1-1.2.738A4.762,4.762,0,0,1,224.18,93.164Zm-.242-7.562a1.673,1.673,0,0,0-1.332.621,2.938,2.938,0,0,0-.645,1.59l.016.039h3.813v-.125a2.462,2.462,0,0,0-.453-1.523A1.638,1.638,0,0,0,223.938,85.6Zm6.8,7.4H229.2V91.422h1.539Zm0-6.844H229.2V84.578h1.539ZM245.883,93h-1.539V87.977H238.82V93h-1.539V81.625h1.539v5.141h5.523V81.625h1.539Zm2.086-4.3a4.654,4.654,0,0,1,1.016-3.09,3.764,3.764,0,0,1,5.535,0,4.639,4.639,0,0,1,1.02,3.094v.172a4.631,4.631,0,0,1-1.016,3.094,3.781,3.781,0,0,1-5.535,0,4.623,4.623,0,0,1-1.02-3.09Zm1.539.172a4.009,4.009,0,0,0,.566,2.219,2.046,2.046,0,0,0,3.355,0,3.988,3.988,0,0,0,.57-2.219V88.7a3.976,3.976,0,0,0-.574-2.211,1.882,1.882,0,0,0-1.684-.883,1.856,1.856,0,0,0-1.668.883,4.018,4.018,0,0,0-.566,2.211ZM259.086,93h-1.539V80.813h1.539Zm7.563,0q-.078-.383-.121-.676a4.96,4.96,0,0,1-.051-.59,3.589,3.589,0,0,1-1.121,1.02,2.867,2.867,0,0,1-1.488.41,2.763,2.763,0,0,1-2.012-.676,2.486,2.486,0,0,1-.691-1.863,2.183,2.183,0,0,1,.98-1.895,4.579,4.579,0,0,1,2.66-.684h1.672v-.836a1.551,1.551,0,0,0-.453-1.176,1.779,1.779,0,0,0-1.281-.434,1.859,1.859,0,0,0-1.211.375,1.125,1.125,0,0,0-.461.9l-1.461.016-.016-.047a2.023,2.023,0,0,1,.863-1.687,3.578,3.578,0,0,1,2.371-.766,3.49,3.49,0,0,1,2.313.73,2.588,2.588,0,0,1,.875,2.105V91.3a7.923,7.923,0,0,0,.047.875,4.5,4.5,0,0,0,.172.828Zm-2.555-1.125a2.739,2.739,0,0,0,1.508-.43,2.042,2.042,0,0,0,.875-.984V89.086H264.75a2.24,2.24,0,0,0-1.488.469,1.4,1.4,0,0,0-.559,1.1,1.159,1.159,0,0,0,.352.891A1.472,1.472,0,0,0,264.094,91.875Zm7.5.75-1.172,2.391h-.914l.547-2.469V91.273h1.539Zm11.875-2.555h-4.281L278.172,93H276.6l4.1-11.375h1.32L286.039,93h-1.57Zm-3.836-1.289h3.4L281.375,83.9h-.047Zm9.242-4.234.109,1.258a3.069,3.069,0,0,1,1.059-1.043,2.824,2.824,0,0,1,1.449-.371,2.759,2.759,0,0,1,2.117.8,3.515,3.515,0,0,1,.75,2.473V93H292.82V87.7a2.287,2.287,0,0,0-.441-1.586,1.768,1.768,0,0,0-1.348-.469,2.386,2.386,0,0,0-1.207.285,2.073,2.073,0,0,0-.785.8V93H287.5V84.547ZM301.789,93q-.078-.383-.121-.676a4.96,4.96,0,0,1-.051-.59,3.589,3.589,0,0,1-1.121,1.02,2.867,2.867,0,0,1-1.488.41A2.763,2.763,0,0,1,297,92.488a2.486,2.486,0,0,1-.691-1.863,2.183,2.183,0,0,1,.98-1.895,4.579,4.579,0,0,1,2.66-.684h1.672v-.836a1.551,1.551,0,0,0-.453-1.176,1.779,1.779,0,0,0-1.281-.434,1.859,1.859,0,0,0-1.211.375,1.125,1.125,0,0,0-.461.9l-1.461.016-.016-.047a2.023,2.023,0,0,1,.863-1.687,3.578,3.578,0,0,1,2.371-.766,3.49,3.49,0,0,1,2.313.73,2.588,2.588,0,0,1,.875,2.105V91.3a7.923,7.923,0,0,0,.047.875,4.5,4.5,0,0,0,.172.828Zm-2.555-1.125a2.739,2.739,0,0,0,1.508-.43,2.042,2.042,0,0,0,.875-.984V89.086h-1.727a2.24,2.24,0,0,0-1.488.469,1.4,1.4,0,0,0-.559,1.1,1.159,1.159,0,0,0,.352.891A1.472,1.472,0,0,0,299.234,91.875Zm7.914-2.609h-1.539V81.625h1.539ZM307.156,93h-1.547V91.406h1.547Z" transform="translate(417.429 4846.956)" fill="#12263f"/>
    <g id="Trazado_879708" data-name="Trazado 879708" transform="translate(389.096 4826)" fill="none">
      <path d="M0,0H357.341V131H0Z" stroke="none"/>
      <path d="M 1 1 L 1 130 L 356.3408203125 130 L 356.3408203125 1 L 1 1 M 0 0 L 357.3408203125 0 L 357.3408203125 131 L 0 131 L 0 0 Z" stroke="none" fill="#3ba935"/>
    </g>
  </g>
</svg>
