<svg xmlns="http://www.w3.org/2000/svg" width="585.426" height="154" viewBox="0 0 585.426 154">
  <g id="Grupo_1107517" data-name="Grupo 1107517" transform="translate(-624.574 -2666.021)">
    <path id="Trazado_879715" data-name="Trazado 879715" d="M2.781,15H1.242V2.813H2.781Zm4.031,0H5.273V6.547H6.813Zm0-10.617H5.273V2.813H6.813ZM16.4,11.094a4.645,4.645,0,0,1-.879,2.949A2.9,2.9,0,0,1,13.1,15.164a3.064,3.064,0,0,1-1.465-.332,2.719,2.719,0,0,1-1.027-.98L10.359,15H9.18V2.813h1.539V7.547a2.671,2.671,0,0,1,.988-.859,3.03,3.03,0,0,1,1.379-.3,2.809,2.809,0,0,1,2.438,1.25A5.622,5.622,0,0,1,16.4,10.93Zm-1.539-.164a4.666,4.666,0,0,0-.535-2.371A1.762,1.762,0,0,0,12.7,7.641a2.014,2.014,0,0,0-1.2.348,2.452,2.452,0,0,0-.777.934v3.664a2.517,2.517,0,0,0,.777.977,2,2,0,0,0,1.215.352,1.829,1.829,0,0,0,1.617-.773,3.552,3.552,0,0,0,.531-2.047Zm7.414-3.023-.789-.047a1.762,1.762,0,0,0-1.027.289,1.854,1.854,0,0,0-.645.813V15H18.273V6.547h1.375L19.8,7.781a2.934,2.934,0,0,1,.887-1.023A2.073,2.073,0,0,1,21.9,6.391a1.9,1.9,0,0,1,.328.027,2.175,2.175,0,0,1,.258.059ZM29.07,15q-.078-.383-.121-.676a4.96,4.96,0,0,1-.051-.59,3.589,3.589,0,0,1-1.121,1.02,2.867,2.867,0,0,1-1.488.41,2.763,2.763,0,0,1-2.012-.676,2.486,2.486,0,0,1-.691-1.863,2.183,2.183,0,0,1,.98-1.895,4.579,4.579,0,0,1,2.66-.684H28.9V9.211a1.551,1.551,0,0,0-.453-1.176A1.779,1.779,0,0,0,27.164,7.6a1.859,1.859,0,0,0-1.211.375,1.125,1.125,0,0,0-.461.9l-1.461.016-.016-.047a2.023,2.023,0,0,1,.863-1.687,3.578,3.578,0,0,1,2.371-.766,3.49,3.49,0,0,1,2.313.73,2.588,2.588,0,0,1,.875,2.105V13.3a7.923,7.923,0,0,0,.047.875,4.5,4.5,0,0,0,.172.828Zm-2.555-1.125a2.739,2.739,0,0,0,1.508-.43,2.042,2.042,0,0,0,.875-.984V11.086H27.172a2.24,2.24,0,0,0-1.488.469,1.4,1.4,0,0,0-.559,1.1,1.159,1.159,0,0,0,.352.891A1.472,1.472,0,0,0,26.516,13.875ZM36.672,7.906l-.789-.047a1.762,1.762,0,0,0-1.027.289,1.855,1.855,0,0,0-.645.813V15H32.672V6.547h1.375L34.2,7.781a2.934,2.934,0,0,1,.887-1.023A2.073,2.073,0,0,1,36.3,6.391a1.9,1.9,0,0,1,.328.027,2.174,2.174,0,0,1,.258.059ZM41,11.867l.273,1.063h.047L43.4,6.547h1.711L41.555,16.3a4.383,4.383,0,0,1-.918,1.484,2.113,2.113,0,0,1-1.613.633,3.363,3.363,0,0,1-.477-.043q-.289-.043-.445-.082l.156-1.211a2.062,2.062,0,0,1,.277.016q.324.023.41.023a.95.95,0,0,0,.8-.437,4.543,4.543,0,0,0,.523-.969l.367-.883L37.5,6.547h1.719Zm5.375-1.484a10.458,10.458,0,0,1,1.242-5.258,7.19,7.19,0,0,1,2.609-2.906l.047.008.3.906a6.665,6.665,0,0,0-1.863,2.68,11.54,11.54,0,0,0-.793,4.555v.1a11.591,11.591,0,0,0,.789,4.555,7.25,7.25,0,0,0,1.867,2.75l-.3.844h-.047a7.193,7.193,0,0,1-2.609-2.9,10.452,10.452,0,0,1-1.242-5.262Zm5.039.547a5.641,5.641,0,0,1,.871-3.289,2.807,2.807,0,0,1,2.441-1.25,3.027,3.027,0,0,1,1.316.273,2.7,2.7,0,0,1,.98.8V2.813h1.539V15h-1.18l-.234-1.07a2.743,2.743,0,0,1-1.023.922,3.058,3.058,0,0,1-1.414.313,2.9,2.9,0,0,1-2.422-1.121,4.659,4.659,0,0,1-.875-2.949Zm1.539.164a3.588,3.588,0,0,0,.523,2.051,1.828,1.828,0,0,0,1.625.77,2.039,2.039,0,0,0,1.156-.312,2.334,2.334,0,0,0,.766-.875V8.781a2.37,2.37,0,0,0-.77-.832,2.033,2.033,0,0,0-1.137-.309,1.759,1.759,0,0,0-1.637.914,4.718,4.718,0,0,0-.527,2.375Zm15.109,0a4.659,4.659,0,0,1-.875,2.949,2.893,2.893,0,0,1-2.414,1.121A3.354,3.354,0,0,1,63.4,14.9a2.622,2.622,0,0,1-1-.785V18.25H60.859V6.547h1.18l.242,1.094a2.792,2.792,0,0,1,1.031-.93,3.078,3.078,0,0,1,1.438-.32,2.809,2.809,0,0,1,2.441,1.246,5.638,5.638,0,0,1,.871,3.293Zm-1.539-.164a4.467,4.467,0,0,0-.566-2.363,1.835,1.835,0,0,0-1.668-.926,2.054,2.054,0,0,0-1.133.3,2.25,2.25,0,0,0-.758.824v4.086a2.186,2.186,0,0,0,.758.816,2.126,2.126,0,0,0,1.148.293,1.894,1.894,0,0,0,1.656-.8,3.516,3.516,0,0,0,.563-2.066ZM71.617,15H70.078V2.813h1.539Zm4.953-3.133.273,1.063h.047l2.078-6.383H80.68L77.125,16.3a4.383,4.383,0,0,1-.918,1.484,2.113,2.113,0,0,1-1.613.633,3.363,3.363,0,0,1-.477-.043q-.289-.043-.445-.082l.156-1.211a2.062,2.062,0,0,1,.277.016q.324.023.41.023a.95.95,0,0,0,.8-.437,4.542,4.542,0,0,0,.523-.969l.367-.883L73.07,6.547h1.719Zm9.461-3.961-.789-.047a1.762,1.762,0,0,0-1.027.289,1.854,1.854,0,0,0-.645.813V15H82.031V6.547h1.375l.148,1.234a2.934,2.934,0,0,1,.887-1.023,2.073,2.073,0,0,1,1.215-.367,1.9,1.9,0,0,1,.328.027,2.175,2.175,0,0,1,.258.059Zm4.727,2.547a10.426,10.426,0,0,1-1.246,5.262,7.244,7.244,0,0,1-2.605,2.9h-.047l-.3-.844a6.653,6.653,0,0,0,1.855-2.7,11.749,11.749,0,0,0,.8-4.605v-.1a11.354,11.354,0,0,0-.824-4.559,7.532,7.532,0,0,0-1.832-2.746l.3-.844h.047a7.241,7.241,0,0,1,2.605,2.906,10.431,10.431,0,0,1,1.246,5.258ZM.766,34.93a5.641,5.641,0,0,1,.871-3.289,2.807,2.807,0,0,1,2.441-1.25,3.027,3.027,0,0,1,1.316.273,2.7,2.7,0,0,1,.98.8V26.813H7.914V39H6.734L6.5,37.93a2.743,2.743,0,0,1-1.023.922,3.058,3.058,0,0,1-1.414.313,2.9,2.9,0,0,1-2.422-1.121,4.659,4.659,0,0,1-.875-2.949Zm1.539.164a3.588,3.588,0,0,0,.523,2.051,1.828,1.828,0,0,0,1.625.77A2.039,2.039,0,0,0,5.609,37.6a2.334,2.334,0,0,0,.766-.875V32.781a2.37,2.37,0,0,0-.77-.832,2.033,2.033,0,0,0-1.137-.309,1.759,1.759,0,0,0-1.637.914A4.718,4.718,0,0,0,2.3,34.93ZM15.406,39q-.078-.383-.121-.676a4.96,4.96,0,0,1-.051-.59,3.589,3.589,0,0,1-1.121,1.02,2.867,2.867,0,0,1-1.488.41,2.763,2.763,0,0,1-2.012-.676,2.486,2.486,0,0,1-.691-1.863,2.183,2.183,0,0,1,.98-1.895,4.579,4.579,0,0,1,2.66-.684h1.672v-.836a1.551,1.551,0,0,0-.453-1.176A1.779,1.779,0,0,0,13.5,31.6a1.859,1.859,0,0,0-1.211.375,1.125,1.125,0,0,0-.461.9l-1.461.016-.016-.047a2.023,2.023,0,0,1,.863-1.687,3.578,3.578,0,0,1,2.371-.766,3.49,3.49,0,0,1,2.313.73,2.588,2.588,0,0,1,.875,2.105V37.3a7.923,7.923,0,0,0,.047.875,4.5,4.5,0,0,0,.172.828Zm-2.555-1.125a2.739,2.739,0,0,0,1.508-.43,2.042,2.042,0,0,0,.875-.984V35.086H13.508a2.24,2.24,0,0,0-1.488.469,1.4,1.4,0,0,0-.559,1.1,1.159,1.159,0,0,0,.352.891A1.472,1.472,0,0,0,12.852,37.875Zm8.3-9.367v2.039h1.6v1.141h-1.6V36.82a1.149,1.149,0,0,0,.246.836.89.89,0,0,0,.652.242,1.429,1.429,0,0,0,.3-.035,2.2,2.2,0,0,0,.273-.074l.211,1.055a1.36,1.36,0,0,1-.508.23,2.562,2.562,0,0,1-.664.09,1.993,1.993,0,0,1-1.492-.566,2.46,2.46,0,0,1-.555-1.777V31.688H18.266V30.547h1.344V28.508ZM24.039,34.7a4.654,4.654,0,0,1,1.016-3.09,3.406,3.406,0,0,1,2.758-1.215A3.439,3.439,0,0,1,30.59,31.6a4.639,4.639,0,0,1,1.02,3.094v.172a4.631,4.631,0,0,1-1.016,3.094,3.429,3.429,0,0,1-2.766,1.2,3.436,3.436,0,0,1-2.77-1.207,4.623,4.623,0,0,1-1.02-3.09Zm1.539.172a4.009,4.009,0,0,0,.566,2.219,2.046,2.046,0,0,0,3.355,0,3.988,3.988,0,0,0,.57-2.219V34.7a3.976,3.976,0,0,0-.574-2.211,1.882,1.882,0,0,0-1.684-.883,1.856,1.856,0,0,0-1.668.883,4.018,4.018,0,0,0-.566,2.211Zm12.828,1.859a1.026,1.026,0,0,0-.387-.828,3.732,3.732,0,0,0-1.465-.562,6.146,6.146,0,0,1-2.293-.9,1.814,1.814,0,0,1-.8-1.547,2.229,2.229,0,0,1,.879-1.766,3.879,3.879,0,0,1,4.605.047,2.239,2.239,0,0,1,.852,1.82l-.016.047H38.313a1.331,1.331,0,0,0-.48-.992,1.717,1.717,0,0,0-1.215-.445,1.751,1.751,0,0,0-1.215.367,1.146,1.146,0,0,0-.4.875.927.927,0,0,0,.348.773,3.848,3.848,0,0,0,1.434.5,6.058,6.058,0,0,1,2.359.93,1.872,1.872,0,0,1,.8,1.57,2.226,2.226,0,0,1-.91,1.836,3.754,3.754,0,0,1-2.379.711,3.715,3.715,0,0,1-2.547-.82,2.341,2.341,0,0,1-.883-1.914l.016-.047h1.469a1.424,1.424,0,0,0,.609,1.2,2.358,2.358,0,0,0,1.336.379,2.1,2.1,0,0,0,1.285-.348A1.063,1.063,0,0,0,38.406,36.727Zm8.875-2.25-.664.141v.047l.664.148,4.367,1.781v1.57L45.273,35.2V34.039l6.375-2.953v1.57Zm11.477.32H54.148v-1.2h4.609Zm6.039.133a5.641,5.641,0,0,1,.871-3.289,2.807,2.807,0,0,1,2.441-1.25,3.027,3.027,0,0,1,1.316.273,2.7,2.7,0,0,1,.98.8V26.813h1.539V39h-1.18l-.234-1.07a2.743,2.743,0,0,1-1.023.922,3.058,3.058,0,0,1-1.414.313,2.9,2.9,0,0,1-2.422-1.121,4.659,4.659,0,0,1-.875-2.949Zm1.539.164a3.588,3.588,0,0,0,.523,2.051,1.828,1.828,0,0,0,1.625.77,2.039,2.039,0,0,0,1.156-.312,2.334,2.334,0,0,0,.766-.875V32.781a2.37,2.37,0,0,0-.77-.832,2.033,2.033,0,0,0-1.137-.309,1.759,1.759,0,0,0-1.637.914,4.718,4.718,0,0,0-.527,2.375ZM79.438,39q-.078-.383-.121-.676a4.96,4.96,0,0,1-.051-.59,3.589,3.589,0,0,1-1.121,1.02,2.867,2.867,0,0,1-1.488.41,2.763,2.763,0,0,1-2.012-.676,2.486,2.486,0,0,1-.691-1.863,2.183,2.183,0,0,1,.98-1.895,4.579,4.579,0,0,1,2.66-.684h1.672v-.836a1.551,1.551,0,0,0-.453-1.176,1.779,1.779,0,0,0-1.281-.434,1.859,1.859,0,0,0-1.211.375,1.125,1.125,0,0,0-.461.9l-1.461.016-.016-.047a2.023,2.023,0,0,1,.863-1.687,3.578,3.578,0,0,1,2.371-.766,3.49,3.49,0,0,1,2.313.73,2.588,2.588,0,0,1,.875,2.105V37.3a7.923,7.923,0,0,0,.047.875,4.5,4.5,0,0,0,.172.828Zm-2.555-1.125a2.739,2.739,0,0,0,1.508-.43,2.042,2.042,0,0,0,.875-.984V35.086H77.539a2.24,2.24,0,0,0-1.488.469,1.4,1.4,0,0,0-.559,1.1,1.159,1.159,0,0,0,.352.891A1.472,1.472,0,0,0,76.883,37.875Zm8.3-9.367v2.039h1.6v1.141h-1.6V36.82a1.149,1.149,0,0,0,.246.836.89.89,0,0,0,.652.242,1.43,1.43,0,0,0,.3-.035,2.2,2.2,0,0,0,.273-.074l.211,1.055a1.36,1.36,0,0,1-.508.23,2.562,2.562,0,0,1-.664.09A1.993,1.993,0,0,1,84.2,38.6a2.46,2.46,0,0,1-.555-1.777V31.688H82.3V30.547h1.344V28.508ZM88.07,34.7a4.654,4.654,0,0,1,1.016-3.09,3.764,3.764,0,0,1,5.535,0,4.639,4.639,0,0,1,1.02,3.094v.172a4.631,4.631,0,0,1-1.016,3.094,3.781,3.781,0,0,1-5.535,0,4.623,4.623,0,0,1-1.02-3.09Zm1.539.172a4.009,4.009,0,0,0,.566,2.219,2.046,2.046,0,0,0,3.355,0,3.988,3.988,0,0,0,.57-2.219V34.7a3.976,3.976,0,0,0-.574-2.211,1.882,1.882,0,0,0-1.684-.883,1.856,1.856,0,0,0-1.668.883,4.018,4.018,0,0,0-.566,2.211Zm12.828,1.859a1.026,1.026,0,0,0-.387-.828,3.732,3.732,0,0,0-1.465-.562,6.146,6.146,0,0,1-2.293-.9,1.814,1.814,0,0,1-.8-1.547,2.229,2.229,0,0,1,.879-1.766,3.879,3.879,0,0,1,4.605.047,2.239,2.239,0,0,1,.852,1.82l-.016.047h-1.469a1.331,1.331,0,0,0-.48-.992,1.717,1.717,0,0,0-1.215-.445,1.751,1.751,0,0,0-1.215.367,1.146,1.146,0,0,0-.4.875.927.927,0,0,0,.348.773,3.848,3.848,0,0,0,1.434.5,6.058,6.058,0,0,1,2.359.93,1.872,1.872,0,0,1,.8,1.57,2.226,2.226,0,0,1-.91,1.836,3.754,3.754,0,0,1-2.379.711,3.715,3.715,0,0,1-2.547-.82,2.341,2.341,0,0,1-.883-1.914l.016-.047h1.469a1.424,1.424,0,0,0,.609,1.2,2.358,2.358,0,0,0,1.336.379,2.1,2.1,0,0,0,1.285-.348A1.063,1.063,0,0,0,102.438,36.727Zm7.125-6.914a2.345,2.345,0,0,1,.641-1.672,2.5,2.5,0,0,1,3.422,0,2.342,2.342,0,0,1,.641,1.676v.6a2.326,2.326,0,0,1-.637,1.664,2.231,2.231,0,0,1-1.7.672,2.276,2.276,0,0,1-1.723-.672,2.311,2.311,0,0,1-.645-1.664Zm1.141.6a1.537,1.537,0,0,0,.316.98,1.089,1.089,0,0,0,.91.4,1.057,1.057,0,0,0,.883-.4,1.546,1.546,0,0,0,.313-.984v-.6a1.57,1.57,0,0,0-.316-.988,1.185,1.185,0,0,0-1.793,0,1.583,1.583,0,0,0-.312.988Zm4.367,5.8a2.332,2.332,0,0,1,.641-1.668,2.5,2.5,0,0,1,3.418,0,2.324,2.324,0,0,1,.645,1.668v.609a2.328,2.328,0,0,1-.641,1.672,2.234,2.234,0,0,1-1.7.672,2.276,2.276,0,0,1-1.723-.672,2.32,2.32,0,0,1-.645-1.672Zm1.141.609a1.549,1.549,0,0,0,.316.988,1.089,1.089,0,0,0,.91.4,1.053,1.053,0,0,0,.883-.4,1.562,1.562,0,0,0,.313-.988v-.609a1.541,1.541,0,0,0-.32-.984,1.184,1.184,0,0,0-1.785,0,1.554,1.554,0,0,0-.316.984Zm-3.883,1.32-.852-.523,5.555-8.891.852.523Zm9.188-5.375V31.242L128.2,34.2v1.164l-6.687,2.961V36.789l4.672-1.859.664-.133V34.75l-.664-.156Zm8.125-2.953a2.345,2.345,0,0,1,.641-1.672,2.5,2.5,0,0,1,3.422,0,2.342,2.342,0,0,1,.641,1.676v.6a2.326,2.326,0,0,1-.637,1.664,2.231,2.231,0,0,1-1.7.672,2.276,2.276,0,0,1-1.723-.672,2.311,2.311,0,0,1-.645-1.664Zm1.141.6a1.537,1.537,0,0,0,.316.98,1.089,1.089,0,0,0,.91.4,1.057,1.057,0,0,0,.883-.4,1.546,1.546,0,0,0,.313-.984v-.6a1.57,1.57,0,0,0-.316-.988,1.185,1.185,0,0,0-1.793,0,1.583,1.583,0,0,0-.312.988Zm4.367,5.8a2.332,2.332,0,0,1,.641-1.668,2.5,2.5,0,0,1,3.418,0,2.324,2.324,0,0,1,.645,1.668v.609a2.328,2.328,0,0,1-.641,1.672,2.234,2.234,0,0,1-1.7.672,2.276,2.276,0,0,1-1.723-.672,2.32,2.32,0,0,1-.645-1.672Zm1.141.609a1.549,1.549,0,0,0,.316.988,1.089,1.089,0,0,0,.91.4,1.053,1.053,0,0,0,.883-.4,1.562,1.562,0,0,0,.313-.988v-.609a1.541,1.541,0,0,0-.32-.984,1.184,1.184,0,0,0-1.785,0,1.554,1.554,0,0,0-.316.984Zm-3.883,1.32-.852-.523,5.555-8.891.852.523ZM10.445,54.547l.109,1.109a2.871,2.871,0,0,1,1.051-.934,3.157,3.157,0,0,1,1.48-.332,2.615,2.615,0,0,1,1.449.391,2.363,2.363,0,0,1,.91,1.172A3.162,3.162,0,0,1,16.5,54.809a2.769,2.769,0,0,1,1.527-.418,2.531,2.531,0,0,1,2.039.887,4.051,4.051,0,0,1,.75,2.668V63H19.281V57.93a2.81,2.81,0,0,0-.43-1.77,1.567,1.567,0,0,0-1.281-.52,1.631,1.631,0,0,0-1.277.547,2.381,2.381,0,0,0-.574,1.383V63H14.172V57.93a2.772,2.772,0,0,0-.441-1.738,1.532,1.532,0,0,0-1.27-.551,2.115,2.115,0,0,0-1.156.289,1.867,1.867,0,0,0-.7.813V63H9.07V54.547Zm17.977,7.2A2.863,2.863,0,0,1,27.4,62.8a2.8,2.8,0,0,1-1.445.367,2.716,2.716,0,0,1-2.156-.883,4.1,4.1,0,0,1-.773-2.75V54.547h1.539v5a3.147,3.147,0,0,0,.4,1.859,1.481,1.481,0,0,0,1.242.508,2.531,2.531,0,0,0,1.355-.332,2.077,2.077,0,0,0,.809-.941V54.547h1.539V63H28.523Zm5.867-9.242v2.039h1.6v1.141h-1.6V60.82a1.149,1.149,0,0,0,.246.836.89.89,0,0,0,.652.242,1.429,1.429,0,0,0,.3-.035,2.2,2.2,0,0,0,.273-.074l.211,1.055a1.36,1.36,0,0,1-.508.23,2.562,2.562,0,0,1-.664.09A1.993,1.993,0,0,1,33.3,62.6a2.46,2.46,0,0,1-.555-1.777V55.688H31.406V54.547H32.75V52.508ZM42.734,63q-.078-.383-.121-.676a4.96,4.96,0,0,1-.051-.59,3.589,3.589,0,0,1-1.121,1.02,2.867,2.867,0,0,1-1.488.41,2.763,2.763,0,0,1-2.012-.676,2.486,2.486,0,0,1-.691-1.863,2.183,2.183,0,0,1,.98-1.895,4.579,4.579,0,0,1,2.66-.684h1.672v-.836a1.551,1.551,0,0,0-.453-1.176,1.779,1.779,0,0,0-1.281-.434,1.859,1.859,0,0,0-1.211.375,1.125,1.125,0,0,0-.461.9l-1.461.016-.016-.047a2.023,2.023,0,0,1,.863-1.687,3.578,3.578,0,0,1,2.371-.766,3.49,3.49,0,0,1,2.313.73,2.588,2.588,0,0,1,.875,2.105V61.3a7.923,7.923,0,0,0,.047.875A4.5,4.5,0,0,0,44.32,63ZM40.18,61.875a2.739,2.739,0,0,0,1.508-.43,2.042,2.042,0,0,0,.875-.984V59.086H40.836a2.24,2.24,0,0,0-1.488.469,1.4,1.4,0,0,0-.559,1.1,1.159,1.159,0,0,0,.352.891A1.472,1.472,0,0,0,40.18,61.875Zm8.3-9.367v2.039h1.6v1.141h-1.6V60.82a1.149,1.149,0,0,0,.246.836.89.89,0,0,0,.652.242,1.429,1.429,0,0,0,.3-.035,2.2,2.2,0,0,0,.273-.074l.211,1.055a1.36,1.36,0,0,1-.508.23,2.562,2.562,0,0,1-.664.09,1.993,1.993,0,0,1-1.492-.566,2.46,2.46,0,0,1-.555-1.777V55.688H45.594V54.547h1.344V52.508Zm6.75,10.656A3.576,3.576,0,0,1,52.387,62a4.48,4.48,0,0,1-1.02-3.062v-.344a4.386,4.386,0,0,1,1.051-3.012,3.3,3.3,0,0,1,2.566-1.191,3.067,3.067,0,0,1,2.543,1.055,4.345,4.345,0,0,1,.848,2.8v.813H52.969l-.023.039a3.494,3.494,0,0,0,.563,2.066,1.965,1.965,0,0,0,1.719.793,3.872,3.872,0,0,0,1.371-.223,3.061,3.061,0,0,0,1.012-.613l.6,1a3.7,3.7,0,0,1-1.2.738A4.762,4.762,0,0,1,55.227,63.164ZM54.984,55.6a1.673,1.673,0,0,0-1.332.621,2.938,2.938,0,0,0-.645,1.59l.016.039h3.813v-.125a2.462,2.462,0,0,0-.453-1.523A1.638,1.638,0,0,0,54.984,55.6Zm5.031,2.781a10.458,10.458,0,0,1,1.242-5.258,7.19,7.19,0,0,1,2.609-2.906l.047.008.3.906a6.665,6.665,0,0,0-1.863,2.68,11.54,11.54,0,0,0-.793,4.555v.1a11.591,11.591,0,0,0,.789,4.555,7.25,7.25,0,0,0,1.867,2.75l-.3.844h-.047a7.193,7.193,0,0,1-2.609-2.9,10.452,10.452,0,0,1-1.242-5.262Zm6.766-3.836.109,1.258a3.069,3.069,0,0,1,1.059-1.043,2.824,2.824,0,0,1,1.449-.371,2.759,2.759,0,0,1,2.117.8,3.515,3.515,0,0,1,.75,2.473V63H70.727V57.7a2.287,2.287,0,0,0-.441-1.586,1.768,1.768,0,0,0-1.348-.469,2.386,2.386,0,0,0-1.207.285,2.072,2.072,0,0,0-.785.8V63H65.406V54.547Zm13.086,7.2A2.863,2.863,0,0,1,78.844,62.8a2.8,2.8,0,0,1-1.445.367,2.716,2.716,0,0,1-2.156-.883,4.1,4.1,0,0,1-.773-2.75V54.547h1.539v5a3.147,3.147,0,0,0,.4,1.859,1.481,1.481,0,0,0,1.242.508A2.531,2.531,0,0,0,79,61.582a2.077,2.077,0,0,0,.809-.941V54.547h1.539V63H79.969Zm7.227,1.414A3.576,3.576,0,0,1,84.254,62a4.48,4.48,0,0,1-1.02-3.062v-.344a4.386,4.386,0,0,1,1.051-3.012,3.3,3.3,0,0,1,2.566-1.191,3.067,3.067,0,0,1,2.543,1.055,4.345,4.345,0,0,1,.848,2.8v.813H84.836l-.023.039a3.494,3.494,0,0,0,.563,2.066,1.965,1.965,0,0,0,1.719.793,3.872,3.872,0,0,0,1.371-.223,3.061,3.061,0,0,0,1.012-.613l.6,1a3.7,3.7,0,0,1-1.2.738A4.762,4.762,0,0,1,87.094,63.164ZM86.852,55.6a1.673,1.673,0,0,0-1.332.621,2.938,2.938,0,0,0-.645,1.59l.016.039H88.7v-.125A2.462,2.462,0,0,0,88.25,56.2,1.638,1.638,0,0,0,86.852,55.6Zm7.836,4.906.133.594h.047l.148-.594,1.945-5.961h1.57L95.422,63H94.258l-3.148-8.453h1.578ZM104.992,63q-.078-.383-.121-.676a4.96,4.96,0,0,1-.051-.59,3.589,3.589,0,0,1-1.121,1.02,2.867,2.867,0,0,1-1.488.41,2.763,2.763,0,0,1-2.012-.676,2.486,2.486,0,0,1-.691-1.863,2.183,2.183,0,0,1,.98-1.895,4.579,4.579,0,0,1,2.66-.684h1.672v-.836a1.551,1.551,0,0,0-.453-1.176,1.779,1.779,0,0,0-1.281-.434,1.859,1.859,0,0,0-1.211.375,1.125,1.125,0,0,0-.461.9l-1.461.016-.016-.047a2.023,2.023,0,0,1,.863-1.687,3.578,3.578,0,0,1,2.371-.766,3.49,3.49,0,0,1,2.313.73,2.588,2.588,0,0,1,.875,2.105V61.3a7.923,7.923,0,0,0,.047.875,4.5,4.5,0,0,0,.172.828Zm-2.555-1.125a2.739,2.739,0,0,0,1.508-.43,2.042,2.042,0,0,0,.875-.984V59.086h-1.727a2.24,2.24,0,0,0-1.488.469,1.4,1.4,0,0,0-.559,1.1,1.159,1.159,0,0,0,.352.891A1.472,1.472,0,0,0,102.438,61.875ZM114.719,64.2h-7.211V63h7.211Zm3.969-3.7.133.594h.047l.148-.594,1.945-5.961h1.57L119.422,63h-1.164l-3.148-8.453h1.578ZM128.992,63q-.078-.383-.121-.676a4.96,4.96,0,0,1-.051-.59,3.588,3.588,0,0,1-1.121,1.02,2.867,2.867,0,0,1-1.488.41,2.763,2.763,0,0,1-2.012-.676,2.486,2.486,0,0,1-.691-1.863,2.183,2.183,0,0,1,.98-1.895,4.579,4.579,0,0,1,2.66-.684h1.672v-.836a1.551,1.551,0,0,0-.453-1.176,1.779,1.779,0,0,0-1.281-.434,1.859,1.859,0,0,0-1.211.375,1.125,1.125,0,0,0-.461.9l-1.461.016-.016-.047a2.023,2.023,0,0,1,.863-1.687,3.578,3.578,0,0,1,2.371-.766,3.49,3.49,0,0,1,2.313.73,2.588,2.588,0,0,1,.875,2.105V61.3a7.923,7.923,0,0,0,.047.875,4.5,4.5,0,0,0,.172.828Zm-2.555-1.125a2.739,2.739,0,0,0,1.508-.43,2.042,2.042,0,0,0,.875-.984V59.086h-1.727a2.24,2.24,0,0,0-1.488.469,1.4,1.4,0,0,0-.559,1.1,1.159,1.159,0,0,0,.352.891A1.472,1.472,0,0,0,126.438,61.875Zm10.156-5.969-.789-.047a1.762,1.762,0,0,0-1.027.289,1.855,1.855,0,0,0-.645.813V63h-1.539V54.547h1.375l.148,1.234A2.934,2.934,0,0,1,135,54.758a2.073,2.073,0,0,1,1.215-.367,1.9,1.9,0,0,1,.328.027,2.175,2.175,0,0,1,.258.059Zm12.164.664h-6.516V55.289h6.516Zm0,3.25h-6.516V58.539h6.516Zm9.219.688.133.594h.047l.148-.594,1.945-5.961h1.57L158.711,63h-1.164L154.4,54.547h1.578ZM168.281,63q-.078-.383-.121-.676a4.96,4.96,0,0,1-.051-.59,3.588,3.588,0,0,1-1.121,1.02,2.867,2.867,0,0,1-1.488.41,2.763,2.763,0,0,1-2.012-.676,2.486,2.486,0,0,1-.691-1.863,2.183,2.183,0,0,1,.98-1.895,4.579,4.579,0,0,1,2.66-.684h1.672v-.836a1.551,1.551,0,0,0-.453-1.176,1.779,1.779,0,0,0-1.281-.434,1.859,1.859,0,0,0-1.211.375,1.125,1.125,0,0,0-.461.9l-1.461.016-.016-.047a2.023,2.023,0,0,1,.863-1.687,3.578,3.578,0,0,1,2.371-.766,3.49,3.49,0,0,1,2.313.73,2.588,2.588,0,0,1,.875,2.105V61.3a7.923,7.923,0,0,0,.047.875,4.5,4.5,0,0,0,.172.828Zm-2.555-1.125a2.739,2.739,0,0,0,1.508-.43,2.042,2.042,0,0,0,.875-.984V59.086h-1.727a2.24,2.24,0,0,0-1.488.469,1.4,1.4,0,0,0-.559,1.1,1.159,1.159,0,0,0,.352.891A1.472,1.472,0,0,0,165.727,61.875Zm10.156-5.969-.789-.047a1.762,1.762,0,0,0-1.027.289,1.855,1.855,0,0,0-.645.813V63h-1.539V54.547h1.375l.148,1.234a2.934,2.934,0,0,1,.887-1.023,2.073,2.073,0,0,1,1.215-.367,1.9,1.9,0,0,1,.328.027,2.175,2.175,0,0,1,.258.059ZM181.914,63h-1.547V53.047l-2.477.023V51.883l4.023-.422Zm8.875.977h-1.312l4.75-12.352h1.3Zm13.117-3.469.133.594h.047l.148-.594,1.945-5.961h1.57L204.641,63h-1.164l-3.148-8.453h1.578ZM214.211,63q-.078-.383-.121-.676a4.96,4.96,0,0,1-.051-.59,3.588,3.588,0,0,1-1.121,1.02,2.867,2.867,0,0,1-1.488.41,2.763,2.763,0,0,1-2.012-.676,2.486,2.486,0,0,1-.691-1.863,2.183,2.183,0,0,1,.98-1.895,4.579,4.579,0,0,1,2.66-.684h1.672v-.836a1.551,1.551,0,0,0-.453-1.176A1.779,1.779,0,0,0,212.3,55.6a1.859,1.859,0,0,0-1.211.375,1.125,1.125,0,0,0-.461.9l-1.461.016-.016-.047a2.023,2.023,0,0,1,.863-1.687,3.578,3.578,0,0,1,2.371-.766,3.49,3.49,0,0,1,2.313.73,2.588,2.588,0,0,1,.875,2.105V61.3a7.923,7.923,0,0,0,.047.875A4.5,4.5,0,0,0,215.8,63Zm-2.555-1.125a2.739,2.739,0,0,0,1.508-.43,2.042,2.042,0,0,0,.875-.984V59.086h-1.727a2.24,2.24,0,0,0-1.488.469,1.4,1.4,0,0,0-.559,1.1,1.159,1.159,0,0,0,.352.891A1.472,1.472,0,0,0,211.656,61.875Zm10.156-5.969-.789-.047a1.762,1.762,0,0,0-1.027.289,1.855,1.855,0,0,0-.645.813V63h-1.539V54.547h1.375l.148,1.234a2.934,2.934,0,0,1,.887-1.023,2.073,2.073,0,0,1,1.215-.367,1.9,1.9,0,0,1,.328.027,2.175,2.175,0,0,1,.258.059ZM230.531,63h-7.062V61.945l3.57-4.258a10.726,10.726,0,0,0,1.293-1.84,3.07,3.07,0,0,0,.34-1.379,1.841,1.841,0,0,0-.461-1.293,1.639,1.639,0,0,0-1.273-.5,1.908,1.908,0,0,0-1.535.617,2.286,2.286,0,0,0-.527,1.539h-1.484l-.016-.047a3.068,3.068,0,0,1,.93-2.355,3.566,3.566,0,0,1,2.633-.965,3.31,3.31,0,0,1,2.4.844,2.894,2.894,0,0,1,.875,2.18,3.476,3.476,0,0,1-.5,1.758A19.613,19.613,0,0,1,228.2,58.4l-2.867,3.359.016.039h5.18Zm5.016-4.547a10.426,10.426,0,0,1-1.246,5.262,7.244,7.244,0,0,1-2.605,2.9h-.047l-.3-.844a6.653,6.653,0,0,0,1.855-2.7,11.749,11.749,0,0,0,.8-4.605v-.1a11.354,11.354,0,0,0-.824-4.559,7.532,7.532,0,0,0-1.832-2.746l.3-.844h.047a7.241,7.241,0,0,1,2.605,2.906,10.431,10.431,0,0,1,1.246,5.258Zm5.914-4.641a2.345,2.345,0,0,1,.641-1.672,2.5,2.5,0,0,1,3.422,0,2.342,2.342,0,0,1,.641,1.676v.6a2.326,2.326,0,0,1-.637,1.664,2.231,2.231,0,0,1-1.7.672,2.276,2.276,0,0,1-1.723-.672,2.311,2.311,0,0,1-.645-1.664Zm1.141.6a1.537,1.537,0,0,0,.316.98,1.089,1.089,0,0,0,.91.4,1.057,1.057,0,0,0,.883-.4,1.546,1.546,0,0,0,.313-.984v-.6a1.57,1.57,0,0,0-.316-.988,1.185,1.185,0,0,0-1.793,0,1.583,1.583,0,0,0-.312.988Zm4.367,5.8a2.332,2.332,0,0,1,.641-1.668,2.5,2.5,0,0,1,3.418,0,2.324,2.324,0,0,1,.645,1.668v.609a2.328,2.328,0,0,1-.641,1.672,2.234,2.234,0,0,1-1.7.672,2.276,2.276,0,0,1-1.723-.672,2.32,2.32,0,0,1-.645-1.672Zm1.141.609a1.549,1.549,0,0,0,.316.988,1.089,1.089,0,0,0,.91.4,1.053,1.053,0,0,0,.883-.4,1.562,1.562,0,0,0,.313-.988v-.609a1.541,1.541,0,0,0-.32-.984,1.184,1.184,0,0,0-1.785,0,1.554,1.554,0,0,0-.316.984Zm-3.883,1.32-.852-.523,5.555-8.891.852.523Zm9.188-5.375V55.242L260.1,58.2v1.164l-6.687,2.961V60.789l4.672-1.859.664-.133V58.75l-.664-.156Zm8.125-2.953a2.345,2.345,0,0,1,.641-1.672,2.5,2.5,0,0,1,3.422,0,2.342,2.342,0,0,1,.641,1.676v.6a2.326,2.326,0,0,1-.637,1.664,2.231,2.231,0,0,1-1.7.672,2.276,2.276,0,0,1-1.723-.672,2.311,2.311,0,0,1-.645-1.664Zm1.141.6a1.537,1.537,0,0,0,.316.98,1.089,1.089,0,0,0,.91.4,1.057,1.057,0,0,0,.883-.4,1.546,1.546,0,0,0,.313-.984v-.6a1.57,1.57,0,0,0-.316-.988,1.185,1.185,0,0,0-1.793,0,1.583,1.583,0,0,0-.312.988Zm4.367,5.8a2.332,2.332,0,0,1,.641-1.668,2.5,2.5,0,0,1,3.418,0,2.324,2.324,0,0,1,.645,1.668v.609a2.328,2.328,0,0,1-.641,1.672,2.234,2.234,0,0,1-1.7.672,2.276,2.276,0,0,1-1.723-.672,2.32,2.32,0,0,1-.645-1.672Zm1.141.609a1.549,1.549,0,0,0,.316.988,1.089,1.089,0,0,0,.91.4,1.053,1.053,0,0,0,.883-.4,1.562,1.562,0,0,0,.313-.988v-.609a1.541,1.541,0,0,0-.32-.984,1.184,1.184,0,0,0-1.785,0,1.554,1.554,0,0,0-.316.984Zm-3.883,1.32-.852-.523,5.555-8.891.852.523ZM285.945,59.8h-1.992l-.625,3.2h-1.18l.625-3.2H280.93V58.7h2.063l.531-2.719h-2V54.875h2.219l.641-3.25h1.18l-.641,3.25h1.992l.641-3.25h1.18l-.641,3.25h1.555v1.109h-1.766l-.531,2.719h1.711V59.8h-1.93l-.625,3.2H285.32ZM284.172,58.7h1.992l.531-2.719H284.7Zm19.6.656.016.047a3.417,3.417,0,0,1-1.125,2.68,4.3,4.3,0,0,1-3.055,1.078,4.012,4.012,0,0,1-3.145-1.367,5.028,5.028,0,0,1-1.215-3.469V56.3a5.043,5.043,0,0,1,1.215-3.473,4.006,4.006,0,0,1,3.145-1.371,4.416,4.416,0,0,1,3.07,1.027,3.4,3.4,0,0,1,1.109,2.723l-.016.047H302.3a2.539,2.539,0,0,0-.7-1.891,2.7,2.7,0,0,0-1.984-.7,2.424,2.424,0,0,0-2.055,1.039,4.227,4.227,0,0,0-.766,2.578v2.039a4.254,4.254,0,0,0,.766,2.594,2.424,2.424,0,0,0,2.055,1.039,2.71,2.71,0,0,0,1.984-.691,2.557,2.557,0,0,0,.7-1.91Zm5.8-3.453-.789-.047a1.762,1.762,0,0,0-1.027.289,1.854,1.854,0,0,0-.645.813V63h-1.539V54.547h1.375l.148,1.234a2.934,2.934,0,0,1,.887-1.023,2.073,2.073,0,0,1,1.215-.367,1.9,1.9,0,0,1,.328.027,2.176,2.176,0,0,1,.258.059Zm4.953,7.258A3.576,3.576,0,0,1,311.691,62a4.48,4.48,0,0,1-1.02-3.062v-.344a4.386,4.386,0,0,1,1.051-3.012,3.3,3.3,0,0,1,2.566-1.191,3.067,3.067,0,0,1,2.543,1.055,4.345,4.345,0,0,1,.848,2.8v.813h-5.406l-.023.039a3.494,3.494,0,0,0,.563,2.066,1.965,1.965,0,0,0,1.719.793,3.872,3.872,0,0,0,1.371-.223,3.061,3.061,0,0,0,1.012-.613l.6,1a3.7,3.7,0,0,1-1.2.738A4.762,4.762,0,0,1,314.531,63.164Zm-.242-7.562a1.673,1.673,0,0,0-1.332.621,2.938,2.938,0,0,0-.645,1.59l.016.039h3.813v-.125a2.461,2.461,0,0,0-.453-1.523A1.638,1.638,0,0,0,314.289,55.6ZM324.6,63q-.078-.383-.121-.676a4.96,4.96,0,0,1-.051-.59,3.589,3.589,0,0,1-1.121,1.02,2.867,2.867,0,0,1-1.488.41,2.763,2.763,0,0,1-2.012-.676,2.486,2.486,0,0,1-.691-1.863,2.183,2.183,0,0,1,.98-1.895,4.579,4.579,0,0,1,2.66-.684h1.672v-.836a1.551,1.551,0,0,0-.453-1.176A1.779,1.779,0,0,0,322.7,55.6a1.859,1.859,0,0,0-1.211.375,1.125,1.125,0,0,0-.461.9l-1.461.016-.016-.047a2.023,2.023,0,0,1,.863-1.687,3.578,3.578,0,0,1,2.371-.766,3.49,3.49,0,0,1,2.313.73,2.588,2.588,0,0,1,.875,2.105V61.3a7.923,7.923,0,0,0,.047.875,4.5,4.5,0,0,0,.172.828Zm-2.555-1.125a2.739,2.739,0,0,0,1.508-.43,2.042,2.042,0,0,0,.875-.984V59.086H322.7a2.24,2.24,0,0,0-1.488.469,1.4,1.4,0,0,0-.559,1.1,1.159,1.159,0,0,0,.352.891A1.472,1.472,0,0,0,322.047,61.875ZM332.2,55.906l-.789-.047a1.762,1.762,0,0,0-1.027.289,1.854,1.854,0,0,0-.645.813V63H328.2V54.547h1.375l.148,1.234a2.934,2.934,0,0,1,.887-1.023,2.073,2.073,0,0,1,1.215-.367,1.9,1.9,0,0,1,.328.027,2.176,2.176,0,0,1,.258.059Zm6.953-1.359.109,1.258a3.069,3.069,0,0,1,1.059-1.043,2.824,2.824,0,0,1,1.449-.371,2.759,2.759,0,0,1,2.117.8,3.515,3.515,0,0,1,.75,2.473V63H343.1V57.7a2.287,2.287,0,0,0-.441-1.586,1.768,1.768,0,0,0-1.348-.469,2.386,2.386,0,0,0-1.207.285,2.073,2.073,0,0,0-.785.8V63h-1.539V54.547Zm13.086,7.2a2.863,2.863,0,0,1-1.023,1.047,2.8,2.8,0,0,1-1.445.367,2.716,2.716,0,0,1-2.156-.883,4.1,4.1,0,0,1-.773-2.75V54.547h1.539v5a3.147,3.147,0,0,0,.4,1.859,1.481,1.481,0,0,0,1.242.508,2.531,2.531,0,0,0,1.355-.332,2.077,2.077,0,0,0,.809-.941V54.547h1.539V63h-1.383Zm7.227,1.414A3.576,3.576,0,0,1,356.629,62a4.48,4.48,0,0,1-1.02-3.062v-.344a4.386,4.386,0,0,1,1.051-3.012,3.3,3.3,0,0,1,2.566-1.191,3.067,3.067,0,0,1,2.543,1.055,4.345,4.345,0,0,1,.848,2.8v.813h-5.406l-.023.039a3.494,3.494,0,0,0,.563,2.066,1.965,1.965,0,0,0,1.719.793,3.872,3.872,0,0,0,1.371-.223,3.061,3.061,0,0,0,1.012-.613l.6,1a3.7,3.7,0,0,1-1.2.738A4.762,4.762,0,0,1,359.469,63.164Zm-.242-7.562a1.673,1.673,0,0,0-1.332.621,2.938,2.938,0,0,0-.645,1.59l.016.039h3.813v-.125a2.461,2.461,0,0,0-.453-1.523A1.638,1.638,0,0,0,359.227,55.6Zm7.836,4.906.133.594h.047l.148-.594,1.945-5.961h1.57L367.8,63h-1.164l-3.148-8.453h1.578ZM377.367,63q-.078-.383-.121-.676a4.96,4.96,0,0,1-.051-.59,3.589,3.589,0,0,1-1.121,1.02,2.867,2.867,0,0,1-1.488.41,2.763,2.763,0,0,1-2.012-.676,2.486,2.486,0,0,1-.691-1.863,2.183,2.183,0,0,1,.98-1.895,4.579,4.579,0,0,1,2.66-.684H377.2v-.836a1.551,1.551,0,0,0-.453-1.176,1.779,1.779,0,0,0-1.281-.434,1.859,1.859,0,0,0-1.211.375,1.125,1.125,0,0,0-.461.9l-1.461.016-.016-.047a2.023,2.023,0,0,1,.863-1.687,3.578,3.578,0,0,1,2.371-.766,3.49,3.49,0,0,1,2.313.73,2.588,2.588,0,0,1,.875,2.105V61.3a7.923,7.923,0,0,0,.047.875,4.5,4.5,0,0,0,.172.828Zm-2.555-1.125a2.739,2.739,0,0,0,1.508-.43,2.042,2.042,0,0,0,.875-.984V59.086h-1.727a2.24,2.24,0,0,0-1.488.469,1.4,1.4,0,0,0-.559,1.1,1.159,1.159,0,0,0,.352.891A1.472,1.472,0,0,0,374.813,61.875Zm12.953-1.367.133.594h.047l.148-.594,1.945-5.961h1.57L388.5,63h-1.164l-3.148-8.453h1.578ZM398.07,63q-.078-.383-.121-.676a4.96,4.96,0,0,1-.051-.59,3.589,3.589,0,0,1-1.121,1.02,2.867,2.867,0,0,1-1.488.41,2.763,2.763,0,0,1-2.012-.676,2.486,2.486,0,0,1-.691-1.863,2.183,2.183,0,0,1,.98-1.895,4.579,4.579,0,0,1,2.66-.684H397.9v-.836a1.551,1.551,0,0,0-.453-1.176,1.779,1.779,0,0,0-1.281-.434,1.859,1.859,0,0,0-1.211.375,1.125,1.125,0,0,0-.461.9l-1.461.016-.016-.047a2.023,2.023,0,0,1,.863-1.687,3.578,3.578,0,0,1,2.371-.766,3.49,3.49,0,0,1,2.313.73,2.588,2.588,0,0,1,.875,2.105V61.3a7.923,7.923,0,0,0,.047.875,4.5,4.5,0,0,0,.172.828Zm-2.555-1.125a2.739,2.739,0,0,0,1.508-.43,2.042,2.042,0,0,0,.875-.984V59.086h-1.727a2.24,2.24,0,0,0-1.488.469,1.4,1.4,0,0,0-.559,1.1,1.159,1.159,0,0,0,.352.891A1.472,1.472,0,0,0,395.516,61.875Zm10.156-5.969-.789-.047a1.762,1.762,0,0,0-1.027.289,1.854,1.854,0,0,0-.645.813V63h-1.539V54.547h1.375l.148,1.234a2.934,2.934,0,0,1,.887-1.023,2.073,2.073,0,0,1,1.215-.367,1.9,1.9,0,0,1,.328.027,2.176,2.176,0,0,1,.258.059ZM408.938,63H407.4V54.547h1.539Zm0-10.617H407.4v-1.57h1.539ZM416.5,63q-.078-.383-.121-.676a4.96,4.96,0,0,1-.051-.59,3.589,3.589,0,0,1-1.121,1.02,2.867,2.867,0,0,1-1.488.41,2.763,2.763,0,0,1-2.012-.676,2.486,2.486,0,0,1-.691-1.863A2.183,2.183,0,0,1,412,58.73a4.579,4.579,0,0,1,2.66-.684h1.672v-.836a1.551,1.551,0,0,0-.453-1.176,1.779,1.779,0,0,0-1.281-.434,1.859,1.859,0,0,0-1.211.375,1.125,1.125,0,0,0-.461.9l-1.461.016-.016-.047a2.023,2.023,0,0,1,.863-1.687,3.578,3.578,0,0,1,2.371-.766,3.49,3.49,0,0,1,2.313.73,2.588,2.588,0,0,1,.875,2.105V61.3a7.923,7.923,0,0,0,.047.875,4.5,4.5,0,0,0,.172.828Zm-2.555-1.125a2.739,2.739,0,0,0,1.508-.43,2.042,2.042,0,0,0,.875-.984V59.086H414.6a2.24,2.24,0,0,0-1.488.469,1.4,1.4,0,0,0-.559,1.1,1.159,1.159,0,0,0,.352.891A1.472,1.472,0,0,0,413.945,61.875Zm13.375-2.781a4.645,4.645,0,0,1-.879,2.949,2.9,2.9,0,0,1-2.418,1.121,3.064,3.064,0,0,1-1.465-.332,2.719,2.719,0,0,1-1.027-.98L421.281,63H420.1V50.813h1.539v4.734a2.671,2.671,0,0,1,.988-.859,3.03,3.03,0,0,1,1.379-.3,2.809,2.809,0,0,1,2.438,1.25,5.622,5.622,0,0,1,.875,3.289Zm-1.539-.164a4.666,4.666,0,0,0-.535-2.371,1.762,1.762,0,0,0-1.629-.918,2.014,2.014,0,0,0-1.2.348,2.452,2.452,0,0,0-.777.934v3.664a2.517,2.517,0,0,0,.777.977,2,2,0,0,0,1.215.352,1.829,1.829,0,0,0,1.617-.773,3.552,3.552,0,0,0,.531-2.047ZM430.859,63H429.32V50.813h1.539Zm5.867.164A3.576,3.576,0,0,1,433.887,62a4.48,4.48,0,0,1-1.02-3.062v-.344a4.386,4.386,0,0,1,1.051-3.012,3.3,3.3,0,0,1,2.566-1.191,3.067,3.067,0,0,1,2.543,1.055,4.345,4.345,0,0,1,.848,2.8v.813h-5.406l-.023.039a3.494,3.494,0,0,0,.563,2.066,1.965,1.965,0,0,0,1.719.793,3.872,3.872,0,0,0,1.371-.223,3.061,3.061,0,0,0,1.012-.613l.6,1a3.7,3.7,0,0,1-1.2.738A4.762,4.762,0,0,1,436.727,63.164Zm-.242-7.562a1.673,1.673,0,0,0-1.332.621,2.938,2.938,0,0,0-.645,1.59l.016.039h3.813v-.125a2.461,2.461,0,0,0-.453-1.523A1.638,1.638,0,0,0,436.484,55.6ZM9.5,87V79.688H8.172V78.547H9.5v-.914a2.875,2.875,0,0,1,.832-2.2,3.24,3.24,0,0,1,2.309-.781,4.431,4.431,0,0,1,1.031.121q.508.121,1.2.355l-.266,1.25a7.011,7.011,0,0,0-.883-.281,3.947,3.947,0,0,0-.961-.117,1.8,1.8,0,0,0-1.316.406,1.713,1.713,0,0,0-.4,1.25v.914h1.68v1.141h-1.68V87Zm6.117,0H14.07V78.547h1.547Zm4.023,0H18.1V74.813h1.539Zm4.508-10.492v2.039h1.6v1.141h-1.6V84.82a1.149,1.149,0,0,0,.246.836.89.89,0,0,0,.652.242,1.429,1.429,0,0,0,.3-.035,2.2,2.2,0,0,0,.273-.074l.211,1.055a1.36,1.36,0,0,1-.508.23,2.562,2.562,0,0,1-.664.09,1.993,1.993,0,0,1-1.492-.566,2.46,2.46,0,0,1-.555-1.777V79.688H21.266V78.547h1.344V76.508ZM30.9,87.164A3.576,3.576,0,0,1,28.059,86a4.48,4.48,0,0,1-1.02-3.062v-.344a4.386,4.386,0,0,1,1.051-3.012,3.3,3.3,0,0,1,2.566-1.191A3.067,3.067,0,0,1,33.2,79.445a4.345,4.345,0,0,1,.848,2.8v.813H28.641l-.023.039a3.494,3.494,0,0,0,.563,2.066,1.965,1.965,0,0,0,1.719.793,3.872,3.872,0,0,0,1.371-.223,3.061,3.061,0,0,0,1.012-.613l.6,1a3.7,3.7,0,0,1-1.2.738A4.762,4.762,0,0,1,30.9,87.164ZM30.656,79.6a1.673,1.673,0,0,0-1.332.621,2.938,2.938,0,0,0-.645,1.59l.016.039h3.813v-.125a2.462,2.462,0,0,0-.453-1.523A1.638,1.638,0,0,0,30.656,79.6Zm9.117.3-.789-.047a1.762,1.762,0,0,0-1.027.289,1.855,1.855,0,0,0-.645.813V87H35.773V78.547h1.375l.148,1.234a2.934,2.934,0,0,1,.887-1.023,2.073,2.073,0,0,1,1.215-.367,1.9,1.9,0,0,1,.328.027,2.173,2.173,0,0,1,.258.059Zm1.516,2.477a10.457,10.457,0,0,1,1.242-5.258,7.19,7.19,0,0,1,2.609-2.906l.047.008.3.906a6.665,6.665,0,0,0-1.863,2.68,11.54,11.54,0,0,0-.793,4.555v.1a11.591,11.591,0,0,0,.789,4.555,7.25,7.25,0,0,0,1.867,2.75l-.3.844h-.047a7.193,7.193,0,0,1-2.609-2.9,10.452,10.452,0,0,1-1.242-5.262Zm7.148.883H46.9V75.625h1.539ZM48.445,87H46.9V85.406h1.547Zm4.109,0H51.016V78.547h1.539Zm0-10.617H51.016v-1.57h1.539Zm7.281,8.344a1.026,1.026,0,0,0-.387-.828,3.733,3.733,0,0,0-1.465-.562,6.146,6.146,0,0,1-2.293-.9,1.814,1.814,0,0,1-.8-1.547,2.229,2.229,0,0,1,.879-1.766,3.879,3.879,0,0,1,4.605.047,2.239,2.239,0,0,1,.852,1.82l-.016.047H59.742a1.331,1.331,0,0,0-.48-.992,1.717,1.717,0,0,0-1.215-.445,1.751,1.751,0,0,0-1.215.367,1.146,1.146,0,0,0-.4.875.927.927,0,0,0,.348.773,3.848,3.848,0,0,0,1.434.5,6.058,6.058,0,0,1,2.359.93,1.872,1.872,0,0,1,.8,1.57,2.226,2.226,0,0,1-.91,1.836,3.754,3.754,0,0,1-2.379.711,3.715,3.715,0,0,1-2.547-.82,2.341,2.341,0,0,1-.883-1.914l.016-.047h1.469a1.424,1.424,0,0,0,.609,1.2,2.358,2.358,0,0,0,1.336.379,2.1,2.1,0,0,0,1.285-.348A1.063,1.063,0,0,0,59.836,84.727ZM64.969,87H63.43V85.422h1.539Zm3.977-8.453.109,1.258a3.069,3.069,0,0,1,1.059-1.043,2.824,2.824,0,0,1,1.449-.371,2.759,2.759,0,0,1,2.117.8,3.515,3.515,0,0,1,.75,2.473V87H72.891V81.7a2.287,2.287,0,0,0-.441-1.586,1.768,1.768,0,0,0-1.348-.469,2.386,2.386,0,0,0-1.207.285,2.072,2.072,0,0,0-.785.8V87H67.57V78.547ZM81.859,87q-.078-.383-.121-.676a4.96,4.96,0,0,1-.051-.59,3.589,3.589,0,0,1-1.121,1.02,2.867,2.867,0,0,1-1.488.41,2.763,2.763,0,0,1-2.012-.676,2.486,2.486,0,0,1-.691-1.863,2.183,2.183,0,0,1,.98-1.895,4.579,4.579,0,0,1,2.66-.684h1.672v-.836a1.551,1.551,0,0,0-.453-1.176,1.779,1.779,0,0,0-1.281-.434,1.859,1.859,0,0,0-1.211.375,1.125,1.125,0,0,0-.461.9l-1.461.016-.016-.047a2.023,2.023,0,0,1,.863-1.687,3.578,3.578,0,0,1,2.371-.766,3.49,3.49,0,0,1,2.313.73,2.588,2.588,0,0,1,.875,2.105V85.3a7.923,7.923,0,0,0,.047.875,4.5,4.5,0,0,0,.172.828ZM79.3,85.875a2.739,2.739,0,0,0,1.508-.43,2.042,2.042,0,0,0,.875-.984V83.086H79.961a2.24,2.24,0,0,0-1.488.469,1.4,1.4,0,0,0-.559,1.1,1.159,1.159,0,0,0,.352.891A1.472,1.472,0,0,0,79.3,85.875Zm6.07-3.492a10.457,10.457,0,0,1,1.242-5.258,7.19,7.19,0,0,1,2.609-2.906l.047.008.3.906a6.665,6.665,0,0,0-1.863,2.68,11.54,11.54,0,0,0-.793,4.555v.1a11.591,11.591,0,0,0,.789,4.555,7.25,7.25,0,0,0,1.867,2.75l-.3.844h-.047a7.193,7.193,0,0,1-2.609-2.9,10.452,10.452,0,0,1-1.242-5.262Zm8.211,2.125.133.594h.047l.148-.594,1.945-5.961h1.57L94.32,87H93.156l-3.148-8.453h1.578ZM103.891,87q-.078-.383-.121-.676a4.96,4.96,0,0,1-.051-.59,3.589,3.589,0,0,1-1.121,1.02,2.867,2.867,0,0,1-1.488.41,2.763,2.763,0,0,1-2.012-.676,2.486,2.486,0,0,1-.691-1.863,2.183,2.183,0,0,1,.98-1.895,4.579,4.579,0,0,1,2.66-.684h1.672v-.836a1.551,1.551,0,0,0-.453-1.176,1.779,1.779,0,0,0-1.281-.434,1.859,1.859,0,0,0-1.211.375,1.125,1.125,0,0,0-.461.9l-1.461.016-.016-.047a2.023,2.023,0,0,1,.863-1.687,3.578,3.578,0,0,1,2.371-.766,3.49,3.49,0,0,1,2.313.73,2.588,2.588,0,0,1,.875,2.105V85.3a7.923,7.923,0,0,0,.047.875,4.5,4.5,0,0,0,.172.828Zm-2.555-1.125a2.739,2.739,0,0,0,1.508-.43,2.042,2.042,0,0,0,.875-.984V83.086h-1.727a2.24,2.24,0,0,0-1.488.469,1.4,1.4,0,0,0-.559,1.1,1.159,1.159,0,0,0,.352.891A1.472,1.472,0,0,0,101.336,85.875Zm10.156-5.969-.789-.047a1.762,1.762,0,0,0-1.027.289,1.854,1.854,0,0,0-.645.813V87h-1.539V78.547h1.375l.148,1.234a2.934,2.934,0,0,1,.887-1.023,2.073,2.073,0,0,1,1.215-.367,1.9,1.9,0,0,1,.328.027,2.174,2.174,0,0,1,.258.059Zm5.008.625a1.8,1.8,0,0,0,1.457-.512,2.179,2.179,0,0,0,.426-1.434,2.02,2.02,0,0,0-.465-1.387,1.741,1.741,0,0,0-1.379-.527,2.057,2.057,0,0,0-1.473.551,1.819,1.819,0,0,0-.582,1.379h-1.469l-.023-.047a2.718,2.718,0,0,1,.969-2.187,3.709,3.709,0,0,1,2.578-.906,3.6,3.6,0,0,1,2.484.8,2.991,2.991,0,0,1,.9,2.355,2.65,2.65,0,0,1-.418,1.453,2.818,2.818,0,0,1-1.168,1.023,2.688,2.688,0,0,1,1.309,1.043,3.063,3.063,0,0,1,.449,1.691,3.122,3.122,0,0,1-.988,2.449,3.7,3.7,0,0,1-2.566.887,4.064,4.064,0,0,1-2.559-.855,2.62,2.62,0,0,1-1.066-2.262L112.93,84H114.4a1.846,1.846,0,0,0,.6,1.395,2.152,2.152,0,0,0,1.543.566,1.914,1.914,0,0,0,1.477-.582,2.147,2.147,0,0,0,.539-1.52,2.273,2.273,0,0,0-.5-1.6,2.041,2.041,0,0,0-1.559-.531h-1.266v-1.2Zm8.727,1.922a10.426,10.426,0,0,1-1.246,5.262,7.244,7.244,0,0,1-2.605,2.9h-.047l-.3-.844a6.653,6.653,0,0,0,1.855-2.7,11.749,11.749,0,0,0,.8-4.605v-.1a11.354,11.354,0,0,0-.824-4.559,7.532,7.532,0,0,0-1.832-2.746l.3-.844h.047a7.241,7.241,0,0,1,2.605,2.906,10.431,10.431,0,0,1,1.246,5.258Zm5.367,0a10.426,10.426,0,0,1-1.246,5.262,7.244,7.244,0,0,1-2.605,2.9H126.7l-.3-.844a6.653,6.653,0,0,0,1.855-2.7,11.749,11.749,0,0,0,.8-4.605v-.1a11.354,11.354,0,0,0-.824-4.559,7.532,7.532,0,0,0-1.832-2.746l.3-.844h.047a7.241,7.241,0,0,1,2.605,2.906,10.431,10.431,0,0,1,1.246,5.258Zm5.914-4.641a2.345,2.345,0,0,1,.641-1.672,2.5,2.5,0,0,1,3.422,0,2.342,2.342,0,0,1,.641,1.676v.6a2.326,2.326,0,0,1-.637,1.664,2.231,2.231,0,0,1-1.7.672,2.276,2.276,0,0,1-1.723-.672,2.31,2.31,0,0,1-.645-1.664Zm1.141.6a1.537,1.537,0,0,0,.316.98,1.089,1.089,0,0,0,.91.4,1.057,1.057,0,0,0,.883-.4,1.546,1.546,0,0,0,.313-.984v-.6a1.57,1.57,0,0,0-.316-.988,1.185,1.185,0,0,0-1.793,0,1.583,1.583,0,0,0-.312.988Zm4.367,5.8a2.332,2.332,0,0,1,.641-1.668,2.5,2.5,0,0,1,3.418,0,2.324,2.324,0,0,1,.645,1.668v.609a2.328,2.328,0,0,1-.641,1.672,2.234,2.234,0,0,1-1.7.672,2.276,2.276,0,0,1-1.723-.672,2.32,2.32,0,0,1-.645-1.672Zm1.141.609a1.549,1.549,0,0,0,.316.988,1.089,1.089,0,0,0,.91.4,1.053,1.053,0,0,0,.883-.4,1.562,1.562,0,0,0,.313-.988v-.609a1.541,1.541,0,0,0-.32-.984,1.184,1.184,0,0,0-1.785,0,1.554,1.554,0,0,0-.316.984Zm-3.883,1.32-.852-.523,5.555-8.891.852.523Zm9.188-5.375V79.242l6.688,2.953v1.164l-6.687,2.961V84.789l4.672-1.859.664-.133V82.75l-.664-.156Zm8.125-2.953a2.345,2.345,0,0,1,.641-1.672,2.5,2.5,0,0,1,3.422,0,2.342,2.342,0,0,1,.641,1.676v.6a2.326,2.326,0,0,1-.637,1.664,2.231,2.231,0,0,1-1.7.672,2.276,2.276,0,0,1-1.723-.672,2.31,2.31,0,0,1-.645-1.664Zm1.141.6a1.537,1.537,0,0,0,.316.98,1.089,1.089,0,0,0,.91.4,1.057,1.057,0,0,0,.883-.4,1.546,1.546,0,0,0,.313-.984v-.6a1.57,1.57,0,0,0-.316-.988,1.185,1.185,0,0,0-1.793,0,1.583,1.583,0,0,0-.312.988Zm4.367,5.8a2.332,2.332,0,0,1,.641-1.668,2.5,2.5,0,0,1,3.418,0,2.324,2.324,0,0,1,.645,1.668v.609a2.328,2.328,0,0,1-.641,1.672,2.234,2.234,0,0,1-1.7.672,2.276,2.276,0,0,1-1.723-.672,2.32,2.32,0,0,1-.645-1.672Zm1.141.609a1.549,1.549,0,0,0,.316.988,1.089,1.089,0,0,0,.91.4,1.053,1.053,0,0,0,.883-.4,1.562,1.562,0,0,0,.313-.988v-.609a1.541,1.541,0,0,0-.32-.984,1.184,1.184,0,0,0-1.785,0,1.554,1.554,0,0,0-.316.984Zm-3.883,1.32-.852-.523,5.555-8.891.852.523ZM180.992,83.8H179l-.625,3.2H177.2l.625-3.2h-1.844V82.7h2.063l.531-2.719h-2V78.875h2.219l.641-3.25h1.18l-.641,3.25h1.992l.641-3.25h1.18l-.641,3.25H184.7v1.109H182.93L182.4,82.7h1.711V83.8h-1.93l-.625,3.2h-1.187ZM179.219,82.7h1.992l.531-2.719H179.75Zm17.7-.977h-4.672V85.8h5.469V87H190.7V75.625h6.922v1.211h-5.383v3.68h4.672ZM200.984,87h-1.539V74.813h1.539Zm4.031,0h-1.539V78.547h1.539Zm0-10.617h-1.539v-1.57h1.539Zm3.742,2.164.109,1.109a2.871,2.871,0,0,1,1.051-.934,3.158,3.158,0,0,1,1.48-.332,2.615,2.615,0,0,1,1.449.391,2.363,2.363,0,0,1,.91,1.172,3.162,3.162,0,0,1,1.059-1.145,2.769,2.769,0,0,1,1.527-.418,2.531,2.531,0,0,1,2.039.887,4.051,4.051,0,0,1,.75,2.668V87h-1.539V81.93a2.81,2.81,0,0,0-.43-1.77,1.567,1.567,0,0,0-1.281-.52,1.631,1.631,0,0,0-1.277.547,2.381,2.381,0,0,0-.574,1.383V87h-1.547V81.93a2.772,2.772,0,0,0-.441-1.738,1.532,1.532,0,0,0-1.27-.551,2.115,2.115,0,0,0-1.156.289,1.867,1.867,0,0,0-.7.813V87h-1.539V78.547ZM223.031,87h-1.539V78.547h1.539Zm0-10.617h-1.539v-1.57h1.539Zm3.742,2.164.109,1.258a3.069,3.069,0,0,1,1.059-1.043,2.824,2.824,0,0,1,1.449-.371,2.759,2.759,0,0,1,2.117.8,3.515,3.515,0,0,1,.75,2.473V87h-1.539V81.7a2.287,2.287,0,0,0-.441-1.586,1.768,1.768,0,0,0-1.348-.469,2.386,2.386,0,0,0-1.207.285,2.072,2.072,0,0,0-.785.8V87H225.4V78.547ZM239.688,87q-.078-.383-.121-.676a4.96,4.96,0,0,1-.051-.59,3.588,3.588,0,0,1-1.121,1.02,2.867,2.867,0,0,1-1.488.41,2.763,2.763,0,0,1-2.012-.676,2.486,2.486,0,0,1-.691-1.863,2.183,2.183,0,0,1,.98-1.895,4.579,4.579,0,0,1,2.66-.684h1.672v-.836a1.551,1.551,0,0,0-.453-1.176,1.779,1.779,0,0,0-1.281-.434,1.859,1.859,0,0,0-1.211.375,1.125,1.125,0,0,0-.461.9l-1.461.016-.016-.047a2.023,2.023,0,0,1,.863-1.687,3.578,3.578,0,0,1,2.371-.766,3.49,3.49,0,0,1,2.313.73,2.588,2.588,0,0,1,.875,2.105V85.3a7.923,7.923,0,0,0,.047.875,4.5,4.5,0,0,0,.172.828Zm-2.555-1.125a2.739,2.739,0,0,0,1.508-.43,2.042,2.042,0,0,0,.875-.984V83.086h-1.727a2.24,2.24,0,0,0-1.488.469,1.4,1.4,0,0,0-.559,1.1,1.159,1.159,0,0,0,.352.891A1.472,1.472,0,0,0,237.133,85.875Zm10.156-5.969-.789-.047a1.762,1.762,0,0,0-1.027.289,1.855,1.855,0,0,0-.645.813V87h-1.539V78.547h1.375l.148,1.234a2.934,2.934,0,0,1,.887-1.023,2.073,2.073,0,0,1,1.215-.367,1.9,1.9,0,0,1,.328.027,2.173,2.173,0,0,1,.258.059ZM253.3,87V79.688h-1.328V78.547H253.3v-.914a2.875,2.875,0,0,1,.832-2.2,3.24,3.24,0,0,1,2.309-.781,4.431,4.431,0,0,1,1.031.121q.508.121,1.2.355l-.266,1.25a7.01,7.01,0,0,0-.883-.281,3.947,3.947,0,0,0-.961-.117,1.8,1.8,0,0,0-1.316.406,1.713,1.713,0,0,0-.4,1.25v.914h1.68v1.141h-1.68V87Zm6.117,0h-1.547V78.547h1.547Zm4.023,0H261.9V74.813h1.539ZM271,87q-.078-.383-.121-.676a4.96,4.96,0,0,1-.051-.59,3.589,3.589,0,0,1-1.121,1.02,2.867,2.867,0,0,1-1.488.41,2.763,2.763,0,0,1-2.012-.676,2.486,2.486,0,0,1-.691-1.863,2.183,2.183,0,0,1,.98-1.895,4.579,4.579,0,0,1,2.66-.684h1.672v-.836a1.551,1.551,0,0,0-.453-1.176,1.779,1.779,0,0,0-1.281-.434,1.859,1.859,0,0,0-1.211.375,1.125,1.125,0,0,0-.461.9l-1.461.016-.016-.047a2.023,2.023,0,0,1,.863-1.687,3.578,3.578,0,0,1,2.371-.766,3.49,3.49,0,0,1,2.313.73,2.588,2.588,0,0,1,.875,2.105V85.3a7.923,7.923,0,0,0,.047.875,4.5,4.5,0,0,0,.172.828Zm-2.555-1.125a2.739,2.739,0,0,0,1.508-.43,2.042,2.042,0,0,0,.875-.984V83.086H269.1a2.24,2.24,0,0,0-1.488.469,1.4,1.4,0,0,0-.559,1.1,1.159,1.159,0,0,0,.352.891A1.472,1.472,0,0,0,268.445,85.875Zm11.07-1.148a1.026,1.026,0,0,0-.387-.828,3.733,3.733,0,0,0-1.465-.562,6.146,6.146,0,0,1-2.293-.9,1.814,1.814,0,0,1-.8-1.547,2.229,2.229,0,0,1,.879-1.766,3.879,3.879,0,0,1,4.605.047,2.239,2.239,0,0,1,.852,1.82l-.016.047h-1.469a1.331,1.331,0,0,0-.48-.992,1.717,1.717,0,0,0-1.215-.445,1.751,1.751,0,0,0-1.215.367,1.146,1.146,0,0,0-.4.875.927.927,0,0,0,.348.773,3.848,3.848,0,0,0,1.434.5,6.058,6.058,0,0,1,2.359.93,1.872,1.872,0,0,1,.8,1.57,2.226,2.226,0,0,1-.91,1.836,3.754,3.754,0,0,1-2.379.711,3.715,3.715,0,0,1-2.547-.82,2.341,2.341,0,0,1-.883-1.914l.016-.047h1.469a1.424,1.424,0,0,0,.609,1.2,2.358,2.358,0,0,0,1.336.379,2.1,2.1,0,0,0,1.285-.348A1.063,1.063,0,0,0,279.516,84.727ZM290.3,85.961a1.81,1.81,0,0,0,1.242-.473,1.494,1.494,0,0,0,.531-1.16h1.391l.023.047a2.427,2.427,0,0,1-.937,1.941,3.582,3.582,0,0,1-5-.363,4.674,4.674,0,0,1-.969-3.016v-.328a4.654,4.654,0,0,1,.973-3,3.317,3.317,0,0,1,2.746-1.215,3.189,3.189,0,0,1,2.316.875,2.775,2.775,0,0,1,.871,2.148l-.016.047h-1.4a1.865,1.865,0,0,0-.5-1.316,1.658,1.658,0,0,0-1.27-.543,1.777,1.777,0,0,0-1.652.879,4.114,4.114,0,0,0-.52,2.129v.328a4.192,4.192,0,0,0,.512,2.148A1.776,1.776,0,0,0,290.3,85.961Zm4.656-3.266a4.654,4.654,0,0,1,1.016-3.09,3.764,3.764,0,0,1,5.535,0,4.639,4.639,0,0,1,1.02,3.094v.172a4.631,4.631,0,0,1-1.016,3.094,3.781,3.781,0,0,1-5.535,0,4.623,4.623,0,0,1-1.02-3.09Zm1.539.172a4.009,4.009,0,0,0,.566,2.219,2.046,2.046,0,0,0,3.355,0,3.988,3.988,0,0,0,.57-2.219V82.7a3.976,3.976,0,0,0-.574-2.211,1.882,1.882,0,0,0-1.684-.883,1.856,1.856,0,0,0-1.668.883A4.018,4.018,0,0,0,296.5,82.7Zm9.289-4.32L305.9,79.8a3.069,3.069,0,0,1,1.059-1.043,2.824,2.824,0,0,1,1.449-.371,2.759,2.759,0,0,1,2.117.8,3.515,3.515,0,0,1,.75,2.473V87h-1.539V81.7a2.287,2.287,0,0,0-.441-1.586,1.768,1.768,0,0,0-1.348-.469,2.386,2.386,0,0,0-1.207.285,2.073,2.073,0,0,0-.785.8V87h-1.539V78.547ZM326.3,87h-1.539l-5.477-8.687-.047.016V87H317.7V75.625h1.539l5.477,8.68.047-.016V75.625H326.3Zm8.68-2.93H330.7L329.68,87h-1.57l4.1-11.375h1.32L337.547,87h-1.57Zm-3.836-1.289h3.4L332.883,77.9h-.047Zm15.344,4.383A3.576,3.576,0,0,1,343.645,86a4.48,4.48,0,0,1-1.02-3.062v-.344a4.386,4.386,0,0,1,1.051-3.012,3.3,3.3,0,0,1,2.566-1.191,3.067,3.067,0,0,1,2.543,1.055,4.345,4.345,0,0,1,.848,2.8v.813h-5.406l-.023.039a3.494,3.494,0,0,0,.563,2.066,1.965,1.965,0,0,0,1.719.793,3.872,3.872,0,0,0,1.371-.223,3.061,3.061,0,0,0,1.012-.613l.6,1a3.7,3.7,0,0,1-1.2.738A4.762,4.762,0,0,1,346.484,87.164Zm-.242-7.562a1.673,1.673,0,0,0-1.332.621,2.938,2.938,0,0,0-.645,1.59l.016.039h3.813v-.125a2.461,2.461,0,0,0-.453-1.523A1.638,1.638,0,0,0,346.242,79.6Zm6.492-1.055.109,1.258a3.069,3.069,0,0,1,1.059-1.043,2.824,2.824,0,0,1,1.449-.371,2.759,2.759,0,0,1,2.117.8,3.515,3.515,0,0,1,.75,2.473V87H356.68V81.7a2.287,2.287,0,0,0-.441-1.586,1.768,1.768,0,0,0-1.348-.469,2.386,2.386,0,0,0-1.207.285,2.073,2.073,0,0,0-.785.8V87h-1.539V78.547Zm14.516,5.961.133.594h.047l.148-.594,1.945-5.961h1.57L367.984,87H366.82l-3.148-8.453h1.578ZM377.555,87q-.078-.383-.121-.676a4.96,4.96,0,0,1-.051-.59,3.589,3.589,0,0,1-1.121,1.02,2.867,2.867,0,0,1-1.488.41,2.763,2.763,0,0,1-2.012-.676,2.486,2.486,0,0,1-.691-1.863,2.183,2.183,0,0,1,.98-1.895,4.579,4.579,0,0,1,2.66-.684h1.672v-.836a1.551,1.551,0,0,0-.453-1.176,1.779,1.779,0,0,0-1.281-.434,1.859,1.859,0,0,0-1.211.375,1.125,1.125,0,0,0-.461.9l-1.461.016-.016-.047a2.023,2.023,0,0,1,.863-1.687,3.578,3.578,0,0,1,2.371-.766,3.49,3.49,0,0,1,2.313.73,2.588,2.588,0,0,1,.875,2.105V85.3a7.923,7.923,0,0,0,.047.875,4.5,4.5,0,0,0,.172.828ZM375,85.875a2.739,2.739,0,0,0,1.508-.43,2.042,2.042,0,0,0,.875-.984V83.086h-1.727a2.24,2.24,0,0,0-1.488.469,1.4,1.4,0,0,0-.559,1.1,1.159,1.159,0,0,0,.352.891A1.472,1.472,0,0,0,375,85.875Zm10.156-5.969-.789-.047a1.762,1.762,0,0,0-1.027.289,1.854,1.854,0,0,0-.645.813V87h-1.539V78.547h1.375l.148,1.234a2.934,2.934,0,0,1,.887-1.023,2.073,2.073,0,0,1,1.215-.367,1.9,1.9,0,0,1,.328.027,2.174,2.174,0,0,1,.258.059Zm5.008.625a1.8,1.8,0,0,0,1.457-.512,2.179,2.179,0,0,0,.426-1.434,2.02,2.02,0,0,0-.465-1.387,1.741,1.741,0,0,0-1.379-.527,2.057,2.057,0,0,0-1.473.551,1.819,1.819,0,0,0-.582,1.379H386.68l-.023-.047a2.718,2.718,0,0,1,.969-2.187,3.709,3.709,0,0,1,2.578-.906,3.6,3.6,0,0,1,2.484.8,2.991,2.991,0,0,1,.9,2.355,2.65,2.65,0,0,1-.418,1.453A2.818,2.818,0,0,1,392,81.094a2.688,2.688,0,0,1,1.309,1.043,3.063,3.063,0,0,1,.449,1.691,3.122,3.122,0,0,1-.988,2.449,3.7,3.7,0,0,1-2.566.887,4.064,4.064,0,0,1-2.559-.855,2.62,2.62,0,0,1-1.066-2.262l.016-.047h1.469a1.846,1.846,0,0,0,.6,1.395,2.152,2.152,0,0,0,1.543.566,1.914,1.914,0,0,0,1.477-.582,2.147,2.147,0,0,0,.539-1.52,2.273,2.273,0,0,0-.5-1.6,2.041,2.041,0,0,0-1.559-.531H388.9v-1.2ZM14.266,111q-.078-.383-.121-.676a4.96,4.96,0,0,1-.051-.59,3.589,3.589,0,0,1-1.121,1.02,2.867,2.867,0,0,1-1.488.41,2.763,2.763,0,0,1-2.012-.676,2.486,2.486,0,0,1-.691-1.863,2.183,2.183,0,0,1,.98-1.895,4.579,4.579,0,0,1,2.66-.684h1.672v-.836a1.551,1.551,0,0,0-.453-1.176,1.779,1.779,0,0,0-1.281-.434,1.859,1.859,0,0,0-1.211.375,1.125,1.125,0,0,0-.461.9l-1.461.016-.016-.047a2.023,2.023,0,0,1,.863-1.687,3.578,3.578,0,0,1,2.371-.766,3.49,3.49,0,0,1,2.313.73,2.588,2.588,0,0,1,.875,2.105v4.07a7.923,7.923,0,0,0,.047.875,4.5,4.5,0,0,0,.172.828Zm-2.555-1.125a2.739,2.739,0,0,0,1.508-.43,2.042,2.042,0,0,0,.875-.984v-1.375H12.367a2.24,2.24,0,0,0-1.488.469,1.4,1.4,0,0,0-.559,1.1,1.159,1.159,0,0,0,.352.891A1.472,1.472,0,0,0,11.711,109.875Zm10.156-5.969-.789-.047a1.762,1.762,0,0,0-1.027.289,1.854,1.854,0,0,0-.645.813V111H17.867v-8.453h1.375l.148,1.234a2.934,2.934,0,0,1,.887-1.023,2.073,2.073,0,0,1,1.215-.367,1.9,1.9,0,0,1,.328.027,2.174,2.174,0,0,1,.258.059Zm5.6,0-.789-.047a1.762,1.762,0,0,0-1.027.289,1.854,1.854,0,0,0-.645.813V111H23.469v-8.453h1.375l.148,1.234a2.934,2.934,0,0,1,.887-1.023,2.073,2.073,0,0,1,1.215-.367,1.9,1.9,0,0,1,.328.027,2.174,2.174,0,0,1,.258.059Zm6.8,7.094q-.078-.383-.121-.676a4.96,4.96,0,0,1-.051-.59,3.589,3.589,0,0,1-1.121,1.02,2.867,2.867,0,0,1-1.488.41,2.763,2.763,0,0,1-2.012-.676,2.486,2.486,0,0,1-.691-1.863,2.183,2.183,0,0,1,.98-1.895,4.579,4.579,0,0,1,2.66-.684h1.672v-.836a1.551,1.551,0,0,0-.453-1.176,1.779,1.779,0,0,0-1.281-.434,1.859,1.859,0,0,0-1.211.375,1.125,1.125,0,0,0-.461.9l-1.461.016-.016-.047a2.023,2.023,0,0,1,.863-1.687,3.578,3.578,0,0,1,2.371-.766,3.49,3.49,0,0,1,2.313.73,2.588,2.588,0,0,1,.875,2.105v4.07a7.923,7.923,0,0,0,.047.875,4.5,4.5,0,0,0,.172.828Zm-2.555-1.125a2.739,2.739,0,0,0,1.508-.43,2.042,2.042,0,0,0,.875-.984v-1.375H32.367a2.24,2.24,0,0,0-1.488.469,1.4,1.4,0,0,0-.559,1.1,1.159,1.159,0,0,0,.352.891A1.472,1.472,0,0,0,31.711,109.875Zm7.531-7.328.109,1.258a3.069,3.069,0,0,1,1.059-1.043,2.824,2.824,0,0,1,1.449-.371,2.759,2.759,0,0,1,2.117.8,3.515,3.515,0,0,1,.75,2.473V111H43.188v-5.3a2.287,2.287,0,0,0-.441-1.586,1.768,1.768,0,0,0-1.348-.469,2.386,2.386,0,0,0-1.207.285,2.072,2.072,0,0,0-.785.8V111H37.867v-8.453Zm7.445,4.383a5.641,5.641,0,0,1,.871-3.289,2.8,2.8,0,0,1,2.434-1.25,2.966,2.966,0,0,1,1.414.324,2.845,2.845,0,0,1,1.023.934l.188-1.1h1.227v8.5a3.225,3.225,0,0,1-.945,2.5,3.884,3.884,0,0,1-2.727.871,5.717,5.717,0,0,1-1.316-.168,5.147,5.147,0,0,1-1.246-.457l.234-1.2a4.45,4.45,0,0,0,1.074.379,5.517,5.517,0,0,0,1.238.145,2.242,2.242,0,0,0,1.637-.512,2.12,2.12,0,0,0,.512-1.559v-.961a2.725,2.725,0,0,1-.992.8,3.091,3.091,0,0,1-1.336.273,2.89,2.89,0,0,1-2.418-1.121,4.674,4.674,0,0,1-.871-2.949Zm1.539.164a3.592,3.592,0,0,0,.523,2.047,1.817,1.817,0,0,0,1.617.773,2.034,2.034,0,0,0,1.164-.316,2.4,2.4,0,0,0,.773-.895v-3.891a2.388,2.388,0,0,0-.773-.855,2.029,2.029,0,0,0-1.148-.316,1.752,1.752,0,0,0-1.629.914,4.718,4.718,0,0,0-.527,2.375Zm11.328,4.07A3.576,3.576,0,0,1,56.715,110a4.48,4.48,0,0,1-1.02-3.062v-.344a4.386,4.386,0,0,1,1.051-3.012,3.3,3.3,0,0,1,2.566-1.191,3.067,3.067,0,0,1,2.543,1.055,4.345,4.345,0,0,1,.848,2.8v.813H57.3l-.023.039a3.494,3.494,0,0,0,.563,2.066,1.965,1.965,0,0,0,1.719.793,3.872,3.872,0,0,0,1.371-.223,3.061,3.061,0,0,0,1.012-.613l.6,1a3.7,3.7,0,0,1-1.2.738A4.762,4.762,0,0,1,59.555,111.164Zm-.242-7.562a1.673,1.673,0,0,0-1.332.621,2.938,2.938,0,0,0-.645,1.59l.016.039h3.813v-.125a2.462,2.462,0,0,0-.453-1.523A1.638,1.638,0,0,0,59.313,103.6Zm5.031,2.781a10.457,10.457,0,0,1,1.242-5.258A7.19,7.19,0,0,1,68.2,98.219l.047.008.3.906a6.665,6.665,0,0,0-1.863,2.68,11.54,11.54,0,0,0-.793,4.555v.1a11.591,11.591,0,0,0,.789,4.555,7.25,7.25,0,0,0,1.867,2.75l-.3.844H68.2a7.193,7.193,0,0,1-2.609-2.9,10.452,10.452,0,0,1-1.242-5.262Zm5.039.547a5.641,5.641,0,0,1,.871-3.289,2.807,2.807,0,0,1,2.441-1.25,3.027,3.027,0,0,1,1.316.273,2.7,2.7,0,0,1,.98.8V98.813h1.539V111h-1.18l-.234-1.07a2.743,2.743,0,0,1-1.023.922,3.058,3.058,0,0,1-1.414.313,2.9,2.9,0,0,1-2.422-1.121,4.659,4.659,0,0,1-.875-2.949Zm1.539.164a3.588,3.588,0,0,0,.523,2.051,1.828,1.828,0,0,0,1.625.77,2.039,2.039,0,0,0,1.156-.312,2.334,2.334,0,0,0,.766-.875v-3.945a2.37,2.37,0,0,0-.77-.832,2.033,2.033,0,0,0-1.137-.309,1.759,1.759,0,0,0-1.637.914,4.718,4.718,0,0,0-.527,2.375Zm11.406,4.07A3.576,3.576,0,0,1,79.488,110a4.48,4.48,0,0,1-1.02-3.062v-.344a4.386,4.386,0,0,1,1.051-3.012,3.3,3.3,0,0,1,2.566-1.191,3.067,3.067,0,0,1,2.543,1.055,4.345,4.345,0,0,1,.848,2.8v.813H80.07l-.023.039a3.494,3.494,0,0,0,.563,2.066,1.965,1.965,0,0,0,1.719.793,3.872,3.872,0,0,0,1.371-.223,3.061,3.061,0,0,0,1.012-.613l.6,1a3.7,3.7,0,0,1-1.2.738A4.762,4.762,0,0,1,82.328,111.164Zm-.242-7.562a1.673,1.673,0,0,0-1.332.621,2.938,2.938,0,0,0-.645,1.59l.016.039h3.813v-.125a2.462,2.462,0,0,0-.453-1.523A1.638,1.638,0,0,0,82.086,103.6Zm10.031,5.125a1.026,1.026,0,0,0-.387-.828,3.733,3.733,0,0,0-1.465-.562,6.146,6.146,0,0,1-2.293-.9,1.814,1.814,0,0,1-.8-1.547,2.229,2.229,0,0,1,.879-1.766,3.879,3.879,0,0,1,4.605.047,2.239,2.239,0,0,1,.852,1.82l-.016.047H92.023a1.331,1.331,0,0,0-.48-.992,1.717,1.717,0,0,0-1.215-.445,1.751,1.751,0,0,0-1.215.367,1.146,1.146,0,0,0-.4.875.927.927,0,0,0,.348.773,3.848,3.848,0,0,0,1.434.5,6.058,6.058,0,0,1,2.359.93,1.872,1.872,0,0,1,.8,1.57,2.226,2.226,0,0,1-.91,1.836,3.754,3.754,0,0,1-2.379.711,3.715,3.715,0,0,1-2.547-.82,2.341,2.341,0,0,1-.883-1.914l.016-.047h1.469a1.424,1.424,0,0,0,.609,1.2,2.358,2.358,0,0,0,1.336.379,2.1,2.1,0,0,0,1.285-.348A1.063,1.063,0,0,0,92.117,108.727Zm6.813,1.234a1.81,1.81,0,0,0,1.242-.473,1.494,1.494,0,0,0,.531-1.16h1.391l.023.047a2.428,2.428,0,0,1-.937,1.941,3.582,3.582,0,0,1-5-.363,4.674,4.674,0,0,1-.969-3.016v-.328a4.654,4.654,0,0,1,.973-3,3.317,3.317,0,0,1,2.746-1.215,3.189,3.189,0,0,1,2.316.875,2.775,2.775,0,0,1,.871,2.148l-.016.047h-1.4a1.865,1.865,0,0,0-.5-1.316,1.658,1.658,0,0,0-1.27-.543,1.777,1.777,0,0,0-1.652.879,4.114,4.114,0,0,0-.52,2.129v.328a4.192,4.192,0,0,0,.512,2.148A1.776,1.776,0,0,0,98.93,109.961Zm4.93-3.578a10.457,10.457,0,0,1,1.242-5.258,7.19,7.19,0,0,1,2.609-2.906l.047.008.3.906a6.665,6.665,0,0,0-1.863,2.68,11.54,11.54,0,0,0-.793,4.555v.1a11.591,11.591,0,0,0,.789,4.555,7.25,7.25,0,0,0,1.867,2.75l-.3.844h-.047a7.193,7.193,0,0,1-2.609-2.9,10.452,10.452,0,0,1-1.242-5.262Zm6.766-3.836.109,1.258a3.069,3.069,0,0,1,1.059-1.043,2.824,2.824,0,0,1,1.449-.371,2.759,2.759,0,0,1,2.117.8,3.515,3.515,0,0,1,.75,2.473V111H114.57v-5.3a2.287,2.287,0,0,0-.441-1.586,1.768,1.768,0,0,0-1.348-.469,2.386,2.386,0,0,0-1.207.285,2.072,2.072,0,0,0-.785.8V111H109.25v-8.453Zm13.086,7.2a2.863,2.863,0,0,1-1.023,1.047,2.8,2.8,0,0,1-1.445.367,2.716,2.716,0,0,1-2.156-.883,4.1,4.1,0,0,1-.773-2.75v-4.984h1.539v5a3.147,3.147,0,0,0,.4,1.859,1.481,1.481,0,0,0,1.242.508,2.531,2.531,0,0,0,1.355-.332,2.077,2.077,0,0,0,.809-.941v-6.094H125.2V111h-1.383Zm7.227,1.414A3.576,3.576,0,0,1,128.1,110a4.48,4.48,0,0,1-1.02-3.062v-.344a4.386,4.386,0,0,1,1.051-3.012,3.3,3.3,0,0,1,2.566-1.191,3.067,3.067,0,0,1,2.543,1.055,4.345,4.345,0,0,1,.848,2.8v.813H128.68l-.023.039a3.494,3.494,0,0,0,.563,2.066,1.965,1.965,0,0,0,1.719.793,3.872,3.872,0,0,0,1.371-.223,3.061,3.061,0,0,0,1.012-.613l.6,1a3.7,3.7,0,0,1-1.2.738A4.762,4.762,0,0,1,130.938,111.164ZM130.7,103.6a1.673,1.673,0,0,0-1.332.621,2.938,2.938,0,0,0-.645,1.59l.016.039h3.813v-.125a2.462,2.462,0,0,0-.453-1.523A1.638,1.638,0,0,0,130.7,103.6Zm7.836,4.906.133.594h.047l.148-.594,1.945-5.961h1.57L139.266,111H138.1l-3.148-8.453h1.578Zm10.3,2.492q-.078-.383-.121-.676a4.96,4.96,0,0,1-.051-.59,3.588,3.588,0,0,1-1.121,1.02,2.867,2.867,0,0,1-1.488.41,2.763,2.763,0,0,1-2.012-.676,2.486,2.486,0,0,1-.691-1.863,2.183,2.183,0,0,1,.98-1.895,4.579,4.579,0,0,1,2.66-.684h1.672v-.836a1.551,1.551,0,0,0-.453-1.176,1.779,1.779,0,0,0-1.281-.434,1.859,1.859,0,0,0-1.211.375,1.125,1.125,0,0,0-.461.9l-1.461.016-.016-.047a2.023,2.023,0,0,1,.863-1.687,3.578,3.578,0,0,1,2.371-.766,3.49,3.49,0,0,1,2.313.73,2.588,2.588,0,0,1,.875,2.105v4.07a7.923,7.923,0,0,0,.047.875,4.5,4.5,0,0,0,.172.828Zm-2.555-1.125a2.739,2.739,0,0,0,1.508-.43,2.042,2.042,0,0,0,.875-.984v-1.375h-1.727a2.24,2.24,0,0,0-1.488.469,1.4,1.4,0,0,0-.559,1.1,1.159,1.159,0,0,0,.352.891A1.472,1.472,0,0,0,146.281,109.875Zm12.281,2.328h-7.211V111h7.211Zm3.969-3.7.133.594h.047l.148-.594,1.945-5.961h1.57L163.266,111H162.1l-3.148-8.453h1.578Zm10.3,2.492q-.078-.383-.121-.676a4.96,4.96,0,0,1-.051-.59,3.588,3.588,0,0,1-1.121,1.02,2.867,2.867,0,0,1-1.488.41,2.763,2.763,0,0,1-2.012-.676,2.486,2.486,0,0,1-.691-1.863,2.183,2.183,0,0,1,.98-1.895,4.579,4.579,0,0,1,2.66-.684h1.672v-.836a1.551,1.551,0,0,0-.453-1.176,1.779,1.779,0,0,0-1.281-.434,1.859,1.859,0,0,0-1.211.375,1.125,1.125,0,0,0-.461.9l-1.461.016-.016-.047a2.023,2.023,0,0,1,.863-1.687,3.578,3.578,0,0,1,2.371-.766,3.49,3.49,0,0,1,2.313.73,2.588,2.588,0,0,1,.875,2.105v4.07a7.923,7.923,0,0,0,.047.875,4.5,4.5,0,0,0,.172.828Zm-2.555-1.125a2.739,2.739,0,0,0,1.508-.43,2.042,2.042,0,0,0,.875-.984v-1.375h-1.727a2.24,2.24,0,0,0-1.488.469,1.4,1.4,0,0,0-.559,1.1,1.159,1.159,0,0,0,.352.891A1.472,1.472,0,0,0,170.281,109.875Zm10.156-5.969-.789-.047a1.762,1.762,0,0,0-1.027.289,1.855,1.855,0,0,0-.645.813V111h-1.539v-8.453h1.375l.148,1.234a2.934,2.934,0,0,1,.887-1.023,2.073,2.073,0,0,1,1.215-.367,1.9,1.9,0,0,1,.328.027,2.173,2.173,0,0,1,.258.059Zm4.727,2.547a10.426,10.426,0,0,1-1.246,5.262,7.244,7.244,0,0,1-2.605,2.9h-.047l-.3-.844a6.653,6.653,0,0,0,1.855-2.7,11.749,11.749,0,0,0,.8-4.605v-.1a11.354,11.354,0,0,0-.824-4.559,7.532,7.532,0,0,0-1.832-2.746l.3-.844h.047a7.241,7.241,0,0,1,2.605,2.906,10.431,10.431,0,0,1,1.246,5.258Zm5.367,0a10.426,10.426,0,0,1-1.246,5.262,7.244,7.244,0,0,1-2.605,2.9h-.047l-.3-.844a6.653,6.653,0,0,0,1.855-2.7,11.749,11.749,0,0,0,.8-4.605v-.1a11.354,11.354,0,0,0-.824-4.559,7.532,7.532,0,0,0-1.832-2.746l.3-.844h.047a7.241,7.241,0,0,1,2.605,2.906,10.431,10.431,0,0,1,1.246,5.258Zm14.641,1.344H203.18l-.625,3.2h-1.18l.625-3.2h-1.844V106.7h2.063l.531-2.719h-2v-1.109h2.219l.641-3.25h1.18l-.641,3.25h1.992l.641-3.25h1.18l-.641,3.25h1.555v1.109h-1.766l-.531,2.719h1.711V107.8h-1.93l-.625,3.2h-1.187ZM203.4,106.7h1.992l.531-2.719H203.93Zm20.172-.375a4.853,4.853,0,0,1-1.293,3.461,4.4,4.4,0,0,1-3.355,1.375,4.167,4.167,0,0,1-3.238-1.375,4.959,4.959,0,0,1-1.246-3.461V104.3a4.977,4.977,0,0,1,1.246-3.461,4.156,4.156,0,0,1,3.238-1.383,4.39,4.39,0,0,1,3.355,1.379,4.867,4.867,0,0,1,1.293,3.465Zm-1.539-2.039a3.837,3.837,0,0,0-.844-2.562,2.813,2.813,0,0,0-2.266-1,2.606,2.606,0,0,0-2.145,1,3.972,3.972,0,0,0-.8,2.563v2.039a4,4,0,0,0,.8,2.578,2.606,2.606,0,0,0,2.145,1,2.815,2.815,0,0,0,2.27-1,3.869,3.869,0,0,0,.84-2.582Zm7.547-.383-.789-.047a1.762,1.762,0,0,0-1.027.289,1.855,1.855,0,0,0-.645.813V111h-1.539v-8.453h1.375l.148,1.234a2.934,2.934,0,0,1,.887-1.023,2.073,2.073,0,0,1,1.215-.367,1.9,1.9,0,0,1,.328.027,2.173,2.173,0,0,1,.258.059Zm1.1,3.023a5.641,5.641,0,0,1,.871-3.289,2.807,2.807,0,0,1,2.441-1.25,3.027,3.027,0,0,1,1.316.273,2.7,2.7,0,0,1,.98.8V98.813h1.539V111h-1.18l-.234-1.07a2.743,2.743,0,0,1-1.023.922,3.058,3.058,0,0,1-1.414.313,2.9,2.9,0,0,1-2.422-1.121,4.659,4.659,0,0,1-.875-2.949Zm1.539.164a3.588,3.588,0,0,0,.523,2.051,1.828,1.828,0,0,0,1.625.77,2.039,2.039,0,0,0,1.156-.312,2.334,2.334,0,0,0,.766-.875v-3.945a2.37,2.37,0,0,0-.77-.832,2.033,2.033,0,0,0-1.137-.309,1.759,1.759,0,0,0-1.637.914,4.718,4.718,0,0,0-.527,2.375Zm11.406,4.07a3.576,3.576,0,0,1-2.84-1.164,4.48,4.48,0,0,1-1.02-3.062v-.344a4.386,4.386,0,0,1,1.051-3.012,3.3,3.3,0,0,1,2.566-1.191,3.067,3.067,0,0,1,2.543,1.055,4.345,4.345,0,0,1,.848,2.8v.813h-5.406l-.023.039a3.494,3.494,0,0,0,.563,2.066,1.965,1.965,0,0,0,1.719.793,3.872,3.872,0,0,0,1.371-.223,3.061,3.061,0,0,0,1.012-.613l.6,1a3.7,3.7,0,0,1-1.2.738A4.762,4.762,0,0,1,243.625,111.164Zm-.242-7.562a1.673,1.673,0,0,0-1.332.621,2.938,2.938,0,0,0-.645,1.59l.016.039h3.813v-.125a2.462,2.462,0,0,0-.453-1.523A1.638,1.638,0,0,0,243.383,103.6Zm6.492-1.055.109,1.258a3.069,3.069,0,0,1,1.059-1.043,2.824,2.824,0,0,1,1.449-.371,2.759,2.759,0,0,1,2.117.8,3.515,3.515,0,0,1,.75,2.473V111H253.82v-5.3a2.287,2.287,0,0,0-.441-1.586,1.768,1.768,0,0,0-1.348-.469,2.386,2.386,0,0,0-1.207.285,2.072,2.072,0,0,0-.785.8V111H248.5v-8.453ZM262.789,111q-.078-.383-.121-.676a4.96,4.96,0,0,1-.051-.59,3.589,3.589,0,0,1-1.121,1.02,2.867,2.867,0,0,1-1.488.41,2.763,2.763,0,0,1-2.012-.676,2.486,2.486,0,0,1-.691-1.863,2.183,2.183,0,0,1,.98-1.895,4.579,4.579,0,0,1,2.66-.684h1.672v-.836a1.551,1.551,0,0,0-.453-1.176,1.779,1.779,0,0,0-1.281-.434,1.859,1.859,0,0,0-1.211.375,1.125,1.125,0,0,0-.461.9l-1.461.016-.016-.047a2.023,2.023,0,0,1,.863-1.687,3.578,3.578,0,0,1,2.371-.766,3.49,3.49,0,0,1,2.313.73,2.588,2.588,0,0,1,.875,2.105v4.07a7.923,7.923,0,0,0,.047.875,4.5,4.5,0,0,0,.172.828Zm-2.555-1.125a2.739,2.739,0,0,0,1.508-.43,2.042,2.042,0,0,0,.875-.984v-1.375h-1.727a2.24,2.24,0,0,0-1.488.469,1.4,1.4,0,0,0-.559,1.1,1.159,1.159,0,0,0,.352.891A1.472,1.472,0,0,0,260.234,109.875Zm10.156-5.969-.789-.047a1.762,1.762,0,0,0-1.027.289,1.854,1.854,0,0,0-.645.813V111h-1.539v-8.453h1.375l.148,1.234a2.934,2.934,0,0,1,.887-1.023,2.073,2.073,0,0,1,1.215-.367,1.9,1.9,0,0,1,.328.027,2.174,2.174,0,0,1,.258.059Zm12.781,3.188a4.659,4.659,0,0,1-.875,2.949,2.893,2.893,0,0,1-2.414,1.121,3.354,3.354,0,0,1-1.371-.262,2.622,2.622,0,0,1-1-.785v4.133h-1.539v-11.7h1.18l.242,1.094a2.791,2.791,0,0,1,1.031-.93,3.078,3.078,0,0,1,1.438-.32,2.809,2.809,0,0,1,2.441,1.246,5.638,5.638,0,0,1,.871,3.293Zm-1.539-.164a4.467,4.467,0,0,0-.566-2.363,1.835,1.835,0,0,0-1.668-.926,2.053,2.053,0,0,0-1.133.3,2.25,2.25,0,0,0-.758.824v4.086a2.186,2.186,0,0,0,.758.816,2.126,2.126,0,0,0,1.148.293,1.894,1.894,0,0,0,1.656-.8,3.516,3.516,0,0,0,.563-2.066Zm3.07-.234a4.654,4.654,0,0,1,1.016-3.09,3.764,3.764,0,0,1,5.535,0,4.639,4.639,0,0,1,1.02,3.094v.172a4.631,4.631,0,0,1-1.016,3.094,3.781,3.781,0,0,1-5.535,0,4.623,4.623,0,0,1-1.02-3.09Zm1.539.172a4.009,4.009,0,0,0,.566,2.219,2.046,2.046,0,0,0,3.355,0,3.988,3.988,0,0,0,.57-2.219V106.7a3.976,3.976,0,0,0-.574-2.211,1.882,1.882,0,0,0-1.684-.883,1.856,1.856,0,0,0-1.668.883,4.018,4.018,0,0,0-.566,2.211Zm11.914-2.961-.789-.047a1.762,1.762,0,0,0-1.027.289,1.854,1.854,0,0,0-.645.813V111h-1.539v-8.453h1.375l.148,1.234a2.934,2.934,0,0,1,.887-1.023,2.073,2.073,0,0,1,1.215-.367,1.9,1.9,0,0,1,.328.027,2.174,2.174,0,0,1,.258.059Zm6.953-1.359.109,1.258a3.069,3.069,0,0,1,1.059-1.043,2.824,2.824,0,0,1,1.449-.371,2.759,2.759,0,0,1,2.117.8,3.515,3.515,0,0,1,.75,2.473V111h-1.539v-5.3a2.287,2.287,0,0,0-.441-1.586,1.768,1.768,0,0,0-1.348-.469,2.386,2.386,0,0,0-1.207.285,2.073,2.073,0,0,0-.785.8V111h-1.539v-8.453Zm13.086,7.2a2.863,2.863,0,0,1-1.023,1.047,2.8,2.8,0,0,1-1.445.367,2.716,2.716,0,0,1-2.156-.883,4.1,4.1,0,0,1-.773-2.75v-4.984h1.539v5a3.147,3.147,0,0,0,.4,1.859,1.481,1.481,0,0,0,1.242.508,2.531,2.531,0,0,0,1.355-.332,2.077,2.077,0,0,0,.809-.941v-6.094h1.539V111H318.3Zm7.227,1.414a3.576,3.576,0,0,1-2.84-1.164,4.48,4.48,0,0,1-1.02-3.062v-.344a4.386,4.386,0,0,1,1.051-3.012,3.3,3.3,0,0,1,2.566-1.191,3.067,3.067,0,0,1,2.543,1.055,4.345,4.345,0,0,1,.848,2.8v.813h-5.406l-.023.039a3.494,3.494,0,0,0,.563,2.066,1.965,1.965,0,0,0,1.719.793,3.872,3.872,0,0,0,1.371-.223,3.061,3.061,0,0,0,1.012-.613l.6,1a3.7,3.7,0,0,1-1.2.738A4.762,4.762,0,0,1,325.422,111.164Zm-.242-7.562a1.673,1.673,0,0,0-1.332.621,2.938,2.938,0,0,0-.645,1.59l.016.039h3.813v-.125a2.461,2.461,0,0,0-.453-1.523A1.638,1.638,0,0,0,325.18,103.6Zm7.836,4.906.133.594h.047l.148-.594,1.945-5.961h1.57L333.75,111h-1.164l-3.148-8.453h1.578ZM343.32,111q-.078-.383-.121-.676a4.96,4.96,0,0,1-.051-.59,3.589,3.589,0,0,1-1.121,1.02,2.867,2.867,0,0,1-1.488.41,2.763,2.763,0,0,1-2.012-.676,2.486,2.486,0,0,1-.691-1.863,2.183,2.183,0,0,1,.98-1.895,4.579,4.579,0,0,1,2.66-.684h1.672v-.836a1.551,1.551,0,0,0-.453-1.176,1.779,1.779,0,0,0-1.281-.434,1.859,1.859,0,0,0-1.211.375,1.125,1.125,0,0,0-.461.9l-1.461.016-.016-.047a2.023,2.023,0,0,1,.863-1.687,3.578,3.578,0,0,1,2.371-.766,3.49,3.49,0,0,1,2.313.73,2.588,2.588,0,0,1,.875,2.105v4.07a7.923,7.923,0,0,0,.047.875,4.5,4.5,0,0,0,.172.828Zm-2.555-1.125a2.739,2.739,0,0,0,1.508-.43,2.042,2.042,0,0,0,.875-.984v-1.375h-1.727a2.24,2.24,0,0,0-1.488.469,1.4,1.4,0,0,0-.559,1.1,1.159,1.159,0,0,0,.352.891A1.472,1.472,0,0,0,340.766,109.875Zm12.281,2.328h-7.211V111h7.211Zm3.969-3.7.133.594h.047l.148-.594,1.945-5.961h1.57L357.75,111h-1.164l-3.148-8.453h1.578ZM367.32,111q-.078-.383-.121-.676a4.96,4.96,0,0,1-.051-.59,3.589,3.589,0,0,1-1.121,1.02,2.867,2.867,0,0,1-1.488.41,2.763,2.763,0,0,1-2.012-.676,2.486,2.486,0,0,1-.691-1.863,2.183,2.183,0,0,1,.98-1.895,4.579,4.579,0,0,1,2.66-.684h1.672v-.836a1.551,1.551,0,0,0-.453-1.176,1.779,1.779,0,0,0-1.281-.434,1.859,1.859,0,0,0-1.211.375,1.125,1.125,0,0,0-.461.9l-1.461.016-.016-.047a2.023,2.023,0,0,1,.863-1.687,3.578,3.578,0,0,1,2.371-.766,3.49,3.49,0,0,1,2.313.73,2.588,2.588,0,0,1,.875,2.105v4.07a7.923,7.923,0,0,0,.047.875,4.5,4.5,0,0,0,.172.828Zm-2.555-1.125a2.739,2.739,0,0,0,1.508-.43,2.042,2.042,0,0,0,.875-.984v-1.375h-1.727a2.24,2.24,0,0,0-1.488.469,1.4,1.4,0,0,0-.559,1.1,1.159,1.159,0,0,0,.352.891A1.472,1.472,0,0,0,364.766,109.875Zm10.156-5.969-.789-.047a1.762,1.762,0,0,0-1.027.289,1.854,1.854,0,0,0-.645.813V111h-1.539v-8.453H372.3l.148,1.234a2.934,2.934,0,0,1,.887-1.023,2.073,2.073,0,0,1,1.215-.367,1.9,1.9,0,0,1,.328.027,2.174,2.174,0,0,1,.258.059ZM384,111.164A3.576,3.576,0,0,1,381.16,110a4.48,4.48,0,0,1-1.02-3.062v-.344a4.386,4.386,0,0,1,1.051-3.012,3.3,3.3,0,0,1,2.566-1.191,3.067,3.067,0,0,1,2.543,1.055,4.345,4.345,0,0,1,.848,2.8v.813h-5.406l-.023.039a3.494,3.494,0,0,0,.563,2.066,1.965,1.965,0,0,0,1.719.793,3.872,3.872,0,0,0,1.371-.223,3.061,3.061,0,0,0,1.012-.613l.6,1a3.7,3.7,0,0,1-1.2.738A4.762,4.762,0,0,1,384,111.164Zm-.242-7.562a1.673,1.673,0,0,0-1.332.621,2.938,2.938,0,0,0-.645,1.59l.016.039h3.813v-.125a2.461,2.461,0,0,0-.453-1.523A1.638,1.638,0,0,0,383.758,103.6Zm6.492-1.055.109,1.258a3.069,3.069,0,0,1,1.059-1.043,2.824,2.824,0,0,1,1.449-.371,2.759,2.759,0,0,1,2.117.8,3.515,3.515,0,0,1,.75,2.473V111H394.2v-5.3a2.287,2.287,0,0,0-.441-1.586,1.768,1.768,0,0,0-1.348-.469,2.386,2.386,0,0,0-1.207.285,2.073,2.073,0,0,0-.785.8V111h-1.539v-8.453Zm11.336,4.148a4.654,4.654,0,0,1,1.016-3.09,3.764,3.764,0,0,1,5.535,0,4.639,4.639,0,0,1,1.02,3.094v.172a4.631,4.631,0,0,1-1.016,3.094,3.781,3.781,0,0,1-5.535,0,4.623,4.623,0,0,1-1.02-3.09Zm1.539.172a4.009,4.009,0,0,0,.566,2.219,2.046,2.046,0,0,0,3.355,0,3.988,3.988,0,0,0,.57-2.219V106.7a3.976,3.976,0,0,0-.574-2.211,1.882,1.882,0,0,0-1.684-.883,1.856,1.856,0,0,0-1.668.883,4.018,4.018,0,0,0-.566,2.211Zm11.914-2.961-.789-.047a1.762,1.762,0,0,0-1.027.289,1.854,1.854,0,0,0-.645.813V111h-1.539v-8.453h1.375l.148,1.234a2.934,2.934,0,0,1,.887-1.023,2.073,2.073,0,0,1,1.215-.367,1.9,1.9,0,0,1,.328.027,2.174,2.174,0,0,1,.258.059Zm1.1,3.023a5.641,5.641,0,0,1,.871-3.289,2.807,2.807,0,0,1,2.441-1.25,3.027,3.027,0,0,1,1.316.273,2.7,2.7,0,0,1,.98.8V98.813h1.539V111h-1.18l-.234-1.07a2.743,2.743,0,0,1-1.023.922,3.058,3.058,0,0,1-1.414.313,2.9,2.9,0,0,1-2.422-1.121,4.659,4.659,0,0,1-.875-2.949Zm1.539.164a3.588,3.588,0,0,0,.523,2.051,1.828,1.828,0,0,0,1.625.77,2.039,2.039,0,0,0,1.156-.312,2.334,2.334,0,0,0,.766-.875v-3.945a2.37,2.37,0,0,0-.77-.832,2.033,2.033,0,0,0-1.137-.309,1.759,1.759,0,0,0-1.637.914,4.718,4.718,0,0,0-.527,2.375Zm11.406,4.07a3.576,3.576,0,0,1-2.84-1.164,4.48,4.48,0,0,1-1.02-3.062v-.344a4.386,4.386,0,0,1,1.051-3.012,3.3,3.3,0,0,1,2.566-1.191,3.067,3.067,0,0,1,2.543,1.055,4.345,4.345,0,0,1,.848,2.8v.813h-5.406l-.023.039a3.494,3.494,0,0,0,.563,2.066,1.965,1.965,0,0,0,1.719.793,3.872,3.872,0,0,0,1.371-.223,3.061,3.061,0,0,0,1.012-.613l.6,1a3.7,3.7,0,0,1-1.2.738A4.762,4.762,0,0,1,429.086,111.164Zm-.242-7.562a1.673,1.673,0,0,0-1.332.621,2.938,2.938,0,0,0-.645,1.59l.016.039H430.7v-.125a2.461,2.461,0,0,0-.453-1.523A1.638,1.638,0,0,0,428.844,103.6Zm6.492-1.055.109,1.258a3.069,3.069,0,0,1,1.059-1.043,2.824,2.824,0,0,1,1.449-.371,2.759,2.759,0,0,1,2.117.8,3.515,3.515,0,0,1,.75,2.473V111h-1.539v-5.3a2.287,2.287,0,0,0-.441-1.586,1.768,1.768,0,0,0-1.348-.469,2.386,2.386,0,0,0-1.207.285,2.073,2.073,0,0,0-.785.8V111h-1.539v-8.453Zm11.344,4.383a5.641,5.641,0,0,1,.871-3.289,2.807,2.807,0,0,1,2.441-1.25,3.027,3.027,0,0,1,1.316.273,2.7,2.7,0,0,1,.98.8V98.813h1.539V111h-1.18l-.234-1.07a2.743,2.743,0,0,1-1.023.922,3.058,3.058,0,0,1-1.414.313,2.9,2.9,0,0,1-2.422-1.121,4.659,4.659,0,0,1-.875-2.949Zm1.539.164a3.588,3.588,0,0,0,.523,2.051,1.828,1.828,0,0,0,1.625.77,2.039,2.039,0,0,0,1.156-.312,2.334,2.334,0,0,0,.766-.875v-3.945a2.37,2.37,0,0,0-.77-.832,2.033,2.033,0,0,0-1.137-.309,1.759,1.759,0,0,0-1.637.914,4.718,4.718,0,0,0-.527,2.375Zm11.406,4.07a3.576,3.576,0,0,1-2.84-1.164,4.48,4.48,0,0,1-1.02-3.062v-.344a4.386,4.386,0,0,1,1.051-3.012,3.3,3.3,0,0,1,2.566-1.191,3.067,3.067,0,0,1,2.543,1.055,4.345,4.345,0,0,1,.848,2.8v.813h-5.406l-.023.039a3.494,3.494,0,0,0,.563,2.066,1.965,1.965,0,0,0,1.719.793,3.872,3.872,0,0,0,1.371-.223,3.061,3.061,0,0,0,1.012-.613l.6,1a3.7,3.7,0,0,1-1.2.738A4.762,4.762,0,0,1,459.625,111.164Zm-.242-7.562a1.673,1.673,0,0,0-1.332.621,2.938,2.938,0,0,0-.645,1.59l.016.039h3.813v-.125a2.461,2.461,0,0,0-.453-1.523A1.638,1.638,0,0,0,459.383,103.6Zm10.031,5.125a1.026,1.026,0,0,0-.387-.828,3.733,3.733,0,0,0-1.465-.562,6.146,6.146,0,0,1-2.293-.9,1.814,1.814,0,0,1-.8-1.547,2.229,2.229,0,0,1,.879-1.766,3.879,3.879,0,0,1,4.605.047,2.239,2.239,0,0,1,.852,1.82l-.016.047H469.32a1.331,1.331,0,0,0-.48-.992,1.717,1.717,0,0,0-1.215-.445,1.751,1.751,0,0,0-1.215.367,1.146,1.146,0,0,0-.4.875.927.927,0,0,0,.348.773,3.848,3.848,0,0,0,1.434.5,6.058,6.058,0,0,1,2.359.93,1.872,1.872,0,0,1,.8,1.57,2.226,2.226,0,0,1-.91,1.836,3.754,3.754,0,0,1-2.379.711,3.715,3.715,0,0,1-2.547-.82,2.341,2.341,0,0,1-.883-1.914l.016-.047h1.469a1.424,1.424,0,0,0,.609,1.2,2.358,2.358,0,0,0,1.336.379,2.1,2.1,0,0,0,1.285-.348A1.063,1.063,0,0,0,469.414,108.727Zm6.813,1.234a1.81,1.81,0,0,0,1.242-.473,1.494,1.494,0,0,0,.531-1.16h1.391l.023.047a2.427,2.427,0,0,1-.937,1.941,3.582,3.582,0,0,1-5-.363,4.674,4.674,0,0,1-.969-3.016v-.328a4.654,4.654,0,0,1,.973-3,3.317,3.317,0,0,1,2.746-1.215,3.189,3.189,0,0,1,2.316.875,2.775,2.775,0,0,1,.871,2.148l-.016.047H478a1.865,1.865,0,0,0-.5-1.316,1.658,1.658,0,0,0-1.27-.543,1.777,1.777,0,0,0-1.652.879,4.114,4.114,0,0,0-.52,2.129v.328a4.192,4.192,0,0,0,.512,2.148A1.776,1.776,0,0,0,476.227,109.961Zm8.516,1.2A3.576,3.576,0,0,1,481.9,110a4.48,4.48,0,0,1-1.02-3.062v-.344a4.386,4.386,0,0,1,1.051-3.012,3.3,3.3,0,0,1,2.566-1.191,3.067,3.067,0,0,1,2.543,1.055,4.345,4.345,0,0,1,.848,2.8v.813h-5.406l-.023.039a3.494,3.494,0,0,0,.563,2.066,1.965,1.965,0,0,0,1.719.793,3.872,3.872,0,0,0,1.371-.223,3.061,3.061,0,0,0,1.012-.613l.6,1a3.7,3.7,0,0,1-1.2.738A4.762,4.762,0,0,1,484.742,111.164ZM484.5,103.6a1.673,1.673,0,0,0-1.332.621,2.938,2.938,0,0,0-.645,1.59l.016.039h3.813v-.125a2.461,2.461,0,0,0-.453-1.523A1.638,1.638,0,0,0,484.5,103.6Zm6.492-1.055.109,1.258a3.069,3.069,0,0,1,1.059-1.043,2.824,2.824,0,0,1,1.449-.371,2.759,2.759,0,0,1,2.117.8,3.515,3.515,0,0,1,.75,2.473V111h-1.539v-5.3a2.287,2.287,0,0,0-.441-1.586,1.768,1.768,0,0,0-1.348-.469,2.386,2.386,0,0,0-1.207.285,2.073,2.073,0,0,0-.785.8V111h-1.539v-8.453Zm7.367,4.383a5.641,5.641,0,0,1,.871-3.289,2.807,2.807,0,0,1,2.441-1.25,3.027,3.027,0,0,1,1.316.273,2.7,2.7,0,0,1,.98.8V98.813h1.539V111h-1.18l-.234-1.07a2.743,2.743,0,0,1-1.023.922,3.058,3.058,0,0,1-1.414.313,2.9,2.9,0,0,1-2.422-1.121,4.659,4.659,0,0,1-.875-2.949Zm1.539.164a3.588,3.588,0,0,0,.523,2.051,1.828,1.828,0,0,0,1.625.77,2.039,2.039,0,0,0,1.156-.312,2.334,2.334,0,0,0,.766-.875v-3.945a2.37,2.37,0,0,0-.77-.832,2.033,2.033,0,0,0-1.137-.309,1.759,1.759,0,0,0-1.637.914,4.718,4.718,0,0,0-.527,2.375Zm11.406,4.07a3.576,3.576,0,0,1-2.84-1.164,4.48,4.48,0,0,1-1.02-3.062v-.344a4.386,4.386,0,0,1,1.051-3.012,3.3,3.3,0,0,1,2.566-1.191,3.067,3.067,0,0,1,2.543,1.055,4.345,4.345,0,0,1,.848,2.8v.813h-5.406l-.023.039a3.494,3.494,0,0,0,.563,2.066,1.965,1.965,0,0,0,1.719.793,3.872,3.872,0,0,0,1.371-.223,3.06,3.06,0,0,0,1.012-.613l.6,1a3.7,3.7,0,0,1-1.2.738A4.762,4.762,0,0,1,511.3,111.164Zm-.242-7.562a1.673,1.673,0,0,0-1.332.621,2.938,2.938,0,0,0-.645,1.59l.016.039h3.813v-.125a2.462,2.462,0,0,0-.453-1.523A1.638,1.638,0,0,0,511.063,103.6Zm6.492-1.055.109,1.258a3.069,3.069,0,0,1,1.059-1.043,2.824,2.824,0,0,1,1.449-.371,2.759,2.759,0,0,1,2.117.8,3.515,3.515,0,0,1,.75,2.473V111H521.5v-5.3a2.287,2.287,0,0,0-.441-1.586,1.768,1.768,0,0,0-1.348-.469,2.386,2.386,0,0,0-1.207.285,2.072,2.072,0,0,0-.785.8V111H516.18v-8.453Zm9.859-2.039v2.039h1.6v1.141h-1.6v5.133a1.149,1.149,0,0,0,.246.836.89.89,0,0,0,.652.242,1.429,1.429,0,0,0,.3-.035,2.2,2.2,0,0,0,.273-.074l.211,1.055a1.36,1.36,0,0,1-.508.23,2.562,2.562,0,0,1-.664.09,1.993,1.993,0,0,1-1.492-.566,2.46,2.46,0,0,1-.555-1.777v-5.133h-1.344v-1.141h1.344v-2.039Zm6.75,10.656a3.576,3.576,0,0,1-2.84-1.164,4.48,4.48,0,0,1-1.02-3.062v-.344a4.386,4.386,0,0,1,1.051-3.012,3.3,3.3,0,0,1,2.566-1.191,3.067,3.067,0,0,1,2.543,1.055,4.345,4.345,0,0,1,.848,2.8v.813h-5.406l-.023.039a3.494,3.494,0,0,0,.563,2.066,1.965,1.965,0,0,0,1.719.793,3.872,3.872,0,0,0,1.371-.223,3.06,3.06,0,0,0,1.012-.613l.6,1a3.7,3.7,0,0,1-1.2.738A4.762,4.762,0,0,1,534.164,111.164Zm-.242-7.562a1.673,1.673,0,0,0-1.332.621,2.938,2.938,0,0,0-.645,1.59l.016.039h3.813v-.125a2.462,2.462,0,0,0-.453-1.523A1.638,1.638,0,0,0,533.922,103.6Z" transform="translate(644.148 2684.134)" fill="#12263f"/>
    <g id="Trazado_879714" data-name="Trazado 879714" transform="translate(624.574 2666.021)" fill="none">
      <path d="M0,0H585.426V154H0Z" stroke="none"/>
      <path d="M 0.99993896484375 1 L 0.99993896484375 153 L 584.4257202148438 153 L 584.4257202148438 1 L 0.99993896484375 1 M -6.103515625e-05 0 L 585.4257202148438 0 L 585.4257202148438 154 L -6.103515625e-05 154 L -6.103515625e-05 0 Z" stroke="none" fill="#3ba935"/>
    </g>
  </g>
</svg>
