<svg id="Grupo_1107412" data-name="Grupo 1107412" xmlns="http://www.w3.org/2000/svg" xmlns:xlink="http://www.w3.org/1999/xlink" width="85" height="155.357" viewBox="0 0 85 155.357">
  <defs>
    <clipPath id="clip-path">
      <rect id="Rect치ngulo_400902" data-name="Rect치ngulo 400902" width="85" height="75.357" fill="#3ba935"/>
    </clipPath>
    <clipPath id="clip-path-2">
      <rect id="Rect치ngulo_400902-2" data-name="Rect치ngulo 400902" width="85" height="64.357" fill="#3ba935"/>
    </clipPath>
  </defs>
  <g id="Grupo_1098724" data-name="Grupo 1098724" transform="translate(0 0)">
    <g id="Grupo_1098723" data-name="Grupo 1098723" clip-path="url(#clip-path)">
      <path id="Trazado_872910" data-name="Trazado 872910" d="M3.394,1.7A1.7,1.7,0,1,1,1.7,0a1.7,1.7,0,0,1,1.7,1.7" fill="#3ba935"/>
      <path id="Trazado_872911" data-name="Trazado 872911" d="M32.348,1.7a1.7,1.7,0,1,1-1.7-1.7,1.7,1.7,0,0,1,1.7,1.7" transform="translate(-12.632)" fill="#3ba935"/>
      <path id="Trazado_872912" data-name="Trazado 872912" d="M61.3,1.7A1.7,1.7,0,1,1,59.6,0a1.7,1.7,0,0,1,1.7,1.7" transform="translate(-25.264)" fill="#3ba935"/>
      <path id="Trazado_872913" data-name="Trazado 872913" d="M90.254,1.7a1.7,1.7,0,1,1-1.7-1.7,1.7,1.7,0,0,1,1.7,1.7" transform="translate(-37.896)" fill="#3ba935"/>
      <path id="Trazado_872914" data-name="Trazado 872914" d="M119.207,1.7a1.7,1.7,0,1,1-1.7-1.7,1.7,1.7,0,0,1,1.7,1.7" transform="translate(-50.528)" fill="#3ba935"/>
      <path id="Trazado_872915" data-name="Trazado 872915" d="M148.161,1.7a1.7,1.7,0,1,1-1.7-1.7,1.7,1.7,0,0,1,1.7,1.7" transform="translate(-63.161)" fill="#3ba935"/>
      <path id="Trazado_872916" data-name="Trazado 872916" d="M3.394,33.612a1.7,1.7,0,1,1-1.7-1.7,1.7,1.7,0,0,1,1.7,1.7" transform="translate(0 -13.924)" fill="#3ba935"/>
      <path id="Trazado_872917" data-name="Trazado 872917" d="M32.348,33.612a1.7,1.7,0,1,1-1.7-1.7,1.7,1.7,0,0,1,1.7,1.7" transform="translate(-12.632 -13.924)" fill="#3ba935"/>
      <path id="Trazado_872918" data-name="Trazado 872918" d="M61.3,33.612a1.7,1.7,0,1,1-1.7-1.7,1.7,1.7,0,0,1,1.7,1.7" transform="translate(-25.264 -13.924)" fill="#3ba935"/>
      <path id="Trazado_872919" data-name="Trazado 872919" d="M90.254,33.612a1.7,1.7,0,1,1-1.7-1.7,1.7,1.7,0,0,1,1.7,1.7" transform="translate(-37.896 -13.924)" fill="#3ba935"/>
      <path id="Trazado_872920" data-name="Trazado 872920" d="M119.207,33.612a1.7,1.7,0,1,1-1.7-1.7,1.7,1.7,0,0,1,1.7,1.7" transform="translate(-50.528 -13.924)" fill="#3ba935"/>
      <path id="Trazado_872921" data-name="Trazado 872921" d="M148.161,33.612a1.7,1.7,0,1,1-1.7-1.7,1.7,1.7,0,0,1,1.7,1.7" transform="translate(-63.161 -13.924)" fill="#3ba935"/>
      <path id="Trazado_872922" data-name="Trazado 872922" d="M3.394,65.527a1.7,1.7,0,1,1-1.7-1.7,1.7,1.7,0,0,1,1.7,1.7" transform="translate(0 -27.848)" fill="#3ba935"/>
      <path id="Trazado_872923" data-name="Trazado 872923" d="M32.348,65.527a1.7,1.7,0,1,1-1.7-1.7,1.7,1.7,0,0,1,1.7,1.7" transform="translate(-12.632 -27.848)" fill="#3ba935"/>
      <path id="Trazado_872924" data-name="Trazado 872924" d="M61.3,65.527a1.7,1.7,0,1,1-1.7-1.7,1.7,1.7,0,0,1,1.7,1.7" transform="translate(-25.264 -27.848)" fill="#3ba935"/>
      <path id="Trazado_872925" data-name="Trazado 872925" d="M90.254,65.527a1.7,1.7,0,1,1-1.7-1.7,1.7,1.7,0,0,1,1.7,1.7" transform="translate(-37.896 -27.848)" fill="#3ba935"/>
      <path id="Trazado_872926" data-name="Trazado 872926" d="M119.207,65.527a1.7,1.7,0,1,1-1.7-1.7,1.7,1.7,0,0,1,1.7,1.7" transform="translate(-50.528 -27.848)" fill="#3ba935"/>
      <path id="Trazado_872927" data-name="Trazado 872927" d="M148.161,65.527a1.7,1.7,0,1,1-1.7-1.7,1.7,1.7,0,0,1,1.7,1.7" transform="translate(-63.161 -27.848)" fill="#3ba935"/>
      <path id="Trazado_872928" data-name="Trazado 872928" d="M3.394,97.442a1.7,1.7,0,1,1-1.7-1.7,1.7,1.7,0,0,1,1.7,1.7" transform="translate(0 -41.773)" fill="#3ba935"/>
      <path id="Trazado_872929" data-name="Trazado 872929" d="M32.348,97.442a1.7,1.7,0,1,1-1.7-1.7,1.7,1.7,0,0,1,1.7,1.7" transform="translate(-12.632 -41.773)" fill="#3ba935"/>
      <path id="Trazado_872930" data-name="Trazado 872930" d="M61.3,97.442a1.7,1.7,0,1,1-1.7-1.7,1.7,1.7,0,0,1,1.7,1.7" transform="translate(-25.264 -41.773)" fill="#3ba935"/>
      <path id="Trazado_872931" data-name="Trazado 872931" d="M90.254,97.442a1.7,1.7,0,1,1-1.7-1.7,1.7,1.7,0,0,1,1.7,1.7" transform="translate(-37.896 -41.773)" fill="#3ba935"/>
      <path id="Trazado_872932" data-name="Trazado 872932" d="M119.207,97.442a1.7,1.7,0,1,1-1.7-1.7,1.7,1.7,0,0,1,1.7,1.7" transform="translate(-50.528 -41.773)" fill="#3ba935"/>
      <path id="Trazado_872933" data-name="Trazado 872933" d="M148.161,97.442a1.7,1.7,0,1,1-1.7-1.7,1.7,1.7,0,0,1,1.7,1.7" transform="translate(-63.161 -41.773)" fill="#3ba935"/>
      <path id="Trazado_872934" data-name="Trazado 872934" d="M3.394,129.357a1.7,1.7,0,1,1-1.7-1.7,1.7,1.7,0,0,1,1.7,1.7" transform="translate(0 -55.697)" fill="#3ba935"/>
      <path id="Trazado_872935" data-name="Trazado 872935" d="M32.348,129.357a1.7,1.7,0,1,1-1.7-1.7,1.7,1.7,0,0,1,1.7,1.7" transform="translate(-12.632 -55.697)" fill="#3ba935"/>
      <path id="Trazado_872936" data-name="Trazado 872936" d="M61.3,129.357a1.7,1.7,0,1,1-1.7-1.7,1.7,1.7,0,0,1,1.7,1.7" transform="translate(-25.264 -55.697)" fill="#3ba935"/>
      <path id="Trazado_872937" data-name="Trazado 872937" d="M90.254,129.357a1.7,1.7,0,1,1-1.7-1.7,1.7,1.7,0,0,1,1.7,1.7" transform="translate(-37.896 -55.697)" fill="#3ba935"/>
      <path id="Trazado_872938" data-name="Trazado 872938" d="M119.207,129.357a1.7,1.7,0,1,1-1.7-1.7,1.7,1.7,0,0,1,1.7,1.7" transform="translate(-50.528 -55.697)" fill="#3ba935"/>
      <path id="Trazado_872939" data-name="Trazado 872939" d="M148.161,129.357a1.7,1.7,0,1,1-1.7-1.7,1.7,1.7,0,0,1,1.7,1.7" transform="translate(-63.161 -55.697)" fill="#3ba935"/>
    </g>
  </g>
  <g id="Grupo_1107413" data-name="Grupo 1107413" transform="translate(0 91)">
    <g id="Enmascarar_grupo_1098723" data-name="Enmascarar grupo 1098723" clip-path="url(#clip-path-2)">
      <path id="Trazado_872910-2" data-name="Trazado 872910" d="M3.394,1.7A1.7,1.7,0,1,1,1.7,0a1.7,1.7,0,0,1,1.7,1.7" fill="#3ba935"/>
      <path id="Trazado_872911-2" data-name="Trazado 872911" d="M32.348,1.7a1.7,1.7,0,1,1-1.7-1.7,1.7,1.7,0,0,1,1.7,1.7" transform="translate(-12.632)" fill="#3ba935"/>
      <path id="Trazado_872912-2" data-name="Trazado 872912" d="M61.3,1.7A1.7,1.7,0,1,1,59.6,0a1.7,1.7,0,0,1,1.7,1.7" transform="translate(-25.264)" fill="#3ba935"/>
      <path id="Trazado_872913-2" data-name="Trazado 872913" d="M90.254,1.7a1.7,1.7,0,1,1-1.7-1.7,1.7,1.7,0,0,1,1.7,1.7" transform="translate(-37.896)" fill="#3ba935"/>
      <path id="Trazado_872914-2" data-name="Trazado 872914" d="M119.207,1.7a1.7,1.7,0,1,1-1.7-1.7,1.7,1.7,0,0,1,1.7,1.7" transform="translate(-50.528)" fill="#3ba935"/>
      <path id="Trazado_872915-2" data-name="Trazado 872915" d="M148.161,1.7a1.7,1.7,0,1,1-1.7-1.7,1.7,1.7,0,0,1,1.7,1.7" transform="translate(-63.161)" fill="#3ba935"/>
      <path id="Trazado_872916-2" data-name="Trazado 872916" d="M3.394,33.612a1.7,1.7,0,1,1-1.7-1.7,1.7,1.7,0,0,1,1.7,1.7" transform="translate(0 -13.924)" fill="#3ba935"/>
      <path id="Trazado_872917-2" data-name="Trazado 872917" d="M32.348,33.612a1.7,1.7,0,1,1-1.7-1.7,1.7,1.7,0,0,1,1.7,1.7" transform="translate(-12.632 -13.924)" fill="#3ba935"/>
      <path id="Trazado_872918-2" data-name="Trazado 872918" d="M61.3,33.612a1.7,1.7,0,1,1-1.7-1.7,1.7,1.7,0,0,1,1.7,1.7" transform="translate(-25.264 -13.924)" fill="#3ba935"/>
      <path id="Trazado_872919-2" data-name="Trazado 872919" d="M90.254,33.612a1.7,1.7,0,1,1-1.7-1.7,1.7,1.7,0,0,1,1.7,1.7" transform="translate(-37.896 -13.924)" fill="#3ba935"/>
      <path id="Trazado_872920-2" data-name="Trazado 872920" d="M119.207,33.612a1.7,1.7,0,1,1-1.7-1.7,1.7,1.7,0,0,1,1.7,1.7" transform="translate(-50.528 -13.924)" fill="#3ba935"/>
      <path id="Trazado_872921-2" data-name="Trazado 872921" d="M148.161,33.612a1.7,1.7,0,1,1-1.7-1.7,1.7,1.7,0,0,1,1.7,1.7" transform="translate(-63.161 -13.924)" fill="#3ba935"/>
      <path id="Trazado_872922-2" data-name="Trazado 872922" d="M3.394,65.527a1.7,1.7,0,1,1-1.7-1.7,1.7,1.7,0,0,1,1.7,1.7" transform="translate(0 -27.848)" fill="#3ba935"/>
      <path id="Trazado_872923-2" data-name="Trazado 872923" d="M32.348,65.527a1.7,1.7,0,1,1-1.7-1.7,1.7,1.7,0,0,1,1.7,1.7" transform="translate(-12.632 -27.848)" fill="#3ba935"/>
      <path id="Trazado_872924-2" data-name="Trazado 872924" d="M61.3,65.527a1.7,1.7,0,1,1-1.7-1.7,1.7,1.7,0,0,1,1.7,1.7" transform="translate(-25.264 -27.848)" fill="#3ba935"/>
      <path id="Trazado_872925-2" data-name="Trazado 872925" d="M90.254,65.527a1.7,1.7,0,1,1-1.7-1.7,1.7,1.7,0,0,1,1.7,1.7" transform="translate(-37.896 -27.848)" fill="#3ba935"/>
      <path id="Trazado_872926-2" data-name="Trazado 872926" d="M119.207,65.527a1.7,1.7,0,1,1-1.7-1.7,1.7,1.7,0,0,1,1.7,1.7" transform="translate(-50.528 -27.848)" fill="#3ba935"/>
      <path id="Trazado_872927-2" data-name="Trazado 872927" d="M148.161,65.527a1.7,1.7,0,1,1-1.7-1.7,1.7,1.7,0,0,1,1.7,1.7" transform="translate(-63.161 -27.848)" fill="#3ba935"/>
      <path id="Trazado_872928-2" data-name="Trazado 872928" d="M3.394,97.442a1.7,1.7,0,1,1-1.7-1.7,1.7,1.7,0,0,1,1.7,1.7" transform="translate(0 -41.773)" fill="#3ba935"/>
      <path id="Trazado_872929-2" data-name="Trazado 872929" d="M32.348,97.442a1.7,1.7,0,1,1-1.7-1.7,1.7,1.7,0,0,1,1.7,1.7" transform="translate(-12.632 -41.773)" fill="#3ba935"/>
      <path id="Trazado_872930-2" data-name="Trazado 872930" d="M61.3,97.442a1.7,1.7,0,1,1-1.7-1.7,1.7,1.7,0,0,1,1.7,1.7" transform="translate(-25.264 -41.773)" fill="#3ba935"/>
      <path id="Trazado_872931-2" data-name="Trazado 872931" d="M90.254,97.442a1.7,1.7,0,1,1-1.7-1.7,1.7,1.7,0,0,1,1.7,1.7" transform="translate(-37.896 -41.773)" fill="#3ba935"/>
      <path id="Trazado_872932-2" data-name="Trazado 872932" d="M119.207,97.442a1.7,1.7,0,1,1-1.7-1.7,1.7,1.7,0,0,1,1.7,1.7" transform="translate(-50.528 -41.773)" fill="#3ba935"/>
      <path id="Trazado_872933-2" data-name="Trazado 872933" d="M148.161,97.442a1.7,1.7,0,1,1-1.7-1.7,1.7,1.7,0,0,1,1.7,1.7" transform="translate(-63.161 -41.773)" fill="#3ba935"/>
      <path id="Trazado_872934-2" data-name="Trazado 872934" d="M3.394,129.357a1.7,1.7,0,1,1-1.7-1.7,1.7,1.7,0,0,1,1.7,1.7" transform="translate(0 -55.697)" fill="#3ba935"/>
      <path id="Trazado_872935-2" data-name="Trazado 872935" d="M32.348,129.357a1.7,1.7,0,1,1-1.7-1.7,1.7,1.7,0,0,1,1.7,1.7" transform="translate(-12.632 -55.697)" fill="#3ba935"/>
      <path id="Trazado_872936-2" data-name="Trazado 872936" d="M61.3,129.357a1.7,1.7,0,1,1-1.7-1.7,1.7,1.7,0,0,1,1.7,1.7" transform="translate(-25.264 -55.697)" fill="#3ba935"/>
      <path id="Trazado_872937-2" data-name="Trazado 872937" d="M90.254,129.357a1.7,1.7,0,1,1-1.7-1.7,1.7,1.7,0,0,1,1.7,1.7" transform="translate(-37.896 -55.697)" fill="#3ba935"/>
      <path id="Trazado_872938-2" data-name="Trazado 872938" d="M119.207,129.357a1.7,1.7,0,1,1-1.7-1.7,1.7,1.7,0,0,1,1.7,1.7" transform="translate(-50.528 -55.697)" fill="#3ba935"/>
      <path id="Trazado_872939-2" data-name="Trazado 872939" d="M148.161,129.357a1.7,1.7,0,1,1-1.7-1.7,1.7,1.7,0,0,1,1.7,1.7" transform="translate(-63.161 -55.697)" fill="#3ba935"/>
    </g>
  </g>
</svg>
