<svg xmlns="http://www.w3.org/2000/svg" width="758.426" height="231.052" viewBox="0 0 758.426 231.052">
  <g id="Grupo_1107517" data-name="Grupo 1107517" transform="translate(-204.574 -4223.844)">
    <g id="Trazado_879714" data-name="Trazado 879714" transform="translate(204.574 4223.844)" fill="#fff">
      <path d="M 757.92578125 230.5517730712891 L 0.4999906122684479 230.5517730712891 L 0.4999906122684479 0.4999788999557495 L 757.92578125 0.4999788999557495 L 757.92578125 230.5517730712891 Z" stroke="none"/>
      <path d="M 1 0.9999847412109375 L 1 230.0517730712891 L 757.42578125 230.0517730712891 L 757.42578125 0.9999847412109375 L 1 0.9999847412109375 M 0 -1.52587890625e-05 L 758.42578125 -1.52587890625e-05 L 758.42578125 231.0517730712891 L 0 231.0517730712891 L 0 -1.52587890625e-05 Z" stroke="none" fill="#3ba935"/>
    </g>
    <path id="Trazado_879715" data-name="Trazado 879715" d="M2.781,15H1.242V6.547H2.781Zm0-10.617H1.242V2.813H2.781ZM6.523,6.547l.109,1.109a2.871,2.871,0,0,1,1.051-.934,3.158,3.158,0,0,1,1.48-.332,2.615,2.615,0,0,1,1.449.391,2.363,2.363,0,0,1,.91,1.172,3.162,3.162,0,0,1,1.059-1.145,2.769,2.769,0,0,1,1.527-.418,2.531,2.531,0,0,1,2.039.887,4.051,4.051,0,0,1,.75,2.668V15H15.359V9.93a2.81,2.81,0,0,0-.43-1.77,1.567,1.567,0,0,0-1.281-.52,1.631,1.631,0,0,0-1.277.547A2.381,2.381,0,0,0,11.8,9.57V15H10.25V9.93a2.772,2.772,0,0,0-.441-1.738,1.532,1.532,0,0,0-1.27-.551,2.115,2.115,0,0,0-1.156.289,1.867,1.867,0,0,0-.7.813V15H5.148V6.547Zm19.813,4.547a4.659,4.659,0,0,1-.875,2.949,2.893,2.893,0,0,1-2.414,1.121,3.354,3.354,0,0,1-1.371-.262,2.622,2.622,0,0,1-1-.785V18.25H19.133V6.547h1.18l.242,1.094a2.792,2.792,0,0,1,1.031-.93,3.078,3.078,0,0,1,1.438-.32,2.809,2.809,0,0,1,2.441,1.246,5.638,5.638,0,0,1,.871,3.293ZM24.8,10.93a4.467,4.467,0,0,0-.566-2.363,1.835,1.835,0,0,0-1.668-.926,2.054,2.054,0,0,0-1.133.3,2.25,2.25,0,0,0-.758.824v4.086a2.186,2.186,0,0,0,.758.816,2.126,2.126,0,0,0,1.148.293,1.894,1.894,0,0,0,1.656-.8,3.516,3.516,0,0,0,.563-2.066Zm3.07-.234a4.654,4.654,0,0,1,1.016-3.09,3.764,3.764,0,0,1,5.535,0,4.639,4.639,0,0,1,1.02,3.094v.172a4.631,4.631,0,0,1-1.016,3.094,3.781,3.781,0,0,1-5.535,0,4.623,4.623,0,0,1-1.02-3.09Zm1.539.172a4.009,4.009,0,0,0,.566,2.219,2.046,2.046,0,0,0,3.355,0,3.988,3.988,0,0,0,.57-2.219V10.7a3.976,3.976,0,0,0-.574-2.211A1.882,1.882,0,0,0,31.641,7.6a1.856,1.856,0,0,0-1.668.883,4.018,4.018,0,0,0-.566,2.211ZM41.32,7.906l-.789-.047a1.762,1.762,0,0,0-1.027.289,1.855,1.855,0,0,0-.645.813V15H37.32V6.547H38.7l.148,1.234a2.934,2.934,0,0,1,.887-1.023,2.073,2.073,0,0,1,1.215-.367,1.9,1.9,0,0,1,.328.027,2.174,2.174,0,0,1,.258.059Zm3.875-3.4V6.547h1.6V7.688H45.2V12.82a1.149,1.149,0,0,0,.246.836.89.89,0,0,0,.652.242,1.429,1.429,0,0,0,.3-.035,2.2,2.2,0,0,0,.273-.074l.211,1.055a1.36,1.36,0,0,1-.508.23,2.562,2.562,0,0,1-.664.09,1.993,1.993,0,0,1-1.492-.566,2.46,2.46,0,0,1-.555-1.777V7.688H42.313V6.547h1.344V4.508Zm11.227,3.4-.789-.047a1.762,1.762,0,0,0-1.027.289,1.855,1.855,0,0,0-.645.813V15H52.422V6.547H53.8l.148,1.234a2.934,2.934,0,0,1,.887-1.023,2.073,2.073,0,0,1,1.215-.367,1.9,1.9,0,0,1,.328.027,2.174,2.174,0,0,1,.258.059Zm4.953,7.258A3.576,3.576,0,0,1,58.535,14a4.48,4.48,0,0,1-1.02-3.062v-.344a4.386,4.386,0,0,1,1.051-3.012,3.3,3.3,0,0,1,2.566-1.191,3.067,3.067,0,0,1,2.543,1.055,4.345,4.345,0,0,1,.848,2.8v.813H59.117l-.023.039a3.494,3.494,0,0,0,.563,2.066,1.965,1.965,0,0,0,1.719.793,3.872,3.872,0,0,0,1.371-.223,3.061,3.061,0,0,0,1.012-.613l.6,1a3.7,3.7,0,0,1-1.2.738A4.762,4.762,0,0,1,61.375,15.164ZM61.133,7.6a1.673,1.673,0,0,0-1.332.621,2.938,2.938,0,0,0-.645,1.59l.016.039h3.813V9.727A2.462,2.462,0,0,0,62.531,8.2,1.638,1.638,0,0,0,61.133,7.6ZM3.258,52.508v2.039h1.6v1.141h-1.6V60.82a1.149,1.149,0,0,0,.246.836.89.89,0,0,0,.652.242,1.429,1.429,0,0,0,.3-.035,2.2,2.2,0,0,0,.273-.074l.211,1.055a1.36,1.36,0,0,1-.508.23,2.562,2.562,0,0,1-.664.09A1.993,1.993,0,0,1,2.273,62.6a2.46,2.46,0,0,1-.555-1.777V55.688H.375V54.547H1.719V52.508Zm6.75,10.656A3.576,3.576,0,0,1,7.168,62a4.48,4.48,0,0,1-1.02-3.062v-.344A4.386,4.386,0,0,1,7.2,55.582a3.3,3.3,0,0,1,2.566-1.191,3.067,3.067,0,0,1,2.543,1.055,4.345,4.345,0,0,1,.848,2.8v.813H7.75l-.023.039a3.494,3.494,0,0,0,.563,2.066,1.965,1.965,0,0,0,1.719.793,3.872,3.872,0,0,0,1.371-.223,3.061,3.061,0,0,0,1.012-.613l.6,1a3.7,3.7,0,0,1-1.2.738A4.762,4.762,0,0,1,10.008,63.164ZM9.766,55.6a1.673,1.673,0,0,0-1.332.621,2.938,2.938,0,0,0-.645,1.59l.016.039h3.813v-.125a2.462,2.462,0,0,0-.453-1.523A1.638,1.638,0,0,0,9.766,55.6Zm7.984,2.063,1.8-3.117h1.8L18.6,58.727,21.422,63H19.656l-1.875-3.2L15.906,63H14.125l2.82-4.273L14.2,54.547h1.773Zm7.32-5.156v2.039h1.6v1.141h-1.6V60.82a1.149,1.149,0,0,0,.246.836.89.89,0,0,0,.652.242,1.429,1.429,0,0,0,.3-.035,2.2,2.2,0,0,0,.273-.074l.211,1.055a1.36,1.36,0,0,1-.508.23,2.562,2.562,0,0,1-.664.09,1.993,1.993,0,0,1-1.492-.566,2.46,2.46,0,0,1-.555-1.777V55.688H22.188V54.547h1.344V52.508ZM27.961,58.7a4.654,4.654,0,0,1,1.016-3.09,3.764,3.764,0,0,1,5.535,0,4.639,4.639,0,0,1,1.02,3.094v.172a4.631,4.631,0,0,1-1.016,3.094,3.781,3.781,0,0,1-5.535,0,4.623,4.623,0,0,1-1.02-3.09Zm1.539.172a4.009,4.009,0,0,0,.566,2.219,2.046,2.046,0,0,0,3.355,0,3.988,3.988,0,0,0,.57-2.219V58.7a3.976,3.976,0,0,0-.574-2.211,1.882,1.882,0,0,0-1.684-.883,1.856,1.856,0,0,0-1.668.883A4.018,4.018,0,0,0,29.5,58.7Zm18.477-2.3H41.461V55.289h6.516Zm0,3.25H41.461V58.539h6.516ZM58.2,53.734l-.789,1.953h-.758V51.625H58.2Zm-2.414,0L55,55.688h-.758l.008-1.875V51.625h1.539Zm10.734,3.992H61.852V61.8H67.32V63H60.313V51.625h6.922v1.211H61.852v3.68h4.672ZM70.594,63H69.055V50.813h1.539Zm9.7-1.039a1.81,1.81,0,0,0,1.242-.473,1.494,1.494,0,0,0,.531-1.16h1.391l.023.047a2.428,2.428,0,0,1-.937,1.941,3.582,3.582,0,0,1-5-.363,4.674,4.674,0,0,1-.969-3.016v-.328a4.654,4.654,0,0,1,.973-3A3.317,3.317,0,0,1,80.3,54.391a3.189,3.189,0,0,1,2.316.875,2.775,2.775,0,0,1,.871,2.148l-.016.047h-1.4a1.865,1.865,0,0,0-.5-1.316A1.658,1.658,0,0,0,80.3,55.6a1.777,1.777,0,0,0-1.652.879,4.114,4.114,0,0,0-.52,2.129v.328a4.192,4.192,0,0,0,.512,2.148A1.776,1.776,0,0,0,80.3,61.961ZM84.953,58.7a4.654,4.654,0,0,1,1.016-3.09,3.764,3.764,0,0,1,5.535,0,4.639,4.639,0,0,1,1.02,3.094v.172a4.631,4.631,0,0,1-1.016,3.094,3.781,3.781,0,0,1-5.535,0,4.623,4.623,0,0,1-1.02-3.09Zm1.539.172a4.009,4.009,0,0,0,.566,2.219,2.046,2.046,0,0,0,3.355,0,3.988,3.988,0,0,0,.57-2.219V58.7a3.976,3.976,0,0,0-.574-2.211,1.882,1.882,0,0,0-1.684-.883,1.856,1.856,0,0,0-1.668.883,4.018,4.018,0,0,0-.566,2.211Zm11.914-2.961-.789-.047a1.762,1.762,0,0,0-1.027.289,1.854,1.854,0,0,0-.645.813V63H94.406V54.547h1.375l.148,1.234a2.934,2.934,0,0,1,.887-1.023,2.073,2.073,0,0,1,1.215-.367,1.9,1.9,0,0,1,.328.027,2.175,2.175,0,0,1,.258.059Zm5.6,0-.789-.047a1.762,1.762,0,0,0-1.027.289,1.854,1.854,0,0,0-.645.813V63h-1.539V54.547h1.375l.148,1.234a2.934,2.934,0,0,1,.887-1.023,2.073,2.073,0,0,1,1.215-.367,1.9,1.9,0,0,1,.328.027,2.175,2.175,0,0,1,.258.059Zm4.953,7.258A3.576,3.576,0,0,1,106.121,62a4.48,4.48,0,0,1-1.02-3.062v-.344a4.386,4.386,0,0,1,1.051-3.012,3.3,3.3,0,0,1,2.566-1.191,3.067,3.067,0,0,1,2.543,1.055,4.345,4.345,0,0,1,.848,2.8v.813H106.7l-.023.039a3.494,3.494,0,0,0,.563,2.066,1.965,1.965,0,0,0,1.719.793,3.872,3.872,0,0,0,1.371-.223,3.061,3.061,0,0,0,1.012-.613l.6,1a3.7,3.7,0,0,1-1.2.738A4.762,4.762,0,0,1,108.961,63.164Zm-.242-7.562a1.673,1.673,0,0,0-1.332.621,2.938,2.938,0,0,0-.645,1.59l.016.039h3.813v-.125a2.462,2.462,0,0,0-.453-1.523A1.638,1.638,0,0,0,108.719,55.6Zm4.758,3.094a4.654,4.654,0,0,1,1.016-3.09,3.764,3.764,0,0,1,5.535,0,4.639,4.639,0,0,1,1.02,3.094v.172a4.631,4.631,0,0,1-1.016,3.094,3.781,3.781,0,0,1-5.535,0,4.623,4.623,0,0,1-1.02-3.09Zm1.539.172a4.009,4.009,0,0,0,.566,2.219,2.046,2.046,0,0,0,3.355,0,3.988,3.988,0,0,0,.57-2.219V58.7a3.976,3.976,0,0,0-.574-2.211,1.882,1.882,0,0,0-1.684-.883,1.856,1.856,0,0,0-1.668.883,4.018,4.018,0,0,0-.566,2.211Zm11.539.063a5.641,5.641,0,0,1,.871-3.289,2.807,2.807,0,0,1,2.441-1.25,3.027,3.027,0,0,1,1.316.273,2.7,2.7,0,0,1,.98.8V50.813H133.7V63h-1.18l-.234-1.07a2.743,2.743,0,0,1-1.023.922,3.058,3.058,0,0,1-1.414.313,2.9,2.9,0,0,1-2.422-1.121,4.659,4.659,0,0,1-.875-2.949Zm1.539.164a3.588,3.588,0,0,0,.523,2.051,1.828,1.828,0,0,0,1.625.77A2.039,2.039,0,0,0,131.4,61.6a2.334,2.334,0,0,0,.766-.875V56.781a2.37,2.37,0,0,0-.77-.832,2.033,2.033,0,0,0-1.137-.309,1.759,1.759,0,0,0-1.637.914,4.718,4.718,0,0,0-.527,2.375Zm11.406,4.07A3.576,3.576,0,0,1,136.66,62a4.48,4.48,0,0,1-1.02-3.062v-.344a4.386,4.386,0,0,1,1.051-3.012,3.3,3.3,0,0,1,2.566-1.191,3.067,3.067,0,0,1,2.543,1.055,4.345,4.345,0,0,1,.848,2.8v.813h-5.406l-.023.039a3.494,3.494,0,0,0,.563,2.066,1.965,1.965,0,0,0,1.719.793,3.872,3.872,0,0,0,1.371-.223,3.061,3.061,0,0,0,1.012-.613l.6,1a3.7,3.7,0,0,1-1.2.738A4.762,4.762,0,0,1,139.5,63.164Zm-.242-7.562a1.673,1.673,0,0,0-1.332.621,2.938,2.938,0,0,0-.645,1.59l.016.039h3.813v-.125a2.462,2.462,0,0,0-.453-1.523A1.638,1.638,0,0,0,139.258,55.6Zm13.906-3.977H154.7V59.7a3.356,3.356,0,0,1-.965,2.523,3.442,3.442,0,0,1-2.5.938,3.6,3.6,0,0,1-2.5-.832,2.978,2.978,0,0,1-.887-2.418l.016-.047h1.477a2.213,2.213,0,0,0,.492,1.578,1.842,1.842,0,0,0,1.4.516,1.761,1.761,0,0,0,1.391-.617,2.4,2.4,0,0,0,.539-1.641Zm9.328,10.125a2.863,2.863,0,0,1-1.023,1.047,2.8,2.8,0,0,1-1.445.367,2.716,2.716,0,0,1-2.156-.883,4.1,4.1,0,0,1-.773-2.75V54.547h1.539v5a3.147,3.147,0,0,0,.4,1.859,1.481,1.481,0,0,0,1.242.508,2.531,2.531,0,0,0,1.355-.332,2.077,2.077,0,0,0,.809-.941V54.547h1.539V63h-1.383ZM171.414,63q-.078-.383-.121-.676a4.96,4.96,0,0,1-.051-.59,3.588,3.588,0,0,1-1.121,1.02,2.867,2.867,0,0,1-1.488.41,2.763,2.763,0,0,1-2.012-.676,2.486,2.486,0,0,1-.691-1.863,2.183,2.183,0,0,1,.98-1.895,4.579,4.579,0,0,1,2.66-.684h1.672v-.836a1.551,1.551,0,0,0-.453-1.176,1.779,1.779,0,0,0-1.281-.434,1.859,1.859,0,0,0-1.211.375,1.125,1.125,0,0,0-.461.9l-1.461.016-.016-.047a2.023,2.023,0,0,1,.863-1.687,3.578,3.578,0,0,1,2.371-.766,3.49,3.49,0,0,1,2.313.73,2.588,2.588,0,0,1,.875,2.105V61.3a7.923,7.923,0,0,0,.047.875A4.5,4.5,0,0,0,173,63Zm-2.555-1.125a2.739,2.739,0,0,0,1.508-.43,2.042,2.042,0,0,0,.875-.984V59.086h-1.727a2.24,2.24,0,0,0-1.488.469,1.4,1.4,0,0,0-.559,1.1,1.159,1.159,0,0,0,.352.891A1.472,1.472,0,0,0,168.859,61.875Zm7.531-7.328L176.5,55.8a3.069,3.069,0,0,1,1.059-1.043,2.824,2.824,0,0,1,1.449-.371,2.759,2.759,0,0,1,2.117.8,3.515,3.515,0,0,1,.75,2.473V63h-1.539V57.7a2.287,2.287,0,0,0-.441-1.586,1.768,1.768,0,0,0-1.348-.469,2.386,2.386,0,0,0-1.207.285,2.072,2.072,0,0,0-.785.8V63h-1.539V54.547Zm15.2,8.617A3.576,3.576,0,0,1,188.746,62a4.48,4.48,0,0,1-1.02-3.062v-.344a4.386,4.386,0,0,1,1.051-3.012,3.3,3.3,0,0,1,2.566-1.191,3.067,3.067,0,0,1,2.543,1.055,4.345,4.345,0,0,1,.848,2.8v.813h-5.406l-.023.039a3.494,3.494,0,0,0,.563,2.066,1.965,1.965,0,0,0,1.719.793,3.872,3.872,0,0,0,1.371-.223,3.061,3.061,0,0,0,1.012-.613l.6,1a3.7,3.7,0,0,1-1.2.738A4.762,4.762,0,0,1,191.586,63.164Zm-.242-7.562a1.673,1.673,0,0,0-1.332.621,2.938,2.938,0,0,0-.645,1.59l.016.039H193.2v-.125a2.462,2.462,0,0,0-.453-1.523A1.638,1.638,0,0,0,191.344,55.6Zm10.031,5.125a1.026,1.026,0,0,0-.387-.828,3.732,3.732,0,0,0-1.465-.562,6.146,6.146,0,0,1-2.293-.9,1.814,1.814,0,0,1-.8-1.547,2.229,2.229,0,0,1,.879-1.766,3.879,3.879,0,0,1,4.605.047,2.239,2.239,0,0,1,.852,1.82l-.016.047h-1.469a1.331,1.331,0,0,0-.48-.992,1.717,1.717,0,0,0-1.215-.445,1.751,1.751,0,0,0-1.215.367,1.146,1.146,0,0,0-.4.875.927.927,0,0,0,.348.773,3.848,3.848,0,0,0,1.434.5,6.058,6.058,0,0,1,2.359.93,1.872,1.872,0,0,1,.8,1.57,2.226,2.226,0,0,1-.91,1.836,3.754,3.754,0,0,1-2.379.711,3.715,3.715,0,0,1-2.547-.82,2.341,2.341,0,0,1-.883-1.914l.016-.047h1.469a1.424,1.424,0,0,0,.609,1.2,2.358,2.358,0,0,0,1.336.379,2.1,2.1,0,0,0,1.285-.348A1.063,1.063,0,0,0,201.375,60.727Zm9.2-6.18V63.7a2.807,2.807,0,0,1-.672,2.012,2.452,2.452,0,0,1-1.867.707,2.549,2.549,0,0,1-.441-.035,3.49,3.49,0,0,1-.426-.105l.109-1.211a1.621,1.621,0,0,0,.313.066,2.609,2.609,0,0,0,.336.027,1.02,1.02,0,0,0,.809-.344,1.681,1.681,0,0,0,.3-1.117V54.547Zm-.047-2.2h-1.539V50.813h1.539Zm7.781,9.4a2.863,2.863,0,0,1-1.023,1.047,2.8,2.8,0,0,1-1.445.367,2.716,2.716,0,0,1-2.156-.883,4.1,4.1,0,0,1-.773-2.75V54.547h1.539v5a3.147,3.147,0,0,0,.4,1.859,1.481,1.481,0,0,0,1.242.508,2.531,2.531,0,0,0,1.355-.332,2.077,2.077,0,0,0,.809-.941V54.547H219.8V63h-1.383ZM227.234,63q-.078-.383-.121-.676a4.96,4.96,0,0,1-.051-.59,3.588,3.588,0,0,1-1.121,1.02,2.867,2.867,0,0,1-1.488.41,2.763,2.763,0,0,1-2.012-.676,2.486,2.486,0,0,1-.691-1.863,2.183,2.183,0,0,1,.98-1.895,4.579,4.579,0,0,1,2.66-.684h1.672v-.836a1.551,1.551,0,0,0-.453-1.176,1.779,1.779,0,0,0-1.281-.434,1.859,1.859,0,0,0-1.211.375,1.125,1.125,0,0,0-.461.9l-1.461.016-.016-.047a2.023,2.023,0,0,1,.863-1.687,3.578,3.578,0,0,1,2.371-.766,3.49,3.49,0,0,1,2.313.73,2.588,2.588,0,0,1,.875,2.105V61.3a7.923,7.923,0,0,0,.047.875,4.5,4.5,0,0,0,.172.828Zm-2.555-1.125a2.739,2.739,0,0,0,1.508-.43,2.042,2.042,0,0,0,.875-.984V59.086h-1.727a2.24,2.24,0,0,0-1.488.469,1.4,1.4,0,0,0-.559,1.1,1.159,1.159,0,0,0,.352.891A1.472,1.472,0,0,0,224.68,61.875Zm7.531-7.328.109,1.258a3.069,3.069,0,0,1,1.059-1.043,2.824,2.824,0,0,1,1.449-.371,2.759,2.759,0,0,1,2.117.8,3.515,3.515,0,0,1,.75,2.473V63h-1.539V57.7a2.287,2.287,0,0,0-.441-1.586,1.768,1.768,0,0,0-1.348-.469,2.386,2.386,0,0,0-1.207.285,2.072,2.072,0,0,0-.785.8V63h-1.539V54.547Zm20.133,4.531a5.191,5.191,0,0,1-.937,2.879,2.985,2.985,0,0,1-2.594,1.207,1.549,1.549,0,0,1-.984-.324,1.781,1.781,0,0,1-.594-.918,2.61,2.61,0,0,1-.953.934,2.686,2.686,0,0,1-1.312.309,1.672,1.672,0,0,1-1.516-.941,4.161,4.161,0,0,1-.4-2.473,6.363,6.363,0,0,1,1.074-3.246,2.638,2.638,0,0,1,2.184-1.223,3.568,3.568,0,0,1,1.32.2,5.34,5.34,0,0,1,1.086.625l-.031.031h.047l-.4,4.57a1.851,1.851,0,0,0,.168,1.184.751.751,0,0,0,.637.324,1.763,1.763,0,0,0,1.539-.887,4.435,4.435,0,0,0,.641-2.254,7.1,7.1,0,0,0-1.125-4.652,4.527,4.527,0,0,0-3.875-1.668,4.739,4.739,0,0,0-3.871,1.8,7.748,7.748,0,0,0-1.582,4.7,6.875,6.875,0,0,0,1.172,4.645,4.466,4.466,0,0,0,3.766,1.707,6.019,6.019,0,0,0,1.395-.168,4.581,4.581,0,0,0,1.191-.441l.3.836a4.3,4.3,0,0,1-1.332.512,7.132,7.132,0,0,1-1.582.184,5.636,5.636,0,0,1-4.59-1.949,7.558,7.558,0,0,1-1.48-5.324,8.517,8.517,0,0,1,1.945-5.375,5.929,5.929,0,0,1,4.7-2.07,5.508,5.508,0,0,1,4.543,1.953A7.681,7.681,0,0,1,252.344,59.078Zm-7.906.672a3.652,3.652,0,0,0,.168,1.688.86.86,0,0,0,.832.578,2.152,2.152,0,0,0,.914-.191,1.95,1.95,0,0,0,.758-.684,1.662,1.662,0,0,1,0-.2q0-.105.02-.23l.367-4.2a2.352,2.352,0,0,0-.426-.148,1.942,1.942,0,0,0-.465-.055,1.644,1.644,0,0,0-1.492.855A6.242,6.242,0,0,0,244.438,59.75Zm13.313,3.414A3.576,3.576,0,0,1,254.91,62a4.48,4.48,0,0,1-1.02-3.062v-.344a4.386,4.386,0,0,1,1.051-3.012,3.3,3.3,0,0,1,2.566-1.191,3.067,3.067,0,0,1,2.543,1.055,4.345,4.345,0,0,1,.848,2.8v.813h-5.406l-.023.039a3.494,3.494,0,0,0,.563,2.066,1.965,1.965,0,0,0,1.719.793,3.872,3.872,0,0,0,1.371-.223,3.061,3.061,0,0,0,1.012-.613l.6,1a3.7,3.7,0,0,1-1.2.738A4.762,4.762,0,0,1,257.75,63.164Zm-.242-7.562a1.673,1.673,0,0,0-1.332.621,2.938,2.938,0,0,0-.645,1.59l.016.039h3.813v-.125a2.461,2.461,0,0,0-.453-1.523A1.638,1.638,0,0,0,257.508,55.6Zm7.984,2.063,1.8-3.117h1.8l-2.742,4.18L269.164,63H267.4l-1.875-3.2L263.648,63h-1.781l2.82-4.273-2.742-4.18h1.773ZM275.867,63q-.078-.383-.121-.676a4.96,4.96,0,0,1-.051-.59,3.589,3.589,0,0,1-1.121,1.02,2.867,2.867,0,0,1-1.488.41,2.763,2.763,0,0,1-2.012-.676,2.486,2.486,0,0,1-.691-1.863,2.183,2.183,0,0,1,.98-1.895,4.579,4.579,0,0,1,2.66-.684H275.7v-.836a1.551,1.551,0,0,0-.453-1.176,1.779,1.779,0,0,0-1.281-.434,1.859,1.859,0,0,0-1.211.375,1.125,1.125,0,0,0-.461.9l-1.461.016-.016-.047a2.023,2.023,0,0,1,.863-1.687,3.578,3.578,0,0,1,2.371-.766,3.49,3.49,0,0,1,2.313.73,2.588,2.588,0,0,1,.875,2.105V61.3a7.923,7.923,0,0,0,.047.875,4.5,4.5,0,0,0,.172.828Zm-2.555-1.125a2.739,2.739,0,0,0,1.508-.43,2.042,2.042,0,0,0,.875-.984V59.086h-1.727a2.24,2.24,0,0,0-1.488.469,1.4,1.4,0,0,0-.559,1.1,1.159,1.159,0,0,0,.352.891A1.472,1.472,0,0,0,273.313,61.875Zm7.531-7.328.109,1.109A2.871,2.871,0,0,1,282,54.723a3.157,3.157,0,0,1,1.48-.332,2.615,2.615,0,0,1,1.449.391,2.363,2.363,0,0,1,.91,1.172,3.162,3.162,0,0,1,1.059-1.145,2.769,2.769,0,0,1,1.527-.418,2.531,2.531,0,0,1,2.039.887,4.051,4.051,0,0,1,.75,2.668V63H289.68V57.93a2.81,2.81,0,0,0-.43-1.77,1.567,1.567,0,0,0-1.281-.52,1.631,1.631,0,0,0-1.277.547,2.381,2.381,0,0,0-.574,1.383V63H284.57V57.93a2.772,2.772,0,0,0-.441-1.738,1.532,1.532,0,0,0-1.27-.551,2.115,2.115,0,0,0-1.156.289,1.867,1.867,0,0,0-.7.813V63h-1.539V54.547Zm19.813,4.547a4.659,4.659,0,0,1-.875,2.949,2.893,2.893,0,0,1-2.414,1.121A3.354,3.354,0,0,1,296,62.9a2.622,2.622,0,0,1-1-.785V66.25h-1.539v-11.7h1.18l.242,1.094a2.792,2.792,0,0,1,1.031-.93,3.078,3.078,0,0,1,1.438-.32,2.809,2.809,0,0,1,2.441,1.246,5.638,5.638,0,0,1,.871,3.293Zm-1.539-.164a4.467,4.467,0,0,0-.566-2.363,1.835,1.835,0,0,0-1.668-.926,2.053,2.053,0,0,0-1.133.3,2.25,2.25,0,0,0-.758.824v4.086a2.186,2.186,0,0,0,.758.816,2.126,2.126,0,0,0,1.148.293,1.894,1.894,0,0,0,1.656-.8,3.516,3.516,0,0,0,.563-2.066ZM304.211,63h-1.539V50.813h1.539Zm5.867.164A3.576,3.576,0,0,1,307.238,62a4.48,4.48,0,0,1-1.02-3.062v-.344a4.386,4.386,0,0,1,1.051-3.012,3.3,3.3,0,0,1,2.566-1.191,3.067,3.067,0,0,1,2.543,1.055,4.345,4.345,0,0,1,.848,2.8v.813H307.82l-.023.039a3.494,3.494,0,0,0,.563,2.066,1.965,1.965,0,0,0,1.719.793,3.872,3.872,0,0,0,1.371-.223,3.061,3.061,0,0,0,1.012-.613l.6,1a3.7,3.7,0,0,1-1.2.738A4.762,4.762,0,0,1,310.078,63.164Zm-.242-7.562a1.673,1.673,0,0,0-1.332.621,2.938,2.938,0,0,0-.645,1.59l.016.039h3.813v-.125a2.461,2.461,0,0,0-.453-1.523A1.638,1.638,0,0,0,309.836,55.6Zm6.8,7.4h-1.539V61.422h1.539Zm5.961-1.039a1.81,1.81,0,0,0,1.242-.473,1.494,1.494,0,0,0,.531-1.16h1.391l.023.047a2.427,2.427,0,0,1-.937,1.941,3.582,3.582,0,0,1-5-.363,4.674,4.674,0,0,1-.969-3.016v-.328a4.654,4.654,0,0,1,.973-3,3.317,3.317,0,0,1,2.746-1.215,3.189,3.189,0,0,1,2.316.875,2.775,2.775,0,0,1,.871,2.148l-.016.047h-1.4a1.865,1.865,0,0,0-.5-1.316,1.658,1.658,0,0,0-1.27-.543,1.777,1.777,0,0,0-1.652.879,4.114,4.114,0,0,0-.52,2.129v.328a4.192,4.192,0,0,0,.512,2.148A1.776,1.776,0,0,0,322.594,61.961ZM327.25,58.7a4.654,4.654,0,0,1,1.016-3.09,3.764,3.764,0,0,1,5.535,0,4.639,4.639,0,0,1,1.02,3.094v.172a4.631,4.631,0,0,1-1.016,3.094,3.781,3.781,0,0,1-5.535,0,4.623,4.623,0,0,1-1.02-3.09Zm1.539.172a4.009,4.009,0,0,0,.566,2.219,2.046,2.046,0,0,0,3.355,0,3.988,3.988,0,0,0,.57-2.219V58.7a3.976,3.976,0,0,0-.574-2.211,1.882,1.882,0,0,0-1.684-.883,1.856,1.856,0,0,0-1.668.883,4.018,4.018,0,0,0-.566,2.211Zm9.289-4.32.109,1.109a2.871,2.871,0,0,1,1.051-.934,3.157,3.157,0,0,1,1.48-.332,2.615,2.615,0,0,1,1.449.391,2.363,2.363,0,0,1,.91,1.172,3.162,3.162,0,0,1,1.059-1.145,2.769,2.769,0,0,1,1.527-.418,2.531,2.531,0,0,1,2.039.887,4.051,4.051,0,0,1,.75,2.668V63h-1.539V57.93a2.81,2.81,0,0,0-.43-1.77,1.567,1.567,0,0,0-1.281-.52,1.631,1.631,0,0,0-1.277.547,2.381,2.381,0,0,0-.574,1.383V63H341.8V57.93a2.772,2.772,0,0,0-.441-1.738,1.532,1.532,0,0,0-1.27-.551,2.115,2.115,0,0,0-1.156.289,1.867,1.867,0,0,0-.7.813V63H336.7V54.547Zm19.172,5.32.273,1.063h.047l2.078-6.383h1.711L357.8,64.3a4.383,4.383,0,0,1-.918,1.484,2.113,2.113,0,0,1-1.613.633,3.363,3.363,0,0,1-.477-.043q-.289-.043-.445-.082l.156-1.211a2.061,2.061,0,0,1,.277.016q.324.023.41.023a.95.95,0,0,0,.8-.437,4.542,4.542,0,0,0,.523-.969l.367-.883-3.141-8.281h1.719Zm14.352.859a1.026,1.026,0,0,0-.387-.828,3.732,3.732,0,0,0-1.465-.562,6.146,6.146,0,0,1-2.293-.9,1.814,1.814,0,0,1-.8-1.547,2.229,2.229,0,0,1,.879-1.766,3.879,3.879,0,0,1,4.605.047,2.239,2.239,0,0,1,.852,1.82l-.016.047h-1.469a1.331,1.331,0,0,0-.48-.992,1.717,1.717,0,0,0-1.215-.445,1.751,1.751,0,0,0-1.215.367,1.146,1.146,0,0,0-.4.875.927.927,0,0,0,.348.773,3.848,3.848,0,0,0,1.434.5,6.058,6.058,0,0,1,2.359.93,1.872,1.872,0,0,1,.8,1.57,2.226,2.226,0,0,1-.91,1.836,3.754,3.754,0,0,1-2.379.711,3.715,3.715,0,0,1-2.547-.82,2.341,2.341,0,0,1-.883-1.914l.016-.047h1.469a1.424,1.424,0,0,0,.609,1.2,2.358,2.358,0,0,0,1.336.379,2.1,2.1,0,0,0,1.285-.348A1.063,1.063,0,0,0,371.6,60.727Zm8.82,1.023A2.863,2.863,0,0,1,379.4,62.8a2.8,2.8,0,0,1-1.445.367,2.716,2.716,0,0,1-2.156-.883,4.1,4.1,0,0,1-.773-2.75V54.547h1.539v5a3.147,3.147,0,0,0,.4,1.859,1.481,1.481,0,0,0,1.242.508,2.531,2.531,0,0,0,1.355-.332,2.077,2.077,0,0,0,.809-.941V54.547h1.539V63h-1.383Zm9.844-9.242v2.039h1.6v1.141h-1.6V60.82a1.149,1.149,0,0,0,.246.836.89.89,0,0,0,.652.242,1.43,1.43,0,0,0,.3-.035,2.2,2.2,0,0,0,.273-.074l.211,1.055a1.36,1.36,0,0,1-.508.23,2.562,2.562,0,0,1-.664.09,1.993,1.993,0,0,1-1.492-.566,2.46,2.46,0,0,1-.555-1.777V55.688h-1.344V54.547h1.344V52.508Zm6.75,10.656A3.576,3.576,0,0,1,394.176,62a4.48,4.48,0,0,1-1.02-3.062v-.344a4.386,4.386,0,0,1,1.051-3.012,3.3,3.3,0,0,1,2.566-1.191,3.067,3.067,0,0,1,2.543,1.055,4.345,4.345,0,0,1,.848,2.8v.813h-5.406l-.023.039a3.494,3.494,0,0,0,.563,2.066,1.965,1.965,0,0,0,1.719.793,3.872,3.872,0,0,0,1.371-.223,3.061,3.061,0,0,0,1.012-.613l.6,1a3.7,3.7,0,0,1-1.2.738A4.762,4.762,0,0,1,397.016,63.164Zm-.242-7.562a1.673,1.673,0,0,0-1.332.621,2.938,2.938,0,0,0-.645,1.59l.016.039h3.813v-.125a2.461,2.461,0,0,0-.453-1.523A1.638,1.638,0,0,0,396.773,55.6Zm6.781,7.4h-1.539V50.813h1.539Zm5.867.164A3.576,3.576,0,0,1,406.582,62a4.48,4.48,0,0,1-1.02-3.062v-.344a4.386,4.386,0,0,1,1.051-3.012,3.3,3.3,0,0,1,2.566-1.191,3.067,3.067,0,0,1,2.543,1.055,4.345,4.345,0,0,1,.848,2.8v.813h-5.406l-.023.039a3.494,3.494,0,0,0,.563,2.066,1.965,1.965,0,0,0,1.719.793,3.872,3.872,0,0,0,1.371-.223,3.061,3.061,0,0,0,1.012-.613l.6,1a3.7,3.7,0,0,1-1.2.738A4.762,4.762,0,0,1,409.422,63.164ZM409.18,55.6a1.673,1.673,0,0,0-1.332.621,2.938,2.938,0,0,0-.645,1.59l.016.039h3.813v-.125a2.461,2.461,0,0,0-.453-1.523A1.638,1.638,0,0,0,409.18,55.6Zm.578-4.648h1.8l.016.047-2.1,2.031h-1.156ZM414.938,63V55.688h-1.32V54.547h1.32v-1.07a2.9,2.9,0,0,1,.707-2.09,2.6,2.6,0,0,1,1.973-.738,3.4,3.4,0,0,1,.535.043q.27.043.6.121l-.187,1.172q-.141-.031-.34-.055a3.579,3.579,0,0,0-.418-.023,1.215,1.215,0,0,0-1,.4,1.809,1.809,0,0,0-.328,1.168v1.07h1.531v1.141h-1.531V63Zm4.266-4.3a4.654,4.654,0,0,1,1.016-3.09,3.764,3.764,0,0,1,5.535,0,4.639,4.639,0,0,1,1.02,3.094v.172a4.631,4.631,0,0,1-1.016,3.094,3.781,3.781,0,0,1-5.535,0,4.623,4.623,0,0,1-1.02-3.09Zm1.539.172a4.009,4.009,0,0,0,.566,2.219,2.046,2.046,0,0,0,3.355,0,3.988,3.988,0,0,0,.57-2.219V58.7a3.976,3.976,0,0,0-.574-2.211,1.882,1.882,0,0,0-1.684-.883,1.856,1.856,0,0,0-1.668.883,4.018,4.018,0,0,0-.566,2.211Zm9.289-4.32.109,1.258a3.069,3.069,0,0,1,1.059-1.043,2.824,2.824,0,0,1,1.449-.371,2.759,2.759,0,0,1,2.117.8,3.515,3.515,0,0,1,.75,2.473V63h-1.539V57.7a2.287,2.287,0,0,0-.441-1.586,1.768,1.768,0,0,0-1.348-.469,2.386,2.386,0,0,0-1.207.285,2.073,2.073,0,0,0-.785.8V63h-1.539V54.547Zm7.359,4.148a4.654,4.654,0,0,1,1.016-3.09,3.764,3.764,0,0,1,5.535,0,4.639,4.639,0,0,1,1.02,3.094v.172a4.631,4.631,0,0,1-1.016,3.094,3.781,3.781,0,0,1-5.535,0,4.623,4.623,0,0,1-1.02-3.09Zm1.539.172a4.009,4.009,0,0,0,.566,2.219,2.046,2.046,0,0,0,3.355,0,3.988,3.988,0,0,0,.57-2.219V58.7a3.976,3.976,0,0,0-.574-2.211,1.882,1.882,0,0,0-1.684-.883,1.856,1.856,0,0,0-1.668.883,4.018,4.018,0,0,0-.566,2.211Zm15.391,4.3A3.576,3.576,0,0,1,451.48,62a4.48,4.48,0,0,1-1.02-3.062v-.344a4.386,4.386,0,0,1,1.051-3.012,3.3,3.3,0,0,1,2.566-1.191,3.067,3.067,0,0,1,2.543,1.055,4.345,4.345,0,0,1,.848,2.8v.813h-5.406l-.023.039a3.494,3.494,0,0,0,.563,2.066,1.965,1.965,0,0,0,1.719.793,3.872,3.872,0,0,0,1.371-.223,3.061,3.061,0,0,0,1.012-.613l.6,1a3.7,3.7,0,0,1-1.2.738A4.762,4.762,0,0,1,454.32,63.164Zm-.242-7.562a1.673,1.673,0,0,0-1.332.621,2.938,2.938,0,0,0-.645,1.59l.016.039h3.813v-.125a2.461,2.461,0,0,0-.453-1.523A1.638,1.638,0,0,0,454.078,55.6Zm10.031,5.125a1.026,1.026,0,0,0-.387-.828,3.732,3.732,0,0,0-1.465-.562,6.146,6.146,0,0,1-2.293-.9,1.814,1.814,0,0,1-.8-1.547,2.229,2.229,0,0,1,.879-1.766,3.879,3.879,0,0,1,4.605.047,2.239,2.239,0,0,1,.852,1.82l-.016.047h-1.469a1.331,1.331,0,0,0-.48-.992,1.717,1.717,0,0,0-1.215-.445,1.751,1.751,0,0,0-1.215.367,1.146,1.146,0,0,0-.4.875.927.927,0,0,0,.348.773,3.848,3.848,0,0,0,1.434.5,6.058,6.058,0,0,1,2.359.93,1.872,1.872,0,0,1,.8,1.57,2.226,2.226,0,0,1-.91,1.836,3.754,3.754,0,0,1-2.379.711,3.715,3.715,0,0,1-2.547-.82,2.341,2.341,0,0,1-.883-1.914l.016-.047h1.469a1.424,1.424,0,0,0,.609,1.2,2.358,2.358,0,0,0,1.336.379,2.1,2.1,0,0,0,1.285-.348A1.063,1.063,0,0,0,464.109,60.727ZM475.969,63h-1.547V53.047l-2.477.023V51.883l4.023-.422Zm11.7,0H480.6V61.945l3.57-4.258a10.727,10.727,0,0,0,1.293-1.84,3.07,3.07,0,0,0,.34-1.379,1.841,1.841,0,0,0-.461-1.293,1.639,1.639,0,0,0-1.273-.5,1.908,1.908,0,0,0-1.535.617,2.286,2.286,0,0,0-.527,1.539h-1.484l-.016-.047a3.068,3.068,0,0,1,.93-2.355,3.566,3.566,0,0,1,2.633-.965,3.31,3.31,0,0,1,2.4.844,2.894,2.894,0,0,1,.875,2.18,3.476,3.476,0,0,1-.5,1.758,19.609,19.609,0,0,1-1.512,2.156l-2.867,3.359.016.039h5.18Zm5.3-6.469a1.8,1.8,0,0,0,1.457-.512,2.179,2.179,0,0,0,.426-1.434,2.02,2.02,0,0,0-.465-1.387A1.741,1.741,0,0,0,493,52.672a2.057,2.057,0,0,0-1.473.551,1.819,1.819,0,0,0-.582,1.379h-1.469l-.023-.047a2.718,2.718,0,0,1,.969-2.187A3.709,3.709,0,0,1,493,51.461a3.6,3.6,0,0,1,2.484.8,2.991,2.991,0,0,1,.9,2.355,2.65,2.65,0,0,1-.418,1.453,2.818,2.818,0,0,1-1.168,1.023,2.688,2.688,0,0,1,1.309,1.043,3.063,3.063,0,0,1,.449,1.691,3.122,3.122,0,0,1-.988,2.449,3.7,3.7,0,0,1-2.566.887,4.064,4.064,0,0,1-2.559-.855,2.62,2.62,0,0,1-1.066-2.262l.016-.047h1.469a1.846,1.846,0,0,0,.6,1.395,2.152,2.152,0,0,0,1.543.566,1.914,1.914,0,0,0,1.477-.582,2.147,2.147,0,0,0,.539-1.52,2.273,2.273,0,0,0-.5-1.6,2.041,2.041,0,0,0-1.559-.531H491.7v-1.2Zm10.4,2.266H498.75v-1.2h4.609Zm8.273.375h1.57v1.2h-1.57V63H510.1V60.375h-4.883v-.867l4.789-7.883h1.625Zm-4.766,0H510.1V53.836l-.047-.008-.148.391Zm8.164-1.227.656-6.32h5.7v1.367h-4.4l-.367,3.273a3.512,3.512,0,0,1,.813-.449,2.858,2.858,0,0,1,1.016-.184,3.1,3.1,0,0,1,2.473.988,4.632,4.632,0,0,1-.023,5.5,3.382,3.382,0,0,1-2.676,1.039,3.666,3.666,0,0,1-2.406-.789,2.731,2.731,0,0,1-.922-2.32l.016-.047H516.3a1.9,1.9,0,0,0,.535,1.441,1.924,1.924,0,0,0,1.387.512,1.815,1.815,0,0,0,1.516-.687,2.976,2.976,0,0,0,.539-1.883,2.71,2.71,0,0,0-.543-1.758,1.835,1.835,0,0,0-1.512-.672,2.416,2.416,0,0,0-1.312.273,1.6,1.6,0,0,0-.6.844Zm12.648-6.484a6.679,6.679,0,0,1,1.328.133,4.8,4.8,0,0,1,1.086.336l-.328,1.18a5.748,5.748,0,0,0-.937-.316,4.842,4.842,0,0,0-1.148-.121,2.06,2.06,0,0,0-1.738.914,3.817,3.817,0,0,0-.668,2.313v.883a3.48,3.48,0,0,1,1.129-.75,3.59,3.59,0,0,1,1.4-.273,2.921,2.921,0,0,1,2.324.984,3.8,3.8,0,0,1,.855,2.586,3.97,3.97,0,0,1-.957,2.793,3.333,3.333,0,0,1-2.582,1.043,3.385,3.385,0,0,1-2.641-1.2,4.767,4.767,0,0,1-1.062-3.277V56.07a4.849,4.849,0,0,1,1.137-3.3A3.572,3.572,0,0,1,527.68,51.461Zm-.367,5.445a2.4,2.4,0,0,0-1.246.309,2.065,2.065,0,0,0-.793.832v.789a3.731,3.731,0,0,0,.629,2.285,1.872,1.872,0,0,0,1.543.84,1.708,1.708,0,0,0,1.48-.73,3.21,3.21,0,0,0,.52-1.9,2.634,2.634,0,0,0-.559-1.766A1.954,1.954,0,0,0,527.313,56.906ZM537.594,58.8h-4.609v-1.2h4.609Zm9.6-5.961a16.909,16.909,0,0,0-2.914,4.523,12.12,12.12,0,0,0-.758,4.4V63h-1.539V61.758a11,11,0,0,1,.949-4.645,20.35,20.35,0,0,1,2.746-4.277h-6.031V51.625H547.2Zm8.594,1.7a2.563,2.563,0,0,1-.5,1.566,3.028,3.028,0,0,1-1.328,1.012,3.333,3.333,0,0,1,1.555,1.07,2.641,2.641,0,0,1,.586,1.7,3,3,0,0,1-1.02,2.43,3.892,3.892,0,0,1-2.6.859,4.194,4.194,0,0,1-2.73-.859,2.952,2.952,0,0,1-1.059-2.43,2.608,2.608,0,0,1,.6-1.7,3.446,3.446,0,0,1,1.613-1.078,3,3,0,0,1-1.383-1,2.536,2.536,0,0,1-.508-1.566,2.787,2.787,0,0,1,.957-2.281,3.8,3.8,0,0,1,2.5-.789,3.558,3.558,0,0,1,2.387.793A2.822,2.822,0,0,1,555.789,54.531Zm-1.219,5.313a2.067,2.067,0,0,0-.605-1.531,2.039,2.039,0,0,0-1.5-.6,2.231,2.231,0,0,0-1.6.6,2.021,2.021,0,0,0-.633,1.531,1.99,1.99,0,0,0,.629,1.539,2.3,2.3,0,0,0,1.621.578,2.02,2.02,0,0,0,2.086-2.117Zm-.32-5.289a1.869,1.869,0,0,0-.512-1.352,1.692,1.692,0,0,0-1.27-.531,1.917,1.917,0,0,0-1.375.512,1.8,1.8,0,0,0-.539,1.371,1.86,1.86,0,0,0,1.93,1.945,1.655,1.655,0,0,0,1.262-.539A1.976,1.976,0,0,0,554.25,54.555Zm6.57,7.406a2.289,2.289,0,0,0,1.793-.766,3.153,3.153,0,0,0,.684-2.172v-.969a2.48,2.48,0,0,1-.934.84,2.65,2.65,0,0,1-1.223.285,3.329,3.329,0,0,1-2.574-1.012,4.578,4.578,0,0,1,.059-5.617,3.185,3.185,0,0,1,2.453-1.09,3.622,3.622,0,0,1,2.734,1.07,4.181,4.181,0,0,1,1.031,3.023v3.453a4.077,4.077,0,0,1-1.125,3.059,3.976,3.976,0,0,1-2.9,1.1,6.3,6.3,0,0,1-1.23-.125,5.581,5.581,0,0,1-1.176-.367l.234-1.172a4.438,4.438,0,0,0,1.012.355A5.633,5.633,0,0,0,560.82,61.961Zm.32-3.984a2.39,2.39,0,0,0,1.355-.367,2.152,2.152,0,0,0,.8-.937V55.328a3.01,3.01,0,0,0-.57-1.965,1.96,1.96,0,0,0-1.6-.691,1.683,1.683,0,0,0-1.395.746,3.156,3.156,0,0,0-.559,1.941,3.191,3.191,0,0,0,.516,1.895A1.681,1.681,0,0,0,561.141,57.977Zm12.9,1.008a4.489,4.489,0,0,1-.98,3.055,3.652,3.652,0,0,1-5.273,0,4.466,4.466,0,0,1-.988-3.055V55.641a4.5,4.5,0,0,1,.98-3.047,3.635,3.635,0,0,1,5.273,0,4.472,4.472,0,0,1,.988,3.047ZM572.5,55.32a3.1,3.1,0,0,0-.547-1.937,1.838,1.838,0,0,0-1.547-.711,1.808,1.808,0,0,0-1.531.711,3.135,3.135,0,0,0-.539,1.938V59.3a3.122,3.122,0,0,0,.551,1.945,2.006,2.006,0,0,0,3.074,0A3.167,3.167,0,0,0,572.5,59.3Zm7.367-1.586-.789,1.953h-.758V51.625h1.547Zm-2.414,0-.789,1.953h-.758l.008-1.875V51.625h1.539ZM4.617,87.164A3.576,3.576,0,0,1,1.777,86a4.48,4.48,0,0,1-1.02-3.062v-.344a4.386,4.386,0,0,1,1.051-3.012,3.3,3.3,0,0,1,2.566-1.191,3.067,3.067,0,0,1,2.543,1.055,4.345,4.345,0,0,1,.848,2.8v.813H2.359l-.023.039A3.494,3.494,0,0,0,2.9,85.168a1.965,1.965,0,0,0,1.719.793,3.872,3.872,0,0,0,1.371-.223A3.061,3.061,0,0,0,7,85.125l.6,1a3.7,3.7,0,0,1-1.2.738A4.762,4.762,0,0,1,4.617,87.164ZM4.375,79.6a1.673,1.673,0,0,0-1.332.621,2.938,2.938,0,0,0-.645,1.59l.016.039H6.227v-.125A2.462,2.462,0,0,0,5.773,80.2,1.638,1.638,0,0,0,4.375,79.6Zm6.492-1.055.109,1.109a2.871,2.871,0,0,1,1.051-.934,3.158,3.158,0,0,1,1.48-.332,2.615,2.615,0,0,1,1.449.391,2.363,2.363,0,0,1,.91,1.172,3.162,3.162,0,0,1,1.059-1.145,2.769,2.769,0,0,1,1.527-.418,2.531,2.531,0,0,1,2.039.887,4.051,4.051,0,0,1,.75,2.668V87H19.7V81.93a2.81,2.81,0,0,0-.43-1.77,1.567,1.567,0,0,0-1.281-.52,1.631,1.631,0,0,0-1.277.547,2.381,2.381,0,0,0-.574,1.383V87H14.594V81.93a2.772,2.772,0,0,0-.441-1.738,1.532,1.532,0,0,0-1.27-.551,2.115,2.115,0,0,0-1.156.289,1.867,1.867,0,0,0-.7.813V87H9.492V78.547ZM28.672,87q-.078-.383-.121-.676a4.96,4.96,0,0,1-.051-.59,3.589,3.589,0,0,1-1.121,1.02,2.867,2.867,0,0,1-1.488.41,2.763,2.763,0,0,1-2.012-.676,2.486,2.486,0,0,1-.691-1.863,2.183,2.183,0,0,1,.98-1.895,4.579,4.579,0,0,1,2.66-.684H28.5v-.836a1.551,1.551,0,0,0-.453-1.176,1.779,1.779,0,0,0-1.281-.434,1.859,1.859,0,0,0-1.211.375,1.125,1.125,0,0,0-.461.9l-1.461.016-.016-.047a2.023,2.023,0,0,1,.863-1.687,3.578,3.578,0,0,1,2.371-.766,3.49,3.49,0,0,1,2.313.73,2.588,2.588,0,0,1,.875,2.105V85.3a7.923,7.923,0,0,0,.047.875,4.5,4.5,0,0,0,.172.828Zm-2.555-1.125a2.739,2.739,0,0,0,1.508-.43,2.042,2.042,0,0,0,.875-.984V83.086H26.773a2.24,2.24,0,0,0-1.488.469,1.4,1.4,0,0,0-.559,1.1,1.159,1.159,0,0,0,.352.891A1.472,1.472,0,0,0,26.117,85.875ZM33.938,87H32.4V78.547h1.539Zm0-10.617H32.4v-1.57h1.539ZM37.969,87H36.43V74.813h1.539ZM50.9,80.57H44.383V79.289H50.9Zm0,3.25H44.383V82.539H50.9Zm10.4-3.914-.789-.047a1.762,1.762,0,0,0-1.027.289,1.855,1.855,0,0,0-.645.813V87H57.3V78.547h1.375l.148,1.234a2.934,2.934,0,0,1,.887-1.023,2.073,2.073,0,0,1,1.215-.367,1.9,1.9,0,0,1,.328.027,2.173,2.173,0,0,1,.258.059Zm4.953,7.258A3.576,3.576,0,0,1,63.41,86a4.48,4.48,0,0,1-1.02-3.062v-.344a4.386,4.386,0,0,1,1.051-3.012,3.3,3.3,0,0,1,2.566-1.191,3.067,3.067,0,0,1,2.543,1.055,4.345,4.345,0,0,1,.848,2.8v.813H63.992l-.023.039a3.494,3.494,0,0,0,.563,2.066,1.965,1.965,0,0,0,1.719.793,3.872,3.872,0,0,0,1.371-.223,3.061,3.061,0,0,0,1.012-.613l.6,1a3.7,3.7,0,0,1-1.2.738A4.762,4.762,0,0,1,66.25,87.164ZM66.008,79.6a1.673,1.673,0,0,0-1.332.621,2.938,2.938,0,0,0-.645,1.59l.016.039h3.813v-.125a2.462,2.462,0,0,0-.453-1.523A1.638,1.638,0,0,0,66.008,79.6ZM72.8,87H71.266V85.422H72.8Zm7.516-2.273a1.026,1.026,0,0,0-.387-.828,3.733,3.733,0,0,0-1.465-.562,6.146,6.146,0,0,1-2.293-.9,1.814,1.814,0,0,1-.8-1.547,2.229,2.229,0,0,1,.879-1.766,3.879,3.879,0,0,1,4.605.047,2.239,2.239,0,0,1,.852,1.82l-.016.047H80.227a1.331,1.331,0,0,0-.48-.992,1.717,1.717,0,0,0-1.215-.445,1.751,1.751,0,0,0-1.215.367,1.146,1.146,0,0,0-.4.875.927.927,0,0,0,.348.773,3.848,3.848,0,0,0,1.434.5,6.058,6.058,0,0,1,2.359.93,1.872,1.872,0,0,1,.8,1.57,2.226,2.226,0,0,1-.91,1.836,3.754,3.754,0,0,1-2.379.711,3.715,3.715,0,0,1-2.547-.82,2.341,2.341,0,0,1-.883-1.914l.016-.047h1.469a1.424,1.424,0,0,0,.609,1.2,2.358,2.358,0,0,0,1.336.379,2.1,2.1,0,0,0,1.285-.348A1.063,1.063,0,0,0,80.32,84.727Zm6.953,2.438A3.576,3.576,0,0,1,84.434,86a4.48,4.48,0,0,1-1.02-3.062v-.344a4.386,4.386,0,0,1,1.051-3.012,3.3,3.3,0,0,1,2.566-1.191,3.067,3.067,0,0,1,2.543,1.055,4.345,4.345,0,0,1,.848,2.8v.813H85.016l-.023.039a3.494,3.494,0,0,0,.563,2.066,1.965,1.965,0,0,0,1.719.793,3.872,3.872,0,0,0,1.371-.223,3.061,3.061,0,0,0,1.012-.613l.6,1a3.7,3.7,0,0,1-1.2.738A4.762,4.762,0,0,1,87.273,87.164ZM87.031,79.6a1.673,1.673,0,0,0-1.332.621,2.938,2.938,0,0,0-.645,1.59l.016.039h3.813v-.125A2.462,2.462,0,0,0,88.43,80.2,1.638,1.638,0,0,0,87.031,79.6ZM97.344,87q-.078-.383-.121-.676a4.96,4.96,0,0,1-.051-.59,3.589,3.589,0,0,1-1.121,1.02,2.867,2.867,0,0,1-1.488.41,2.763,2.763,0,0,1-2.012-.676,2.486,2.486,0,0,1-.691-1.863,2.183,2.183,0,0,1,.98-1.895,4.579,4.579,0,0,1,2.66-.684h1.672v-.836a1.551,1.551,0,0,0-.453-1.176,1.779,1.779,0,0,0-1.281-.434,1.859,1.859,0,0,0-1.211.375,1.125,1.125,0,0,0-.461.9l-1.461.016-.016-.047a2.023,2.023,0,0,1,.863-1.687,3.578,3.578,0,0,1,2.371-.766,3.49,3.49,0,0,1,2.313.73,2.588,2.588,0,0,1,.875,2.105V85.3a7.923,7.923,0,0,0,.047.875A4.5,4.5,0,0,0,98.93,87Zm-2.555-1.125a2.739,2.739,0,0,0,1.508-.43,2.042,2.042,0,0,0,.875-.984V83.086H95.445a2.24,2.24,0,0,0-1.488.469,1.4,1.4,0,0,0-.559,1.1,1.159,1.159,0,0,0,.352.891A1.472,1.472,0,0,0,94.789,85.875Zm10.156-5.969-.789-.047a1.762,1.762,0,0,0-1.027.289,1.854,1.854,0,0,0-.645.813V87h-1.539V78.547h1.375l.148,1.234a2.934,2.934,0,0,1,.887-1.023,2.073,2.073,0,0,1,1.215-.367,1.9,1.9,0,0,1,.328.027,2.174,2.174,0,0,1,.258.059Zm4.813,6.055A1.81,1.81,0,0,0,111,85.488a1.494,1.494,0,0,0,.531-1.16h1.391l.023.047a2.428,2.428,0,0,1-.937,1.941,3.582,3.582,0,0,1-5-.363,4.674,4.674,0,0,1-.969-3.016v-.328a4.654,4.654,0,0,1,.973-3,3.317,3.317,0,0,1,2.746-1.215,3.189,3.189,0,0,1,2.316.875,2.775,2.775,0,0,1,.871,2.148l-.016.047h-1.4a1.865,1.865,0,0,0-.5-1.316,1.658,1.658,0,0,0-1.27-.543,1.777,1.777,0,0,0-1.652.879,4.114,4.114,0,0,0-.52,2.129v.328a4.192,4.192,0,0,0,.512,2.148A1.776,1.776,0,0,0,109.758,85.961Zm6.555-6.281a3.119,3.119,0,0,1,1.074-.949,2.947,2.947,0,0,1,1.41-.34,2.73,2.73,0,0,1,2.105.813,3.575,3.575,0,0,1,.754,2.5V87h-1.539V81.688a2.263,2.263,0,0,0-.449-1.547,1.709,1.709,0,0,0-1.34-.5,2.514,2.514,0,0,0-1.2.27,2.174,2.174,0,0,0-.82.754V87h-1.539V74.813h1.539Zm7.469,2.7a10.457,10.457,0,0,1,1.242-5.258,7.19,7.19,0,0,1,2.609-2.906l.047.008.3.906a6.665,6.665,0,0,0-1.863,2.68,11.54,11.54,0,0,0-.793,4.555v.1a11.591,11.591,0,0,0,.789,4.555,7.25,7.25,0,0,0,1.867,2.75l-.3.844h-.047a7.193,7.193,0,0,1-2.609-2.9,10.452,10.452,0,0,1-1.242-5.262Zm9.391-2.477-.789-.047a1.762,1.762,0,0,0-1.027.289,1.855,1.855,0,0,0-.645.813V87h-1.539V78.547h1.375l.148,1.234a2.934,2.934,0,0,1,.887-1.023,2.073,2.073,0,0,1,1.215-.367,1.9,1.9,0,0,1,.328.027,2.173,2.173,0,0,1,.258.059Zm3.141-2.539-.789,2.2h-.758l.008-2.07V75.625h1.539Zm1.25-1.742h1.453l4.75,12.352h-1.453ZM152.2,83.094a4.645,4.645,0,0,1-.879,2.949,2.9,2.9,0,0,1-2.418,1.121,3.064,3.064,0,0,1-1.465-.332,2.719,2.719,0,0,1-1.027-.98L146.164,87h-1.18V74.813h1.539v4.734a2.671,2.671,0,0,1,.988-.859,3.03,3.03,0,0,1,1.379-.3,2.809,2.809,0,0,1,2.438,1.25,5.622,5.622,0,0,1,.875,3.289Zm-1.539-.164a4.666,4.666,0,0,0-.535-2.371,1.762,1.762,0,0,0-1.629-.918,2.014,2.014,0,0,0-1.2.348,2.452,2.452,0,0,0-.777.934v3.664a2.517,2.517,0,0,0,.777.977,2,2,0,0,0,1.215.352,1.829,1.829,0,0,0,1.617-.773,3.552,3.552,0,0,0,.531-2.047Zm6.422-7.719h-1.469V88.227h1.469v1.211h-3.008V74h3.008Zm7.391,8.859H160.2L159.18,87h-1.57l4.1-11.375h1.32L167.047,87h-1.57Zm-3.836-1.289h3.4L162.383,77.9h-.047ZM173.3,82.8H168.7v-1.2H173.3Zm3.789,3h6.359V87h-8.094V85.859l6.078-9.023h-5.992V75.625h7.75v1.1ZM190.484,87q-.078-.383-.121-.676a4.96,4.96,0,0,1-.051-.59,3.588,3.588,0,0,1-1.121,1.02,2.867,2.867,0,0,1-1.488.41,2.763,2.763,0,0,1-2.012-.676A2.486,2.486,0,0,1,185,84.625a2.183,2.183,0,0,1,.98-1.895,4.579,4.579,0,0,1,2.66-.684h1.672v-.836a1.551,1.551,0,0,0-.453-1.176,1.779,1.779,0,0,0-1.281-.434,1.859,1.859,0,0,0-1.211.375,1.125,1.125,0,0,0-.461.9l-1.461.016-.016-.047a2.023,2.023,0,0,1,.863-1.687,3.578,3.578,0,0,1,2.371-.766,3.49,3.49,0,0,1,2.313.73,2.588,2.588,0,0,1,.875,2.105V85.3a7.923,7.923,0,0,0,.047.875,4.5,4.5,0,0,0,.172.828Zm-2.555-1.125a2.739,2.739,0,0,0,1.508-.43,2.042,2.042,0,0,0,.875-.984V83.086h-1.727a2.24,2.24,0,0,0-1.488.469,1.4,1.4,0,0,0-.559,1.1,1.159,1.159,0,0,0,.352.891A1.472,1.472,0,0,0,187.93,85.875ZM198.883,82.8h-4.609v-1.2h4.609Zm3.867,3h4.883V87h-6.719V85.922l4.57-6.156h-4.516V78.547h6.4v1.047Zm13.6-2.812a4.489,4.489,0,0,1-.98,3.055,3.652,3.652,0,0,1-5.273,0,4.466,4.466,0,0,1-.988-3.055V79.641a4.5,4.5,0,0,1,.98-3.047,3.635,3.635,0,0,1,5.273,0,4.472,4.472,0,0,1,.988,3.047Zm-1.539-3.664a3.1,3.1,0,0,0-.547-1.937,1.838,1.838,0,0,0-1.547-.711,1.808,1.808,0,0,0-1.531.711,3.135,3.135,0,0,0-.539,1.938V83.3a3.121,3.121,0,0,0,.551,1.945,2.006,2.006,0,0,0,3.074,0,3.167,3.167,0,0,0,.539-1.949Zm8.336,3.477h-4.609v-1.2h4.609Zm5.211,3.164a2.289,2.289,0,0,0,1.793-.766,3.153,3.153,0,0,0,.684-2.172v-.969a2.48,2.48,0,0,1-.934.84,2.65,2.65,0,0,1-1.223.285,3.329,3.329,0,0,1-2.574-1.012,4.578,4.578,0,0,1,.059-5.617,3.185,3.185,0,0,1,2.453-1.09,3.622,3.622,0,0,1,2.734,1.07,4.181,4.181,0,0,1,1.031,3.023v3.453a4.077,4.077,0,0,1-1.125,3.059,3.976,3.976,0,0,1-2.9,1.1,6.3,6.3,0,0,1-1.23-.125,5.581,5.581,0,0,1-1.176-.367l.234-1.172a4.439,4.439,0,0,0,1.012.355A5.632,5.632,0,0,0,228.359,85.961Zm.32-3.984a2.39,2.39,0,0,0,1.355-.367,2.152,2.152,0,0,0,.8-.937V79.328a3.01,3.01,0,0,0-.57-1.965,1.96,1.96,0,0,0-1.6-.691,1.683,1.683,0,0,0-1.395.746,3.156,3.156,0,0,0-.559,1.941,3.191,3.191,0,0,0,.516,1.895A1.681,1.681,0,0,0,228.68,81.977ZM236.25,87h-1.539V85.422h1.539Zm8.727,1.2h-7.211V87h7.211Zm.844-10.391a2.345,2.345,0,0,1,.641-1.672,2.5,2.5,0,0,1,3.422,0,2.342,2.342,0,0,1,.641,1.676v.6a2.326,2.326,0,0,1-.637,1.664,2.231,2.231,0,0,1-1.7.672,2.276,2.276,0,0,1-1.723-.672,2.31,2.31,0,0,1-.645-1.664Zm1.141.6a1.537,1.537,0,0,0,.316.98,1.089,1.089,0,0,0,.91.4,1.057,1.057,0,0,0,.883-.4,1.546,1.546,0,0,0,.313-.984v-.6a1.57,1.57,0,0,0-.316-.988,1.185,1.185,0,0,0-1.793,0,1.583,1.583,0,0,0-.312.988Zm4.367,5.8a2.332,2.332,0,0,1,.641-1.668,2.5,2.5,0,0,1,3.418,0,2.324,2.324,0,0,1,.645,1.668v.609a2.328,2.328,0,0,1-.641,1.672,2.234,2.234,0,0,1-1.7.672,2.276,2.276,0,0,1-1.723-.672,2.32,2.32,0,0,1-.645-1.672Zm1.141.609a1.549,1.549,0,0,0,.316.988,1.089,1.089,0,0,0,.91.4,1.053,1.053,0,0,0,.883-.4,1.562,1.562,0,0,0,.313-.988v-.609a1.541,1.541,0,0,0-.32-.984,1.184,1.184,0,0,0-1.785,0,1.554,1.554,0,0,0-.316.984Zm-3.883,1.32-.852-.523,5.555-8.891.852.523ZM262,80.883h3.117v1.391H262v3.586h-1.539V82.273H257.32V80.883h3.141v-3.3H262Zm9.7,1.914h-4.609v-1.2H271.7Zm1.383-8.8H276.1V89.438h-3.016V88.227h1.477V75.211h-1.477Zm9.516,6.883h3.117v1.391H282.6v3.586h-1.539V82.273h-3.141V80.883h3.141v-3.3H282.6Zm17.32,2.2a5.191,5.191,0,0,1-.937,2.879,2.985,2.985,0,0,1-2.594,1.207,1.549,1.549,0,0,1-.984-.324,1.781,1.781,0,0,1-.594-.918,2.61,2.61,0,0,1-.953.934,2.686,2.686,0,0,1-1.312.309,1.672,1.672,0,0,1-1.516-.941,4.161,4.161,0,0,1-.4-2.473,6.363,6.363,0,0,1,1.074-3.246,2.638,2.638,0,0,1,2.184-1.223,3.568,3.568,0,0,1,1.32.2,5.339,5.339,0,0,1,1.086.625l-.031.031h.047l-.4,4.57a1.851,1.851,0,0,0,.168,1.184.751.751,0,0,0,.637.324,1.763,1.763,0,0,0,1.539-.887,4.435,4.435,0,0,0,.641-2.254,7.1,7.1,0,0,0-1.125-4.652,4.527,4.527,0,0,0-3.875-1.668,4.739,4.739,0,0,0-3.871,1.8,7.748,7.748,0,0,0-1.582,4.7,6.875,6.875,0,0,0,1.172,4.645,4.466,4.466,0,0,0,3.766,1.707,6.019,6.019,0,0,0,1.395-.168,4.581,4.581,0,0,0,1.191-.441l.3.836a4.3,4.3,0,0,1-1.332.512,7.132,7.132,0,0,1-1.582.184,5.636,5.636,0,0,1-4.59-1.949,7.558,7.558,0,0,1-1.48-5.324,8.517,8.517,0,0,1,1.945-5.375,5.929,5.929,0,0,1,4.7-2.07,5.508,5.508,0,0,1,4.543,1.953A7.681,7.681,0,0,1,299.922,83.078Zm-7.906.672a3.652,3.652,0,0,0,.168,1.688.86.86,0,0,0,.832.578,2.152,2.152,0,0,0,.914-.191,1.95,1.95,0,0,0,.758-.684,1.662,1.662,0,0,1,0-.2q0-.105.02-.23l.367-4.2a2.352,2.352,0,0,0-.426-.148,1.942,1.942,0,0,0-.465-.055,1.644,1.644,0,0,0-1.492.855A6.242,6.242,0,0,0,292.016,83.75Zm12.82-8.539h-1.469V88.227h1.469v1.211h-3.008V74h3.008Zm7.391,8.859h-4.281L306.93,87h-1.57l4.1-11.375h1.32L314.8,87h-1.57Zm-3.836-1.289h3.4L310.133,77.9h-.047Zm12.664.016h-4.609v-1.2h4.609Zm3.789,3H331.2V87h-8.094V85.859l6.078-9.023H323.2V75.625h7.75v1.1ZM338.234,87q-.078-.383-.121-.676a4.96,4.96,0,0,1-.051-.59,3.589,3.589,0,0,1-1.121,1.02,2.867,2.867,0,0,1-1.488.41,2.763,2.763,0,0,1-2.012-.676,2.486,2.486,0,0,1-.691-1.863,2.183,2.183,0,0,1,.98-1.895,4.579,4.579,0,0,1,2.66-.684h1.672v-.836a1.551,1.551,0,0,0-.453-1.176,1.779,1.779,0,0,0-1.281-.434,1.859,1.859,0,0,0-1.211.375,1.125,1.125,0,0,0-.461.9l-1.461.016-.016-.047a2.023,2.023,0,0,1,.863-1.687,3.578,3.578,0,0,1,2.371-.766,3.49,3.49,0,0,1,2.313.73,2.588,2.588,0,0,1,.875,2.105V85.3a7.923,7.923,0,0,0,.047.875,4.5,4.5,0,0,0,.172.828Zm-2.555-1.125a2.739,2.739,0,0,0,1.508-.43,2.042,2.042,0,0,0,.875-.984V83.086h-1.727a2.24,2.24,0,0,0-1.488.469,1.4,1.4,0,0,0-.559,1.1,1.159,1.159,0,0,0,.352.891A1.472,1.472,0,0,0,335.68,85.875ZM346.633,82.8h-4.609v-1.2h4.609Zm3.867,3h4.883V87h-6.719V85.922l4.57-6.156h-4.516V78.547h6.4v1.047Zm13.6-2.812a4.489,4.489,0,0,1-.98,3.055,3.652,3.652,0,0,1-5.273,0,4.466,4.466,0,0,1-.988-3.055V79.641a4.5,4.5,0,0,1,.98-3.047,3.635,3.635,0,0,1,5.273,0,4.472,4.472,0,0,1,.988,3.047Zm-1.539-3.664a3.1,3.1,0,0,0-.547-1.937,1.838,1.838,0,0,0-1.547-.711,1.808,1.808,0,0,0-1.531.711,3.135,3.135,0,0,0-.539,1.938V83.3a3.121,3.121,0,0,0,.551,1.945,2.006,2.006,0,0,0,3.074,0,3.167,3.167,0,0,0,.539-1.949ZM370.9,82.8h-4.609v-1.2H370.9Zm5.211,3.164A2.289,2.289,0,0,0,377.9,85.2a3.153,3.153,0,0,0,.684-2.172v-.969a2.479,2.479,0,0,1-.934.84,2.65,2.65,0,0,1-1.223.285,3.329,3.329,0,0,1-2.574-1.012,4.578,4.578,0,0,1,.059-5.617,3.185,3.185,0,0,1,2.453-1.09,3.622,3.622,0,0,1,2.734,1.07,4.181,4.181,0,0,1,1.031,3.023v3.453a4.077,4.077,0,0,1-1.125,3.059,3.976,3.976,0,0,1-2.9,1.1,6.3,6.3,0,0,1-1.23-.125,5.581,5.581,0,0,1-1.176-.367l.234-1.172a4.439,4.439,0,0,0,1.012.355A5.632,5.632,0,0,0,376.109,85.961Zm.32-3.984a2.39,2.39,0,0,0,1.355-.367,2.152,2.152,0,0,0,.8-.937V79.328a3.01,3.01,0,0,0-.57-1.965,1.96,1.96,0,0,0-1.6-.691,1.683,1.683,0,0,0-1.395.746,3.156,3.156,0,0,0-.559,1.941,3.191,3.191,0,0,0,.516,1.895A1.681,1.681,0,0,0,376.43,81.977ZM384,87h-1.539V85.422H384Zm7.4-4.2h-4.609v-1.2H391.4Zm1.383-8.8H395.8V89.438h-3.016V88.227h1.477V75.211h-1.477Zm9.516,6.883h3.117v1.391H402.3v3.586h-1.539V82.273h-3.141V80.883h3.141v-3.3H402.3Zm4.094-5.258h1.453l4.75,12.352h-1.453ZM415.492,87h-1.539V85.422h1.539ZM421.1,75.211h-1.469V88.227H421.1v1.211h-3.008V74H421.1Zm7.391,8.859h-4.281L423.2,87h-1.57l4.1-11.375h1.32L431.063,87h-1.57Zm-3.836-1.289h3.4L426.4,77.9h-.047Zm12.664.016h-4.609v-1.2h4.609Zm3.789,3h6.359V87h-8.094V85.859l6.078-9.023h-5.992V75.625h7.75v1.1Zm9.75,3.313H449.32V75.625h1.539Zm7.6-2.109q-.078-.383-.121-.676a4.96,4.96,0,0,1-.051-.59,3.589,3.589,0,0,1-1.121,1.02,2.867,2.867,0,0,1-1.488.41,2.763,2.763,0,0,1-2.012-.676,2.486,2.486,0,0,1-.691-1.863,2.183,2.183,0,0,1,.98-1.895,4.579,4.579,0,0,1,2.66-.684h1.672v-.836a1.551,1.551,0,0,0-.453-1.176,1.779,1.779,0,0,0-1.281-.434,1.859,1.859,0,0,0-1.211.375,1.125,1.125,0,0,0-.461.9l-1.461.016-.016-.047a2.023,2.023,0,0,1,.863-1.687,3.578,3.578,0,0,1,2.371-.766,3.49,3.49,0,0,1,2.313.73,2.588,2.588,0,0,1,.875,2.105V85.3a7.923,7.923,0,0,0,.047.875,4.5,4.5,0,0,0,.172.828Zm-2.555-1.125a2.739,2.739,0,0,0,1.508-.43,2.042,2.042,0,0,0,.875-.984V83.086h-1.727a2.24,2.24,0,0,0-1.488.469,1.4,1.4,0,0,0-.559,1.1,1.159,1.159,0,0,0,.352.891A1.472,1.472,0,0,0,455.906,85.875ZM466.859,82.8H462.25v-1.2h4.609Zm3.867,3h4.883V87h-6.719V85.922l4.57-6.156h-4.516V78.547h6.4v1.047ZM476.289,74H479.3V89.438h-3.016V88.227h1.477V75.211h-1.477Zm9.156,15.844a3.72,3.72,0,0,1-2.164-1.367,3.919,3.919,0,0,1-.641-2.266v-1.6a2.086,2.086,0,0,0-.4-1.363,1.5,1.5,0,0,0-1.23-.488V81.609a1.514,1.514,0,0,0,1.23-.48,2.066,2.066,0,0,0,.4-1.363V78.156a3.914,3.914,0,0,1,.641-2.27,3.729,3.729,0,0,1,2.164-1.363l.313.914a1.957,1.957,0,0,0-1.219.98,3.807,3.807,0,0,0-.359,1.738v1.609a3.035,3.035,0,0,1-.332,1.445,2.328,2.328,0,0,1-1,.977,2.368,2.368,0,0,1,1,.988,3.024,3.024,0,0,1,.332,1.434v1.6a3.758,3.758,0,0,0,.359,1.73,1.991,1.991,0,0,0,1.219.98ZM494.188,87h-7.062V85.945l3.57-4.258a10.727,10.727,0,0,0,1.293-1.84,3.07,3.07,0,0,0,.34-1.379,1.841,1.841,0,0,0-.461-1.293,1.639,1.639,0,0,0-1.273-.5,1.908,1.908,0,0,0-1.535.617,2.286,2.286,0,0,0-.527,1.539h-1.484l-.016-.047a3.068,3.068,0,0,1,.93-2.355,3.566,3.566,0,0,1,2.633-.965,3.31,3.31,0,0,1,2.4.844,2.894,2.894,0,0,1,.875,2.18,3.476,3.476,0,0,1-.5,1.758,19.61,19.61,0,0,1-1.512,2.156l-2.867,3.359.016.039h5.18Zm3.234-.375-1.172,2.391h-.914l.547-2.469V85.273h1.539Zm.859,2.3a2.02,2.02,0,0,0,1.219-.98,3.691,3.691,0,0,0,.367-1.73v-1.6a2.93,2.93,0,0,1,.352-1.461,2.293,2.293,0,0,1,1.086-.961,2.212,2.212,0,0,1-1.086-.945,2.963,2.963,0,0,1-.352-1.477V78.156a3.739,3.739,0,0,0-.367-1.738,1.985,1.985,0,0,0-1.219-.98l.32-.914a3.744,3.744,0,0,1,2.16,1.363,3.9,3.9,0,0,1,.645,2.27v1.609a2.1,2.1,0,0,0,.395,1.363,1.51,1.51,0,0,0,1.238.48v1.148a1.5,1.5,0,0,0-1.238.488,2.114,2.114,0,0,0-.395,1.363v1.6a3.9,3.9,0,0,1-.645,2.266,3.735,3.735,0,0,1-2.16,1.367Zm5.578-13.3h1.453l4.75,12.352h-1.453ZM518.5,83.094a4.645,4.645,0,0,1-.879,2.949,2.9,2.9,0,0,1-2.418,1.121,3.064,3.064,0,0,1-1.465-.332,2.719,2.719,0,0,1-1.027-.98L512.461,87h-1.18V74.813h1.539v4.734a2.671,2.671,0,0,1,.988-.859,3.03,3.03,0,0,1,1.379-.3,2.809,2.809,0,0,1,2.438,1.25,5.622,5.622,0,0,1,.875,3.289Zm-1.539-.164a4.666,4.666,0,0,0-.535-2.371,1.762,1.762,0,0,0-1.629-.918,2.014,2.014,0,0,0-1.2.348,2.452,2.452,0,0,0-.777.934v3.664a2.517,2.517,0,0,0,.777.977,2,2,0,0,0,1.215.352,1.829,1.829,0,0,0,1.617-.773,3.552,3.552,0,0,0,.531-2.047Zm4.6-5.562-.789,2.2h-.758l.008-2.07V75.625h1.539Zm3.406,9.258L523.8,89.016h-.914l.547-2.469V85.273h1.539Zm7.93-10.117v2.039h1.6v1.141h-1.6V84.82a1.149,1.149,0,0,0,.246.836.89.89,0,0,0,.652.242,1.429,1.429,0,0,0,.3-.035,2.2,2.2,0,0,0,.273-.074l.211,1.055a1.36,1.36,0,0,1-.508.23,2.562,2.562,0,0,1-.664.09,1.993,1.993,0,0,1-1.492-.566,2.46,2.46,0,0,1-.555-1.777V79.688h-1.344V78.547h1.344V76.508Zm6.75,10.656A3.576,3.576,0,0,1,536.809,86a4.48,4.48,0,0,1-1.02-3.062v-.344a4.386,4.386,0,0,1,1.051-3.012,3.3,3.3,0,0,1,2.566-1.191,3.067,3.067,0,0,1,2.543,1.055,4.345,4.345,0,0,1,.848,2.8v.813h-5.406l-.023.039a3.494,3.494,0,0,0,.563,2.066,1.965,1.965,0,0,0,1.719.793,3.872,3.872,0,0,0,1.371-.223,3.06,3.06,0,0,0,1.012-.613l.6,1a3.7,3.7,0,0,1-1.2.738A4.762,4.762,0,0,1,539.648,87.164Zm-.242-7.562a1.673,1.673,0,0,0-1.332.621,2.938,2.938,0,0,0-.645,1.59l.016.039h3.813v-.125A2.462,2.462,0,0,0,540.8,80.2,1.638,1.638,0,0,0,539.406,79.6Zm7.984,2.063,1.8-3.117h1.8l-2.742,4.18L551.063,87H549.3l-1.875-3.2L545.547,87h-1.781l2.82-4.273-2.742-4.18h1.773Zm7.32-5.156v2.039h1.6v1.141h-1.6V84.82a1.149,1.149,0,0,0,.246.836.89.89,0,0,0,.652.242,1.429,1.429,0,0,0,.3-.035,2.2,2.2,0,0,0,.273-.074l.211,1.055a1.36,1.36,0,0,1-.508.23,2.562,2.562,0,0,1-.664.09,1.993,1.993,0,0,1-1.492-.566,2.46,2.46,0,0,1-.555-1.777V79.688h-1.344V78.547h1.344V76.508ZM557.6,82.7a4.654,4.654,0,0,1,1.016-3.09,3.764,3.764,0,0,1,5.535,0,4.639,4.639,0,0,1,1.02,3.094v.172a4.631,4.631,0,0,1-1.016,3.094,3.781,3.781,0,0,1-5.535,0,4.623,4.623,0,0,1-1.02-3.09Zm1.539.172a4.009,4.009,0,0,0,.566,2.219,2.046,2.046,0,0,0,3.355,0,3.988,3.988,0,0,0,.57-2.219V82.7a3.976,3.976,0,0,0-.574-2.211,1.882,1.882,0,0,0-1.684-.883,1.856,1.856,0,0,0-1.668.883,4.018,4.018,0,0,0-.566,2.211Zm11.039-.414a10.426,10.426,0,0,1-1.246,5.262,7.244,7.244,0,0,1-2.605,2.9h-.047l-.3-.844a6.653,6.653,0,0,0,1.855-2.7,11.748,11.748,0,0,0,.8-4.605v-.1a11.354,11.354,0,0,0-.824-4.559,7.532,7.532,0,0,0-1.832-2.746l.3-.844h.047a7.241,7.241,0,0,1,2.605,2.906,10.431,10.431,0,0,1,1.246,5.258ZM3.258,100.508v2.039h1.6v1.141h-1.6v5.133a1.149,1.149,0,0,0,.246.836.89.89,0,0,0,.652.242,1.429,1.429,0,0,0,.3-.035,2.2,2.2,0,0,0,.273-.074l.211,1.055a1.36,1.36,0,0,1-.508.23,2.562,2.562,0,0,1-.664.09,1.993,1.993,0,0,1-1.492-.566,2.46,2.46,0,0,1-.555-1.777v-5.133H.375v-1.141H1.719v-2.039Zm6.75,10.656A3.576,3.576,0,0,1,7.168,110a4.48,4.48,0,0,1-1.02-3.062v-.344A4.386,4.386,0,0,1,7.2,103.582a3.3,3.3,0,0,1,2.566-1.191,3.067,3.067,0,0,1,2.543,1.055,4.345,4.345,0,0,1,.848,2.8v.813H7.75l-.023.039a3.494,3.494,0,0,0,.563,2.066,1.965,1.965,0,0,0,1.719.793,3.872,3.872,0,0,0,1.371-.223,3.061,3.061,0,0,0,1.012-.613l.6,1a3.7,3.7,0,0,1-1.2.738A4.762,4.762,0,0,1,10.008,111.164ZM9.766,103.6a1.673,1.673,0,0,0-1.332.621,2.938,2.938,0,0,0-.645,1.59l.016.039h3.813v-.125a2.462,2.462,0,0,0-.453-1.523A1.638,1.638,0,0,0,9.766,103.6Zm6.781,7.4H15.008V98.813h1.539Zm5.867.164A3.576,3.576,0,0,1,19.574,110a4.48,4.48,0,0,1-1.02-3.062v-.344a4.386,4.386,0,0,1,1.051-3.012,3.3,3.3,0,0,1,2.566-1.191,3.067,3.067,0,0,1,2.543,1.055,4.345,4.345,0,0,1,.848,2.8v.813H20.156l-.023.039a3.494,3.494,0,0,0,.563,2.066,1.965,1.965,0,0,0,1.719.793,3.872,3.872,0,0,0,1.371-.223,3.061,3.061,0,0,0,1.012-.613l.6,1a3.7,3.7,0,0,1-1.2.738A4.762,4.762,0,0,1,22.414,111.164Zm-.242-7.562a1.673,1.673,0,0,0-1.332.621,2.938,2.938,0,0,0-.645,1.59l.016.039h3.813v-.125a2.462,2.462,0,0,0-.453-1.523A1.638,1.638,0,0,0,22.172,103.6ZM27.93,111v-7.312h-1.32v-1.141h1.32v-1.07a2.9,2.9,0,0,1,.707-2.09,2.6,2.6,0,0,1,1.973-.738,3.394,3.394,0,0,1,.535.043q.27.043.6.121l-.187,1.172q-.141-.031-.34-.055a3.579,3.579,0,0,0-.418-.023,1.215,1.215,0,0,0-1,.4,1.809,1.809,0,0,0-.328,1.168v1.07H31v1.141H29.469V111Zm4.266-4.3a4.654,4.654,0,0,1,1.016-3.09,3.764,3.764,0,0,1,5.535,0,4.639,4.639,0,0,1,1.02,3.094v.172a4.631,4.631,0,0,1-1.016,3.094,3.781,3.781,0,0,1-5.535,0,4.623,4.623,0,0,1-1.02-3.09Zm1.539.172a4.009,4.009,0,0,0,.566,2.219,2.046,2.046,0,0,0,3.355,0,3.988,3.988,0,0,0,.57-2.219V106.7a3.976,3.976,0,0,0-.574-2.211,1.882,1.882,0,0,0-1.684-.883,1.856,1.856,0,0,0-1.668.883,4.018,4.018,0,0,0-.566,2.211Zm9.289-4.32.109,1.258a3.069,3.069,0,0,1,1.059-1.043,2.824,2.824,0,0,1,1.449-.371,2.759,2.759,0,0,1,2.117.8,3.515,3.515,0,0,1,.75,2.473V111H46.969v-5.3a2.287,2.287,0,0,0-.441-1.586,1.768,1.768,0,0,0-1.348-.469,2.386,2.386,0,0,0-1.207.285,2.072,2.072,0,0,0-.785.8V111H41.648v-8.453Zm7.359,4.148a4.654,4.654,0,0,1,1.016-3.09,3.764,3.764,0,0,1,5.535,0,4.639,4.639,0,0,1,1.02,3.094v.172a4.631,4.631,0,0,1-1.016,3.094,3.781,3.781,0,0,1-5.535,0,4.623,4.623,0,0,1-1.02-3.09Zm1.539.172a4.009,4.009,0,0,0,.566,2.219,2.046,2.046,0,0,0,3.355,0,3.988,3.988,0,0,0,.57-2.219V106.7a3.976,3.976,0,0,0-.574-2.211,1.882,1.882,0,0,0-1.684-.883,1.856,1.856,0,0,0-1.668.883,4.018,4.018,0,0,0-.566,2.211Zm18.477-2.3H63.883v-1.281H70.4Zm0,3.25H63.883v-1.281H70.4Zm10.4-3.914-.789-.047a1.762,1.762,0,0,0-1.027.289,1.854,1.854,0,0,0-.645.813V111H76.8v-8.453h1.375l.148,1.234a2.934,2.934,0,0,1,.887-1.023,2.073,2.073,0,0,1,1.215-.367,1.9,1.9,0,0,1,.328.027,2.174,2.174,0,0,1,.258.059Zm4.953,7.258A3.576,3.576,0,0,1,82.91,110a4.48,4.48,0,0,1-1.02-3.062v-.344a4.386,4.386,0,0,1,1.051-3.012,3.3,3.3,0,0,1,2.566-1.191,3.067,3.067,0,0,1,2.543,1.055,4.345,4.345,0,0,1,.848,2.8v.813H83.492l-.023.039a3.494,3.494,0,0,0,.563,2.066,1.965,1.965,0,0,0,1.719.793,3.872,3.872,0,0,0,1.371-.223,3.061,3.061,0,0,0,1.012-.613l.6,1a3.7,3.7,0,0,1-1.2.738A4.762,4.762,0,0,1,85.75,111.164Zm-.242-7.562a1.673,1.673,0,0,0-1.332.621,2.938,2.938,0,0,0-.645,1.59l.016.039h3.813v-.125a2.462,2.462,0,0,0-.453-1.523A1.638,1.638,0,0,0,85.508,103.6Zm6.8,7.4H90.766v-1.578H92.3Zm7.516-2.273a1.026,1.026,0,0,0-.387-.828,3.733,3.733,0,0,0-1.465-.562,6.146,6.146,0,0,1-2.293-.9,1.814,1.814,0,0,1-.8-1.547,2.229,2.229,0,0,1,.879-1.766,3.879,3.879,0,0,1,4.605.047,2.239,2.239,0,0,1,.852,1.82l-.016.047H99.727a1.331,1.331,0,0,0-.48-.992,1.717,1.717,0,0,0-1.215-.445,1.751,1.751,0,0,0-1.215.367,1.146,1.146,0,0,0-.4.875.927.927,0,0,0,.348.773,3.848,3.848,0,0,0,1.434.5,6.058,6.058,0,0,1,2.359.93,1.872,1.872,0,0,1,.8,1.57,2.226,2.226,0,0,1-.91,1.836,3.754,3.754,0,0,1-2.379.711,3.715,3.715,0,0,1-2.547-.82,2.341,2.341,0,0,1-.883-1.914l.016-.047h1.469a1.424,1.424,0,0,0,.609,1.2,2.358,2.358,0,0,0,1.336.379,2.1,2.1,0,0,0,1.285-.348A1.063,1.063,0,0,0,99.82,108.727Zm6.953,2.438a3.576,3.576,0,0,1-2.84-1.164,4.48,4.48,0,0,1-1.02-3.062v-.344a4.386,4.386,0,0,1,1.051-3.012,3.3,3.3,0,0,1,2.566-1.191,3.067,3.067,0,0,1,2.543,1.055,4.345,4.345,0,0,1,.848,2.8v.813h-5.406l-.023.039a3.494,3.494,0,0,0,.563,2.066,1.965,1.965,0,0,0,1.719.793,3.872,3.872,0,0,0,1.371-.223,3.061,3.061,0,0,0,1.012-.613l.6,1a3.7,3.7,0,0,1-1.2.738A4.762,4.762,0,0,1,106.773,111.164Zm-.242-7.562a1.673,1.673,0,0,0-1.332.621,2.938,2.938,0,0,0-.645,1.59l.016.039h3.813v-.125a2.462,2.462,0,0,0-.453-1.523A1.638,1.638,0,0,0,106.531,103.6Zm10.313,7.4q-.078-.383-.121-.676a4.96,4.96,0,0,1-.051-.59,3.589,3.589,0,0,1-1.121,1.02,2.867,2.867,0,0,1-1.488.41,2.763,2.763,0,0,1-2.012-.676,2.486,2.486,0,0,1-.691-1.863,2.183,2.183,0,0,1,.98-1.895,4.579,4.579,0,0,1,2.66-.684h1.672v-.836a1.551,1.551,0,0,0-.453-1.176,1.779,1.779,0,0,0-1.281-.434,1.859,1.859,0,0,0-1.211.375,1.125,1.125,0,0,0-.461.9l-1.461.016-.016-.047a2.023,2.023,0,0,1,.863-1.687,3.578,3.578,0,0,1,2.371-.766,3.49,3.49,0,0,1,2.313.73,2.588,2.588,0,0,1,.875,2.105v4.07a7.923,7.923,0,0,0,.047.875,4.5,4.5,0,0,0,.172.828Zm-2.555-1.125a2.739,2.739,0,0,0,1.508-.43,2.042,2.042,0,0,0,.875-.984v-1.375h-1.727a2.24,2.24,0,0,0-1.488.469,1.4,1.4,0,0,0-.559,1.1,1.159,1.159,0,0,0,.352.891A1.472,1.472,0,0,0,114.289,109.875Zm10.156-5.969-.789-.047a1.762,1.762,0,0,0-1.027.289,1.854,1.854,0,0,0-.645.813V111h-1.539v-8.453h1.375l.148,1.234a2.934,2.934,0,0,1,.887-1.023,2.073,2.073,0,0,1,1.215-.367,1.9,1.9,0,0,1,.328.027,2.174,2.174,0,0,1,.258.059Zm4.813,6.055a1.81,1.81,0,0,0,1.242-.473,1.493,1.493,0,0,0,.531-1.16h1.391l.023.047a2.428,2.428,0,0,1-.937,1.941,3.582,3.582,0,0,1-5-.363,4.674,4.674,0,0,1-.969-3.016v-.328a4.654,4.654,0,0,1,.973-3,3.317,3.317,0,0,1,2.746-1.215,3.189,3.189,0,0,1,2.316.875,2.775,2.775,0,0,1,.871,2.148l-.016.047h-1.4a1.865,1.865,0,0,0-.5-1.316,1.658,1.658,0,0,0-1.27-.543,1.777,1.777,0,0,0-1.652.879,4.114,4.114,0,0,0-.52,2.129v.328a4.192,4.192,0,0,0,.512,2.148A1.776,1.776,0,0,0,129.258,109.961Zm6.555-6.281a3.119,3.119,0,0,1,1.074-.949,2.947,2.947,0,0,1,1.41-.34,2.73,2.73,0,0,1,2.105.813,3.574,3.574,0,0,1,.754,2.5V111h-1.539v-5.312a2.263,2.263,0,0,0-.449-1.547,1.709,1.709,0,0,0-1.34-.5,2.514,2.514,0,0,0-1.2.27,2.174,2.174,0,0,0-.82.754V111h-1.539V98.813h1.539Zm7.469,2.7a10.457,10.457,0,0,1,1.242-5.258,7.19,7.19,0,0,1,2.609-2.906l.047.008.3.906a6.665,6.665,0,0,0-1.863,2.68,11.54,11.54,0,0,0-.793,4.555v.1a11.591,11.591,0,0,0,.789,4.555,7.25,7.25,0,0,0,1.867,2.75l-.3.844h-.047a7.193,7.193,0,0,1-2.609-2.9,10.452,10.452,0,0,1-1.242-5.262Zm9.391-2.477-.789-.047a1.762,1.762,0,0,0-1.027.289,1.855,1.855,0,0,0-.645.813V111h-1.539v-8.453h1.375l.148,1.234a2.934,2.934,0,0,1,.887-1.023,2.073,2.073,0,0,1,1.215-.367,1.9,1.9,0,0,1,.328.027,2.173,2.173,0,0,1,.258.059Zm3.141-2.539-.789,2.2h-.758l.008-2.07V99.625h1.539Zm1.25-1.742h1.453l4.75,12.352h-1.453Zm7.07,7.3a5.641,5.641,0,0,1,.871-3.289,2.807,2.807,0,0,1,2.441-1.25,3.027,3.027,0,0,1,1.316.273,2.7,2.7,0,0,1,.98.8V98.813h1.539V111H170.1l-.234-1.07a2.743,2.743,0,0,1-1.023.922,3.058,3.058,0,0,1-1.414.313,2.9,2.9,0,0,1-2.422-1.121,4.659,4.659,0,0,1-.875-2.949Zm1.539.164a3.588,3.588,0,0,0,.523,2.051,1.828,1.828,0,0,0,1.625.77,2.039,2.039,0,0,0,1.156-.312,2.334,2.334,0,0,0,.766-.875v-3.945a2.37,2.37,0,0,0-.77-.832,2.033,2.033,0,0,0-1.137-.309,1.759,1.759,0,0,0-1.637.914,4.718,4.718,0,0,0-.527,2.375Zm11.719,6.75a3.72,3.72,0,0,1-2.164-1.367,3.919,3.919,0,0,1-.641-2.266v-1.6a2.086,2.086,0,0,0-.4-1.363,1.5,1.5,0,0,0-1.23-.488v-1.148a1.514,1.514,0,0,0,1.23-.48,2.066,2.066,0,0,0,.4-1.363v-1.609a3.914,3.914,0,0,1,.641-2.27,3.729,3.729,0,0,1,2.164-1.363l.313.914a1.957,1.957,0,0,0-1.219.98,3.808,3.808,0,0,0-.359,1.738v1.609a3.035,3.035,0,0,1-.332,1.445,2.328,2.328,0,0,1-1,.977,2.368,2.368,0,0,1,1,.988,3.024,3.024,0,0,1,.332,1.434v1.6a3.758,3.758,0,0,0,.359,1.73,1.991,1.991,0,0,0,1.219.98Zm5.031-9.312a1.8,1.8,0,0,0,1.457-.512,2.179,2.179,0,0,0,.426-1.434,2.02,2.02,0,0,0-.465-1.387,1.741,1.741,0,0,0-1.379-.527,2.057,2.057,0,0,0-1.473.551,1.819,1.819,0,0,0-.582,1.379h-1.469l-.023-.047a2.718,2.718,0,0,1,.969-2.187,3.709,3.709,0,0,1,2.578-.906,3.6,3.6,0,0,1,2.484.8,2.991,2.991,0,0,1,.9,2.355,2.65,2.65,0,0,1-.418,1.453,2.818,2.818,0,0,1-1.168,1.023,2.688,2.688,0,0,1,1.309,1.043,3.063,3.063,0,0,1,.449,1.691,3.122,3.122,0,0,1-.988,2.449,3.7,3.7,0,0,1-2.566.887,4.064,4.064,0,0,1-2.559-.855,2.62,2.62,0,0,1-1.066-2.262l.016-.047h1.469a1.846,1.846,0,0,0,.6,1.395,2.152,2.152,0,0,0,1.543.566,1.914,1.914,0,0,0,1.477-.582,2.147,2.147,0,0,0,.539-1.52,2.273,2.273,0,0,0-.5-1.6,2.041,2.041,0,0,0-1.559-.531h-1.266v-1.2Zm4.648,8.391a2.02,2.02,0,0,0,1.219-.98,3.691,3.691,0,0,0,.367-1.73v-1.6a2.93,2.93,0,0,1,.352-1.461,2.293,2.293,0,0,1,1.086-.961,2.212,2.212,0,0,1-1.086-.945,2.963,2.963,0,0,1-.352-1.477v-1.609a3.739,3.739,0,0,0-.367-1.738,1.985,1.985,0,0,0-1.219-.98l.32-.914a3.744,3.744,0,0,1,2.16,1.363,3.9,3.9,0,0,1,.645,2.27v1.609a2.1,2.1,0,0,0,.395,1.363,1.51,1.51,0,0,0,1.238.48v1.148a1.5,1.5,0,0,0-1.238.488,2.114,2.114,0,0,0-.395,1.363v1.6a3.9,3.9,0,0,1-.645,2.266,3.735,3.735,0,0,1-2.16,1.367Zm11.188-6.125h-4.609v-1.2h4.609Zm1.6-7.172h1.453l4.75,12.352h-1.453Zm7.07,7.3a5.641,5.641,0,0,1,.871-3.289,2.807,2.807,0,0,1,2.441-1.25,3.027,3.027,0,0,1,1.316.273,2.7,2.7,0,0,1,.98.8V98.813h1.539V111H212.9l-.234-1.07a2.743,2.743,0,0,1-1.023.922,3.058,3.058,0,0,1-1.414.313,2.9,2.9,0,0,1-2.422-1.121,4.659,4.659,0,0,1-.875-2.949Zm1.539.164a3.588,3.588,0,0,0,.523,2.051,1.828,1.828,0,0,0,1.625.77,2.039,2.039,0,0,0,1.156-.312,2.334,2.334,0,0,0,.766-.875v-3.945a2.37,2.37,0,0,0-.77-.832,2.033,2.033,0,0,0-1.137-.309,1.759,1.759,0,0,0-1.637.914,4.718,4.718,0,0,0-.527,2.375Zm11.719,6.75a3.72,3.72,0,0,1-2.164-1.367,3.919,3.919,0,0,1-.641-2.266v-1.6a2.086,2.086,0,0,0-.4-1.363,1.5,1.5,0,0,0-1.23-.488v-1.148a1.514,1.514,0,0,0,1.23-.48,2.066,2.066,0,0,0,.4-1.363v-1.609a3.914,3.914,0,0,1,.641-2.27,3.729,3.729,0,0,1,2.164-1.363l.313.914a1.957,1.957,0,0,0-1.219.98,3.808,3.808,0,0,0-.359,1.738v1.609a3.035,3.035,0,0,1-.332,1.445,2.328,2.328,0,0,1-1,.977,2.368,2.368,0,0,1,1,.988,3.024,3.024,0,0,1,.332,1.434v1.6a3.758,3.758,0,0,0,.359,1.73,1.991,1.991,0,0,0,1.219.98Zm5.031-9.312a1.8,1.8,0,0,0,1.457-.512,2.179,2.179,0,0,0,.426-1.434,2.02,2.02,0,0,0-.465-1.387,1.741,1.741,0,0,0-1.379-.527,2.057,2.057,0,0,0-1.473.551,1.819,1.819,0,0,0-.582,1.379h-1.469l-.023-.047a2.718,2.718,0,0,1,.969-2.187,3.709,3.709,0,0,1,2.578-.906,3.6,3.6,0,0,1,2.484.8,2.991,2.991,0,0,1,.9,2.355,2.65,2.65,0,0,1-.418,1.453,2.818,2.818,0,0,1-1.168,1.023,2.688,2.688,0,0,1,1.309,1.043,3.063,3.063,0,0,1,.449,1.691,3.122,3.122,0,0,1-.988,2.449,3.7,3.7,0,0,1-2.566.887,4.064,4.064,0,0,1-2.559-.855,2.62,2.62,0,0,1-1.066-2.262l.016-.047h1.469a1.846,1.846,0,0,0,.6,1.395,2.152,2.152,0,0,0,1.543.566,1.914,1.914,0,0,0,1.477-.582,2.147,2.147,0,0,0,.539-1.52,2.273,2.273,0,0,0-.5-1.6,2.041,2.041,0,0,0-1.559-.531h-1.266v-1.2Zm4.648,8.391a2.02,2.02,0,0,0,1.219-.98,3.691,3.691,0,0,0,.367-1.73v-1.6a2.93,2.93,0,0,1,.352-1.461,2.293,2.293,0,0,1,1.086-.961,2.212,2.212,0,0,1-1.086-.945,2.963,2.963,0,0,1-.352-1.477v-1.609a3.739,3.739,0,0,0-.367-1.738,1.985,1.985,0,0,0-1.219-.98l.32-.914a3.744,3.744,0,0,1,2.16,1.363,3.9,3.9,0,0,1,.645,2.27v1.609a2.1,2.1,0,0,0,.395,1.363,1.51,1.51,0,0,0,1.238.48v1.148a1.5,1.5,0,0,0-1.238.488,2.114,2.114,0,0,0-.395,1.363v1.6a3.9,3.9,0,0,1-.645,2.266,3.735,3.735,0,0,1-2.16,1.367Zm11.188-6.125h-4.609v-1.2h4.609Zm1.6-7.172h1.453l4.75,12.352h-1.453Zm7.07,7.3a5.641,5.641,0,0,1,.871-3.289,2.807,2.807,0,0,1,2.441-1.25,3.027,3.027,0,0,1,1.316.273,2.7,2.7,0,0,1,.98.8V98.813h1.539V111H255.7l-.234-1.07a2.743,2.743,0,0,1-1.023.922,3.058,3.058,0,0,1-1.414.313,2.9,2.9,0,0,1-2.422-1.121,4.659,4.659,0,0,1-.875-2.949Zm1.539.164a3.588,3.588,0,0,0,.523,2.051,1.828,1.828,0,0,0,1.625.77,2.039,2.039,0,0,0,1.156-.312,2.334,2.334,0,0,0,.766-.875v-3.945a2.37,2.37,0,0,0-.77-.832,2.033,2.033,0,0,0-1.137-.309,1.759,1.759,0,0,0-1.637.914,4.718,4.718,0,0,0-.527,2.375Zm11.719,6.75a3.72,3.72,0,0,1-2.164-1.367,3.919,3.919,0,0,1-.641-2.266v-1.6a2.086,2.086,0,0,0-.4-1.363,1.5,1.5,0,0,0-1.23-.488v-1.148a1.514,1.514,0,0,0,1.23-.48,2.066,2.066,0,0,0,.4-1.363v-1.609a3.914,3.914,0,0,1,.641-2.27,3.729,3.729,0,0,1,2.164-1.363l.313.914a1.957,1.957,0,0,0-1.219.98,3.807,3.807,0,0,0-.359,1.738v1.609a3.035,3.035,0,0,1-.332,1.445,2.328,2.328,0,0,1-1,.977,2.368,2.368,0,0,1,1,.988,3.024,3.024,0,0,1,.332,1.434v1.6a3.758,3.758,0,0,0,.359,1.73,1.991,1.991,0,0,0,1.219.98Zm7.484-6.672h1.57v1.2h-1.57V111h-1.531v-2.625h-4.883v-.867l4.789-7.883h1.625Zm-4.766,0h3.234v-5.336l-.047-.008-.148.391Zm6.961,5.75a2.02,2.02,0,0,0,1.219-.98,3.691,3.691,0,0,0,.367-1.73v-1.6a2.93,2.93,0,0,1,.352-1.461,2.293,2.293,0,0,1,1.086-.961,2.212,2.212,0,0,1-1.086-.945,2.963,2.963,0,0,1-.352-1.477v-1.609a3.739,3.739,0,0,0-.367-1.738,1.985,1.985,0,0,0-1.219-.98l.32-.914a3.744,3.744,0,0,1,2.16,1.363,3.9,3.9,0,0,1,.645,2.27v1.609a2.1,2.1,0,0,0,.395,1.363,1.51,1.51,0,0,0,1.238.48v1.148a1.5,1.5,0,0,0-1.238.488,2.114,2.114,0,0,0-.395,1.363v1.6a3.9,3.9,0,0,1-.645,2.266,3.735,3.735,0,0,1-2.16,1.367Zm7.8-11.555-.789,2.2h-.758l.008-2.07V99.625h1.539Zm3.406,9.258-1.172,2.391h-.914l.547-2.469v-1.273h1.539Zm7.93-10.117v2.039h1.6v1.141h-1.6v5.133a1.149,1.149,0,0,0,.246.836.89.89,0,0,0,.652.242,1.43,1.43,0,0,0,.3-.035,2.2,2.2,0,0,0,.273-.074l.211,1.055a1.36,1.36,0,0,1-.508.23,2.562,2.562,0,0,1-.664.09,1.993,1.993,0,0,1-1.492-.566,2.46,2.46,0,0,1-.555-1.777v-5.133h-1.344v-1.141h1.344v-2.039Zm6.75,10.656a3.576,3.576,0,0,1-2.84-1.164,4.48,4.48,0,0,1-1.02-3.062v-.344a4.386,4.386,0,0,1,1.051-3.012,3.3,3.3,0,0,1,2.566-1.191,3.067,3.067,0,0,1,2.543,1.055,4.345,4.345,0,0,1,.848,2.8v.813H296.3l-.023.039a3.494,3.494,0,0,0,.563,2.066,1.965,1.965,0,0,0,1.719.793,3.872,3.872,0,0,0,1.371-.223,3.061,3.061,0,0,0,1.012-.613l.6,1a3.7,3.7,0,0,1-1.2.738A4.762,4.762,0,0,1,298.555,111.164Zm-.242-7.562a1.673,1.673,0,0,0-1.332.621,2.938,2.938,0,0,0-.645,1.59l.016.039h3.813v-.125a2.461,2.461,0,0,0-.453-1.523A1.638,1.638,0,0,0,298.313,103.6Zm7.984,2.063,1.8-3.117h1.8l-2.742,4.18,2.82,4.273H308.2l-1.875-3.2-1.875,3.2h-1.781l2.82-4.273-2.742-4.18h1.773Zm7.32-5.156v2.039h1.6v1.141h-1.6v5.133a1.149,1.149,0,0,0,.246.836.89.89,0,0,0,.652.242,1.43,1.43,0,0,0,.3-.035,2.2,2.2,0,0,0,.273-.074l.211,1.055a1.36,1.36,0,0,1-.508.23,2.562,2.562,0,0,1-.664.09,1.993,1.993,0,0,1-1.492-.566,2.46,2.46,0,0,1-.555-1.777v-5.133h-1.344v-1.141h1.344v-2.039Zm2.891,6.188a4.654,4.654,0,0,1,1.016-3.09,3.764,3.764,0,0,1,5.535,0,4.639,4.639,0,0,1,1.02,3.094v.172a4.631,4.631,0,0,1-1.016,3.094,3.781,3.781,0,0,1-5.535,0,4.623,4.623,0,0,1-1.02-3.09Zm1.539.172a4.009,4.009,0,0,0,.566,2.219,2.046,2.046,0,0,0,3.355,0,3.988,3.988,0,0,0,.57-2.219V106.7a3.976,3.976,0,0,0-.574-2.211,1.882,1.882,0,0,0-1.684-.883,1.856,1.856,0,0,0-1.668.883,4.018,4.018,0,0,0-.566,2.211Zm11.039-.414a10.426,10.426,0,0,1-1.246,5.262,7.244,7.244,0,0,1-2.605,2.9h-.047l-.3-.844a6.653,6.653,0,0,0,1.855-2.7,11.749,11.749,0,0,0,.8-4.605v-.1a11.354,11.354,0,0,0-.824-4.559,7.532,7.532,0,0,0-1.832-2.746l.3-.844h.047a7.241,7.241,0,0,1,2.605,2.906,10.431,10.431,0,0,1,1.246,5.258ZM8.32,155.094a4.659,4.659,0,0,1-.875,2.949,2.893,2.893,0,0,1-2.414,1.121A3.354,3.354,0,0,1,3.66,158.9a2.622,2.622,0,0,1-1-.785v4.133H1.117v-11.7H2.3l.242,1.094a2.792,2.792,0,0,1,1.031-.93,3.078,3.078,0,0,1,1.438-.32,2.809,2.809,0,0,1,2.441,1.246,5.638,5.638,0,0,1,.871,3.293Zm-1.539-.164a4.467,4.467,0,0,0-.566-2.363,1.835,1.835,0,0,0-1.668-.926,2.054,2.054,0,0,0-1.133.3,2.25,2.25,0,0,0-.758.824v4.086a2.186,2.186,0,0,0,.758.816,2.126,2.126,0,0,0,1.148.293,1.894,1.894,0,0,0,1.656-.8,3.516,3.516,0,0,0,.563-2.066Zm7.43-3.023-.789-.047a1.762,1.762,0,0,0-1.027.289,1.854,1.854,0,0,0-.645.813V159H10.211v-8.453h1.375l.148,1.234a2.934,2.934,0,0,1,.887-1.023,2.073,2.073,0,0,1,1.215-.367,1.9,1.9,0,0,1,.328.027,2.177,2.177,0,0,1,.258.059ZM17.477,159H15.938v-8.453h1.539Zm0-10.617H15.938v-1.57h1.539Zm3.742,2.164.109,1.258a3.069,3.069,0,0,1,1.059-1.043,2.825,2.825,0,0,1,1.449-.371,2.759,2.759,0,0,1,2.117.8,3.515,3.515,0,0,1,.75,2.473V159H25.164v-5.3a2.287,2.287,0,0,0-.441-1.586,1.768,1.768,0,0,0-1.348-.469,2.386,2.386,0,0,0-1.207.285,2.072,2.072,0,0,0-.785.8V159H19.844v-8.453Zm9.859-2.039v2.039h1.6v1.141h-1.6v5.133a1.149,1.149,0,0,0,.246.836.89.89,0,0,0,.652.242,1.429,1.429,0,0,0,.3-.035,2.2,2.2,0,0,0,.273-.074l.211,1.055a1.36,1.36,0,0,1-.508.23,2.563,2.563,0,0,1-.664.09,1.993,1.993,0,0,1-1.492-.566,2.46,2.46,0,0,1-.555-1.777v-5.133H28.2v-1.141h1.344v-2.039Zm3.164,5.875a10.458,10.458,0,0,1,1.242-5.258,7.19,7.19,0,0,1,2.609-2.906l.047.008.3.906a6.665,6.665,0,0,0-1.863,2.68,11.54,11.54,0,0,0-.793,4.555v.1a11.591,11.591,0,0,0,.789,4.555,7.25,7.25,0,0,0,1.867,2.75l-.3.844h-.047a7.193,7.193,0,0,1-2.609-2.9,10.452,10.452,0,0,1-1.242-5.262Zm8.891,4.781A3.576,3.576,0,0,1,40.293,158a4.48,4.48,0,0,1-1.02-3.062v-.344a4.386,4.386,0,0,1,1.051-3.012,3.3,3.3,0,0,1,2.566-1.191,3.067,3.067,0,0,1,2.543,1.055,4.345,4.345,0,0,1,.848,2.8v.813H40.875l-.023.039a3.494,3.494,0,0,0,.563,2.066,1.965,1.965,0,0,0,1.719.793,3.872,3.872,0,0,0,1.371-.223,3.06,3.06,0,0,0,1.012-.613l.6,1a3.7,3.7,0,0,1-1.2.738A4.762,4.762,0,0,1,43.133,159.164Zm-.242-7.562a1.673,1.673,0,0,0-1.332.621,2.938,2.938,0,0,0-.645,1.59l.016.039h3.813v-.125a2.462,2.462,0,0,0-.453-1.523A1.638,1.638,0,0,0,42.891,151.6Zm6.492-1.055.109,1.109a2.871,2.871,0,0,1,1.051-.934,3.157,3.157,0,0,1,1.48-.332,2.615,2.615,0,0,1,1.449.391,2.363,2.363,0,0,1,.91,1.172,3.162,3.162,0,0,1,1.059-1.145,2.769,2.769,0,0,1,1.527-.418,2.531,2.531,0,0,1,2.039.887,4.051,4.051,0,0,1,.75,2.668V159H58.219v-5.07a2.81,2.81,0,0,0-.43-1.77,1.567,1.567,0,0,0-1.281-.52,1.631,1.631,0,0,0-1.277.547,2.381,2.381,0,0,0-.574,1.383V159H53.109v-5.07a2.772,2.772,0,0,0-.441-1.738,1.532,1.532,0,0,0-1.27-.551,2.115,2.115,0,0,0-1.156.289,1.867,1.867,0,0,0-.7.813V159H48.008v-8.453ZM67.188,159q-.078-.383-.121-.676a4.96,4.96,0,0,1-.051-.59,3.589,3.589,0,0,1-1.121,1.02,2.867,2.867,0,0,1-1.488.41,2.763,2.763,0,0,1-2.012-.676,2.486,2.486,0,0,1-.691-1.863,2.183,2.183,0,0,1,.98-1.895,4.579,4.579,0,0,1,2.66-.684h1.672v-.836a1.551,1.551,0,0,0-.453-1.176,1.779,1.779,0,0,0-1.281-.434,1.859,1.859,0,0,0-1.211.375,1.125,1.125,0,0,0-.461.9l-1.461.016-.016-.047A2.023,2.023,0,0,1,63,151.156a3.578,3.578,0,0,1,2.371-.766,3.49,3.49,0,0,1,2.313.73,2.588,2.588,0,0,1,.875,2.105v4.07a7.923,7.923,0,0,0,.047.875,4.5,4.5,0,0,0,.172.828Zm-2.555-1.125a2.739,2.739,0,0,0,1.508-.43,2.042,2.042,0,0,0,.875-.984v-1.375H65.289a2.24,2.24,0,0,0-1.488.469,1.4,1.4,0,0,0-.559,1.1,1.159,1.159,0,0,0,.352.891A1.472,1.472,0,0,0,64.633,157.875ZM72.453,159H70.914v-8.453h1.539Zm0-10.617H70.914v-1.57h1.539ZM76.484,159H74.945V146.813h1.539Zm4.047,0H78.992v-1.578h1.539Zm2.328-4.07a5.641,5.641,0,0,1,.871-3.289,2.8,2.8,0,0,1,2.434-1.25,2.966,2.966,0,0,1,1.414.324,2.845,2.845,0,0,1,1.023.934l.188-1.1h1.227v8.5a3.225,3.225,0,0,1-.945,2.5,3.884,3.884,0,0,1-2.727.871,5.716,5.716,0,0,1-1.316-.168,5.147,5.147,0,0,1-1.246-.457l.234-1.2a4.451,4.451,0,0,0,1.074.379,5.516,5.516,0,0,0,1.238.145,2.242,2.242,0,0,0,1.637-.512,2.12,2.12,0,0,0,.512-1.559v-.961a2.725,2.725,0,0,1-.992.8,3.091,3.091,0,0,1-1.336.273,2.89,2.89,0,0,1-2.418-1.121,4.674,4.674,0,0,1-.871-2.949Zm1.539.164a3.592,3.592,0,0,0,.523,2.047,1.817,1.817,0,0,0,1.617.773A2.034,2.034,0,0,0,87.7,157.6a2.4,2.4,0,0,0,.773-.895v-3.891a2.388,2.388,0,0,0-.773-.855,2.029,2.029,0,0,0-1.148-.316,1.752,1.752,0,0,0-1.629.914,4.718,4.718,0,0,0-.527,2.375Zm11.828-3.187-.789-.047a1.762,1.762,0,0,0-1.027.289,1.854,1.854,0,0,0-.645.813V159H92.227v-8.453H93.6l.148,1.234a2.934,2.934,0,0,1,.887-1.023,2.073,2.073,0,0,1,1.215-.367,1.9,1.9,0,0,1,.328.027,2.177,2.177,0,0,1,.258.059Zm1.086,2.789a4.654,4.654,0,0,1,1.016-3.09,3.764,3.764,0,0,1,5.535,0,4.639,4.639,0,0,1,1.02,3.094v.172a4.631,4.631,0,0,1-1.016,3.094,3.781,3.781,0,0,1-5.535,0,4.623,4.623,0,0,1-1.02-3.09Zm1.539.172a4.009,4.009,0,0,0,.566,2.219,2.046,2.046,0,0,0,3.355,0,3.988,3.988,0,0,0,.57-2.219V154.7a3.976,3.976,0,0,0-.574-2.211,1.882,1.882,0,0,0-1.684-.883,1.856,1.856,0,0,0-1.668.883,4.018,4.018,0,0,0-.566,2.211Zm13.281,2.883a2.863,2.863,0,0,1-1.023,1.047,2.8,2.8,0,0,1-1.445.367,2.716,2.716,0,0,1-2.156-.883,4.1,4.1,0,0,1-.773-2.75v-4.984h1.539v5a3.147,3.147,0,0,0,.4,1.859,1.481,1.481,0,0,0,1.242.508,2.531,2.531,0,0,0,1.355-.332,2.077,2.077,0,0,0,.809-.941v-6.094h1.539V159h-1.383Zm10.93-2.656a4.659,4.659,0,0,1-.875,2.949,2.893,2.893,0,0,1-2.414,1.121,3.354,3.354,0,0,1-1.371-.262,2.622,2.622,0,0,1-1-.785v4.133h-1.539v-11.7h1.18l.242,1.094a2.792,2.792,0,0,1,1.031-.93,3.078,3.078,0,0,1,1.438-.32,2.809,2.809,0,0,1,2.441,1.246,5.638,5.638,0,0,1,.871,3.293Zm-1.539-.164a4.467,4.467,0,0,0-.566-2.363,1.835,1.835,0,0,0-1.668-.926,2.054,2.054,0,0,0-1.133.3,2.25,2.25,0,0,0-.758.824v4.086a2.186,2.186,0,0,0,.758.816,2.126,2.126,0,0,0,1.148.293,1.894,1.894,0,0,0,1.656-.8,3.516,3.516,0,0,0,.563-2.066Zm3.344-.547a10.458,10.458,0,0,1,1.242-5.258,7.19,7.19,0,0,1,2.609-2.906l.047.008.3.906a6.665,6.665,0,0,0-1.863,2.68,11.54,11.54,0,0,0-.793,4.555v.1a11.591,11.591,0,0,0,.789,4.555,7.25,7.25,0,0,0,1.867,2.75l-.3.844h-.047a7.193,7.193,0,0,1-2.609-2.9,10.452,10.452,0,0,1-1.242-5.262Zm8.516.07a10.426,10.426,0,0,1-1.246,5.262,7.244,7.244,0,0,1-2.605,2.9h-.047l-.3-.844a6.653,6.653,0,0,0,1.855-2.7,11.749,11.749,0,0,0,.8-4.605v-.1a11.354,11.354,0,0,0-.824-4.559,7.532,7.532,0,0,0-1.832-2.746l.3-.844h.047a7.241,7.241,0,0,1,2.605,2.906,10.431,10.431,0,0,1,1.246,5.258Zm5.367,0a10.426,10.426,0,0,1-1.246,5.262,7.244,7.244,0,0,1-2.605,2.9h-.047l-.3-.844a6.653,6.653,0,0,0,1.855-2.7,11.749,11.749,0,0,0,.8-4.605v-.1a11.354,11.354,0,0,0-.824-4.559,7.532,7.532,0,0,0-1.832-2.746l.3-.844h.047a7.241,7.241,0,0,1,2.605,2.906,10.431,10.431,0,0,1,1.246,5.258Zm14.641,1.344H151.4l-.625,3.2h-1.18l.625-3.2h-1.844V154.7h2.063l.531-2.719h-2v-1.109h2.219l.641-3.25h1.18l-.641,3.25h1.992l.641-3.25h1.18l-.641,3.25h1.555v1.109h-1.766L154.8,154.7h1.711V155.8h-1.93l-.625,3.2h-1.187Zm-1.773-1.094h1.992l.531-2.719h-1.992ZM164.8,159h-1.547V147.625H164.8Zm3.984-8.453.109,1.109a2.871,2.871,0,0,1,1.051-.934,3.157,3.157,0,0,1,1.48-.332,2.615,2.615,0,0,1,1.449.391,2.363,2.363,0,0,1,.91,1.172,3.162,3.162,0,0,1,1.059-1.145,2.769,2.769,0,0,1,1.527-.418,2.531,2.531,0,0,1,2.039.887,4.051,4.051,0,0,1,.75,2.668V159h-1.539v-5.07a2.81,2.81,0,0,0-.43-1.77,1.567,1.567,0,0,0-1.281-.52,1.631,1.631,0,0,0-1.277.547,2.381,2.381,0,0,0-.574,1.383V159h-1.547v-5.07a2.772,2.772,0,0,0-.441-1.738,1.532,1.532,0,0,0-1.27-.551,2.115,2.115,0,0,0-1.156.289,1.867,1.867,0,0,0-.7.813V159h-1.539v-8.453Zm19.813,4.547a4.659,4.659,0,0,1-.875,2.949,2.893,2.893,0,0,1-2.414,1.121,3.354,3.354,0,0,1-1.371-.262,2.622,2.622,0,0,1-1-.785v4.133H181.4v-11.7h1.18l.242,1.094a2.792,2.792,0,0,1,1.031-.93,3.078,3.078,0,0,1,1.438-.32,2.809,2.809,0,0,1,2.441,1.246,5.637,5.637,0,0,1,.871,3.293Zm-1.539-.164a4.467,4.467,0,0,0-.566-2.363,1.835,1.835,0,0,0-1.668-.926,2.054,2.054,0,0,0-1.133.3,2.25,2.25,0,0,0-.758.824v4.086a2.186,2.186,0,0,0,.758.816,2.126,2.126,0,0,0,1.148.293,1.894,1.894,0,0,0,1.656-.8,3.516,3.516,0,0,0,.563-2.066Zm7.43-3.023-.789-.047a1.762,1.762,0,0,0-1.027.289,1.855,1.855,0,0,0-.645.813V159h-1.539v-8.453h1.375l.148,1.234a2.934,2.934,0,0,1,.887-1.023,2.073,2.073,0,0,1,1.215-.367,1.9,1.9,0,0,1,.328.027,2.176,2.176,0,0,1,.258.059ZM197.758,159h-1.539v-8.453h1.539Zm0-10.617h-1.539v-1.57h1.539Zm3.742,2.164.109,1.109a2.871,2.871,0,0,1,1.051-.934,3.157,3.157,0,0,1,1.48-.332,2.615,2.615,0,0,1,1.449.391,2.363,2.363,0,0,1,.91,1.172,3.162,3.162,0,0,1,1.059-1.145,2.769,2.769,0,0,1,1.527-.418,2.531,2.531,0,0,1,2.039.887,4.051,4.051,0,0,1,.75,2.668V159h-1.539v-5.07a2.81,2.81,0,0,0-.43-1.77,1.567,1.567,0,0,0-1.281-.52,1.631,1.631,0,0,0-1.277.547,2.381,2.381,0,0,0-.574,1.383V159h-1.547v-5.07a2.772,2.772,0,0,0-.441-1.738,1.532,1.532,0,0,0-1.27-.551,2.115,2.115,0,0,0-1.156.289,1.867,1.867,0,0,0-.7.813V159h-1.539v-8.453Zm16.109,8.617A3.576,3.576,0,0,1,214.77,158a4.48,4.48,0,0,1-1.02-3.062v-.344a4.386,4.386,0,0,1,1.051-3.012,3.3,3.3,0,0,1,2.566-1.191,3.067,3.067,0,0,1,2.543,1.055,4.345,4.345,0,0,1,.848,2.8v.813h-5.406l-.023.039a3.494,3.494,0,0,0,.563,2.066,1.965,1.965,0,0,0,1.719.793,3.872,3.872,0,0,0,1.371-.223,3.06,3.06,0,0,0,1.012-.613l.6,1a3.7,3.7,0,0,1-1.2.738A4.762,4.762,0,0,1,217.609,159.164Zm-.242-7.562a1.673,1.673,0,0,0-1.332.621,2.938,2.938,0,0,0-.645,1.59l.016.039h3.813v-.125a2.462,2.462,0,0,0-.453-1.523A1.638,1.638,0,0,0,217.367,151.6Zm6.8,7.4h-1.539v-1.578h1.539Zm0-6.844h-1.539v-1.578h1.539Zm8.109-1.609V159.7a2.807,2.807,0,0,1-.672,2.012,2.452,2.452,0,0,1-1.867.707,2.549,2.549,0,0,1-.441-.035,3.49,3.49,0,0,1-.426-.105l.109-1.211a1.621,1.621,0,0,0,.313.066,2.607,2.607,0,0,0,.336.027,1.02,1.02,0,0,0,.809-.344,1.681,1.681,0,0,0,.3-1.117v-9.148Zm-.047-2.2h-1.539v-1.539h1.539Zm7.781,9.4a2.863,2.863,0,0,1-1.023,1.047,2.8,2.8,0,0,1-1.445.367,2.716,2.716,0,0,1-2.156-.883,4.1,4.1,0,0,1-.773-2.75v-4.984h1.539v5a3.147,3.147,0,0,0,.4,1.859,1.481,1.481,0,0,0,1.242.508,2.531,2.531,0,0,0,1.355-.332,2.077,2.077,0,0,0,.809-.941v-6.094h1.539V159h-1.383ZM248.93,159q-.078-.383-.121-.676a4.96,4.96,0,0,1-.051-.59,3.588,3.588,0,0,1-1.121,1.02,2.867,2.867,0,0,1-1.488.41,2.763,2.763,0,0,1-2.012-.676,2.486,2.486,0,0,1-.691-1.863,2.183,2.183,0,0,1,.98-1.895,4.579,4.579,0,0,1,2.66-.684h1.672v-.836a1.551,1.551,0,0,0-.453-1.176,1.779,1.779,0,0,0-1.281-.434,1.859,1.859,0,0,0-1.211.375,1.125,1.125,0,0,0-.461.9l-1.461.016-.016-.047a2.023,2.023,0,0,1,.863-1.687,3.578,3.578,0,0,1,2.371-.766,3.49,3.49,0,0,1,2.313.73,2.588,2.588,0,0,1,.875,2.105v4.07a7.923,7.923,0,0,0,.047.875,4.5,4.5,0,0,0,.172.828Zm-2.555-1.125a2.739,2.739,0,0,0,1.508-.43,2.042,2.042,0,0,0,.875-.984v-1.375h-1.727a2.24,2.24,0,0,0-1.488.469,1.4,1.4,0,0,0-.559,1.1,1.159,1.159,0,0,0,.352.891A1.472,1.472,0,0,0,246.375,157.875Zm7.531-7.328.109,1.258a3.069,3.069,0,0,1,1.059-1.043,2.825,2.825,0,0,1,1.449-.371,2.759,2.759,0,0,1,2.117.8,3.515,3.515,0,0,1,.75,2.473V159h-1.539v-5.3a2.287,2.287,0,0,0-.441-1.586,1.768,1.768,0,0,0-1.348-.469,2.386,2.386,0,0,0-1.207.285,2.072,2.072,0,0,0-.785.8V159h-1.539v-8.453Zm20.133,4.531a5.191,5.191,0,0,1-.937,2.879,2.985,2.985,0,0,1-2.594,1.207,1.549,1.549,0,0,1-.984-.324,1.781,1.781,0,0,1-.594-.918,2.61,2.61,0,0,1-.953.934,2.686,2.686,0,0,1-1.312.309,1.672,1.672,0,0,1-1.516-.941,4.161,4.161,0,0,1-.4-2.473,6.363,6.363,0,0,1,1.074-3.246,2.638,2.638,0,0,1,2.184-1.223,3.567,3.567,0,0,1,1.32.2,5.34,5.34,0,0,1,1.086.625l-.031.031h.047l-.4,4.57a1.851,1.851,0,0,0,.168,1.184.751.751,0,0,0,.637.324,1.763,1.763,0,0,0,1.539-.887,4.435,4.435,0,0,0,.641-2.254,7.1,7.1,0,0,0-1.125-4.652,4.527,4.527,0,0,0-3.875-1.668,4.739,4.739,0,0,0-3.871,1.8,7.748,7.748,0,0,0-1.582,4.7,6.875,6.875,0,0,0,1.172,4.645,4.466,4.466,0,0,0,3.766,1.707,6.018,6.018,0,0,0,1.395-.168,4.581,4.581,0,0,0,1.191-.441l.3.836a4.3,4.3,0,0,1-1.332.512,7.133,7.133,0,0,1-1.582.184,5.636,5.636,0,0,1-4.59-1.949,7.558,7.558,0,0,1-1.48-5.324,8.517,8.517,0,0,1,1.945-5.375,5.929,5.929,0,0,1,4.7-2.07,5.508,5.508,0,0,1,4.543,1.953A7.681,7.681,0,0,1,274.039,155.078Zm-7.906.672a3.652,3.652,0,0,0,.168,1.688.86.86,0,0,0,.832.578,2.152,2.152,0,0,0,.914-.191,1.95,1.95,0,0,0,.758-.684,1.662,1.662,0,0,1,0-.2q0-.105.02-.23l.367-4.2a2.352,2.352,0,0,0-.426-.148,1.942,1.942,0,0,0-.465-.055,1.644,1.644,0,0,0-1.492.855A6.242,6.242,0,0,0,266.133,155.75Zm13.313,3.414a3.576,3.576,0,0,1-2.84-1.164,4.48,4.48,0,0,1-1.02-3.062v-.344a4.386,4.386,0,0,1,1.051-3.012,3.3,3.3,0,0,1,2.566-1.191,3.067,3.067,0,0,1,2.543,1.055,4.345,4.345,0,0,1,.848,2.8v.813h-5.406l-.023.039a3.494,3.494,0,0,0,.563,2.066,1.965,1.965,0,0,0,1.719.793,3.872,3.872,0,0,0,1.371-.223,3.061,3.061,0,0,0,1.012-.613l.6,1a3.7,3.7,0,0,1-1.2.738A4.762,4.762,0,0,1,279.445,159.164ZM279.2,151.6a1.673,1.673,0,0,0-1.332.621,2.938,2.938,0,0,0-.645,1.59l.016.039h3.813v-.125a2.462,2.462,0,0,0-.453-1.523A1.638,1.638,0,0,0,279.2,151.6Zm7.984,2.063,1.8-3.117h1.8l-2.742,4.18,2.82,4.273h-1.766l-1.875-3.2-1.875,3.2h-1.781l2.82-4.273-2.742-4.18h1.773ZM297.563,159q-.078-.383-.121-.676a4.96,4.96,0,0,1-.051-.59,3.589,3.589,0,0,1-1.121,1.02,2.867,2.867,0,0,1-1.488.41,2.763,2.763,0,0,1-2.012-.676,2.486,2.486,0,0,1-.691-1.863,2.183,2.183,0,0,1,.98-1.895,4.579,4.579,0,0,1,2.66-.684h1.672v-.836a1.551,1.551,0,0,0-.453-1.176,1.779,1.779,0,0,0-1.281-.434,1.859,1.859,0,0,0-1.211.375,1.125,1.125,0,0,0-.461.9l-1.461.016-.016-.047a2.023,2.023,0,0,1,.863-1.687,3.578,3.578,0,0,1,2.371-.766,3.49,3.49,0,0,1,2.313.73,2.588,2.588,0,0,1,.875,2.105v4.07a7.923,7.923,0,0,0,.047.875,4.5,4.5,0,0,0,.172.828Zm-2.555-1.125a2.739,2.739,0,0,0,1.508-.43,2.042,2.042,0,0,0,.875-.984v-1.375h-1.727a2.24,2.24,0,0,0-1.488.469,1.4,1.4,0,0,0-.559,1.1,1.159,1.159,0,0,0,.352.891A1.472,1.472,0,0,0,295.008,157.875Zm7.531-7.328.109,1.109a2.871,2.871,0,0,1,1.051-.934,3.157,3.157,0,0,1,1.48-.332,2.615,2.615,0,0,1,1.449.391,2.363,2.363,0,0,1,.91,1.172,3.162,3.162,0,0,1,1.059-1.145,2.769,2.769,0,0,1,1.527-.418,2.531,2.531,0,0,1,2.039.887,4.051,4.051,0,0,1,.75,2.668V159h-1.539v-5.07a2.81,2.81,0,0,0-.43-1.77,1.567,1.567,0,0,0-1.281-.52,1.631,1.631,0,0,0-1.277.547,2.381,2.381,0,0,0-.574,1.383V159h-1.547v-5.07a2.772,2.772,0,0,0-.441-1.738,1.532,1.532,0,0,0-1.27-.551,2.115,2.115,0,0,0-1.156.289,1.867,1.867,0,0,0-.7.813V159h-1.539v-8.453Zm19.813,4.547a4.659,4.659,0,0,1-.875,2.949,2.893,2.893,0,0,1-2.414,1.121,3.354,3.354,0,0,1-1.371-.262,2.622,2.622,0,0,1-1-.785v4.133h-1.539v-11.7h1.18l.242,1.094a2.792,2.792,0,0,1,1.031-.93,3.078,3.078,0,0,1,1.438-.32,2.809,2.809,0,0,1,2.441,1.246,5.638,5.638,0,0,1,.871,3.293Zm-1.539-.164a4.467,4.467,0,0,0-.566-2.363,1.835,1.835,0,0,0-1.668-.926,2.054,2.054,0,0,0-1.133.3,2.25,2.25,0,0,0-.758.824v4.086a2.186,2.186,0,0,0,.758.816,2.126,2.126,0,0,0,1.148.293,1.894,1.894,0,0,0,1.656-.8,3.516,3.516,0,0,0,.563-2.066Zm5.094,4.07h-1.539V146.813h1.539Zm5.867.164a3.576,3.576,0,0,1-2.84-1.164,4.48,4.48,0,0,1-1.02-3.062v-.344a4.386,4.386,0,0,1,1.051-3.012,3.3,3.3,0,0,1,2.566-1.191,3.067,3.067,0,0,1,2.543,1.055,4.345,4.345,0,0,1,.848,2.8v.813h-5.406l-.023.039a3.494,3.494,0,0,0,.563,2.066,1.965,1.965,0,0,0,1.719.793,3.872,3.872,0,0,0,1.371-.223,3.061,3.061,0,0,0,1.012-.613l.6,1a3.7,3.7,0,0,1-1.2.738A4.762,4.762,0,0,1,331.773,159.164Zm-.242-7.562a1.673,1.673,0,0,0-1.332.621,2.938,2.938,0,0,0-.645,1.59l.016.039h3.813v-.125a2.462,2.462,0,0,0-.453-1.523A1.638,1.638,0,0,0,331.531,151.6Zm6.8,7.4h-1.539v-1.578h1.539Zm5.961-1.039a1.81,1.81,0,0,0,1.242-.473,1.494,1.494,0,0,0,.531-1.16h1.391l.023.047a2.427,2.427,0,0,1-.937,1.941,3.582,3.582,0,0,1-5-.363,4.674,4.674,0,0,1-.969-3.016v-.328a4.654,4.654,0,0,1,.973-3,3.317,3.317,0,0,1,2.746-1.215,3.189,3.189,0,0,1,2.316.875,2.775,2.775,0,0,1,.871,2.148l-.016.047h-1.4a1.865,1.865,0,0,0-.5-1.316,1.658,1.658,0,0,0-1.27-.543,1.777,1.777,0,0,0-1.652.879,4.114,4.114,0,0,0-.52,2.129v.328a4.192,4.192,0,0,0,.512,2.148A1.776,1.776,0,0,0,344.289,157.961Zm4.656-3.266a4.654,4.654,0,0,1,1.016-3.09,3.764,3.764,0,0,1,5.535,0,4.639,4.639,0,0,1,1.02,3.094v.172a4.631,4.631,0,0,1-1.016,3.094,3.781,3.781,0,0,1-5.535,0,4.623,4.623,0,0,1-1.02-3.09Zm1.539.172a4.009,4.009,0,0,0,.566,2.219,2.046,2.046,0,0,0,3.355,0,3.988,3.988,0,0,0,.57-2.219V154.7a3.976,3.976,0,0,0-.574-2.211,1.882,1.882,0,0,0-1.684-.883,1.856,1.856,0,0,0-1.668.883,4.018,4.018,0,0,0-.566,2.211Zm9.289-4.32.109,1.109a2.871,2.871,0,0,1,1.051-.934,3.157,3.157,0,0,1,1.48-.332,2.615,2.615,0,0,1,1.449.391,2.363,2.363,0,0,1,.91,1.172,3.162,3.162,0,0,1,1.059-1.145,2.769,2.769,0,0,1,1.527-.418,2.531,2.531,0,0,1,2.039.887,4.051,4.051,0,0,1,.75,2.668V159h-1.539v-5.07a2.81,2.81,0,0,0-.43-1.77,1.567,1.567,0,0,0-1.281-.52,1.631,1.631,0,0,0-1.277.547,2.381,2.381,0,0,0-.574,1.383V159H363.5v-5.07a2.772,2.772,0,0,0-.441-1.738,1.532,1.532,0,0,0-1.27-.551,2.115,2.115,0,0,0-1.156.289,1.867,1.867,0,0,0-.7.813V159H358.4v-8.453ZM8.32,179.094a4.659,4.659,0,0,1-.875,2.949,2.893,2.893,0,0,1-2.414,1.121A3.354,3.354,0,0,1,3.66,182.9a2.622,2.622,0,0,1-1-.785v4.133H1.117v-11.7H2.3l.242,1.094a2.792,2.792,0,0,1,1.031-.93,3.078,3.078,0,0,1,1.438-.32,2.809,2.809,0,0,1,2.441,1.246,5.638,5.638,0,0,1,.871,3.293Zm-1.539-.164a4.467,4.467,0,0,0-.566-2.363,1.835,1.835,0,0,0-1.668-.926,2.054,2.054,0,0,0-1.133.3,2.25,2.25,0,0,0-.758.824v4.086a2.186,2.186,0,0,0,.758.816,2.126,2.126,0,0,0,1.148.293,1.894,1.894,0,0,0,1.656-.8,3.516,3.516,0,0,0,.563-2.066Zm7.43-3.023-.789-.047a1.762,1.762,0,0,0-1.027.289,1.854,1.854,0,0,0-.645.813V183H10.211v-8.453h1.375l.148,1.234a2.934,2.934,0,0,1,.887-1.023,2.073,2.073,0,0,1,1.215-.367,1.9,1.9,0,0,1,.328.027,2.177,2.177,0,0,1,.258.059ZM17.477,183H15.938v-8.453h1.539Zm0-10.617H15.938v-1.57h1.539Zm3.742,2.164.109,1.258a3.069,3.069,0,0,1,1.059-1.043,2.825,2.825,0,0,1,1.449-.371,2.759,2.759,0,0,1,2.117.8,3.515,3.515,0,0,1,.75,2.473V183H25.164v-5.3a2.287,2.287,0,0,0-.441-1.586,1.768,1.768,0,0,0-1.348-.469,2.386,2.386,0,0,0-1.207.285,2.072,2.072,0,0,0-.785.8V183H19.844v-8.453Zm9.859-2.039v2.039h1.6v1.141h-1.6v5.133a1.149,1.149,0,0,0,.246.836.89.89,0,0,0,.652.242,1.429,1.429,0,0,0,.3-.035,2.2,2.2,0,0,0,.273-.074l.211,1.055a1.36,1.36,0,0,1-.508.23,2.563,2.563,0,0,1-.664.09,1.993,1.993,0,0,1-1.492-.566,2.46,2.46,0,0,1-.555-1.777v-5.133H28.2v-1.141h1.344v-2.039Zm3.164,5.875a10.458,10.458,0,0,1,1.242-5.258,7.19,7.19,0,0,1,2.609-2.906l.047.008.3.906a6.665,6.665,0,0,0-1.863,2.68,11.54,11.54,0,0,0-.793,4.555v.1a11.591,11.591,0,0,0,.789,4.555,7.25,7.25,0,0,0,1.867,2.75l-.3.844h-.047a7.193,7.193,0,0,1-2.609-2.9,10.452,10.452,0,0,1-1.242-5.262Zm7.531-5.875v2.039h1.6v1.141h-1.6v5.133a1.149,1.149,0,0,0,.246.836.89.89,0,0,0,.652.242,1.429,1.429,0,0,0,.3-.035,2.2,2.2,0,0,0,.273-.074l.211,1.055a1.36,1.36,0,0,1-.508.23,2.563,2.563,0,0,1-.664.09,1.993,1.993,0,0,1-1.492-.566,2.46,2.46,0,0,1-.555-1.777v-5.133H38.891v-1.141h1.344v-2.039Zm6.75,10.656A3.576,3.576,0,0,1,45.684,182a4.48,4.48,0,0,1-1.02-3.062v-.344a4.386,4.386,0,0,1,1.051-3.012,3.3,3.3,0,0,1,2.566-1.191,3.067,3.067,0,0,1,2.543,1.055,4.345,4.345,0,0,1,.848,2.8v.813H46.266l-.023.039a3.494,3.494,0,0,0,.563,2.066,1.965,1.965,0,0,0,1.719.793,3.872,3.872,0,0,0,1.371-.223,3.06,3.06,0,0,0,1.012-.613l.6,1a3.7,3.7,0,0,1-1.2.738A4.762,4.762,0,0,1,48.523,183.164Zm-.242-7.562a1.673,1.673,0,0,0-1.332.621,2.938,2.938,0,0,0-.645,1.59l.016.039h3.813v-.125a2.462,2.462,0,0,0-.453-1.523A1.638,1.638,0,0,0,48.281,175.6Zm6.781,7.4H53.523V170.813h1.539Zm5.867.164A3.576,3.576,0,0,1,58.09,182a4.48,4.48,0,0,1-1.02-3.062v-.344a4.386,4.386,0,0,1,1.051-3.012,3.3,3.3,0,0,1,2.566-1.191,3.067,3.067,0,0,1,2.543,1.055,4.345,4.345,0,0,1,.848,2.8v.813H58.672l-.023.039a3.494,3.494,0,0,0,.563,2.066,1.965,1.965,0,0,0,1.719.793,3.872,3.872,0,0,0,1.371-.223,3.06,3.06,0,0,0,1.012-.613l.6,1a3.7,3.7,0,0,1-1.2.738A4.762,4.762,0,0,1,60.93,183.164Zm-.242-7.562a1.673,1.673,0,0,0-1.332.621,2.938,2.938,0,0,0-.645,1.59l.016.039h3.813v-.125a2.462,2.462,0,0,0-.453-1.523A1.638,1.638,0,0,0,60.688,175.6Zm5.758,7.4v-7.312h-1.32v-1.141h1.32v-1.07a2.9,2.9,0,0,1,.707-2.09,2.6,2.6,0,0,1,1.973-.738,3.4,3.4,0,0,1,.535.043q.27.043.6.121l-.187,1.172q-.141-.031-.34-.055a3.579,3.579,0,0,0-.418-.023,1.215,1.215,0,0,0-1,.4,1.809,1.809,0,0,0-.328,1.168v1.07h1.531v1.141H67.984V183Zm4.266-4.3a4.654,4.654,0,0,1,1.016-3.09,3.764,3.764,0,0,1,5.535,0,4.639,4.639,0,0,1,1.02,3.094v.172a4.631,4.631,0,0,1-1.016,3.094,3.781,3.781,0,0,1-5.535,0,4.623,4.623,0,0,1-1.02-3.09Zm1.539.172a4.009,4.009,0,0,0,.566,2.219,2.046,2.046,0,0,0,3.355,0,3.988,3.988,0,0,0,.57-2.219V178.7a3.976,3.976,0,0,0-.574-2.211,1.882,1.882,0,0,0-1.684-.883,1.856,1.856,0,0,0-1.668.883,4.018,4.018,0,0,0-.566,2.211Zm9.289-4.32.109,1.258a3.069,3.069,0,0,1,1.059-1.043,2.825,2.825,0,0,1,1.449-.371,2.759,2.759,0,0,1,2.117.8,3.515,3.515,0,0,1,.75,2.473V183H85.484v-5.3a2.287,2.287,0,0,0-.441-1.586,1.768,1.768,0,0,0-1.348-.469,2.386,2.386,0,0,0-1.207.285,2.073,2.073,0,0,0-.785.8V183H80.164v-8.453ZM88.9,178.7a4.654,4.654,0,0,1,1.016-3.09,3.764,3.764,0,0,1,5.535,0,4.639,4.639,0,0,1,1.02,3.094v.172a4.631,4.631,0,0,1-1.016,3.094,3.781,3.781,0,0,1-5.535,0,4.623,4.623,0,0,1-1.02-3.09Zm1.539.172A4.009,4.009,0,0,0,91,181.086a2.046,2.046,0,0,0,3.355,0,3.988,3.988,0,0,0,.57-2.219V178.7a3.976,3.976,0,0,0-.574-2.211,1.882,1.882,0,0,0-1.684-.883,1.856,1.856,0,0,0-1.668.883,4.018,4.018,0,0,0-.566,2.211ZM100.031,183H98.492v-1.578h1.539Zm2.328-4.07a5.641,5.641,0,0,1,.871-3.289,2.8,2.8,0,0,1,2.434-1.25,2.966,2.966,0,0,1,1.414.324,2.845,2.845,0,0,1,1.023.934l.188-1.1h1.227v8.5a3.225,3.225,0,0,1-.945,2.5,3.884,3.884,0,0,1-2.727.871,5.716,5.716,0,0,1-1.316-.168,5.147,5.147,0,0,1-1.246-.457l.234-1.2a4.451,4.451,0,0,0,1.074.379,5.516,5.516,0,0,0,1.238.145,2.242,2.242,0,0,0,1.637-.512,2.12,2.12,0,0,0,.512-1.559v-.961a2.725,2.725,0,0,1-.992.8,3.091,3.091,0,0,1-1.336.273,2.89,2.89,0,0,1-2.418-1.121,4.674,4.674,0,0,1-.871-2.949Zm1.539.164a3.592,3.592,0,0,0,.523,2.047,1.817,1.817,0,0,0,1.617.773,2.034,2.034,0,0,0,1.164-.316,2.4,2.4,0,0,0,.773-.895v-3.891a2.388,2.388,0,0,0-.773-.855,2.029,2.029,0,0,0-1.148-.316,1.752,1.752,0,0,0-1.629.914,4.718,4.718,0,0,0-.527,2.375Zm11.828-3.187-.789-.047a1.762,1.762,0,0,0-1.027.289,1.854,1.854,0,0,0-.645.813V183h-1.539v-8.453H113.1l.148,1.234a2.934,2.934,0,0,1,.887-1.023,2.073,2.073,0,0,1,1.215-.367,1.9,1.9,0,0,1,.328.027,2.177,2.177,0,0,1,.258.059Zm1.086,2.789a4.654,4.654,0,0,1,1.016-3.09,3.764,3.764,0,0,1,5.535,0,4.639,4.639,0,0,1,1.02,3.094v.172a4.631,4.631,0,0,1-1.016,3.094,3.781,3.781,0,0,1-5.535,0,4.623,4.623,0,0,1-1.02-3.09Zm1.539.172a4.009,4.009,0,0,0,.566,2.219,2.046,2.046,0,0,0,3.355,0,3.988,3.988,0,0,0,.57-2.219V178.7a3.976,3.976,0,0,0-.574-2.211,1.882,1.882,0,0,0-1.684-.883,1.856,1.856,0,0,0-1.668.883,4.018,4.018,0,0,0-.566,2.211Zm13.281,2.883a2.863,2.863,0,0,1-1.023,1.047,2.8,2.8,0,0,1-1.445.367,2.716,2.716,0,0,1-2.156-.883,4.1,4.1,0,0,1-.773-2.75v-4.984h1.539v5a3.147,3.147,0,0,0,.4,1.859,1.481,1.481,0,0,0,1.242.508,2.531,2.531,0,0,0,1.355-.332,2.077,2.077,0,0,0,.809-.941v-6.094h1.539V183h-1.383Zm10.93-2.656a4.659,4.659,0,0,1-.875,2.949,2.893,2.893,0,0,1-2.414,1.121,3.354,3.354,0,0,1-1.371-.262,2.622,2.622,0,0,1-1-.785v4.133h-1.539v-11.7h1.18l.242,1.094a2.792,2.792,0,0,1,1.031-.93,3.078,3.078,0,0,1,1.438-.32,2.809,2.809,0,0,1,2.441,1.246,5.637,5.637,0,0,1,.871,3.293Zm-1.539-.164a4.467,4.467,0,0,0-.566-2.363,1.835,1.835,0,0,0-1.668-.926,2.054,2.054,0,0,0-1.133.3,2.25,2.25,0,0,0-.758.824v4.086a2.186,2.186,0,0,0,.758.816,2.126,2.126,0,0,0,1.148.293,1.894,1.894,0,0,0,1.656-.8,3.516,3.516,0,0,0,.563-2.066Zm3.344-.547a10.458,10.458,0,0,1,1.242-5.258,7.19,7.19,0,0,1,2.609-2.906l.047.008.3.906a6.665,6.665,0,0,0-1.863,2.68,11.54,11.54,0,0,0-.793,4.555v.1a11.591,11.591,0,0,0,.789,4.555,7.25,7.25,0,0,0,1.867,2.75l-.3.844h-.047a7.193,7.193,0,0,1-2.609-2.9,10.452,10.452,0,0,1-1.242-5.262Zm8.516.07a10.426,10.426,0,0,1-1.246,5.262,7.244,7.244,0,0,1-2.605,2.9h-.047l-.3-.844a6.653,6.653,0,0,0,1.855-2.7,11.749,11.749,0,0,0,.8-4.605v-.1a11.354,11.354,0,0,0-.824-4.559,7.532,7.532,0,0,0-1.832-2.746l.3-.844h.047a7.241,7.241,0,0,1,2.605,2.906,10.431,10.431,0,0,1,1.246,5.258Zm5.367,0A10.426,10.426,0,0,1,157,183.715a7.244,7.244,0,0,1-2.605,2.9h-.047l-.3-.844a6.653,6.653,0,0,0,1.855-2.7,11.749,11.749,0,0,0,.8-4.605v-.1a11.354,11.354,0,0,0-.824-4.559,7.532,7.532,0,0,0-1.832-2.746l.3-.844h.047A7.241,7.241,0,0,1,157,173.125a10.431,10.431,0,0,1,1.246,5.258Zm14.641,1.344H170.9l-.625,3.2h-1.18l.625-3.2h-1.844V178.7h2.063l.531-2.719h-2v-1.109h2.219l.641-3.25h1.18l-.641,3.25h1.992l.641-3.25h1.18l-.641,3.25h1.555v1.109h-1.766L174.3,178.7h1.711V179.8h-1.93l-.625,3.2h-1.187Zm-1.773-1.094h1.992l.531-2.719h-1.992ZM184.3,183h-1.547V171.625H184.3Zm3.984-8.453.109,1.109a2.871,2.871,0,0,1,1.051-.934,3.157,3.157,0,0,1,1.48-.332,2.615,2.615,0,0,1,1.449.391,2.363,2.363,0,0,1,.91,1.172,3.162,3.162,0,0,1,1.059-1.145,2.769,2.769,0,0,1,1.527-.418,2.531,2.531,0,0,1,2.039.887,4.051,4.051,0,0,1,.75,2.668V183h-1.539v-5.07a2.81,2.81,0,0,0-.43-1.77,1.567,1.567,0,0,0-1.281-.52,1.631,1.631,0,0,0-1.277.547,2.381,2.381,0,0,0-.574,1.383V183h-1.547v-5.07a2.772,2.772,0,0,0-.441-1.738,1.532,1.532,0,0,0-1.27-.551,2.115,2.115,0,0,0-1.156.289,1.867,1.867,0,0,0-.7.813V183h-1.539v-8.453Zm19.813,4.547a4.659,4.659,0,0,1-.875,2.949,2.893,2.893,0,0,1-2.414,1.121,3.354,3.354,0,0,1-1.371-.262,2.622,2.622,0,0,1-1-.785v4.133H200.9v-11.7h1.18l.242,1.094a2.792,2.792,0,0,1,1.031-.93,3.078,3.078,0,0,1,1.438-.32,2.809,2.809,0,0,1,2.441,1.246,5.637,5.637,0,0,1,.871,3.293Zm-1.539-.164a4.467,4.467,0,0,0-.566-2.363,1.835,1.835,0,0,0-1.668-.926,2.054,2.054,0,0,0-1.133.3,2.25,2.25,0,0,0-.758.824v4.086a2.186,2.186,0,0,0,.758.816,2.126,2.126,0,0,0,1.148.293,1.894,1.894,0,0,0,1.656-.8,3.516,3.516,0,0,0,.563-2.066Zm7.43-3.023-.789-.047a1.762,1.762,0,0,0-1.027.289,1.855,1.855,0,0,0-.645.813V183h-1.539v-8.453h1.375l.148,1.234a2.934,2.934,0,0,1,.887-1.023,2.073,2.073,0,0,1,1.215-.367,1.9,1.9,0,0,1,.328.027,2.176,2.176,0,0,1,.258.059ZM217.258,183h-1.539v-8.453h1.539Zm0-10.617h-1.539v-1.57h1.539ZM221,174.547l.109,1.109a2.871,2.871,0,0,1,1.051-.934,3.157,3.157,0,0,1,1.48-.332,2.615,2.615,0,0,1,1.449.391,2.363,2.363,0,0,1,.91,1.172,3.162,3.162,0,0,1,1.059-1.145,2.769,2.769,0,0,1,1.527-.418,2.531,2.531,0,0,1,2.039.887,4.051,4.051,0,0,1,.75,2.668V183h-1.539v-5.07a2.81,2.81,0,0,0-.43-1.77,1.567,1.567,0,0,0-1.281-.52,1.631,1.631,0,0,0-1.277.547,2.381,2.381,0,0,0-.574,1.383V183h-1.547v-5.07a2.772,2.772,0,0,0-.441-1.738,1.532,1.532,0,0,0-1.27-.551,2.115,2.115,0,0,0-1.156.289,1.867,1.867,0,0,0-.7.813V183h-1.539v-8.453Zm16.109,8.617A3.576,3.576,0,0,1,234.27,182a4.48,4.48,0,0,1-1.02-3.062v-.344a4.386,4.386,0,0,1,1.051-3.012,3.3,3.3,0,0,1,2.566-1.191,3.067,3.067,0,0,1,2.543,1.055,4.345,4.345,0,0,1,.848,2.8v.813h-5.406l-.023.039a3.494,3.494,0,0,0,.563,2.066,1.965,1.965,0,0,0,1.719.793,3.872,3.872,0,0,0,1.371-.223,3.06,3.06,0,0,0,1.012-.613l.6,1a3.7,3.7,0,0,1-1.2.738A4.762,4.762,0,0,1,237.109,183.164Zm-.242-7.562a1.673,1.673,0,0,0-1.332.621,2.938,2.938,0,0,0-.645,1.59l.016.039h3.813v-.125a2.462,2.462,0,0,0-.453-1.523A1.638,1.638,0,0,0,236.867,175.6Zm6.8,7.4h-1.539v-1.578h1.539Zm0-6.844h-1.539v-1.578h1.539ZM254.43,183h-1.547v-9.953l-2.477.023v-1.187l4.023-.422Zm11.7,0h-7.062v-1.055l3.57-4.258a10.726,10.726,0,0,0,1.293-1.84,3.07,3.07,0,0,0,.34-1.379,1.841,1.841,0,0,0-.461-1.293,1.639,1.639,0,0,0-1.273-.5,1.908,1.908,0,0,0-1.535.617,2.286,2.286,0,0,0-.527,1.539h-1.484l-.016-.047a3.068,3.068,0,0,1,.93-2.355,3.566,3.566,0,0,1,2.633-.965,3.31,3.31,0,0,1,2.4.844,2.894,2.894,0,0,1,.875,2.18,3.476,3.476,0,0,1-.5,1.758A19.608,19.608,0,0,1,263.8,178.4l-2.867,3.359.016.039h5.18Zm5.3-6.469a1.8,1.8,0,0,0,1.457-.512,2.179,2.179,0,0,0,.426-1.434,2.02,2.02,0,0,0-.465-1.387,1.741,1.741,0,0,0-1.379-.527,2.057,2.057,0,0,0-1.473.551,1.819,1.819,0,0,0-.582,1.379h-1.469l-.023-.047a2.718,2.718,0,0,1,.969-2.187,3.709,3.709,0,0,1,2.578-.906,3.6,3.6,0,0,1,2.484.8,2.991,2.991,0,0,1,.9,2.355,2.65,2.65,0,0,1-.418,1.453,2.818,2.818,0,0,1-1.168,1.023,2.688,2.688,0,0,1,1.309,1.043,3.063,3.063,0,0,1,.449,1.691,3.122,3.122,0,0,1-.988,2.449,3.7,3.7,0,0,1-2.566.887,4.064,4.064,0,0,1-2.559-.855,2.62,2.62,0,0,1-1.066-2.262l.016-.047h1.469a1.846,1.846,0,0,0,.6,1.395,2.152,2.152,0,0,0,1.543.566,1.914,1.914,0,0,0,1.477-.582,2.147,2.147,0,0,0,.539-1.52,2.273,2.273,0,0,0-.5-1.6,2.041,2.041,0,0,0-1.559-.531h-1.266v-1.2Zm10.4,2.266h-4.609v-1.2h4.609Zm8.273.375h1.57v1.2h-1.57V183h-1.531v-2.625H283.68v-.867l4.789-7.883h1.625Zm-4.766,0h3.234v-5.336l-.047-.008-.148.391Zm8.164-1.227.656-6.32h5.7v1.367h-4.4l-.367,3.273a3.511,3.511,0,0,1,.813-.449,2.858,2.858,0,0,1,1.016-.184,3.1,3.1,0,0,1,2.473.988,4.632,4.632,0,0,1-.023,5.5,3.382,3.382,0,0,1-2.676,1.039,3.666,3.666,0,0,1-2.406-.789,2.731,2.731,0,0,1-.922-2.32l.016-.047h1.391a1.9,1.9,0,0,0,.535,1.441,1.924,1.924,0,0,0,1.387.512,1.816,1.816,0,0,0,1.516-.687,2.976,2.976,0,0,0,.539-1.883,2.71,2.71,0,0,0-.543-1.758,1.835,1.835,0,0,0-1.512-.672,2.416,2.416,0,0,0-1.312.273,1.6,1.6,0,0,0-.6.844Zm12.648-6.484a6.679,6.679,0,0,1,1.328.133,4.8,4.8,0,0,1,1.086.336l-.328,1.18a5.749,5.749,0,0,0-.937-.316,4.841,4.841,0,0,0-1.148-.121,2.06,2.06,0,0,0-1.738.914,3.817,3.817,0,0,0-.668,2.313v.883a3.48,3.48,0,0,1,1.129-.75,3.59,3.59,0,0,1,1.4-.273,2.921,2.921,0,0,1,2.324.984,3.8,3.8,0,0,1,.855,2.586,3.97,3.97,0,0,1-.957,2.793,3.333,3.333,0,0,1-2.582,1.043,3.385,3.385,0,0,1-2.641-1.2,4.767,4.767,0,0,1-1.062-3.277V176.07a4.849,4.849,0,0,1,1.137-3.3A3.572,3.572,0,0,1,306.141,171.461Zm-.367,5.445a2.4,2.4,0,0,0-1.246.309,2.065,2.065,0,0,0-.793.832v.789a3.731,3.731,0,0,0,.629,2.285,1.872,1.872,0,0,0,1.543.84,1.708,1.708,0,0,0,1.48-.73,3.21,3.21,0,0,0,.52-1.9,2.634,2.634,0,0,0-.559-1.766A1.954,1.954,0,0,0,305.773,176.906Zm10.281,1.891h-4.609v-1.2h4.609Zm9.6-5.961a16.909,16.909,0,0,0-2.914,4.523,12.119,12.119,0,0,0-.758,4.4V183h-1.539v-1.242a11,11,0,0,1,.949-4.645,20.351,20.351,0,0,1,2.746-4.277h-6.031v-1.211h7.547Zm8.594,1.7a2.563,2.563,0,0,1-.5,1.566,3.028,3.028,0,0,1-1.328,1.012,3.333,3.333,0,0,1,1.555,1.07,2.641,2.641,0,0,1,.586,1.7,3,3,0,0,1-1.02,2.43,3.892,3.892,0,0,1-2.6.859,4.194,4.194,0,0,1-2.73-.859,2.952,2.952,0,0,1-1.059-2.43,2.608,2.608,0,0,1,.6-1.7,3.446,3.446,0,0,1,1.613-1.078,3,3,0,0,1-1.383-1,2.536,2.536,0,0,1-.508-1.566,2.787,2.787,0,0,1,.957-2.281,3.8,3.8,0,0,1,2.5-.789,3.558,3.558,0,0,1,2.387.793A2.822,2.822,0,0,1,334.25,174.531Zm-1.219,5.313a2.067,2.067,0,0,0-.605-1.531,2.039,2.039,0,0,0-1.5-.6,2.231,2.231,0,0,0-1.6.6,2.021,2.021,0,0,0-.633,1.531,1.99,1.99,0,0,0,.629,1.539,2.3,2.3,0,0,0,1.621.578,2.02,2.02,0,0,0,2.086-2.117Zm-.32-5.289a1.869,1.869,0,0,0-.512-1.352,1.692,1.692,0,0,0-1.27-.531,1.917,1.917,0,0,0-1.375.512,1.8,1.8,0,0,0-.539,1.371,1.86,1.86,0,0,0,1.93,1.945,1.655,1.655,0,0,0,1.262-.539A1.976,1.976,0,0,0,332.711,174.555Zm6.57,7.406a2.289,2.289,0,0,0,1.793-.766,3.153,3.153,0,0,0,.684-2.172v-.969a2.479,2.479,0,0,1-.934.84,2.65,2.65,0,0,1-1.223.285,3.329,3.329,0,0,1-2.574-1.012,4.578,4.578,0,0,1,.059-5.617,3.185,3.185,0,0,1,2.453-1.09,3.622,3.622,0,0,1,2.734,1.07,4.181,4.181,0,0,1,1.031,3.023v3.453a4.077,4.077,0,0,1-1.125,3.059,3.976,3.976,0,0,1-2.9,1.1,6.3,6.3,0,0,1-1.23-.125,5.581,5.581,0,0,1-1.176-.367l.234-1.172a4.439,4.439,0,0,0,1.012.355A5.632,5.632,0,0,0,339.281,181.961Zm.32-3.984a2.39,2.39,0,0,0,1.355-.367,2.152,2.152,0,0,0,.8-.937v-1.344a3.01,3.01,0,0,0-.57-1.965,1.96,1.96,0,0,0-1.6-.691,1.683,1.683,0,0,0-1.395.746,3.156,3.156,0,0,0-.559,1.941,3.191,3.191,0,0,0,.516,1.895A1.681,1.681,0,0,0,339.6,177.977Zm12.9,1.008a4.489,4.489,0,0,1-.98,3.055,3.652,3.652,0,0,1-5.273,0,4.466,4.466,0,0,1-.988-3.055v-3.344a4.5,4.5,0,0,1,.98-3.047,3.635,3.635,0,0,1,5.273,0,4.472,4.472,0,0,1,.988,3.047Zm-1.539-3.664a3.1,3.1,0,0,0-.547-1.937,1.838,1.838,0,0,0-1.547-.711,1.808,1.808,0,0,0-1.531.711,3.135,3.135,0,0,0-.539,1.938V179.3a3.122,3.122,0,0,0,.551,1.945,2.006,2.006,0,0,0,3.074,0,3.167,3.167,0,0,0,.539-1.949Z" transform="translate(224.148 4244.117)" fill="#12263f"/>
  </g>
</svg>
