<svg xmlns="http://www.w3.org/2000/svg" width="395.426" height="224.246" viewBox="0 0 395.426 224.246">
  <g id="Grupo_1107515" data-name="Grupo 1107515" transform="translate(-834.574 -4843.414)">
    <path id="Trazado_879712" data-name="Trazado 879712" d="M5.563,11.8H3.57L2.945,15H1.766l.625-3.2H.547V10.7H2.609l.531-2.719h-2V6.875H3.359L4,3.625H5.18l-.641,3.25H6.531l.641-3.25h1.18l-.641,3.25H9.266V7.984H7.5L6.969,10.7H8.68V11.8H6.75L6.125,15H4.938ZM3.789,10.7H5.781l.531-2.719H4.32Zm19.6.656.016.047a3.417,3.417,0,0,1-1.125,2.68,4.3,4.3,0,0,1-3.055,1.078A4.012,4.012,0,0,1,16.082,13.8a5.028,5.028,0,0,1-1.215-3.469V8.3a5.043,5.043,0,0,1,1.215-3.473,4.006,4.006,0,0,1,3.145-1.371A4.416,4.416,0,0,1,22.3,4.488a3.4,3.4,0,0,1,1.109,2.723l-.016.047H21.914a2.539,2.539,0,0,0-.7-1.891,2.7,2.7,0,0,0-1.984-.7,2.424,2.424,0,0,0-2.055,1.039,4.227,4.227,0,0,0-.766,2.578v2.039a4.254,4.254,0,0,0,.766,2.594,2.424,2.424,0,0,0,2.055,1.039,2.71,2.71,0,0,0,1.984-.691,2.557,2.557,0,0,0,.7-1.91Zm5.8-3.453-.789-.047a1.762,1.762,0,0,0-1.027.289,1.854,1.854,0,0,0-.645.813V15H25.2V6.547H26.57l.148,1.234a2.934,2.934,0,0,1,.887-1.023,2.073,2.073,0,0,1,1.215-.367,1.9,1.9,0,0,1,.328.027,2.175,2.175,0,0,1,.258.059Zm4.953,7.258A3.576,3.576,0,0,1,31.309,14a4.48,4.48,0,0,1-1.02-3.062v-.344A4.386,4.386,0,0,1,31.34,7.582a3.3,3.3,0,0,1,2.566-1.191,3.067,3.067,0,0,1,2.543,1.055,4.345,4.345,0,0,1,.848,2.8v.813H31.891l-.023.039a3.494,3.494,0,0,0,.563,2.066,1.965,1.965,0,0,0,1.719.793,3.872,3.872,0,0,0,1.371-.223,3.061,3.061,0,0,0,1.012-.613l.6,1a3.7,3.7,0,0,1-1.2.738A4.762,4.762,0,0,1,34.148,15.164ZM33.906,7.6a1.673,1.673,0,0,0-1.332.621,2.938,2.938,0,0,0-.645,1.59l.016.039h3.813V9.727A2.462,2.462,0,0,0,35.3,8.2,1.638,1.638,0,0,0,33.906,7.6ZM44.219,15q-.078-.383-.121-.676a4.96,4.96,0,0,1-.051-.59,3.589,3.589,0,0,1-1.121,1.02,2.867,2.867,0,0,1-1.488.41,2.763,2.763,0,0,1-2.012-.676,2.486,2.486,0,0,1-.691-1.863,2.183,2.183,0,0,1,.98-1.895,4.579,4.579,0,0,1,2.66-.684h1.672V9.211a1.551,1.551,0,0,0-.453-1.176A1.779,1.779,0,0,0,42.313,7.6a1.859,1.859,0,0,0-1.211.375,1.125,1.125,0,0,0-.461.9l-1.461.016-.016-.047a2.023,2.023,0,0,1,.863-1.687A3.578,3.578,0,0,1,42.4,6.391a3.49,3.49,0,0,1,2.313.73,2.588,2.588,0,0,1,.875,2.105V13.3a7.923,7.923,0,0,0,.047.875A4.5,4.5,0,0,0,45.8,15Zm-2.555-1.125a2.739,2.739,0,0,0,1.508-.43,2.042,2.042,0,0,0,.875-.984V11.086H42.32a2.24,2.24,0,0,0-1.488.469,1.4,1.4,0,0,0-.559,1.1,1.159,1.159,0,0,0,.352.891A1.472,1.472,0,0,0,41.664,13.875ZM51.82,7.906l-.789-.047A1.762,1.762,0,0,0,50,8.148a1.855,1.855,0,0,0-.645.813V15H47.82V6.547H49.2l.148,1.234a2.934,2.934,0,0,1,.887-1.023,2.073,2.073,0,0,1,1.215-.367,1.9,1.9,0,0,1,.328.027,2.174,2.174,0,0,1,.258.059Zm8.164,3.961.273,1.063H60.3l2.078-6.383h1.711L60.539,16.3a4.383,4.383,0,0,1-.918,1.484,2.113,2.113,0,0,1-1.613.633,3.363,3.363,0,0,1-.477-.043q-.289-.043-.445-.082l.156-1.211a2.062,2.062,0,0,1,.277.016q.324.023.41.023a.95.95,0,0,0,.8-.437,4.543,4.543,0,0,0,.523-.969l.367-.883L56.484,6.547H58.2Zm12.938,3.3A3.576,3.576,0,0,1,70.082,14a4.48,4.48,0,0,1-1.02-3.062v-.344a4.386,4.386,0,0,1,1.051-3.012A3.3,3.3,0,0,1,72.68,6.391a3.067,3.067,0,0,1,2.543,1.055,4.345,4.345,0,0,1,.848,2.8v.813H70.664l-.023.039a3.494,3.494,0,0,0,.563,2.066,1.965,1.965,0,0,0,1.719.793,3.872,3.872,0,0,0,1.371-.223,3.061,3.061,0,0,0,1.012-.613l.6,1a3.7,3.7,0,0,1-1.2.738A4.762,4.762,0,0,1,72.922,15.164ZM72.68,7.6a1.673,1.673,0,0,0-1.332.621,2.938,2.938,0,0,0-.645,1.59l.016.039h3.813V9.727A2.462,2.462,0,0,0,74.078,8.2,1.638,1.638,0,0,0,72.68,7.6Zm6.492-1.055L79.281,7.8A3.069,3.069,0,0,1,80.34,6.762a2.824,2.824,0,0,1,1.449-.371,2.759,2.759,0,0,1,2.117.8,3.515,3.515,0,0,1,.75,2.473V15H83.117V9.7a2.287,2.287,0,0,0-.441-1.586,1.768,1.768,0,0,0-1.348-.469,2.386,2.386,0,0,0-1.207.285,2.072,2.072,0,0,0-.785.8V15H77.8V6.547Zm9.859-2.039V6.547h1.6V7.688h-1.6V12.82a1.149,1.149,0,0,0,.246.836.89.89,0,0,0,.652.242,1.43,1.43,0,0,0,.3-.035,2.2,2.2,0,0,0,.273-.074l.211,1.055a1.36,1.36,0,0,1-.508.23,2.562,2.562,0,0,1-.664.09,1.993,1.993,0,0,1-1.492-.566,2.46,2.46,0,0,1-.555-1.777V7.688H86.148V6.547h1.344V4.508Zm7.25,3.4-.789-.047a1.762,1.762,0,0,0-1.027.289,1.854,1.854,0,0,0-.645.813V15H92.281V6.547h1.375L93.8,7.781a2.934,2.934,0,0,1,.887-1.023,2.073,2.073,0,0,1,1.215-.367,1.9,1.9,0,0,1,.328.027,2.175,2.175,0,0,1,.258.059Zm4.953,7.258A3.576,3.576,0,0,1,98.395,14a4.48,4.48,0,0,1-1.02-3.062v-.344a4.386,4.386,0,0,1,1.051-3.012,3.3,3.3,0,0,1,2.566-1.191,3.067,3.067,0,0,1,2.543,1.055,4.345,4.345,0,0,1,.848,2.8v.813H98.977l-.023.039a3.494,3.494,0,0,0,.563,2.066,1.965,1.965,0,0,0,1.719.793,3.872,3.872,0,0,0,1.371-.223,3.061,3.061,0,0,0,1.012-.613l.6,1a3.7,3.7,0,0,1-1.2.738A4.762,4.762,0,0,1,101.234,15.164ZM100.992,7.6a1.673,1.673,0,0,0-1.332.621,2.938,2.938,0,0,0-.645,1.59l.016.039h3.813V9.727a2.462,2.462,0,0,0-.453-1.523A1.638,1.638,0,0,0,100.992,7.6Zm6.492-1.055.109,1.258a3.069,3.069,0,0,1,1.059-1.043,2.824,2.824,0,0,1,1.449-.371,2.759,2.759,0,0,1,2.117.8,3.515,3.515,0,0,1,.75,2.473V15H111.43V9.7a2.287,2.287,0,0,0-.441-1.586,1.768,1.768,0,0,0-1.348-.469,2.386,2.386,0,0,0-1.207.285,2.072,2.072,0,0,0-.785.8V15h-1.539V6.547ZM120.4,15q-.078-.383-.121-.676a4.96,4.96,0,0,1-.051-.59,3.589,3.589,0,0,1-1.121,1.02,2.867,2.867,0,0,1-1.488.41,2.763,2.763,0,0,1-2.012-.676,2.486,2.486,0,0,1-.691-1.863,2.183,2.183,0,0,1,.98-1.895,4.579,4.579,0,0,1,2.66-.684h1.672V9.211a1.551,1.551,0,0,0-.453-1.176,1.779,1.779,0,0,0-1.281-.434,1.859,1.859,0,0,0-1.211.375,1.125,1.125,0,0,0-.461.9l-1.461.016-.016-.047a2.023,2.023,0,0,1,.863-1.687,3.578,3.578,0,0,1,2.371-.766,3.49,3.49,0,0,1,2.313.73,2.588,2.588,0,0,1,.875,2.105V13.3a7.923,7.923,0,0,0,.047.875,4.5,4.5,0,0,0,.172.828Zm-2.555-1.125a2.739,2.739,0,0,0,1.508-.43,2.042,2.042,0,0,0,.875-.984V11.086H118.5a2.24,2.24,0,0,0-1.488.469,1.4,1.4,0,0,0-.559,1.1,1.159,1.159,0,0,0,.352.891A1.472,1.472,0,0,0,117.844,13.875ZM128,7.906l-.789-.047a1.762,1.762,0,0,0-1.027.289,1.854,1.854,0,0,0-.645.813V15H124V6.547h1.375l.148,1.234a2.934,2.934,0,0,1,.887-1.023,2.073,2.073,0,0,1,1.215-.367,1.9,1.9,0,0,1,.328.027,2.174,2.174,0,0,1,.258.059Zm9.078,7.258A3.576,3.576,0,0,1,134.238,14a4.48,4.48,0,0,1-1.02-3.062v-.344a4.386,4.386,0,0,1,1.051-3.012,3.3,3.3,0,0,1,2.566-1.191,3.067,3.067,0,0,1,2.543,1.055,4.345,4.345,0,0,1,.848,2.8v.813H134.82l-.023.039a3.494,3.494,0,0,0,.563,2.066,1.965,1.965,0,0,0,1.719.793,3.872,3.872,0,0,0,1.371-.223,3.061,3.061,0,0,0,1.012-.613l.6,1a3.7,3.7,0,0,1-1.2.738A4.762,4.762,0,0,1,137.078,15.164ZM136.836,7.6a1.673,1.673,0,0,0-1.332.621,2.938,2.938,0,0,0-.645,1.59l.016.039h3.813V9.727a2.462,2.462,0,0,0-.453-1.523A1.638,1.638,0,0,0,136.836,7.6Zm6.781,7.4h-1.539V2.813h1.539Zm7.719-8.453.109,1.109a2.871,2.871,0,0,1,1.051-.934,3.158,3.158,0,0,1,1.48-.332,2.615,2.615,0,0,1,1.449.391,2.363,2.363,0,0,1,.91,1.172,3.162,3.162,0,0,1,1.059-1.145,2.769,2.769,0,0,1,1.527-.418,2.531,2.531,0,0,1,2.039.887,4.051,4.051,0,0,1,.75,2.668V15h-1.539V9.93a2.81,2.81,0,0,0-.43-1.77,1.567,1.567,0,0,0-1.281-.52,1.631,1.631,0,0,0-1.277.547,2.381,2.381,0,0,0-.574,1.383V15h-1.547V9.93a2.772,2.772,0,0,0-.441-1.738,1.532,1.532,0,0,0-1.27-.551,2.115,2.115,0,0,0-1.156.289,1.867,1.867,0,0,0-.7.813V15h-1.539V6.547Zm12.25,4.148a4.654,4.654,0,0,1,1.016-3.09,3.764,3.764,0,0,1,5.535,0,4.639,4.639,0,0,1,1.02,3.094v.172a4.631,4.631,0,0,1-1.016,3.094,3.781,3.781,0,0,1-5.535,0,4.623,4.623,0,0,1-1.02-3.09Zm1.539.172a4.009,4.009,0,0,0,.566,2.219,2.046,2.046,0,0,0,3.355,0,3.988,3.988,0,0,0,.57-2.219V10.7a3.976,3.976,0,0,0-.574-2.211,1.882,1.882,0,0,0-1.684-.883,1.856,1.856,0,0,0-1.668.883,4.018,4.018,0,0,0-.566,2.211Zm7.563.063a5.641,5.641,0,0,1,.871-3.289A2.807,2.807,0,0,1,176,6.391a3.027,3.027,0,0,1,1.316.273,2.7,2.7,0,0,1,.98.8V2.813h1.539V15h-1.18l-.234-1.07a2.743,2.743,0,0,1-1.023.922,3.058,3.058,0,0,1-1.414.313,2.9,2.9,0,0,1-2.422-1.121,4.659,4.659,0,0,1-.875-2.949Zm1.539.164a3.588,3.588,0,0,0,.523,2.051,1.828,1.828,0,0,0,1.625.77,2.039,2.039,0,0,0,1.156-.312,2.334,2.334,0,0,0,.766-.875V8.781a2.37,2.37,0,0,0-.77-.832,2.033,2.033,0,0,0-1.137-.309,1.759,1.759,0,0,0-1.637.914,4.718,4.718,0,0,0-.527,2.375Zm11.406,4.07A3.576,3.576,0,0,1,182.793,14a4.48,4.48,0,0,1-1.02-3.062v-.344a4.386,4.386,0,0,1,1.051-3.012,3.3,3.3,0,0,1,2.566-1.191,3.067,3.067,0,0,1,2.543,1.055,4.345,4.345,0,0,1,.848,2.8v.813h-5.406l-.023.039a3.494,3.494,0,0,0,.563,2.066,1.965,1.965,0,0,0,1.719.793A3.872,3.872,0,0,0,187,13.738a3.061,3.061,0,0,0,1.012-.613l.6,1a3.7,3.7,0,0,1-1.2.738A4.762,4.762,0,0,1,185.633,15.164ZM185.391,7.6a1.673,1.673,0,0,0-1.332.621,2.938,2.938,0,0,0-.645,1.59l.016.039h3.813V9.727a2.462,2.462,0,0,0-.453-1.523A1.638,1.638,0,0,0,185.391,7.6Zm6.781,7.4h-1.539V2.813h1.539Zm2.008-4.3a4.654,4.654,0,0,1,1.016-3.09,3.764,3.764,0,0,1,5.535,0,4.639,4.639,0,0,1,1.02,3.094v.172a4.631,4.631,0,0,1-1.016,3.094,3.781,3.781,0,0,1-5.535,0,4.623,4.623,0,0,1-1.02-3.09Zm1.539.172a4.009,4.009,0,0,0,.566,2.219,2.046,2.046,0,0,0,3.355,0,3.988,3.988,0,0,0,.57-2.219V10.7a3.976,3.976,0,0,0-.574-2.211,1.882,1.882,0,0,0-1.684-.883,1.856,1.856,0,0,0-1.668.883,4.018,4.018,0,0,0-.566,2.211ZM2.492,30.547,2.6,31.656a2.871,2.871,0,0,1,1.051-.934,3.158,3.158,0,0,1,1.48-.332,2.615,2.615,0,0,1,1.449.391,2.363,2.363,0,0,1,.91,1.172,3.162,3.162,0,0,1,1.059-1.145,2.769,2.769,0,0,1,1.527-.418,2.531,2.531,0,0,1,2.039.887,4.051,4.051,0,0,1,.75,2.668V39H11.328V33.93a2.81,2.81,0,0,0-.43-1.77,1.567,1.567,0,0,0-1.281-.52,1.631,1.631,0,0,0-1.277.547,2.381,2.381,0,0,0-.574,1.383V39H6.219V33.93a2.772,2.772,0,0,0-.441-1.738,1.532,1.532,0,0,0-1.27-.551,2.115,2.115,0,0,0-1.156.289,1.867,1.867,0,0,0-.7.813V39H1.117V30.547ZM14.742,34.7a4.654,4.654,0,0,1,1.016-3.09,3.406,3.406,0,0,1,2.758-1.215A3.439,3.439,0,0,1,21.293,31.6a4.639,4.639,0,0,1,1.02,3.094v.172A4.631,4.631,0,0,1,21.3,37.961a3.429,3.429,0,0,1-2.766,1.2,3.436,3.436,0,0,1-2.77-1.207,4.623,4.623,0,0,1-1.02-3.09Zm1.539.172a4.009,4.009,0,0,0,.566,2.219,2.046,2.046,0,0,0,3.355,0,3.988,3.988,0,0,0,.57-2.219V34.7a3.976,3.976,0,0,0-.574-2.211,1.882,1.882,0,0,0-1.684-.883,1.856,1.856,0,0,0-1.668.883,4.018,4.018,0,0,0-.566,2.211Zm7.563.063a5.641,5.641,0,0,1,.871-3.289,2.807,2.807,0,0,1,2.441-1.25,3.027,3.027,0,0,1,1.316.273,2.7,2.7,0,0,1,.98.8V26.813h1.539V39h-1.18l-.234-1.07a2.743,2.743,0,0,1-1.023.922,3.058,3.058,0,0,1-1.414.313,2.9,2.9,0,0,1-2.422-1.121,4.659,4.659,0,0,1-.875-2.949Zm1.539.164a3.588,3.588,0,0,0,.523,2.051,1.828,1.828,0,0,0,1.625.77,2.039,2.039,0,0,0,1.156-.312,2.334,2.334,0,0,0,.766-.875V32.781a2.37,2.37,0,0,0-.77-.832,2.033,2.033,0,0,0-1.137-.309,1.759,1.759,0,0,0-1.637.914,4.718,4.718,0,0,0-.527,2.375Zm11.406,4.07A3.576,3.576,0,0,1,33.949,38a4.48,4.48,0,0,1-1.02-3.062v-.344a4.386,4.386,0,0,1,1.051-3.012,3.3,3.3,0,0,1,2.566-1.191,3.067,3.067,0,0,1,2.543,1.055,4.345,4.345,0,0,1,.848,2.8v.813H34.531l-.023.039a3.494,3.494,0,0,0,.563,2.066,1.965,1.965,0,0,0,1.719.793,3.872,3.872,0,0,0,1.371-.223,3.061,3.061,0,0,0,1.012-.613l.6,1a3.7,3.7,0,0,1-1.2.738A4.762,4.762,0,0,1,36.789,39.164ZM36.547,31.6a1.673,1.673,0,0,0-1.332.621,2.938,2.938,0,0,0-.645,1.59l.016.039H38.4v-.125a2.462,2.462,0,0,0-.453-1.523A1.638,1.638,0,0,0,36.547,31.6ZM43.328,39H41.789V26.813h1.539Zm2.008-4.3a4.654,4.654,0,0,1,1.016-3.09,3.764,3.764,0,0,1,5.535,0,4.639,4.639,0,0,1,1.02,3.094v.172a4.631,4.631,0,0,1-1.016,3.094,3.781,3.781,0,0,1-5.535,0,4.623,4.623,0,0,1-1.02-3.09Zm1.539.172a4.009,4.009,0,0,0,.566,2.219,2.046,2.046,0,0,0,3.355,0,3.988,3.988,0,0,0,.57-2.219V34.7a3.976,3.976,0,0,0-.574-2.211,1.882,1.882,0,0,0-1.684-.883,1.856,1.856,0,0,0-1.668.883,4.018,4.018,0,0,0-.566,2.211Zm18.477-2.3H58.836V31.289h6.516Zm0,3.25H58.836V34.539h6.516ZM73.5,34.07V39H71.961V27.633h3.891a4.32,4.32,0,0,1,2.852.828,2.968,2.968,0,0,1,.984,2.406,2.576,2.576,0,0,1-.457,1.523A3.1,3.1,0,0,1,77.9,33.422a2.331,2.331,0,0,1,1.348.988,3.236,3.236,0,0,1,.41,1.691v1.07a3.564,3.564,0,0,0,.117.953,1.429,1.429,0,0,0,.406.688V39H78.594a1.273,1.273,0,0,1-.391-.781,6.454,6.454,0,0,1-.086-1.062V36.117a2.056,2.056,0,0,0-.539-1.484,1.908,1.908,0,0,0-1.445-.562Zm0-1.211h2.2a2.858,2.858,0,0,0,1.879-.5,1.89,1.89,0,0,0,.574-1.512,1.948,1.948,0,0,0-.559-1.488,2.461,2.461,0,0,0-1.738-.527H73.5ZM87.125,39q-.078-.383-.121-.676a4.96,4.96,0,0,1-.051-.59,3.589,3.589,0,0,1-1.121,1.02,2.867,2.867,0,0,1-1.488.41,2.763,2.763,0,0,1-2.012-.676,2.486,2.486,0,0,1-.691-1.863,2.183,2.183,0,0,1,.98-1.895,4.579,4.579,0,0,1,2.66-.684h1.672v-.836a1.551,1.551,0,0,0-.453-1.176,1.779,1.779,0,0,0-1.281-.434,1.859,1.859,0,0,0-1.211.375,1.125,1.125,0,0,0-.461.9l-1.461.016-.016-.047a2.023,2.023,0,0,1,.863-1.687,3.578,3.578,0,0,1,2.371-.766,3.49,3.49,0,0,1,2.313.73,2.588,2.588,0,0,1,.875,2.105V37.3a7.923,7.923,0,0,0,.047.875,4.5,4.5,0,0,0,.172.828ZM84.57,37.875a2.739,2.739,0,0,0,1.508-.43,2.042,2.042,0,0,0,.875-.984V35.086H85.227a2.24,2.24,0,0,0-1.488.469,1.4,1.4,0,0,0-.559,1.1,1.159,1.159,0,0,0,.352.891A1.472,1.472,0,0,0,84.57,37.875ZM92.1,30.547l.109,1.258a3.069,3.069,0,0,1,1.059-1.043,2.824,2.824,0,0,1,1.449-.371,2.759,2.759,0,0,1,2.117.8,3.515,3.515,0,0,1,.75,2.473V39H96.047V33.7a2.287,2.287,0,0,0-.441-1.586,1.768,1.768,0,0,0-1.348-.469,2.386,2.386,0,0,0-1.207.285,2.072,2.072,0,0,0-.785.8V39H90.727V30.547Zm7.367,4.383a5.641,5.641,0,0,1,.871-3.289,2.807,2.807,0,0,1,2.441-1.25,3.027,3.027,0,0,1,1.316.273,2.7,2.7,0,0,1,.98.8V26.813h1.539V39h-1.18l-.234-1.07a2.743,2.743,0,0,1-1.023.922,3.058,3.058,0,0,1-1.414.313,2.9,2.9,0,0,1-2.422-1.121,4.659,4.659,0,0,1-.875-2.949Zm1.539.164a3.588,3.588,0,0,0,.523,2.051,1.828,1.828,0,0,0,1.625.77,2.039,2.039,0,0,0,1.156-.312,2.334,2.334,0,0,0,.766-.875V32.781a2.37,2.37,0,0,0-.77-.832,2.033,2.033,0,0,0-1.137-.309,1.759,1.759,0,0,0-1.637.914,4.718,4.718,0,0,0-.527,2.375Zm7.547-.4a4.654,4.654,0,0,1,1.016-3.09,3.764,3.764,0,0,1,5.535,0,4.639,4.639,0,0,1,1.02,3.094v.172a4.631,4.631,0,0,1-1.016,3.094,3.781,3.781,0,0,1-5.535,0,4.623,4.623,0,0,1-1.02-3.09Zm1.539.172a4.009,4.009,0,0,0,.566,2.219,2.046,2.046,0,0,0,3.355,0,3.988,3.988,0,0,0,.57-2.219V34.7a3.976,3.976,0,0,0-.574-2.211,1.882,1.882,0,0,0-1.684-.883,1.856,1.856,0,0,0-1.668.883,4.018,4.018,0,0,0-.566,2.211Zm9.289-4.32.109,1.109a2.871,2.871,0,0,1,1.051-.934,3.158,3.158,0,0,1,1.48-.332,2.615,2.615,0,0,1,1.449.391,2.363,2.363,0,0,1,.91,1.172,3.162,3.162,0,0,1,1.059-1.145,2.769,2.769,0,0,1,1.527-.418,2.531,2.531,0,0,1,2.039.887,4.051,4.051,0,0,1,.75,2.668V39h-1.539V33.93a2.81,2.81,0,0,0-.43-1.77,1.567,1.567,0,0,0-1.281-.52,1.631,1.631,0,0,0-1.277.547,2.381,2.381,0,0,0-.574,1.383V39h-1.547V33.93a2.772,2.772,0,0,0-.441-1.738,1.532,1.532,0,0,0-1.27-.551,2.115,2.115,0,0,0-1.156.289,1.867,1.867,0,0,0-.7.813V39h-1.539V30.547Zm19.156,3.422h-4.8V39H132.2V27.625h7.133v1.211h-5.594v3.922h4.8Zm1.758.727a4.654,4.654,0,0,1,1.016-3.09,3.764,3.764,0,0,1,5.535,0,4.639,4.639,0,0,1,1.02,3.094v.172a4.631,4.631,0,0,1-1.016,3.094,3.781,3.781,0,0,1-5.535,0,4.623,4.623,0,0,1-1.02-3.09Zm1.539.172a4.009,4.009,0,0,0,.566,2.219,2.046,2.046,0,0,0,3.355,0,3.988,3.988,0,0,0,.57-2.219V34.7a3.976,3.976,0,0,0-.574-2.211,1.882,1.882,0,0,0-1.684-.883,1.856,1.856,0,0,0-1.668.883,4.018,4.018,0,0,0-.566,2.211Zm11.914-2.961-.789-.047a1.762,1.762,0,0,0-1.027.289,1.855,1.855,0,0,0-.645.813V39H149.75V30.547h1.375l.148,1.234a2.934,2.934,0,0,1,.887-1.023,2.073,2.073,0,0,1,1.215-.367,1.9,1.9,0,0,1,.328.027,2.174,2.174,0,0,1,.258.059Zm4.953,7.258A3.576,3.576,0,0,1,155.863,38a4.48,4.48,0,0,1-1.02-3.062v-.344a4.386,4.386,0,0,1,1.051-3.012,3.3,3.3,0,0,1,2.566-1.191A3.067,3.067,0,0,1,161,31.445a4.345,4.345,0,0,1,.848,2.8v.813h-5.406l-.023.039a3.494,3.494,0,0,0,.563,2.066,1.965,1.965,0,0,0,1.719.793,3.872,3.872,0,0,0,1.371-.223,3.061,3.061,0,0,0,1.012-.613l.6,1a3.7,3.7,0,0,1-1.2.738A4.762,4.762,0,0,1,158.7,39.164Zm-.242-7.562a1.673,1.673,0,0,0-1.332.621,2.938,2.938,0,0,0-.645,1.59l.016.039h3.813v-.125a2.462,2.462,0,0,0-.453-1.523A1.638,1.638,0,0,0,158.461,31.6Zm10.031,5.125a1.026,1.026,0,0,0-.387-.828,3.732,3.732,0,0,0-1.465-.562,6.146,6.146,0,0,1-2.293-.9,1.814,1.814,0,0,1-.8-1.547,2.229,2.229,0,0,1,.879-1.766,3.879,3.879,0,0,1,4.605.047,2.239,2.239,0,0,1,.852,1.82l-.016.047H168.4a1.331,1.331,0,0,0-.48-.992A1.717,1.717,0,0,0,166.7,31.6a1.751,1.751,0,0,0-1.215.367,1.146,1.146,0,0,0-.4.875.927.927,0,0,0,.348.773,3.848,3.848,0,0,0,1.434.5,6.058,6.058,0,0,1,2.359.93,1.872,1.872,0,0,1,.8,1.57,2.226,2.226,0,0,1-.91,1.836,3.754,3.754,0,0,1-2.379.711,3.715,3.715,0,0,1-2.547-.82,2.341,2.341,0,0,1-.883-1.914l.016-.047H164.8a1.424,1.424,0,0,0,.609,1.2,2.358,2.358,0,0,0,1.336.379,2.1,2.1,0,0,0,1.285-.348A1.063,1.063,0,0,0,168.492,36.727Zm5.594-8.219v2.039h1.6v1.141h-1.6V36.82a1.149,1.149,0,0,0,.246.836.89.89,0,0,0,.652.242,1.429,1.429,0,0,0,.3-.035,2.2,2.2,0,0,0,.273-.074l.211,1.055a1.36,1.36,0,0,1-.508.23,2.562,2.562,0,0,1-.664.09A1.993,1.993,0,0,1,173.1,38.6a2.46,2.46,0,0,1-.555-1.777V31.688H171.2V30.547h1.344V28.508Zm11.578,6.852.016.047a3.417,3.417,0,0,1-1.125,2.68,4.3,4.3,0,0,1-3.055,1.078,4.012,4.012,0,0,1-3.145-1.367,5.028,5.028,0,0,1-1.215-3.469V32.3a5.043,5.043,0,0,1,1.215-3.473,4.006,4.006,0,0,1,3.145-1.371,4.416,4.416,0,0,1,3.07,1.027,3.4,3.4,0,0,1,1.109,2.723l-.016.047h-1.477a2.539,2.539,0,0,0-.7-1.891,2.7,2.7,0,0,0-1.984-.7,2.424,2.424,0,0,0-2.055,1.039,4.227,4.227,0,0,0-.766,2.578v2.039a4.254,4.254,0,0,0,.766,2.594,2.424,2.424,0,0,0,2.055,1.039,2.71,2.71,0,0,0,1.984-.691,2.557,2.557,0,0,0,.7-1.91ZM189.133,39h-1.539V26.813h1.539Zm7.563,0q-.078-.383-.121-.676a4.96,4.96,0,0,1-.051-.59,3.588,3.588,0,0,1-1.121,1.02,2.867,2.867,0,0,1-1.488.41,2.763,2.763,0,0,1-2.012-.676,2.486,2.486,0,0,1-.691-1.863,2.183,2.183,0,0,1,.98-1.895,4.579,4.579,0,0,1,2.66-.684h1.672v-.836a1.551,1.551,0,0,0-.453-1.176,1.779,1.779,0,0,0-1.281-.434,1.859,1.859,0,0,0-1.211.375,1.125,1.125,0,0,0-.461.9l-1.461.016-.016-.047a2.023,2.023,0,0,1,.863-1.687,3.578,3.578,0,0,1,2.371-.766,3.49,3.49,0,0,1,2.313.73,2.588,2.588,0,0,1,.875,2.105V37.3a7.923,7.923,0,0,0,.047.875,4.5,4.5,0,0,0,.172.828Zm-2.555-1.125a2.739,2.739,0,0,0,1.508-.43,2.042,2.042,0,0,0,.875-.984V35.086H194.8a2.24,2.24,0,0,0-1.488.469,1.4,1.4,0,0,0-.559,1.1,1.159,1.159,0,0,0,.352.891A1.472,1.472,0,0,0,194.141,37.875Zm11.07-1.148a1.026,1.026,0,0,0-.387-.828,3.732,3.732,0,0,0-1.465-.562,6.146,6.146,0,0,1-2.293-.9,1.814,1.814,0,0,1-.8-1.547,2.229,2.229,0,0,1,.879-1.766,3.879,3.879,0,0,1,4.605.047,2.239,2.239,0,0,1,.852,1.82l-.016.047h-1.469a1.331,1.331,0,0,0-.48-.992,1.717,1.717,0,0,0-1.215-.445,1.751,1.751,0,0,0-1.215.367,1.146,1.146,0,0,0-.4.875.927.927,0,0,0,.348.773,3.848,3.848,0,0,0,1.434.5,6.058,6.058,0,0,1,2.359.93,1.872,1.872,0,0,1,.8,1.57,2.226,2.226,0,0,1-.91,1.836,3.754,3.754,0,0,1-2.379.711,3.715,3.715,0,0,1-2.547-.82,2.341,2.341,0,0,1-.883-1.914l.016-.047h1.469a1.424,1.424,0,0,0,.609,1.2,2.358,2.358,0,0,0,1.336.379,2.1,2.1,0,0,0,1.285-.348A1.063,1.063,0,0,0,205.211,36.727Zm8.367,0a1.026,1.026,0,0,0-.387-.828,3.732,3.732,0,0,0-1.465-.562,6.146,6.146,0,0,1-2.293-.9,1.814,1.814,0,0,1-.8-1.547,2.229,2.229,0,0,1,.879-1.766,3.879,3.879,0,0,1,4.605.047,2.239,2.239,0,0,1,.852,1.82l-.016.047h-1.469a1.331,1.331,0,0,0-.48-.992,1.717,1.717,0,0,0-1.215-.445,1.751,1.751,0,0,0-1.215.367,1.146,1.146,0,0,0-.4.875.927.927,0,0,0,.348.773,3.848,3.848,0,0,0,1.434.5,6.058,6.058,0,0,1,2.359.93,1.872,1.872,0,0,1,.8,1.57,2.226,2.226,0,0,1-.91,1.836,3.754,3.754,0,0,1-2.379.711,3.715,3.715,0,0,1-2.547-.82,2.341,2.341,0,0,1-.883-1.914l.016-.047h1.469a1.424,1.424,0,0,0,.609,1.2,2.358,2.358,0,0,0,1.336.379,2.1,2.1,0,0,0,1.285-.348A1.063,1.063,0,0,0,213.578,36.727ZM218.7,39h-1.539V30.547H218.7Zm0-10.617h-1.539v-1.57H218.7ZM221.492,39V31.688h-1.328V30.547h1.328v-.914a2.875,2.875,0,0,1,.832-2.2,3.24,3.24,0,0,1,2.309-.781,4.431,4.431,0,0,1,1.031.121q.508.121,1.2.355l-.266,1.25a7.011,7.011,0,0,0-.883-.281,3.947,3.947,0,0,0-.961-.117,1.8,1.8,0,0,0-1.316.406,1.713,1.713,0,0,0-.4,1.25v.914h1.68v1.141h-1.68V39Zm6.117,0h-1.547V30.547h1.547Zm5.859.164A3.576,3.576,0,0,1,230.629,38a4.48,4.48,0,0,1-1.02-3.062v-.344a4.386,4.386,0,0,1,1.051-3.012,3.3,3.3,0,0,1,2.566-1.191,3.067,3.067,0,0,1,2.543,1.055,4.345,4.345,0,0,1,.848,2.8v.813h-5.406l-.023.039a3.494,3.494,0,0,0,.563,2.066,1.965,1.965,0,0,0,1.719.793,3.872,3.872,0,0,0,1.371-.223,3.061,3.061,0,0,0,1.012-.613l.6,1a3.7,3.7,0,0,1-1.2.738A4.762,4.762,0,0,1,233.469,39.164Zm-.242-7.562a1.673,1.673,0,0,0-1.332.621,2.938,2.938,0,0,0-.645,1.59l.016.039h3.813v-.125a2.462,2.462,0,0,0-.453-1.523A1.638,1.638,0,0,0,233.227,31.6Zm9.117.3-.789-.047a1.762,1.762,0,0,0-1.027.289,1.855,1.855,0,0,0-.645.813V39h-1.539V30.547h1.375l.148,1.234a2.934,2.934,0,0,1,.887-1.023,2.073,2.073,0,0,1,1.215-.367,1.9,1.9,0,0,1,.328.027,2.174,2.174,0,0,1,.258.059Zm1.516,2.477a10.458,10.458,0,0,1,1.242-5.258,7.19,7.19,0,0,1,2.609-2.906l.047.008.3.906a6.665,6.665,0,0,0-1.863,2.68,11.54,11.54,0,0,0-.793,4.555v.1a11.591,11.591,0,0,0,.789,4.555,7.25,7.25,0,0,0,1.867,2.75l-.3.844h-.047a7.193,7.193,0,0,1-2.609-2.9,10.452,10.452,0,0,1-1.242-5.262Zm8.516.07a10.426,10.426,0,0,1-1.246,5.262,7.244,7.244,0,0,1-2.605,2.9h-.047l-.3-.844a6.653,6.653,0,0,0,1.855-2.7,11.749,11.749,0,0,0,.8-4.605v-.1a11.354,11.354,0,0,0-.824-4.559,7.532,7.532,0,0,0-1.832-2.746l.3-.844h.047a7.241,7.241,0,0,1,2.605,2.906,10.431,10.431,0,0,1,1.246,5.258ZM2.492,54.547,2.6,55.656a2.871,2.871,0,0,1,1.051-.934,3.157,3.157,0,0,1,1.48-.332,2.615,2.615,0,0,1,1.449.391,2.363,2.363,0,0,1,.91,1.172,3.162,3.162,0,0,1,1.059-1.145,2.769,2.769,0,0,1,1.527-.418,2.531,2.531,0,0,1,2.039.887,4.051,4.051,0,0,1,.75,2.668V63H11.328V57.93a2.81,2.81,0,0,0-.43-1.77,1.567,1.567,0,0,0-1.281-.52,1.631,1.631,0,0,0-1.277.547,2.381,2.381,0,0,0-.574,1.383V63H6.219V57.93a2.772,2.772,0,0,0-.441-1.738,1.532,1.532,0,0,0-1.27-.551,2.115,2.115,0,0,0-1.156.289,1.867,1.867,0,0,0-.7.813V63H1.117V54.547ZM14.742,58.7a4.654,4.654,0,0,1,1.016-3.09,3.406,3.406,0,0,1,2.758-1.215A3.439,3.439,0,0,1,21.293,55.6a4.639,4.639,0,0,1,1.02,3.094v.172A4.631,4.631,0,0,1,21.3,61.961a3.429,3.429,0,0,1-2.766,1.2,3.436,3.436,0,0,1-2.77-1.207,4.623,4.623,0,0,1-1.02-3.09Zm1.539.172a4.009,4.009,0,0,0,.566,2.219,2.046,2.046,0,0,0,3.355,0,3.988,3.988,0,0,0,.57-2.219V58.7a3.976,3.976,0,0,0-.574-2.211,1.882,1.882,0,0,0-1.684-.883,1.856,1.856,0,0,0-1.668.883,4.018,4.018,0,0,0-.566,2.211Zm7.563.063a5.641,5.641,0,0,1,.871-3.289,2.807,2.807,0,0,1,2.441-1.25,3.027,3.027,0,0,1,1.316.273,2.7,2.7,0,0,1,.98.8V50.813h1.539V63h-1.18l-.234-1.07a2.743,2.743,0,0,1-1.023.922,3.058,3.058,0,0,1-1.414.313,2.9,2.9,0,0,1-2.422-1.121,4.659,4.659,0,0,1-.875-2.949Zm1.539.164a3.588,3.588,0,0,0,.523,2.051,1.828,1.828,0,0,0,1.625.77,2.039,2.039,0,0,0,1.156-.312,2.334,2.334,0,0,0,.766-.875V56.781a2.37,2.37,0,0,0-.77-.832,2.033,2.033,0,0,0-1.137-.309,1.759,1.759,0,0,0-1.637.914,4.718,4.718,0,0,0-.527,2.375Zm11.406,4.07A3.576,3.576,0,0,1,33.949,62a4.48,4.48,0,0,1-1.02-3.062v-.344a4.386,4.386,0,0,1,1.051-3.012,3.3,3.3,0,0,1,2.566-1.191,3.067,3.067,0,0,1,2.543,1.055,4.345,4.345,0,0,1,.848,2.8v.813H34.531l-.023.039a3.494,3.494,0,0,0,.563,2.066,1.965,1.965,0,0,0,1.719.793,3.872,3.872,0,0,0,1.371-.223,3.061,3.061,0,0,0,1.012-.613l.6,1a3.7,3.7,0,0,1-1.2.738A4.762,4.762,0,0,1,36.789,63.164ZM36.547,55.6a1.673,1.673,0,0,0-1.332.621,2.938,2.938,0,0,0-.645,1.59l.016.039H38.4v-.125a2.462,2.462,0,0,0-.453-1.523A1.638,1.638,0,0,0,36.547,55.6ZM43.328,63H41.789V50.813h1.539Zm2.008-4.3a4.654,4.654,0,0,1,1.016-3.09,3.764,3.764,0,0,1,5.535,0,4.639,4.639,0,0,1,1.02,3.094v.172a4.631,4.631,0,0,1-1.016,3.094,3.781,3.781,0,0,1-5.535,0,4.623,4.623,0,0,1-1.02-3.09Zm1.539.172a4.009,4.009,0,0,0,.566,2.219,2.046,2.046,0,0,0,3.355,0,3.988,3.988,0,0,0,.57-2.219V58.7a3.976,3.976,0,0,0-.574-2.211,1.882,1.882,0,0,0-1.684-.883,1.856,1.856,0,0,0-1.668.883,4.018,4.018,0,0,0-.566,2.211ZM56.469,63H54.93V61.422h1.539ZM59.5,63V55.688H58.172V54.547H59.5v-.914a2.875,2.875,0,0,1,.832-2.2,3.24,3.24,0,0,1,2.309-.781,4.431,4.431,0,0,1,1.031.121q.508.121,1.2.355l-.266,1.25a7.011,7.011,0,0,0-.883-.281,3.947,3.947,0,0,0-.961-.117,1.8,1.8,0,0,0-1.316.406,1.713,1.713,0,0,0-.4,1.25v.914h1.68v1.141h-1.68V63Zm6.117,0H64.07V54.547h1.547Zm4.5-10.492v2.039h1.6v1.141h-1.6V60.82a1.149,1.149,0,0,0,.246.836.89.89,0,0,0,.652.242,1.43,1.43,0,0,0,.3-.035,2.2,2.2,0,0,0,.273-.074l.211,1.055a1.36,1.36,0,0,1-.508.23,2.562,2.562,0,0,1-.664.09,1.993,1.993,0,0,1-1.492-.566,2.46,2.46,0,0,1-.555-1.777V55.688H67.234V54.547h1.344V52.508Zm3.164,5.875a10.458,10.458,0,0,1,1.242-5.258,7.19,7.19,0,0,1,2.609-2.906l.047.008.3.906a6.665,6.665,0,0,0-1.863,2.68,11.54,11.54,0,0,0-.793,4.555v.1a11.591,11.591,0,0,0,.789,4.555,7.25,7.25,0,0,0,1.867,2.75l-.3.844h-.047a7.193,7.193,0,0,1-2.609-2.9,10.452,10.452,0,0,1-1.242-5.262Zm9.352-2.32,2.656-4.437h1.859l-3.609,5.641L87.227,63H85.391l-2.727-4.516L79.93,63H78.07l3.688-5.734-3.609-5.641h1.844ZM94.914,64.2H87.7V63h7.211Zm3.289-11.7v2.039h1.6v1.141H98.2V60.82a1.149,1.149,0,0,0,.246.836.89.89,0,0,0,.652.242,1.43,1.43,0,0,0,.3-.035,2.2,2.2,0,0,0,.273-.074l.211,1.055a1.36,1.36,0,0,1-.508.23,2.562,2.562,0,0,1-.664.09,1.993,1.993,0,0,1-1.492-.566,2.46,2.46,0,0,1-.555-1.777V55.688H95.32V54.547h1.344V52.508Zm7.25,3.4-.789-.047a1.762,1.762,0,0,0-1.027.289,1.854,1.854,0,0,0-.645.813V63h-1.539V54.547h1.375l.148,1.234a2.934,2.934,0,0,1,.887-1.023,2.073,2.073,0,0,1,1.215-.367,1.9,1.9,0,0,1,.328.027,2.175,2.175,0,0,1,.258.059ZM112.25,63q-.078-.383-.121-.676a4.96,4.96,0,0,1-.051-.59,3.589,3.589,0,0,1-1.121,1.02,2.867,2.867,0,0,1-1.488.41,2.763,2.763,0,0,1-2.012-.676,2.486,2.486,0,0,1-.691-1.863,2.183,2.183,0,0,1,.98-1.895,4.579,4.579,0,0,1,2.66-.684h1.672v-.836a1.551,1.551,0,0,0-.453-1.176,1.779,1.779,0,0,0-1.281-.434,1.859,1.859,0,0,0-1.211.375,1.125,1.125,0,0,0-.461.9l-1.461.016-.016-.047a2.023,2.023,0,0,1,.863-1.687,3.578,3.578,0,0,1,2.371-.766,3.49,3.49,0,0,1,2.313.73,2.588,2.588,0,0,1,.875,2.105V61.3a7.923,7.923,0,0,0,.047.875,4.5,4.5,0,0,0,.172.828ZM109.7,61.875a2.739,2.739,0,0,0,1.508-.43,2.042,2.042,0,0,0,.875-.984V59.086h-1.727a2.24,2.24,0,0,0-1.488.469,1.4,1.4,0,0,0-.559,1.1,1.159,1.159,0,0,0,.352.891A1.472,1.472,0,0,0,109.7,61.875ZM117.516,63h-1.539V54.547h1.539Zm0-10.617h-1.539v-1.57h1.539Zm3.742,2.164.109,1.258a3.069,3.069,0,0,1,1.059-1.043,2.824,2.824,0,0,1,1.449-.371,2.759,2.759,0,0,1,2.117.8,3.515,3.515,0,0,1,.75,2.473V63H125.2V57.7a2.287,2.287,0,0,0-.441-1.586,1.768,1.768,0,0,0-1.348-.469,2.386,2.386,0,0,0-1.207.285,2.072,2.072,0,0,0-.785.8V63h-1.539V54.547Zm9.063,8.078-1.172,2.391h-.914l.547-2.469V61.273h1.539Zm8.375-2.758.273,1.063h.047l2.078-6.383H142.8L139.25,64.3a4.383,4.383,0,0,1-.918,1.484,2.113,2.113,0,0,1-1.613.633,3.362,3.362,0,0,1-.477-.043q-.289-.043-.445-.082l.156-1.211a2.061,2.061,0,0,1,.277.016q.324.023.41.023a.95.95,0,0,0,.8-.437,4.543,4.543,0,0,0,.523-.969l.367-.883L135.2,54.547h1.719ZM150.281,64.2H143.07V63h7.211Zm3.289-11.7v2.039h1.6v1.141h-1.6V60.82a1.149,1.149,0,0,0,.246.836.89.89,0,0,0,.652.242,1.429,1.429,0,0,0,.3-.035,2.2,2.2,0,0,0,.273-.074l.211,1.055a1.36,1.36,0,0,1-.508.23,2.562,2.562,0,0,1-.664.09,1.993,1.993,0,0,1-1.492-.566,2.46,2.46,0,0,1-.555-1.777V55.688h-1.344V54.547h1.344V52.508Zm7.25,3.4-.789-.047a1.762,1.762,0,0,0-1.027.289,1.855,1.855,0,0,0-.645.813V63H156.82V54.547H158.2l.148,1.234a2.934,2.934,0,0,1,.887-1.023,2.073,2.073,0,0,1,1.215-.367,1.9,1.9,0,0,1,.328.027,2.175,2.175,0,0,1,.258.059Zm6.8,7.094q-.078-.383-.121-.676a4.96,4.96,0,0,1-.051-.59,3.588,3.588,0,0,1-1.121,1.02,2.867,2.867,0,0,1-1.488.41,2.763,2.763,0,0,1-2.012-.676,2.486,2.486,0,0,1-.691-1.863,2.183,2.183,0,0,1,.98-1.895,4.579,4.579,0,0,1,2.66-.684h1.672v-.836a1.551,1.551,0,0,0-.453-1.176,1.779,1.779,0,0,0-1.281-.434,1.859,1.859,0,0,0-1.211.375,1.125,1.125,0,0,0-.461.9l-1.461.016-.016-.047a2.023,2.023,0,0,1,.863-1.687,3.578,3.578,0,0,1,2.371-.766,3.49,3.49,0,0,1,2.313.73,2.588,2.588,0,0,1,.875,2.105V61.3a7.923,7.923,0,0,0,.047.875A4.5,4.5,0,0,0,169.2,63Zm-2.555-1.125a2.739,2.739,0,0,0,1.508-.43,2.042,2.042,0,0,0,.875-.984V59.086h-1.727a2.24,2.24,0,0,0-1.488.469,1.4,1.4,0,0,0-.559,1.1,1.159,1.159,0,0,0,.352.891A1.472,1.472,0,0,0,165.063,61.875ZM172.883,63h-1.539V54.547h1.539Zm0-10.617h-1.539v-1.57h1.539Zm3.742,2.164.109,1.258a3.069,3.069,0,0,1,1.059-1.043,2.824,2.824,0,0,1,1.449-.371,2.759,2.759,0,0,1,2.117.8,3.515,3.515,0,0,1,.75,2.473V63H180.57V57.7a2.287,2.287,0,0,0-.441-1.586,1.768,1.768,0,0,0-1.348-.469,2.386,2.386,0,0,0-1.207.285,2.072,2.072,0,0,0-.785.8V63H175.25V54.547Zm10.844,3.906a10.426,10.426,0,0,1-1.246,5.262,7.244,7.244,0,0,1-2.605,2.9h-.047l-.3-.844a6.653,6.653,0,0,0,1.855-2.7,11.749,11.749,0,0,0,.8-4.605v-.1a11.354,11.354,0,0,0-.824-4.559,7.532,7.532,0,0,0-1.832-2.746l.3-.844h.047a7.241,7.241,0,0,1,2.605,2.906,10.431,10.431,0,0,1,1.246,5.258ZM5.563,107.8H3.57L2.945,111H1.766l.625-3.2H.547V106.7H2.609l.531-2.719h-2v-1.109H3.359L4,99.625H5.18l-.641,3.25H6.531l.641-3.25h1.18l-.641,3.25H9.266v1.109H7.5L6.969,106.7H8.68V107.8H6.75L6.125,111H4.938ZM3.789,106.7H5.781l.531-2.719H4.32ZM23.875,111H22.336v-5.023H16.813V111H15.273V99.625h1.539v5.141h5.523V99.625h1.539Zm7.641,0q-.078-.383-.121-.676a4.96,4.96,0,0,1-.051-.59,3.589,3.589,0,0,1-1.121,1.02,2.867,2.867,0,0,1-1.488.41,2.763,2.763,0,0,1-2.012-.676,2.486,2.486,0,0,1-.691-1.863,2.183,2.183,0,0,1,.98-1.895,4.579,4.579,0,0,1,2.66-.684h1.672v-.836a1.551,1.551,0,0,0-.453-1.176,1.779,1.779,0,0,0-1.281-.434,1.859,1.859,0,0,0-1.211.375,1.125,1.125,0,0,0-.461.9l-1.461.016-.016-.047a2.023,2.023,0,0,1,.863-1.687,3.578,3.578,0,0,1,2.371-.766,3.49,3.49,0,0,1,2.313.73,2.588,2.588,0,0,1,.875,2.105v4.07a7.923,7.923,0,0,0,.047.875A4.5,4.5,0,0,0,33.1,111Zm-2.555-1.125a2.739,2.739,0,0,0,1.508-.43,2.042,2.042,0,0,0,.875-.984v-1.375H29.617a2.24,2.24,0,0,0-1.488.469,1.4,1.4,0,0,0-.559,1.1,1.159,1.159,0,0,0,.352.891A1.472,1.472,0,0,0,28.961,109.875Zm9.516.086a1.81,1.81,0,0,0,1.242-.473,1.494,1.494,0,0,0,.531-1.16h1.391l.023.047a2.428,2.428,0,0,1-.937,1.941,3.582,3.582,0,0,1-5-.363,4.674,4.674,0,0,1-.969-3.016v-.328a4.654,4.654,0,0,1,.973-3,3.317,3.317,0,0,1,2.746-1.215,3.189,3.189,0,0,1,2.316.875,2.775,2.775,0,0,1,.871,2.148l-.016.047h-1.4a1.865,1.865,0,0,0-.5-1.316,1.658,1.658,0,0,0-1.27-.543,1.777,1.777,0,0,0-1.652.879,4.114,4.114,0,0,0-.52,2.129v.328a4.192,4.192,0,0,0,.512,2.148A1.776,1.776,0,0,0,38.477,109.961Zm8.516,1.2A3.576,3.576,0,0,1,44.152,110a4.48,4.48,0,0,1-1.02-3.062v-.344a4.386,4.386,0,0,1,1.051-3.012,3.3,3.3,0,0,1,2.566-1.191,3.067,3.067,0,0,1,2.543,1.055,4.345,4.345,0,0,1,.848,2.8v.813H44.734l-.023.039a3.494,3.494,0,0,0,.563,2.066,1.965,1.965,0,0,0,1.719.793,3.872,3.872,0,0,0,1.371-.223,3.061,3.061,0,0,0,1.012-.613l.6,1a3.7,3.7,0,0,1-1.2.738A4.762,4.762,0,0,1,46.992,111.164ZM46.75,103.6a1.673,1.673,0,0,0-1.332.621,2.938,2.938,0,0,0-.645,1.59l.016.039H48.6v-.125a2.462,2.462,0,0,0-.453-1.523A1.638,1.638,0,0,0,46.75,103.6Zm9.117.3-.789-.047a1.762,1.762,0,0,0-1.027.289,1.855,1.855,0,0,0-.645.813V111H51.867v-8.453h1.375l.148,1.234a2.934,2.934,0,0,1,.887-1.023,2.073,2.073,0,0,1,1.215-.367,1.9,1.9,0,0,1,.328.027,2.173,2.173,0,0,1,.258.059Zm12.781,3.188a4.659,4.659,0,0,1-.875,2.949,2.893,2.893,0,0,1-2.414,1.121,3.354,3.354,0,0,1-1.371-.262,2.622,2.622,0,0,1-1-.785v4.133H61.445v-11.7h1.18l.242,1.094a2.792,2.792,0,0,1,1.031-.93,3.078,3.078,0,0,1,1.438-.32,2.809,2.809,0,0,1,2.441,1.246,5.638,5.638,0,0,1,.871,3.293Zm-1.539-.164a4.467,4.467,0,0,0-.566-2.363,1.835,1.835,0,0,0-1.668-.926,2.053,2.053,0,0,0-1.133.3,2.25,2.25,0,0,0-.758.824v4.086a2.186,2.186,0,0,0,.758.816,2.126,2.126,0,0,0,1.148.293,1.894,1.894,0,0,0,1.656-.8,3.516,3.516,0,0,0,.563-2.066Zm7.43-3.023-.789-.047a1.762,1.762,0,0,0-1.027.289,1.854,1.854,0,0,0-.645.813V111H70.539v-8.453h1.375l.148,1.234a2.934,2.934,0,0,1,.887-1.023,2.073,2.073,0,0,1,1.215-.367,1.9,1.9,0,0,1,.328.027,2.174,2.174,0,0,1,.258.059Zm4.953,7.258A3.576,3.576,0,0,1,76.652,110a4.48,4.48,0,0,1-1.02-3.062v-.344a4.386,4.386,0,0,1,1.051-3.012,3.3,3.3,0,0,1,2.566-1.191,3.067,3.067,0,0,1,2.543,1.055,4.345,4.345,0,0,1,.848,2.8v.813H77.234l-.023.039a3.494,3.494,0,0,0,.563,2.066,1.965,1.965,0,0,0,1.719.793,3.872,3.872,0,0,0,1.371-.223,3.061,3.061,0,0,0,1.012-.613l.6,1a3.7,3.7,0,0,1-1.2.738A4.762,4.762,0,0,1,79.492,111.164ZM79.25,103.6a1.673,1.673,0,0,0-1.332.621,2.938,2.938,0,0,0-.645,1.59l.016.039H81.1v-.125a2.462,2.462,0,0,0-.453-1.523A1.638,1.638,0,0,0,79.25,103.6Zm4.766,3.328a5.641,5.641,0,0,1,.871-3.289,2.807,2.807,0,0,1,2.441-1.25,3.027,3.027,0,0,1,1.316.273,2.7,2.7,0,0,1,.98.8V98.813h1.539V111h-1.18l-.234-1.07a2.743,2.743,0,0,1-1.023.922,3.058,3.058,0,0,1-1.414.313,2.9,2.9,0,0,1-2.422-1.121,4.659,4.659,0,0,1-.875-2.949Zm1.539.164a3.588,3.588,0,0,0,.523,2.051,1.828,1.828,0,0,0,1.625.77,2.039,2.039,0,0,0,1.156-.312,2.334,2.334,0,0,0,.766-.875v-3.945a2.37,2.37,0,0,0-.77-.832,2.033,2.033,0,0,0-1.137-.309,1.759,1.759,0,0,0-1.637.914,4.718,4.718,0,0,0-.527,2.375ZM95.125,111H93.586v-8.453h1.539Zm0-10.617H93.586v-1.57h1.539Zm5.727,9.578a1.81,1.81,0,0,0,1.242-.473,1.494,1.494,0,0,0,.531-1.16h1.391l.023.047a2.428,2.428,0,0,1-.937,1.941,3.582,3.582,0,0,1-5-.363,4.674,4.674,0,0,1-.969-3.016v-.328a4.654,4.654,0,0,1,.973-3,3.317,3.317,0,0,1,2.746-1.215,3.189,3.189,0,0,1,2.316.875,2.775,2.775,0,0,1,.871,2.148l-.016.047h-1.4a1.865,1.865,0,0,0-.5-1.316,1.658,1.658,0,0,0-1.27-.543,1.777,1.777,0,0,0-1.652.879,4.114,4.114,0,0,0-.52,2.129v.328a4.192,4.192,0,0,0,.512,2.148A1.776,1.776,0,0,0,100.852,109.961Zm8.375,0a1.81,1.81,0,0,0,1.242-.473,1.494,1.494,0,0,0,.531-1.16h1.391l.023.047a2.428,2.428,0,0,1-.937,1.941,3.582,3.582,0,0,1-5-.363,4.674,4.674,0,0,1-.969-3.016v-.328a4.654,4.654,0,0,1,.973-3,3.317,3.317,0,0,1,2.746-1.215,3.189,3.189,0,0,1,2.316.875,2.775,2.775,0,0,1,.871,2.148l-.016.047H111a1.865,1.865,0,0,0-.5-1.316,1.658,1.658,0,0,0-1.27-.543,1.777,1.777,0,0,0-1.652.879,4.114,4.114,0,0,0-.52,2.129v.328a4.192,4.192,0,0,0,.512,2.148A1.776,1.776,0,0,0,109.227,109.961Zm6.68,1.039h-1.539v-8.453h1.539Zm0-10.617h-1.539v-1.57h1.539Zm2.008,6.313a4.654,4.654,0,0,1,1.016-3.09,3.764,3.764,0,0,1,5.535,0,4.639,4.639,0,0,1,1.02,3.094v.172a4.631,4.631,0,0,1-1.016,3.094,3.781,3.781,0,0,1-5.535,0,4.623,4.623,0,0,1-1.02-3.09Zm1.539.172a4.009,4.009,0,0,0,.566,2.219,2.046,2.046,0,0,0,3.355,0,3.988,3.988,0,0,0,.57-2.219V106.7a3.976,3.976,0,0,0-.574-2.211,1.882,1.882,0,0,0-1.684-.883,1.856,1.856,0,0,0-1.668.883,4.018,4.018,0,0,0-.566,2.211Zm9.289-4.32.109,1.258a3.069,3.069,0,0,1,1.059-1.043,2.824,2.824,0,0,1,1.449-.371,2.759,2.759,0,0,1,2.117.8,3.515,3.515,0,0,1,.75,2.473V111h-1.539v-5.3a2.287,2.287,0,0,0-.441-1.586,1.768,1.768,0,0,0-1.348-.469,2.386,2.386,0,0,0-1.207.285,2.072,2.072,0,0,0-.785.8V111h-1.539v-8.453Zm11.219,8.617a3.576,3.576,0,0,1-2.84-1.164,4.48,4.48,0,0,1-1.02-3.062v-.344a4.386,4.386,0,0,1,1.051-3.012,3.3,3.3,0,0,1,2.566-1.191,3.067,3.067,0,0,1,2.543,1.055,4.345,4.345,0,0,1,.848,2.8v.813H137.7l-.023.039a3.494,3.494,0,0,0,.563,2.066,1.965,1.965,0,0,0,1.719.793,3.872,3.872,0,0,0,1.371-.223,3.061,3.061,0,0,0,1.012-.613l.6,1a3.7,3.7,0,0,1-1.2.738A4.762,4.762,0,0,1,139.961,111.164Zm-.242-7.562a1.673,1.673,0,0,0-1.332.621,2.938,2.938,0,0,0-.645,1.59l.016.039h3.813v-.125a2.462,2.462,0,0,0-.453-1.523A1.638,1.638,0,0,0,139.719,103.6Zm10.031,5.125a1.026,1.026,0,0,0-.387-.828,3.733,3.733,0,0,0-1.465-.562,6.146,6.146,0,0,1-2.293-.9,1.814,1.814,0,0,1-.8-1.547,2.229,2.229,0,0,1,.879-1.766,3.879,3.879,0,0,1,4.605.047,2.239,2.239,0,0,1,.852,1.82l-.016.047h-1.469a1.331,1.331,0,0,0-.48-.992,1.717,1.717,0,0,0-1.215-.445,1.751,1.751,0,0,0-1.215.367,1.146,1.146,0,0,0-.4.875.927.927,0,0,0,.348.773,3.848,3.848,0,0,0,1.434.5,6.058,6.058,0,0,1,2.359.93,1.872,1.872,0,0,1,.8,1.57,2.226,2.226,0,0,1-.91,1.836,3.754,3.754,0,0,1-2.379.711,3.715,3.715,0,0,1-2.547-.82,2.341,2.341,0,0,1-.883-1.914l.016-.047h1.469a1.424,1.424,0,0,0,.609,1.2,2.358,2.358,0,0,0,1.336.379,2.1,2.1,0,0,0,1.285-.348A1.063,1.063,0,0,0,149.75,108.727Zm10.016-.859.273,1.063h.047l2.078-6.383h1.711l-3.555,9.75a4.383,4.383,0,0,1-.918,1.484,2.113,2.113,0,0,1-1.613.633,3.362,3.362,0,0,1-.477-.043q-.289-.043-.445-.082l.156-1.211a2.061,2.061,0,0,1,.277.016q.324.023.41.023a.95.95,0,0,0,.8-.437,4.543,4.543,0,0,0,.523-.969l.367-.883-3.141-8.281h1.719Zm12.938,3.3a3.576,3.576,0,0,1-2.84-1.164,4.48,4.48,0,0,1-1.02-3.062v-.344a4.386,4.386,0,0,1,1.051-3.012,3.3,3.3,0,0,1,2.566-1.191A3.067,3.067,0,0,1,175,103.445a4.345,4.345,0,0,1,.848,2.8v.813h-5.406l-.023.039a3.494,3.494,0,0,0,.563,2.066,1.965,1.965,0,0,0,1.719.793,3.872,3.872,0,0,0,1.371-.223,3.061,3.061,0,0,0,1.012-.613l.6,1a3.7,3.7,0,0,1-1.2.738A4.762,4.762,0,0,1,172.7,111.164Zm-.242-7.562a1.673,1.673,0,0,0-1.332.621,2.938,2.938,0,0,0-.645,1.59l.016.039h3.813v-.125a2.462,2.462,0,0,0-.453-1.523A1.638,1.638,0,0,0,172.461,103.6Zm7.836,4.906.133.594h.047l.148-.594,1.945-5.961h1.57L181.031,111h-1.164l-3.148-8.453H178.3ZM190.6,111q-.078-.383-.121-.676a4.96,4.96,0,0,1-.051-.59,3.588,3.588,0,0,1-1.121,1.02,2.867,2.867,0,0,1-1.488.41,2.763,2.763,0,0,1-2.012-.676,2.486,2.486,0,0,1-.691-1.863,2.183,2.183,0,0,1,.98-1.895,4.579,4.579,0,0,1,2.66-.684h1.672v-.836a1.551,1.551,0,0,0-.453-1.176,1.779,1.779,0,0,0-1.281-.434,1.859,1.859,0,0,0-1.211.375,1.125,1.125,0,0,0-.461.9l-1.461.016-.016-.047a2.023,2.023,0,0,1,.863-1.687,3.578,3.578,0,0,1,2.371-.766,3.49,3.49,0,0,1,2.313.73,2.588,2.588,0,0,1,.875,2.105v4.07a7.923,7.923,0,0,0,.047.875,4.5,4.5,0,0,0,.172.828Zm-2.555-1.125a2.739,2.739,0,0,0,1.508-.43,2.042,2.042,0,0,0,.875-.984v-1.375H188.7a2.24,2.24,0,0,0-1.488.469,1.4,1.4,0,0,0-.559,1.1,1.159,1.159,0,0,0,.352.891A1.472,1.472,0,0,0,188.047,109.875Zm7.82,1.125h-1.539V98.813h1.539Zm7.734-1.25a2.863,2.863,0,0,1-1.023,1.047,2.8,2.8,0,0,1-1.445.367,2.716,2.716,0,0,1-2.156-.883,4.1,4.1,0,0,1-.773-2.75v-4.984h1.539v5a3.147,3.147,0,0,0,.4,1.859,1.481,1.481,0,0,0,1.242.508,2.531,2.531,0,0,0,1.355-.332,2.077,2.077,0,0,0,.809-.941v-6.094h1.539V111H203.7Zm8.922,1.25q-.078-.383-.121-.676a4.96,4.96,0,0,1-.051-.59,3.588,3.588,0,0,1-1.121,1.02,2.867,2.867,0,0,1-1.488.41,2.763,2.763,0,0,1-2.012-.676,2.486,2.486,0,0,1-.691-1.863,2.183,2.183,0,0,1,.98-1.895,4.579,4.579,0,0,1,2.66-.684h1.672v-.836a1.551,1.551,0,0,0-.453-1.176,1.779,1.779,0,0,0-1.281-.434,1.859,1.859,0,0,0-1.211.375,1.125,1.125,0,0,0-.461.9l-1.461.016-.016-.047a2.023,2.023,0,0,1,.863-1.687,3.578,3.578,0,0,1,2.371-.766,3.49,3.49,0,0,1,2.313.73,2.588,2.588,0,0,1,.875,2.105v4.07a7.923,7.923,0,0,0,.047.875,4.5,4.5,0,0,0,.172.828Zm-2.555-1.125a2.739,2.739,0,0,0,1.508-.43,2.042,2.042,0,0,0,.875-.984v-1.375h-1.727a2.24,2.24,0,0,0-1.488.469,1.4,1.4,0,0,0-.559,1.1,1.159,1.159,0,0,0,.352.891A1.472,1.472,0,0,0,209.969,109.875Zm10.156-5.969-.789-.047a1.762,1.762,0,0,0-1.027.289,1.855,1.855,0,0,0-.645.813V111h-1.539v-8.453H217.5l.148,1.234a2.934,2.934,0,0,1,.887-1.023,2.073,2.073,0,0,1,1.215-.367,1.9,1.9,0,0,1,.328.027,2.173,2.173,0,0,1,.258.059Zm9.078,7.258a3.576,3.576,0,0,1-2.84-1.164,4.48,4.48,0,0,1-1.02-3.062v-.344a4.386,4.386,0,0,1,1.051-3.012,3.3,3.3,0,0,1,2.566-1.191,3.067,3.067,0,0,1,2.543,1.055,4.345,4.345,0,0,1,.848,2.8v.813h-5.406l-.023.039a3.494,3.494,0,0,0,.563,2.066,1.965,1.965,0,0,0,1.719.793,3.872,3.872,0,0,0,1.371-.223,3.061,3.061,0,0,0,1.012-.613l.6,1a3.7,3.7,0,0,1-1.2.738A4.762,4.762,0,0,1,229.2,111.164Zm-.242-7.562a1.673,1.673,0,0,0-1.332.621,2.938,2.938,0,0,0-.645,1.59l.016.039h3.813v-.125a2.462,2.462,0,0,0-.453-1.523A1.638,1.638,0,0,0,228.961,103.6Zm6.781,7.4H234.2V98.813h1.539Zm7.719-8.453.109,1.109a2.871,2.871,0,0,1,1.051-.934,3.158,3.158,0,0,1,1.48-.332,2.615,2.615,0,0,1,1.449.391,2.363,2.363,0,0,1,.91,1.172,3.162,3.162,0,0,1,1.059-1.145,2.769,2.769,0,0,1,1.527-.418,2.531,2.531,0,0,1,2.039.887,4.051,4.051,0,0,1,.75,2.668V111H252.3v-5.07a2.81,2.81,0,0,0-.43-1.77,1.567,1.567,0,0,0-1.281-.52,1.631,1.631,0,0,0-1.277.547,2.381,2.381,0,0,0-.574,1.383V111h-1.547v-5.07a2.772,2.772,0,0,0-.441-1.738,1.532,1.532,0,0,0-1.27-.551,2.115,2.115,0,0,0-1.156.289,1.867,1.867,0,0,0-.7.813V111h-1.539v-8.453Zm12.25,4.148a4.654,4.654,0,0,1,1.016-3.09,3.764,3.764,0,0,1,5.535,0,4.639,4.639,0,0,1,1.02,3.094v.172a4.631,4.631,0,0,1-1.016,3.094,3.781,3.781,0,0,1-5.535,0,4.623,4.623,0,0,1-1.02-3.09Zm1.539.172a4.009,4.009,0,0,0,.566,2.219,2.046,2.046,0,0,0,3.355,0,3.988,3.988,0,0,0,.57-2.219V106.7a3.976,3.976,0,0,0-.574-2.211,1.882,1.882,0,0,0-1.684-.883,1.856,1.856,0,0,0-1.668.883,4.018,4.018,0,0,0-.566,2.211Zm7.563.063a5.641,5.641,0,0,1,.871-3.289,2.807,2.807,0,0,1,2.441-1.25,3.027,3.027,0,0,1,1.316.273,2.7,2.7,0,0,1,.98.8V98.813h1.539V111h-1.18l-.234-1.07a2.743,2.743,0,0,1-1.023.922,3.058,3.058,0,0,1-1.414.313,2.9,2.9,0,0,1-2.422-1.121,4.659,4.659,0,0,1-.875-2.949Zm1.539.164a3.588,3.588,0,0,0,.523,2.051,1.828,1.828,0,0,0,1.625.77,2.039,2.039,0,0,0,1.156-.312,2.334,2.334,0,0,0,.766-.875v-3.945a2.37,2.37,0,0,0-.77-.832,2.033,2.033,0,0,0-1.137-.309,1.759,1.759,0,0,0-1.637.914,4.718,4.718,0,0,0-.527,2.375Zm11.406,4.07a3.576,3.576,0,0,1-2.84-1.164,4.48,4.48,0,0,1-1.02-3.062v-.344a4.386,4.386,0,0,1,1.051-3.012,3.3,3.3,0,0,1,2.566-1.191,3.067,3.067,0,0,1,2.543,1.055,4.345,4.345,0,0,1,.848,2.8v.813H275.5l-.023.039a3.494,3.494,0,0,0,.563,2.066,1.965,1.965,0,0,0,1.719.793,3.872,3.872,0,0,0,1.371-.223,3.061,3.061,0,0,0,1.012-.613l.6,1a3.7,3.7,0,0,1-1.2.738A4.762,4.762,0,0,1,277.758,111.164Zm-.242-7.562a1.673,1.673,0,0,0-1.332.621,2.938,2.938,0,0,0-.645,1.59l.016.039h3.813v-.125a2.461,2.461,0,0,0-.453-1.523A1.638,1.638,0,0,0,277.516,103.6ZM284.3,111h-1.539V98.813H284.3Zm2.008-4.3a4.654,4.654,0,0,1,1.016-3.09,3.764,3.764,0,0,1,5.535,0,4.639,4.639,0,0,1,1.02,3.094v.172a4.631,4.631,0,0,1-1.016,3.094,3.781,3.781,0,0,1-5.535,0,4.623,4.623,0,0,1-1.02-3.09Zm1.539.172a4.009,4.009,0,0,0,.566,2.219,2.046,2.046,0,0,0,3.355,0,3.988,3.988,0,0,0,.57-2.219V106.7a3.976,3.976,0,0,0-.574-2.211,1.882,1.882,0,0,0-1.684-.883,1.856,1.856,0,0,0-1.668.883,4.018,4.018,0,0,0-.566,2.211ZM8.32,131.094a4.659,4.659,0,0,1-.875,2.949,2.893,2.893,0,0,1-2.414,1.121A3.354,3.354,0,0,1,3.66,134.9a2.622,2.622,0,0,1-1-.785v4.133H1.117v-11.7H2.3l.242,1.094a2.792,2.792,0,0,1,1.031-.93,3.078,3.078,0,0,1,1.438-.32,2.809,2.809,0,0,1,2.441,1.246,5.638,5.638,0,0,1,.871,3.293Zm-1.539-.164a4.467,4.467,0,0,0-.566-2.363,1.835,1.835,0,0,0-1.668-.926,2.053,2.053,0,0,0-1.133.3,2.25,2.25,0,0,0-.758.824v4.086a2.186,2.186,0,0,0,.758.816,2.126,2.126,0,0,0,1.148.293,1.894,1.894,0,0,0,1.656-.8,3.516,3.516,0,0,0,.563-2.066Zm7.43-3.023-.789-.047a1.762,1.762,0,0,0-1.027.289,1.854,1.854,0,0,0-.645.813V135H10.211v-8.453h1.375l.148,1.234a2.934,2.934,0,0,1,.887-1.023,2.073,2.073,0,0,1,1.215-.367,1.9,1.9,0,0,1,.328.027,2.174,2.174,0,0,1,.258.059Zm4.953,7.258A3.576,3.576,0,0,1,16.324,134a4.48,4.48,0,0,1-1.02-3.062v-.344a4.386,4.386,0,0,1,1.051-3.012,3.3,3.3,0,0,1,2.566-1.191,3.067,3.067,0,0,1,2.543,1.055,4.345,4.345,0,0,1,.848,2.8v.813H16.906l-.023.039a3.494,3.494,0,0,0,.563,2.066,1.965,1.965,0,0,0,1.719.793,3.872,3.872,0,0,0,1.371-.223,3.06,3.06,0,0,0,1.012-.613l.6,1a3.7,3.7,0,0,1-1.2.738A4.762,4.762,0,0,1,19.164,135.164Zm-.242-7.562a1.673,1.673,0,0,0-1.332.621,2.938,2.938,0,0,0-.645,1.59l.016.039h3.813v-.125a2.462,2.462,0,0,0-.453-1.523A1.638,1.638,0,0,0,18.922,127.6Zm4.766,3.328a5.641,5.641,0,0,1,.871-3.289A2.807,2.807,0,0,1,27,126.391a3.027,3.027,0,0,1,1.316.273,2.7,2.7,0,0,1,.98.8v-4.648h1.539V135h-1.18l-.234-1.07a2.743,2.743,0,0,1-1.023.922,3.058,3.058,0,0,1-1.414.313,2.9,2.9,0,0,1-2.422-1.121,4.659,4.659,0,0,1-.875-2.949Zm1.539.164a3.588,3.588,0,0,0,.523,2.051,1.828,1.828,0,0,0,1.625.77,2.039,2.039,0,0,0,1.156-.312,2.334,2.334,0,0,0,.766-.875v-3.945a2.37,2.37,0,0,0-.77-.832,2.033,2.033,0,0,0-1.137-.309,1.759,1.759,0,0,0-1.637.914,4.718,4.718,0,0,0-.527,2.375ZM34.8,135H33.258v-8.453H34.8Zm0-10.617H33.258v-1.57H34.8Zm5.727,9.578a1.81,1.81,0,0,0,1.242-.473,1.494,1.494,0,0,0,.531-1.16h1.391l.023.047a2.428,2.428,0,0,1-.937,1.941,3.582,3.582,0,0,1-5-.363,4.674,4.674,0,0,1-.969-3.016v-.328a4.654,4.654,0,0,1,.973-3,3.317,3.317,0,0,1,2.746-1.215,3.189,3.189,0,0,1,2.316.875,2.775,2.775,0,0,1,.871,2.148l-.016.047H42.3a1.865,1.865,0,0,0-.5-1.316,1.658,1.658,0,0,0-1.27-.543,1.777,1.777,0,0,0-1.652.879,4.114,4.114,0,0,0-.52,2.129v.328a4.192,4.192,0,0,0,.512,2.148A1.776,1.776,0,0,0,40.523,133.961Zm8.375,0a1.81,1.81,0,0,0,1.242-.473,1.494,1.494,0,0,0,.531-1.16h1.391l.023.047a2.428,2.428,0,0,1-.937,1.941,3.582,3.582,0,0,1-5-.363,4.674,4.674,0,0,1-.969-3.016v-.328a4.654,4.654,0,0,1,.973-3,3.317,3.317,0,0,1,2.746-1.215,3.189,3.189,0,0,1,2.316.875,2.775,2.775,0,0,1,.871,2.148l-.016.047h-1.4a1.865,1.865,0,0,0-.5-1.316,1.658,1.658,0,0,0-1.27-.543,1.777,1.777,0,0,0-1.652.879,4.114,4.114,0,0,0-.52,2.129v.328a4.192,4.192,0,0,0,.512,2.148A1.776,1.776,0,0,0,48.9,133.961ZM55.578,135H54.039v-8.453h1.539Zm0-10.617H54.039v-1.57h1.539Zm2.008,6.313a4.654,4.654,0,0,1,1.016-3.09,3.764,3.764,0,0,1,5.535,0,4.639,4.639,0,0,1,1.02,3.094v.172a4.631,4.631,0,0,1-1.016,3.094,3.781,3.781,0,0,1-5.535,0,4.623,4.623,0,0,1-1.02-3.09Zm1.539.172a4.009,4.009,0,0,0,.566,2.219,2.046,2.046,0,0,0,3.355,0,3.988,3.988,0,0,0,.57-2.219V130.7a3.976,3.976,0,0,0-.574-2.211,1.882,1.882,0,0,0-1.684-.883,1.856,1.856,0,0,0-1.668.883,4.018,4.018,0,0,0-.566,2.211Zm9.289-4.32.109,1.258a3.069,3.069,0,0,1,1.059-1.043,2.824,2.824,0,0,1,1.449-.371,2.759,2.759,0,0,1,2.117.8,3.515,3.515,0,0,1,.75,2.473V135H72.359v-5.3a2.287,2.287,0,0,0-.441-1.586,1.768,1.768,0,0,0-1.348-.469,2.386,2.386,0,0,0-1.207.285,2.073,2.073,0,0,0-.785.8V135H67.039v-8.453Zm11.219,8.617A3.576,3.576,0,0,1,76.793,134a4.48,4.48,0,0,1-1.02-3.062v-.344a4.386,4.386,0,0,1,1.051-3.012,3.3,3.3,0,0,1,2.566-1.191,3.067,3.067,0,0,1,2.543,1.055,4.345,4.345,0,0,1,.848,2.8v.813H77.375l-.023.039a3.494,3.494,0,0,0,.563,2.066,1.965,1.965,0,0,0,1.719.793A3.872,3.872,0,0,0,81,133.738a3.061,3.061,0,0,0,1.012-.613l.6,1a3.7,3.7,0,0,1-1.2.738A4.762,4.762,0,0,1,79.633,135.164Zm-.242-7.562a1.673,1.673,0,0,0-1.332.621,2.938,2.938,0,0,0-.645,1.59l.016.039h3.813v-.125a2.462,2.462,0,0,0-.453-1.523A1.638,1.638,0,0,0,79.391,127.6Zm10.031,5.125a1.026,1.026,0,0,0-.387-.828,3.732,3.732,0,0,0-1.465-.562,6.146,6.146,0,0,1-2.293-.9,1.814,1.814,0,0,1-.8-1.547,2.229,2.229,0,0,1,.879-1.766,3.879,3.879,0,0,1,4.605.047,2.239,2.239,0,0,1,.852,1.82l-.016.047H89.328a1.331,1.331,0,0,0-.48-.992,1.717,1.717,0,0,0-1.215-.445,1.751,1.751,0,0,0-1.215.367,1.146,1.146,0,0,0-.4.875.927.927,0,0,0,.348.773,3.848,3.848,0,0,0,1.434.5,6.058,6.058,0,0,1,2.359.93,1.872,1.872,0,0,1,.8,1.57,2.226,2.226,0,0,1-.91,1.836,3.754,3.754,0,0,1-2.379.711,3.715,3.715,0,0,1-2.547-.82,2.341,2.341,0,0,1-.883-1.914l.016-.047h1.469a1.424,1.424,0,0,0,.609,1.2,2.358,2.358,0,0,0,1.336.379,2.1,2.1,0,0,0,1.285-.348A1.063,1.063,0,0,0,89.422,132.727Zm14.016-4.156H96.922v-1.281h6.516Zm0,3.25H96.922v-1.281h6.516Zm7.773-5.273.109,1.109a2.871,2.871,0,0,1,1.051-.934,3.158,3.158,0,0,1,1.48-.332,2.615,2.615,0,0,1,1.449.391,2.363,2.363,0,0,1,.91,1.172,3.162,3.162,0,0,1,1.059-1.145,2.769,2.769,0,0,1,1.527-.418,2.531,2.531,0,0,1,2.039.887,4.051,4.051,0,0,1,.75,2.668V135h-1.539v-5.07a2.81,2.81,0,0,0-.43-1.77,1.567,1.567,0,0,0-1.281-.52,1.631,1.631,0,0,0-1.277.547,2.381,2.381,0,0,0-.574,1.383V135h-1.547v-5.07a2.772,2.772,0,0,0-.441-1.738,1.532,1.532,0,0,0-1.27-.551,2.115,2.115,0,0,0-1.156.289,1.867,1.867,0,0,0-.7.813V135h-1.539v-8.453Zm12.25,4.148a4.654,4.654,0,0,1,1.016-3.09,3.764,3.764,0,0,1,5.535,0,4.639,4.639,0,0,1,1.02,3.094v.172a4.631,4.631,0,0,1-1.016,3.094,3.781,3.781,0,0,1-5.535,0,4.623,4.623,0,0,1-1.02-3.09Zm1.539.172a4.009,4.009,0,0,0,.566,2.219,2.046,2.046,0,0,0,3.355,0,3.988,3.988,0,0,0,.57-2.219V130.7a3.976,3.976,0,0,0-.574-2.211,1.882,1.882,0,0,0-1.684-.883,1.856,1.856,0,0,0-1.668.883A4.018,4.018,0,0,0,125,130.7Zm7.563.063a5.641,5.641,0,0,1,.871-3.289,2.807,2.807,0,0,1,2.441-1.25,3.027,3.027,0,0,1,1.316.273,2.7,2.7,0,0,1,.98.8v-4.648h1.539V135h-1.18l-.234-1.07a2.743,2.743,0,0,1-1.023.922,3.058,3.058,0,0,1-1.414.313,2.9,2.9,0,0,1-2.422-1.121,4.659,4.659,0,0,1-.875-2.949Zm1.539.164a3.588,3.588,0,0,0,.523,2.051,1.828,1.828,0,0,0,1.625.77,2.039,2.039,0,0,0,1.156-.312,2.334,2.334,0,0,0,.766-.875v-3.945a2.37,2.37,0,0,0-.77-.832,2.033,2.033,0,0,0-1.137-.309,1.759,1.759,0,0,0-1.637.914,4.718,4.718,0,0,0-.527,2.375Zm11.406,4.07a3.576,3.576,0,0,1-2.84-1.164,4.48,4.48,0,0,1-1.02-3.062v-.344a4.386,4.386,0,0,1,1.051-3.012,3.3,3.3,0,0,1,2.566-1.191,3.067,3.067,0,0,1,2.543,1.055,4.345,4.345,0,0,1,.848,2.8v.813H143.25l-.023.039a3.494,3.494,0,0,0,.563,2.066,1.965,1.965,0,0,0,1.719.793,3.872,3.872,0,0,0,1.371-.223,3.06,3.06,0,0,0,1.012-.613l.6,1a3.7,3.7,0,0,1-1.2.738A4.762,4.762,0,0,1,145.508,135.164Zm-.242-7.562a1.673,1.673,0,0,0-1.332.621,2.938,2.938,0,0,0-.645,1.59l.016.039h3.813v-.125a2.462,2.462,0,0,0-.453-1.523A1.638,1.638,0,0,0,145.266,127.6Zm6.781,7.4h-1.539V122.813h1.539Zm2.008-4.3a4.654,4.654,0,0,1,1.016-3.09,3.764,3.764,0,0,1,5.535,0,4.639,4.639,0,0,1,1.02,3.094v.172a4.631,4.631,0,0,1-1.016,3.094,3.781,3.781,0,0,1-5.535,0,4.623,4.623,0,0,1-1.02-3.09Zm1.539.172a4.009,4.009,0,0,0,.566,2.219,2.046,2.046,0,0,0,3.355,0,3.988,3.988,0,0,0,.57-2.219V130.7a3.976,3.976,0,0,0-.574-2.211,1.882,1.882,0,0,0-1.684-.883,1.856,1.856,0,0,0-1.668.883,4.018,4.018,0,0,0-.566,2.211ZM165.188,135h-1.539v-1.578h1.539Zm9.8-3.906a4.659,4.659,0,0,1-.875,2.949,2.893,2.893,0,0,1-2.414,1.121,3.354,3.354,0,0,1-1.371-.262,2.622,2.622,0,0,1-1-.785v4.133h-1.539v-11.7h1.18l.242,1.094a2.792,2.792,0,0,1,1.031-.93,3.078,3.078,0,0,1,1.438-.32,2.809,2.809,0,0,1,2.441,1.246,5.637,5.637,0,0,1,.871,3.293Zm-1.539-.164a4.467,4.467,0,0,0-.566-2.363,1.835,1.835,0,0,0-1.668-.926,2.053,2.053,0,0,0-1.133.3,2.25,2.25,0,0,0-.758.824v4.086a2.186,2.186,0,0,0,.758.816,2.126,2.126,0,0,0,1.148.293,1.894,1.894,0,0,0,1.656-.8,3.516,3.516,0,0,0,.563-2.066Zm7.43-3.023-.789-.047a1.762,1.762,0,0,0-1.027.289,1.855,1.855,0,0,0-.645.813V135h-1.539v-8.453h1.375l.148,1.234a2.934,2.934,0,0,1,.887-1.023,2.073,2.073,0,0,1,1.215-.367,1.9,1.9,0,0,1,.328.027,2.173,2.173,0,0,1,.258.059Zm4.953,7.258A3.576,3.576,0,0,1,183,134a4.48,4.48,0,0,1-1.02-3.062v-.344a4.386,4.386,0,0,1,1.051-3.012,3.3,3.3,0,0,1,2.566-1.191,3.067,3.067,0,0,1,2.543,1.055,4.345,4.345,0,0,1,.848,2.8v.813h-5.406l-.023.039a3.494,3.494,0,0,0,.563,2.066,1.965,1.965,0,0,0,1.719.793,3.872,3.872,0,0,0,1.371-.223,3.06,3.06,0,0,0,1.012-.613l.6,1a3.7,3.7,0,0,1-1.2.738A4.762,4.762,0,0,1,185.836,135.164Zm-.242-7.562a1.673,1.673,0,0,0-1.332.621,2.938,2.938,0,0,0-.645,1.59l.016.039h3.813v-.125a2.462,2.462,0,0,0-.453-1.523A1.638,1.638,0,0,0,185.594,127.6Zm4.766,3.328a5.641,5.641,0,0,1,.871-3.289,2.807,2.807,0,0,1,2.441-1.25,3.027,3.027,0,0,1,1.316.273,2.7,2.7,0,0,1,.98.8v-4.648h1.539V135h-1.18l-.234-1.07a2.743,2.743,0,0,1-1.023.922,3.058,3.058,0,0,1-1.414.313,2.9,2.9,0,0,1-2.422-1.121,4.659,4.659,0,0,1-.875-2.949Zm1.539.164a3.588,3.588,0,0,0,.523,2.051,1.828,1.828,0,0,0,1.625.77,2.039,2.039,0,0,0,1.156-.312,2.334,2.334,0,0,0,.766-.875v-3.945a2.37,2.37,0,0,0-.77-.832,2.033,2.033,0,0,0-1.137-.309,1.759,1.759,0,0,0-1.637.914,4.718,4.718,0,0,0-.527,2.375Zm9.57,3.906H199.93v-8.453h1.539Zm0-10.617H199.93v-1.57h1.539Zm5.727,9.578a1.81,1.81,0,0,0,1.242-.473,1.494,1.494,0,0,0,.531-1.16h1.391l.023.047a2.428,2.428,0,0,1-.937,1.941,3.582,3.582,0,0,1-5-.363,4.674,4.674,0,0,1-.969-3.016v-.328a4.654,4.654,0,0,1,.973-3,3.317,3.317,0,0,1,2.746-1.215,3.189,3.189,0,0,1,2.316.875,2.775,2.775,0,0,1,.871,2.148l-.016.047h-1.4a1.865,1.865,0,0,0-.5-1.316,1.658,1.658,0,0,0-1.27-.543,1.777,1.777,0,0,0-1.652.879,4.114,4.114,0,0,0-.52,2.129v.328a4.192,4.192,0,0,0,.512,2.148A1.776,1.776,0,0,0,207.2,133.961Zm7.156-9.453v2.039h1.6v1.141h-1.6v5.133a1.149,1.149,0,0,0,.246.836.89.89,0,0,0,.652.242,1.429,1.429,0,0,0,.3-.035,2.2,2.2,0,0,0,.273-.074l.211,1.055a1.36,1.36,0,0,1-.508.23,2.562,2.562,0,0,1-.664.09,1.993,1.993,0,0,1-1.492-.566,2.46,2.46,0,0,1-.555-1.777v-5.133h-1.344v-1.141h1.344v-2.039Zm3.164,5.875a10.458,10.458,0,0,1,1.242-5.258,7.19,7.19,0,0,1,2.609-2.906l.047.008.3.906a6.665,6.665,0,0,0-1.863,2.68,11.54,11.54,0,0,0-.793,4.555v.1a11.591,11.591,0,0,0,.789,4.555,7.25,7.25,0,0,0,1.867,2.75l-.3.844h-.047a7.193,7.193,0,0,1-2.609-2.9,10.452,10.452,0,0,1-1.242-5.262Zm9.352-2.32,2.656-4.437h1.859l-3.609,5.641L231.461,135h-1.836l-2.727-4.516L224.164,135H222.3l3.688-5.734-3.609-5.641h1.844Zm12.281,8.141h-7.211V135h7.211Zm3.289-11.7v2.039h1.6v1.141h-1.6v5.133a1.149,1.149,0,0,0,.246.836.89.89,0,0,0,.652.242,1.429,1.429,0,0,0,.3-.035,2.2,2.2,0,0,0,.273-.074l.211,1.055a1.36,1.36,0,0,1-.508.23,2.562,2.562,0,0,1-.664.09,1.993,1.993,0,0,1-1.492-.566,2.46,2.46,0,0,1-.555-1.777v-5.133h-1.344v-1.141H240.9v-2.039Zm6.75,10.656a3.576,3.576,0,0,1-2.84-1.164,4.48,4.48,0,0,1-1.02-3.062v-.344a4.386,4.386,0,0,1,1.051-3.012,3.3,3.3,0,0,1,2.566-1.191,3.067,3.067,0,0,1,2.543,1.055,4.345,4.345,0,0,1,.848,2.8v.813H246.93l-.023.039a3.494,3.494,0,0,0,.563,2.066,1.965,1.965,0,0,0,1.719.793,3.872,3.872,0,0,0,1.371-.223,3.06,3.06,0,0,0,1.012-.613l.6,1a3.7,3.7,0,0,1-1.2.738A4.762,4.762,0,0,1,249.188,135.164Zm-.242-7.562a1.673,1.673,0,0,0-1.332.621,2.938,2.938,0,0,0-.645,1.59l.016.039H250.8v-.125a2.462,2.462,0,0,0-.453-1.523A1.638,1.638,0,0,0,248.945,127.6Zm10.031,5.125a1.026,1.026,0,0,0-.387-.828,3.732,3.732,0,0,0-1.465-.562,6.146,6.146,0,0,1-2.293-.9,1.814,1.814,0,0,1-.8-1.547,2.229,2.229,0,0,1,.879-1.766,3.879,3.879,0,0,1,4.605.047,2.239,2.239,0,0,1,.852,1.82l-.016.047h-1.469a1.331,1.331,0,0,0-.48-.992,1.717,1.717,0,0,0-1.215-.445,1.751,1.751,0,0,0-1.215.367,1.146,1.146,0,0,0-.4.875.927.927,0,0,0,.348.773,3.848,3.848,0,0,0,1.434.5,6.058,6.058,0,0,1,2.359.93,1.872,1.872,0,0,1,.8,1.57,2.226,2.226,0,0,1-.91,1.836,3.754,3.754,0,0,1-2.379.711,3.715,3.715,0,0,1-2.547-.82,2.341,2.341,0,0,1-.883-1.914l.016-.047h1.469a1.424,1.424,0,0,0,.609,1.2,2.358,2.358,0,0,0,1.336.379,2.1,2.1,0,0,0,1.285-.348A1.063,1.063,0,0,0,258.977,132.727Zm5.594-8.219v2.039h1.6v1.141h-1.6v5.133a1.149,1.149,0,0,0,.246.836.89.89,0,0,0,.652.242,1.43,1.43,0,0,0,.3-.035,2.2,2.2,0,0,0,.273-.074l.211,1.055a1.36,1.36,0,0,1-.508.23,2.563,2.563,0,0,1-.664.09,1.993,1.993,0,0,1-1.492-.566,2.46,2.46,0,0,1-.555-1.777v-5.133h-1.344v-1.141h1.344v-2.039Zm6.375,5.945a10.426,10.426,0,0,1-1.246,5.262,7.244,7.244,0,0,1-2.605,2.9h-.047l-.3-.844a6.653,6.653,0,0,0,1.855-2.7,11.749,11.749,0,0,0,.8-4.605v-.1a11.354,11.354,0,0,0-.824-4.559,7.532,7.532,0,0,0-1.832-2.746l.3-.844h.047a7.241,7.241,0,0,1,2.605,2.906,10.431,10.431,0,0,1,1.246,5.258ZM8.32,155.094a4.659,4.659,0,0,1-.875,2.949,2.893,2.893,0,0,1-2.414,1.121A3.354,3.354,0,0,1,3.66,158.9a2.622,2.622,0,0,1-1-.785v4.133H1.117v-11.7H2.3l.242,1.094a2.792,2.792,0,0,1,1.031-.93,3.078,3.078,0,0,1,1.438-.32,2.809,2.809,0,0,1,2.441,1.246,5.638,5.638,0,0,1,.871,3.293Zm-1.539-.164a4.467,4.467,0,0,0-.566-2.363,1.835,1.835,0,0,0-1.668-.926,2.054,2.054,0,0,0-1.133.3,2.25,2.25,0,0,0-.758.824v4.086a2.186,2.186,0,0,0,.758.816,2.126,2.126,0,0,0,1.148.293,1.894,1.894,0,0,0,1.656-.8,3.516,3.516,0,0,0,.563-2.066Zm7.43-3.023-.789-.047a1.762,1.762,0,0,0-1.027.289,1.854,1.854,0,0,0-.645.813V159H10.211v-8.453h1.375l.148,1.234a2.934,2.934,0,0,1,.887-1.023,2.073,2.073,0,0,1,1.215-.367,1.9,1.9,0,0,1,.328.027,2.177,2.177,0,0,1,.258.059Zm4.953,7.258A3.576,3.576,0,0,1,16.324,158a4.48,4.48,0,0,1-1.02-3.062v-.344a4.386,4.386,0,0,1,1.051-3.012,3.3,3.3,0,0,1,2.566-1.191,3.067,3.067,0,0,1,2.543,1.055,4.345,4.345,0,0,1,.848,2.8v.813H16.906l-.023.039a3.494,3.494,0,0,0,.563,2.066,1.965,1.965,0,0,0,1.719.793,3.872,3.872,0,0,0,1.371-.223,3.06,3.06,0,0,0,1.012-.613l.6,1a3.7,3.7,0,0,1-1.2.738A4.762,4.762,0,0,1,19.164,159.164Zm-.242-7.562a1.673,1.673,0,0,0-1.332.621,2.938,2.938,0,0,0-.645,1.59l.016.039h3.813v-.125a2.462,2.462,0,0,0-.453-1.523A1.638,1.638,0,0,0,18.922,151.6Zm8.477,6.359a1.81,1.81,0,0,0,1.242-.473,1.494,1.494,0,0,0,.531-1.16h1.391l.023.047a2.428,2.428,0,0,1-.937,1.941,3.582,3.582,0,0,1-5-.363,4.674,4.674,0,0,1-.969-3.016v-.328a4.654,4.654,0,0,1,.973-3,3.317,3.317,0,0,1,2.746-1.215,3.189,3.189,0,0,1,2.316.875,2.775,2.775,0,0,1,.871,2.148l-.016.047h-1.4a1.865,1.865,0,0,0-.5-1.316,1.658,1.658,0,0,0-1.27-.543,1.777,1.777,0,0,0-1.652.879,4.114,4.114,0,0,0-.52,2.129v.328a4.192,4.192,0,0,0,.512,2.148A1.776,1.776,0,0,0,27.4,157.961ZM34.078,159H32.539v-8.453h1.539Zm0-10.617H32.539v-1.57h1.539Zm7.281,8.344a1.026,1.026,0,0,0-.387-.828,3.732,3.732,0,0,0-1.465-.562,6.146,6.146,0,0,1-2.293-.9,1.814,1.814,0,0,1-.8-1.547,2.229,2.229,0,0,1,.879-1.766,3.879,3.879,0,0,1,4.605.047,2.239,2.239,0,0,1,.852,1.82l-.016.047H41.266a1.331,1.331,0,0,0-.48-.992,1.717,1.717,0,0,0-1.215-.445,1.751,1.751,0,0,0-1.215.367,1.146,1.146,0,0,0-.4.875.927.927,0,0,0,.348.773,3.848,3.848,0,0,0,1.434.5,6.058,6.058,0,0,1,2.359.93,1.872,1.872,0,0,1,.8,1.57,2.226,2.226,0,0,1-.91,1.836,3.754,3.754,0,0,1-2.379.711,3.715,3.715,0,0,1-2.547-.82,2.341,2.341,0,0,1-.883-1.914l.016-.047h1.469a1.424,1.424,0,0,0,.609,1.2,2.358,2.358,0,0,0,1.336.379,2.1,2.1,0,0,0,1.285-.348A1.063,1.063,0,0,0,41.359,156.727ZM46.477,159H44.938v-8.453h1.539Zm0-10.617H44.938v-1.57h1.539Zm2.008,6.313a4.654,4.654,0,0,1,1.016-3.09,3.764,3.764,0,0,1,5.535,0,4.639,4.639,0,0,1,1.02,3.094v.172a4.631,4.631,0,0,1-1.016,3.094,3.781,3.781,0,0,1-5.535,0,4.623,4.623,0,0,1-1.02-3.09Zm1.539.172a4.009,4.009,0,0,0,.566,2.219,2.046,2.046,0,0,0,3.355,0,3.988,3.988,0,0,0,.57-2.219V154.7a3.976,3.976,0,0,0-.574-2.211,1.882,1.882,0,0,0-1.684-.883,1.856,1.856,0,0,0-1.668.883,4.018,4.018,0,0,0-.566,2.211Zm9.289-4.32.109,1.258a3.069,3.069,0,0,1,1.059-1.043,2.825,2.825,0,0,1,1.449-.371,2.759,2.759,0,0,1,2.117.8,3.515,3.515,0,0,1,.75,2.473V159H63.258v-5.3a2.287,2.287,0,0,0-.441-1.586,1.768,1.768,0,0,0-1.348-.469,2.386,2.386,0,0,0-1.207.285,2.072,2.072,0,0,0-.785.8V159H57.938v-8.453Zm18.281,2.023H71.078v-1.281h6.516Zm0,3.25H71.078v-1.281h6.516ZM89.188,159q-.078-.383-.121-.676a4.96,4.96,0,0,1-.051-.59,3.589,3.589,0,0,1-1.121,1.02,2.867,2.867,0,0,1-1.488.41,2.763,2.763,0,0,1-2.012-.676,2.486,2.486,0,0,1-.691-1.863,2.183,2.183,0,0,1,.98-1.895,4.579,4.579,0,0,1,2.66-.684h1.672v-.836a1.551,1.551,0,0,0-.453-1.176,1.779,1.779,0,0,0-1.281-.434,1.859,1.859,0,0,0-1.211.375,1.125,1.125,0,0,0-.461.9l-1.461.016-.016-.047A2.023,2.023,0,0,1,85,151.156a3.578,3.578,0,0,1,2.371-.766,3.49,3.49,0,0,1,2.313.73,2.588,2.588,0,0,1,.875,2.105v4.07a7.923,7.923,0,0,0,.047.875,4.5,4.5,0,0,0,.172.828Zm-2.555-1.125a2.739,2.739,0,0,0,1.508-.43,2.042,2.042,0,0,0,.875-.984v-1.375H87.289a2.24,2.24,0,0,0-1.488.469,1.4,1.4,0,0,0-.559,1.1,1.159,1.159,0,0,0,.352.891A1.472,1.472,0,0,0,86.633,157.875Zm9.516.086a1.81,1.81,0,0,0,1.242-.473,1.494,1.494,0,0,0,.531-1.16h1.391l.023.047a2.428,2.428,0,0,1-.937,1.941,3.582,3.582,0,0,1-5-.363,4.674,4.674,0,0,1-.969-3.016v-.328a4.654,4.654,0,0,1,.973-3,3.317,3.317,0,0,1,2.746-1.215,3.189,3.189,0,0,1,2.316.875,2.775,2.775,0,0,1,.871,2.148l-.016.047h-1.4a1.865,1.865,0,0,0-.5-1.316,1.658,1.658,0,0,0-1.27-.543,1.777,1.777,0,0,0-1.652.879,4.114,4.114,0,0,0-.52,2.129v.328a4.192,4.192,0,0,0,.512,2.148A1.776,1.776,0,0,0,96.148,157.961Zm8.375,0a1.81,1.81,0,0,0,1.242-.473,1.494,1.494,0,0,0,.531-1.16h1.391l.023.047a2.428,2.428,0,0,1-.937,1.941,3.582,3.582,0,0,1-5-.363,4.674,4.674,0,0,1-.969-3.016v-.328a4.654,4.654,0,0,1,.973-3,3.317,3.317,0,0,1,2.746-1.215,3.189,3.189,0,0,1,2.316.875,2.775,2.775,0,0,1,.871,2.148l-.016.047h-1.4a1.865,1.865,0,0,0-.5-1.316,1.658,1.658,0,0,0-1.27-.543,1.777,1.777,0,0,0-1.652.879,4.114,4.114,0,0,0-.52,2.129v.328a4.192,4.192,0,0,0,.512,2.148A1.776,1.776,0,0,0,104.523,157.961Zm10.383-.211a2.863,2.863,0,0,1-1.023,1.047,2.8,2.8,0,0,1-1.445.367,2.716,2.716,0,0,1-2.156-.883,4.1,4.1,0,0,1-.773-2.75v-4.984h1.539v5a3.147,3.147,0,0,0,.4,1.859,1.481,1.481,0,0,0,1.242.508,2.531,2.531,0,0,0,1.355-.332,2.077,2.077,0,0,0,.809-.941v-6.094h1.539V159h-1.383Zm7.727-5.844-.789-.047a1.762,1.762,0,0,0-1.027.289,1.854,1.854,0,0,0-.645.813V159h-1.539v-8.453h1.375l.148,1.234a2.934,2.934,0,0,1,.887-1.023,2.073,2.073,0,0,1,1.215-.367,1.9,1.9,0,0,1,.328.027,2.177,2.177,0,0,1,.258.059Zm6.8,7.094q-.078-.383-.121-.676a4.96,4.96,0,0,1-.051-.59,3.588,3.588,0,0,1-1.121,1.02,2.867,2.867,0,0,1-1.488.41,2.763,2.763,0,0,1-2.012-.676,2.486,2.486,0,0,1-.691-1.863,2.183,2.183,0,0,1,.98-1.895,4.579,4.579,0,0,1,2.66-.684h1.672v-.836a1.551,1.551,0,0,0-.453-1.176,1.779,1.779,0,0,0-1.281-.434,1.859,1.859,0,0,0-1.211.375,1.125,1.125,0,0,0-.461.9l-1.461.016-.016-.047a2.023,2.023,0,0,1,.863-1.687,3.578,3.578,0,0,1,2.371-.766,3.49,3.49,0,0,1,2.313.73,2.588,2.588,0,0,1,.875,2.105v4.07a7.923,7.923,0,0,0,.047.875,4.5,4.5,0,0,0,.172.828Zm-2.555-1.125a2.739,2.739,0,0,0,1.508-.43,2.042,2.042,0,0,0,.875-.984v-1.375h-1.727a2.24,2.24,0,0,0-1.488.469,1.4,1.4,0,0,0-.559,1.1,1.159,1.159,0,0,0,.352.891A1.472,1.472,0,0,0,126.875,157.875Zm9.516.086a1.81,1.81,0,0,0,1.242-.473,1.494,1.494,0,0,0,.531-1.16h1.391l.023.047a2.428,2.428,0,0,1-.937,1.941,3.582,3.582,0,0,1-5-.363,4.674,4.674,0,0,1-.969-3.016v-.328a4.654,4.654,0,0,1,.973-3,3.317,3.317,0,0,1,2.746-1.215,3.189,3.189,0,0,1,2.316.875,2.775,2.775,0,0,1,.871,2.148l-.016.047h-1.4a1.865,1.865,0,0,0-.5-1.316,1.658,1.658,0,0,0-1.27-.543,1.777,1.777,0,0,0-1.652.879,4.114,4.114,0,0,0-.52,2.129v.328a4.192,4.192,0,0,0,.512,2.148A1.776,1.776,0,0,0,136.391,157.961Zm7.6-2.094.273,1.063h.047l2.078-6.383H148.1l-3.555,9.75a4.383,4.383,0,0,1-.918,1.484,2.113,2.113,0,0,1-1.613.633,3.364,3.364,0,0,1-.477-.043q-.289-.043-.445-.082l.156-1.211a2.064,2.064,0,0,1,.277.016q.324.023.41.023a.95.95,0,0,0,.8-.437,4.543,4.543,0,0,0,.523-.969l.367-.883-3.141-8.281h1.719Zm11.586,4.336h-7.211V159h7.211Zm6.063-3.477a1.026,1.026,0,0,0-.387-.828,3.732,3.732,0,0,0-1.465-.562,6.146,6.146,0,0,1-2.293-.9,1.814,1.814,0,0,1-.8-1.547,2.229,2.229,0,0,1,.879-1.766,3.879,3.879,0,0,1,4.605.047,2.239,2.239,0,0,1,.852,1.82l-.016.047h-1.469a1.331,1.331,0,0,0-.48-.992,1.717,1.717,0,0,0-1.215-.445,1.751,1.751,0,0,0-1.215.367,1.146,1.146,0,0,0-.4.875.927.927,0,0,0,.348.773,3.848,3.848,0,0,0,1.434.5,6.058,6.058,0,0,1,2.359.93,1.872,1.872,0,0,1,.8,1.57,2.226,2.226,0,0,1-.91,1.836,3.754,3.754,0,0,1-2.379.711,3.715,3.715,0,0,1-2.547-.82,2.341,2.341,0,0,1-.883-1.914l.016-.047h1.469a1.424,1.424,0,0,0,.609,1.2,2.358,2.358,0,0,0,1.336.379,2.1,2.1,0,0,0,1.285-.348A1.063,1.063,0,0,0,161.641,156.727Zm6.813,1.234a1.81,1.81,0,0,0,1.242-.473,1.494,1.494,0,0,0,.531-1.16h1.391l.023.047a2.428,2.428,0,0,1-.937,1.941,3.582,3.582,0,0,1-5-.363,4.674,4.674,0,0,1-.969-3.016v-.328a4.654,4.654,0,0,1,.973-3,3.317,3.317,0,0,1,2.746-1.215,3.189,3.189,0,0,1,2.316.875,2.775,2.775,0,0,1,.871,2.148l-.016.047h-1.4a1.865,1.865,0,0,0-.5-1.316,1.658,1.658,0,0,0-1.27-.543,1.777,1.777,0,0,0-1.652.879,4.114,4.114,0,0,0-.52,2.129v.328a4.192,4.192,0,0,0,.512,2.148A1.776,1.776,0,0,0,168.453,157.961Zm4.656-3.266a4.654,4.654,0,0,1,1.016-3.09,3.764,3.764,0,0,1,5.535,0,4.639,4.639,0,0,1,1.02,3.094v.172a4.631,4.631,0,0,1-1.016,3.094,3.781,3.781,0,0,1-5.535,0,4.623,4.623,0,0,1-1.02-3.09Zm1.539.172a4.009,4.009,0,0,0,.566,2.219,2.046,2.046,0,0,0,3.355,0,3.988,3.988,0,0,0,.57-2.219V154.7a3.976,3.976,0,0,0-.574-2.211,1.882,1.882,0,0,0-1.684-.883,1.856,1.856,0,0,0-1.668.883,4.018,4.018,0,0,0-.566,2.211Zm11.914-2.961-.789-.047a1.762,1.762,0,0,0-1.027.289,1.855,1.855,0,0,0-.645.813V159h-1.539v-8.453h1.375l.148,1.234a2.934,2.934,0,0,1,.887-1.023,2.073,2.073,0,0,1,1.215-.367,1.9,1.9,0,0,1,.328.027,2.176,2.176,0,0,1,.258.059Zm4.953,7.258a3.576,3.576,0,0,1-2.84-1.164,4.48,4.48,0,0,1-1.02-3.062v-.344a4.386,4.386,0,0,1,1.051-3.012,3.3,3.3,0,0,1,2.566-1.191,3.067,3.067,0,0,1,2.543,1.055,4.345,4.345,0,0,1,.848,2.8v.813h-5.406l-.023.039a3.494,3.494,0,0,0,.563,2.066,1.965,1.965,0,0,0,1.719.793,3.872,3.872,0,0,0,1.371-.223,3.06,3.06,0,0,0,1.012-.613l.6,1a3.7,3.7,0,0,1-1.2.738A4.762,4.762,0,0,1,191.516,159.164Zm-.242-7.562a1.673,1.673,0,0,0-1.332.621,2.938,2.938,0,0,0-.645,1.59l.016.039h3.813v-.125a2.462,2.462,0,0,0-.453-1.523A1.638,1.638,0,0,0,191.273,151.6Zm5.031,2.781a10.458,10.458,0,0,1,1.242-5.258,7.19,7.19,0,0,1,2.609-2.906l.047.008.3.906a6.665,6.665,0,0,0-1.863,2.68,11.54,11.54,0,0,0-.793,4.555v.1a11.591,11.591,0,0,0,.789,4.555,7.25,7.25,0,0,0,1.867,2.75l-.3.844h-.047a7.193,7.193,0,0,1-2.609-2.9,10.452,10.452,0,0,1-1.242-5.262Zm7.977,1.484.273,1.063h.047l2.078-6.383h1.711l-3.555,9.75a4.383,4.383,0,0,1-.918,1.484,2.113,2.113,0,0,1-1.613.633,3.364,3.364,0,0,1-.477-.043q-.289-.043-.445-.082l.156-1.211a2.064,2.064,0,0,1,.277.016q.324.023.41.023a.95.95,0,0,0,.8-.437,4.543,4.543,0,0,0,.523-.969l.367-.883-3.141-8.281H202.5Zm11.586,4.336h-7.211V159h7.211Zm3.289-11.7v2.039h1.6v1.141h-1.6v5.133a1.149,1.149,0,0,0,.246.836.89.89,0,0,0,.652.242,1.429,1.429,0,0,0,.3-.035,2.2,2.2,0,0,0,.273-.074l.211,1.055a1.36,1.36,0,0,1-.508.23,2.562,2.562,0,0,1-.664.09,1.993,1.993,0,0,1-1.492-.566,2.46,2.46,0,0,1-.555-1.777v-5.133h-1.344v-1.141h1.344v-2.039Zm6.75,10.656a3.576,3.576,0,0,1-2.84-1.164,4.48,4.48,0,0,1-1.02-3.062v-.344a4.386,4.386,0,0,1,1.051-3.012,3.3,3.3,0,0,1,2.566-1.191,3.067,3.067,0,0,1,2.543,1.055,4.345,4.345,0,0,1,.848,2.8v.813h-5.406l-.023.039a3.494,3.494,0,0,0,.563,2.066,1.965,1.965,0,0,0,1.719.793,3.872,3.872,0,0,0,1.371-.223,3.06,3.06,0,0,0,1.012-.613l.6,1a3.7,3.7,0,0,1-1.2.738A4.762,4.762,0,0,1,225.906,159.164Zm-.242-7.562a1.673,1.673,0,0,0-1.332.621,2.938,2.938,0,0,0-.645,1.59l.016.039h3.813v-.125a2.462,2.462,0,0,0-.453-1.523A1.638,1.638,0,0,0,225.664,151.6Zm10.031,5.125a1.026,1.026,0,0,0-.387-.828,3.732,3.732,0,0,0-1.465-.562,6.146,6.146,0,0,1-2.293-.9,1.814,1.814,0,0,1-.8-1.547,2.229,2.229,0,0,1,.879-1.766,3.879,3.879,0,0,1,4.605.047,2.239,2.239,0,0,1,.852,1.82l-.016.047H235.6a1.331,1.331,0,0,0-.48-.992,1.717,1.717,0,0,0-1.215-.445,1.751,1.751,0,0,0-1.215.367,1.146,1.146,0,0,0-.4.875.927.927,0,0,0,.348.773,3.848,3.848,0,0,0,1.434.5,6.058,6.058,0,0,1,2.359.93,1.872,1.872,0,0,1,.8,1.57,2.226,2.226,0,0,1-.91,1.836,3.754,3.754,0,0,1-2.379.711,3.715,3.715,0,0,1-2.547-.82,2.341,2.341,0,0,1-.883-1.914l.016-.047H232a1.424,1.424,0,0,0,.609,1.2,2.358,2.358,0,0,0,1.336.379,2.1,2.1,0,0,0,1.285-.348A1.063,1.063,0,0,0,235.7,156.727Zm5.594-8.219v2.039h1.6v1.141h-1.6v5.133a1.149,1.149,0,0,0,.246.836.89.89,0,0,0,.652.242,1.429,1.429,0,0,0,.3-.035,2.2,2.2,0,0,0,.273-.074l.211,1.055a1.36,1.36,0,0,1-.508.23,2.562,2.562,0,0,1-.664.09,1.993,1.993,0,0,1-1.492-.566,2.46,2.46,0,0,1-.555-1.777v-5.133h-1.344v-1.141h1.344v-2.039Zm4.594,10.117-1.172,2.391H243.8l.547-2.469v-1.273h1.539Zm12.992-3.531a4.659,4.659,0,0,1-.875,2.949,2.893,2.893,0,0,1-2.414,1.121,3.354,3.354,0,0,1-1.371-.262,2.622,2.622,0,0,1-1-.785v4.133h-1.539v-11.7h1.18l.242,1.094a2.792,2.792,0,0,1,1.031-.93,3.078,3.078,0,0,1,1.438-.32A2.809,2.809,0,0,1,258,151.637a5.638,5.638,0,0,1,.871,3.293Zm-1.539-.164a4.467,4.467,0,0,0-.566-2.363,1.835,1.835,0,0,0-1.668-.926,2.054,2.054,0,0,0-1.133.3,2.25,2.25,0,0,0-.758.824v4.086a2.186,2.186,0,0,0,.758.816,2.126,2.126,0,0,0,1.148.293,1.894,1.894,0,0,0,1.656-.8,3.516,3.516,0,0,0,.563-2.066Zm7.43-3.023-.789-.047a1.762,1.762,0,0,0-1.027.289,1.854,1.854,0,0,0-.645.813V159h-1.539v-8.453h1.375l.148,1.234a2.934,2.934,0,0,1,.887-1.023,2.073,2.073,0,0,1,1.215-.367,1.9,1.9,0,0,1,.328.027,2.178,2.178,0,0,1,.258.059Zm4.953,7.258a3.576,3.576,0,0,1-2.84-1.164,4.48,4.48,0,0,1-1.02-3.062v-.344a4.386,4.386,0,0,1,1.051-3.012,3.3,3.3,0,0,1,2.566-1.191,3.067,3.067,0,0,1,2.543,1.055,4.345,4.345,0,0,1,.848,2.8v.813h-5.406l-.023.039a3.494,3.494,0,0,0,.563,2.066,1.965,1.965,0,0,0,1.719.793,3.872,3.872,0,0,0,1.371-.223,3.061,3.061,0,0,0,1.012-.613l.6,1a3.7,3.7,0,0,1-1.2.738A4.762,4.762,0,0,1,269.719,159.164Zm-.242-7.562a1.673,1.673,0,0,0-1.332.621,2.938,2.938,0,0,0-.645,1.59l.016.039h3.813v-.125a2.462,2.462,0,0,0-.453-1.523A1.638,1.638,0,0,0,269.477,151.6Zm4.766,3.328a5.641,5.641,0,0,1,.871-3.289,2.807,2.807,0,0,1,2.441-1.25,3.027,3.027,0,0,1,1.316.273,2.7,2.7,0,0,1,.98.8v-4.648h1.539V159h-1.18l-.234-1.07a2.743,2.743,0,0,1-1.023.922,3.058,3.058,0,0,1-1.414.313,2.9,2.9,0,0,1-2.422-1.121,4.659,4.659,0,0,1-.875-2.949Zm1.539.164a3.588,3.588,0,0,0,.523,2.051,1.828,1.828,0,0,0,1.625.77,2.039,2.039,0,0,0,1.156-.312,2.333,2.333,0,0,0,.766-.875v-3.945a2.37,2.37,0,0,0-.77-.832,2.033,2.033,0,0,0-1.137-.309,1.759,1.759,0,0,0-1.637.914,4.718,4.718,0,0,0-.527,2.375Zm9.57,3.906h-1.539v-8.453h1.539Zm0-10.617h-1.539v-1.57h1.539Zm5.727,9.578a1.81,1.81,0,0,0,1.242-.473,1.494,1.494,0,0,0,.531-1.16h1.391l.023.047a2.427,2.427,0,0,1-.937,1.941,3.582,3.582,0,0,1-5-.363,4.674,4.674,0,0,1-.969-3.016v-.328a4.654,4.654,0,0,1,.973-3,3.317,3.317,0,0,1,2.746-1.215,3.189,3.189,0,0,1,2.316.875,2.775,2.775,0,0,1,.871,2.148l-.016.047h-1.4a1.865,1.865,0,0,0-.5-1.316,1.658,1.658,0,0,0-1.27-.543,1.777,1.777,0,0,0-1.652.879,4.114,4.114,0,0,0-.52,2.129v.328a4.192,4.192,0,0,0,.512,2.148A1.776,1.776,0,0,0,291.078,157.961Zm8.375,0a1.81,1.81,0,0,0,1.242-.473,1.494,1.494,0,0,0,.531-1.16h1.391l.023.047a2.427,2.427,0,0,1-.937,1.941,3.582,3.582,0,0,1-5-.363,4.674,4.674,0,0,1-.969-3.016v-.328a4.654,4.654,0,0,1,.973-3,3.317,3.317,0,0,1,2.746-1.215,3.189,3.189,0,0,1,2.316.875,2.775,2.775,0,0,1,.871,2.148l-.016.047h-1.4a1.865,1.865,0,0,0-.5-1.316,1.658,1.658,0,0,0-1.27-.543,1.777,1.777,0,0,0-1.652.879,4.114,4.114,0,0,0-.52,2.129v.328a4.192,4.192,0,0,0,.512,2.148A1.776,1.776,0,0,0,299.453,157.961Zm6.68,1.039h-1.539v-8.453h1.539Zm0-10.617h-1.539v-1.57h1.539Zm2.008,6.313a4.654,4.654,0,0,1,1.016-3.09,3.764,3.764,0,0,1,5.535,0,4.639,4.639,0,0,1,1.02,3.094v.172a4.631,4.631,0,0,1-1.016,3.094,3.781,3.781,0,0,1-5.535,0,4.623,4.623,0,0,1-1.02-3.09Zm1.539.172a4.009,4.009,0,0,0,.566,2.219,2.046,2.046,0,0,0,3.355,0,3.988,3.988,0,0,0,.57-2.219V154.7a3.976,3.976,0,0,0-.574-2.211,1.882,1.882,0,0,0-1.684-.883,1.856,1.856,0,0,0-1.668.883,4.018,4.018,0,0,0-.566,2.211Zm9.289-4.32.109,1.258a3.069,3.069,0,0,1,1.059-1.043,2.825,2.825,0,0,1,1.449-.371,2.759,2.759,0,0,1,2.117.8,3.515,3.515,0,0,1,.75,2.473V159h-1.539v-5.3a2.287,2.287,0,0,0-.441-1.586,1.768,1.768,0,0,0-1.348-.469,2.386,2.386,0,0,0-1.207.285,2.073,2.073,0,0,0-.785.8V159h-1.539v-8.453Zm11.219,8.617a3.576,3.576,0,0,1-2.84-1.164,4.48,4.48,0,0,1-1.02-3.062v-.344a4.386,4.386,0,0,1,1.051-3.012,3.3,3.3,0,0,1,2.566-1.191,3.067,3.067,0,0,1,2.543,1.055,4.345,4.345,0,0,1,.848,2.8v.813H327.93l-.023.039a3.494,3.494,0,0,0,.563,2.066,1.965,1.965,0,0,0,1.719.793,3.872,3.872,0,0,0,1.371-.223,3.061,3.061,0,0,0,1.012-.613l.6,1a3.7,3.7,0,0,1-1.2.738A4.762,4.762,0,0,1,330.188,159.164Zm-.242-7.562a1.673,1.673,0,0,0-1.332.621,2.938,2.938,0,0,0-.645,1.59l.016.039H331.8v-.125a2.462,2.462,0,0,0-.453-1.523A1.638,1.638,0,0,0,329.945,151.6Zm10.031,5.125a1.026,1.026,0,0,0-.387-.828,3.732,3.732,0,0,0-1.465-.562,6.146,6.146,0,0,1-2.293-.9,1.814,1.814,0,0,1-.8-1.547,2.229,2.229,0,0,1,.879-1.766,3.879,3.879,0,0,1,4.605.047,2.239,2.239,0,0,1,.852,1.82l-.016.047h-1.469a1.331,1.331,0,0,0-.48-.992,1.717,1.717,0,0,0-1.215-.445,1.751,1.751,0,0,0-1.215.367,1.146,1.146,0,0,0-.4.875.927.927,0,0,0,.348.773,3.848,3.848,0,0,0,1.434.5,6.058,6.058,0,0,1,2.359.93,1.872,1.872,0,0,1,.8,1.57,2.226,2.226,0,0,1-.91,1.836,3.754,3.754,0,0,1-2.379.711,3.715,3.715,0,0,1-2.547-.82,2.341,2.341,0,0,1-.883-1.914l.016-.047h1.469a1.424,1.424,0,0,0,.609,1.2,2.358,2.358,0,0,0,1.336.379,2.1,2.1,0,0,0,1.285-.348A1.063,1.063,0,0,0,339.977,156.727Zm6.578-2.273a10.426,10.426,0,0,1-1.246,5.262,7.244,7.244,0,0,1-2.605,2.9h-.047l-.3-.844a6.653,6.653,0,0,0,1.855-2.7,11.749,11.749,0,0,0,.8-4.605v-.1a11.354,11.354,0,0,0-.824-4.559,7.532,7.532,0,0,0-1.832-2.746l.3-.844h.047a7.241,7.241,0,0,1,2.605,2.906,10.431,10.431,0,0,1,1.246,5.258ZM8.32,179.094a4.659,4.659,0,0,1-.875,2.949,2.893,2.893,0,0,1-2.414,1.121A3.354,3.354,0,0,1,3.66,182.9a2.622,2.622,0,0,1-1-.785v4.133H1.117v-11.7H2.3l.242,1.094a2.792,2.792,0,0,1,1.031-.93,3.078,3.078,0,0,1,1.438-.32,2.809,2.809,0,0,1,2.441,1.246,5.638,5.638,0,0,1,.871,3.293Zm-1.539-.164a4.467,4.467,0,0,0-.566-2.363,1.835,1.835,0,0,0-1.668-.926,2.054,2.054,0,0,0-1.133.3,2.25,2.25,0,0,0-.758.824v4.086a2.186,2.186,0,0,0,.758.816,2.126,2.126,0,0,0,1.148.293,1.894,1.894,0,0,0,1.656-.8,3.516,3.516,0,0,0,.563-2.066Zm7.43-3.023-.789-.047a1.762,1.762,0,0,0-1.027.289,1.854,1.854,0,0,0-.645.813V183H10.211v-8.453h1.375l.148,1.234a2.934,2.934,0,0,1,.887-1.023,2.073,2.073,0,0,1,1.215-.367,1.9,1.9,0,0,1,.328.027,2.177,2.177,0,0,1,.258.059ZM17.477,183H15.938v-8.453h1.539Zm0-10.617H15.938v-1.57h1.539Zm3.742,2.164.109,1.258a3.069,3.069,0,0,1,1.059-1.043,2.825,2.825,0,0,1,1.449-.371,2.759,2.759,0,0,1,2.117.8,3.515,3.515,0,0,1,.75,2.473V183H25.164v-5.3a2.287,2.287,0,0,0-.441-1.586,1.768,1.768,0,0,0-1.348-.469,2.386,2.386,0,0,0-1.207.285,2.072,2.072,0,0,0-.785.8V183H19.844v-8.453Zm9.859-2.039v2.039h1.6v1.141h-1.6v5.133a1.149,1.149,0,0,0,.246.836.89.89,0,0,0,.652.242,1.429,1.429,0,0,0,.3-.035,2.2,2.2,0,0,0,.273-.074l.211,1.055a1.36,1.36,0,0,1-.508.23,2.563,2.563,0,0,1-.664.09,1.993,1.993,0,0,1-1.492-.566,2.46,2.46,0,0,1-.555-1.777v-5.133H28.2v-1.141h1.344v-2.039Zm3.164,5.875a10.458,10.458,0,0,1,1.242-5.258,7.19,7.19,0,0,1,2.609-2.906l.047.008.3.906a6.665,6.665,0,0,0-1.863,2.68,11.54,11.54,0,0,0-.793,4.555v.1a11.591,11.591,0,0,0,.789,4.555,7.25,7.25,0,0,0,1.867,2.75l-.3.844h-.047a7.193,7.193,0,0,1-2.609-2.9,10.452,10.452,0,0,1-1.242-5.262ZM40.273,183v-7.312h-1.32v-1.141h1.32v-1.07a2.9,2.9,0,0,1,.707-2.09,2.6,2.6,0,0,1,1.973-.738,3.4,3.4,0,0,1,.535.043q.27.043.6.121l-.187,1.172q-.141-.031-.34-.055a3.579,3.579,0,0,0-.418-.023,1.215,1.215,0,0,0-1,.4,1.809,1.809,0,0,0-.328,1.168v1.07h1.531v1.141H41.813V183Zm8.578-9.266-.789,1.953H47.3v-4.062h1.547Zm-2.414,0-.789,1.953h-.758l.008-1.875v-2.187h1.539Zm6.063,4.7V183H50.961V171.625h4.352a4.009,4.009,0,0,1,2.832.938,3.527,3.527,0,0,1,0,4.945,4.031,4.031,0,0,1-2.832.93Zm0-1.2h2.813a2.064,2.064,0,0,0,2.3-2.187,2.26,2.26,0,0,0-.574-1.578,2.21,2.21,0,0,0-1.723-.633H52.5Zm12.422-1.328-.789-.047a1.762,1.762,0,0,0-1.027.289,1.855,1.855,0,0,0-.645.813V183H60.922v-8.453H62.3l.148,1.234a2.934,2.934,0,0,1,.887-1.023,2.073,2.073,0,0,1,1.215-.367,1.9,1.9,0,0,1,.328.027,2.177,2.177,0,0,1,.258.059Zm4.953,7.258A3.576,3.576,0,0,1,67.035,182a4.48,4.48,0,0,1-1.02-3.062v-.344a4.386,4.386,0,0,1,1.051-3.012,3.3,3.3,0,0,1,2.566-1.191,3.067,3.067,0,0,1,2.543,1.055,4.345,4.345,0,0,1,.848,2.8v.813H67.617l-.023.039a3.494,3.494,0,0,0,.563,2.066,1.965,1.965,0,0,0,1.719.793,3.872,3.872,0,0,0,1.371-.223,3.061,3.061,0,0,0,1.012-.613l.6,1a3.7,3.7,0,0,1-1.2.738A4.762,4.762,0,0,1,69.875,183.164Zm-.242-7.562a1.673,1.673,0,0,0-1.332.621,2.938,2.938,0,0,0-.645,1.59l.016.039h3.813v-.125a2.462,2.462,0,0,0-.453-1.523A1.638,1.638,0,0,0,69.633,175.6Zm8.477,6.359a1.81,1.81,0,0,0,1.242-.473,1.494,1.494,0,0,0,.531-1.16h1.391l.023.047a2.428,2.428,0,0,1-.937,1.941,3.582,3.582,0,0,1-5-.363,4.674,4.674,0,0,1-.969-3.016v-.328a4.654,4.654,0,0,1,.973-3,3.317,3.317,0,0,1,2.746-1.215,3.189,3.189,0,0,1,2.316.875,2.775,2.775,0,0,1,.871,2.148l-.016.047h-1.4a1.865,1.865,0,0,0-.5-1.316,1.658,1.658,0,0,0-1.27-.543,1.777,1.777,0,0,0-1.652.879,4.114,4.114,0,0,0-.52,2.129v.328a4.192,4.192,0,0,0,.512,2.148A1.776,1.776,0,0,0,78.109,181.961ZM84.789,183H83.25v-8.453h1.539Zm0-10.617H83.25v-1.57h1.539Zm7.281,8.344a1.026,1.026,0,0,0-.387-.828,3.732,3.732,0,0,0-1.465-.562,6.146,6.146,0,0,1-2.293-.9,1.814,1.814,0,0,1-.8-1.547A2.229,2.229,0,0,1,88,175.125a3.879,3.879,0,0,1,4.605.047,2.239,2.239,0,0,1,.852,1.82l-.016.047H91.977a1.331,1.331,0,0,0-.48-.992,1.717,1.717,0,0,0-1.215-.445,1.751,1.751,0,0,0-1.215.367,1.146,1.146,0,0,0-.4.875.927.927,0,0,0,.348.773,3.848,3.848,0,0,0,1.434.5,6.058,6.058,0,0,1,2.359.93,1.872,1.872,0,0,1,.8,1.57,2.226,2.226,0,0,1-.91,1.836,3.754,3.754,0,0,1-2.379.711,3.715,3.715,0,0,1-2.547-.82,2.341,2.341,0,0,1-.883-1.914l.016-.047h1.469a1.424,1.424,0,0,0,.609,1.2,2.358,2.358,0,0,0,1.336.379,2.1,2.1,0,0,0,1.285-.348A1.063,1.063,0,0,0,92.07,180.727ZM97.188,183H95.648v-8.453h1.539Zm0-10.617H95.648v-1.57h1.539ZM99.2,178.7a4.654,4.654,0,0,1,1.016-3.09,3.764,3.764,0,0,1,5.535,0,4.639,4.639,0,0,1,1.02,3.094v.172a4.631,4.631,0,0,1-1.016,3.094,3.781,3.781,0,0,1-5.535,0,4.623,4.623,0,0,1-1.02-3.09Zm1.539.172a4.009,4.009,0,0,0,.566,2.219,2.046,2.046,0,0,0,3.355,0,3.988,3.988,0,0,0,.57-2.219V178.7a3.976,3.976,0,0,0-.574-2.211,1.882,1.882,0,0,0-1.684-.883,1.856,1.856,0,0,0-1.668.883,4.018,4.018,0,0,0-.566,2.211Zm2.992-7.906h1.8l.016.047-2.1,2.031h-1.156Zm6.3,3.586.109,1.258a3.069,3.069,0,0,1,1.059-1.043,2.825,2.825,0,0,1,1.449-.371,2.759,2.759,0,0,1,2.117.8,3.515,3.515,0,0,1,.75,2.473V183h-1.539v-5.3a2.287,2.287,0,0,0-.441-1.586,1.768,1.768,0,0,0-1.348-.469,2.386,2.386,0,0,0-1.207.285,2.073,2.073,0,0,0-.785.8V183h-1.539v-8.453Zm11.344,4.383a5.641,5.641,0,0,1,.871-3.289,2.807,2.807,0,0,1,2.441-1.25,3.027,3.027,0,0,1,1.316.273,2.7,2.7,0,0,1,.98.8v-4.648h1.539V183h-1.18l-.234-1.07a2.743,2.743,0,0,1-1.023.922,3.058,3.058,0,0,1-1.414.313,2.9,2.9,0,0,1-2.422-1.121,4.659,4.659,0,0,1-.875-2.949Zm1.539.164a3.588,3.588,0,0,0,.523,2.051,1.828,1.828,0,0,0,1.625.77,2.039,2.039,0,0,0,1.156-.312,2.334,2.334,0,0,0,.766-.875v-3.945a2.37,2.37,0,0,0-.77-.832,2.033,2.033,0,0,0-1.137-.309,1.759,1.759,0,0,0-1.637.914,4.718,4.718,0,0,0-.527,2.375Zm11.406,4.07a3.576,3.576,0,0,1-2.84-1.164,4.48,4.48,0,0,1-1.02-3.062v-.344a4.386,4.386,0,0,1,1.051-3.012,3.3,3.3,0,0,1,2.566-1.191,3.067,3.067,0,0,1,2.543,1.055,4.345,4.345,0,0,1,.848,2.8v.813h-5.406l-.023.039a3.494,3.494,0,0,0,.563,2.066,1.965,1.965,0,0,0,1.719.793,3.872,3.872,0,0,0,1.371-.223,3.06,3.06,0,0,0,1.012-.613l.6,1a3.7,3.7,0,0,1-1.2.738A4.762,4.762,0,0,1,134.313,183.164Zm-.242-7.562a1.673,1.673,0,0,0-1.332.621,2.938,2.938,0,0,0-.645,1.59l.016.039h3.813v-.125a2.462,2.462,0,0,0-.453-1.523A1.638,1.638,0,0,0,134.07,175.6Zm6.781,7.4h-1.539V170.813h1.539Zm7.719-8.453.109,1.109a2.871,2.871,0,0,1,1.051-.934,3.157,3.157,0,0,1,1.48-.332,2.615,2.615,0,0,1,1.449.391,2.363,2.363,0,0,1,.91,1.172,3.162,3.162,0,0,1,1.059-1.145,2.769,2.769,0,0,1,1.527-.418,2.531,2.531,0,0,1,2.039.887,4.051,4.051,0,0,1,.75,2.668V183h-1.539v-5.07a2.81,2.81,0,0,0-.43-1.77,1.567,1.567,0,0,0-1.281-.52,1.631,1.631,0,0,0-1.277.547,2.381,2.381,0,0,0-.574,1.383V183H152.3v-5.07a2.772,2.772,0,0,0-.441-1.738,1.532,1.532,0,0,0-1.27-.551,2.115,2.115,0,0,0-1.156.289,1.867,1.867,0,0,0-.7.813V183H147.2v-8.453Zm12.25,4.148a4.654,4.654,0,0,1,1.016-3.09,3.764,3.764,0,0,1,5.535,0,4.639,4.639,0,0,1,1.02,3.094v.172a4.631,4.631,0,0,1-1.016,3.094,3.781,3.781,0,0,1-5.535,0,4.623,4.623,0,0,1-1.02-3.09Zm1.539.172a4.009,4.009,0,0,0,.566,2.219,2.046,2.046,0,0,0,3.355,0,3.988,3.988,0,0,0,.57-2.219V178.7a3.976,3.976,0,0,0-.574-2.211,1.882,1.882,0,0,0-1.684-.883,1.856,1.856,0,0,0-1.668.883,4.018,4.018,0,0,0-.566,2.211Zm7.563.063a5.641,5.641,0,0,1,.871-3.289,2.807,2.807,0,0,1,2.441-1.25,3.027,3.027,0,0,1,1.316.273,2.7,2.7,0,0,1,.98.8v-4.648h1.539V183h-1.18l-.234-1.07a2.743,2.743,0,0,1-1.023.922,3.058,3.058,0,0,1-1.414.313,2.9,2.9,0,0,1-2.422-1.121,4.659,4.659,0,0,1-.875-2.949Zm1.539.164a3.588,3.588,0,0,0,.523,2.051,1.828,1.828,0,0,0,1.625.77,2.039,2.039,0,0,0,1.156-.312,2.334,2.334,0,0,0,.766-.875v-3.945a2.37,2.37,0,0,0-.77-.832,2.033,2.033,0,0,0-1.137-.309,1.759,1.759,0,0,0-1.637.914,4.718,4.718,0,0,0-.527,2.375Zm11.406,4.07a3.576,3.576,0,0,1-2.84-1.164,4.48,4.48,0,0,1-1.02-3.062v-.344a4.386,4.386,0,0,1,1.051-3.012,3.3,3.3,0,0,1,2.566-1.191,3.067,3.067,0,0,1,2.543,1.055,4.345,4.345,0,0,1,.848,2.8v.813h-5.406l-.023.039a3.494,3.494,0,0,0,.563,2.066,1.965,1.965,0,0,0,1.719.793,3.872,3.872,0,0,0,1.371-.223,3.06,3.06,0,0,0,1.012-.613l.6,1a3.7,3.7,0,0,1-1.2.738A4.762,4.762,0,0,1,182.867,183.164Zm-.242-7.562a1.673,1.673,0,0,0-1.332.621,2.938,2.938,0,0,0-.645,1.59l.016.039h3.813v-.125a2.462,2.462,0,0,0-.453-1.523A1.638,1.638,0,0,0,182.625,175.6Zm6.781,7.4h-1.539V170.813h1.539Zm2.008-4.3a4.654,4.654,0,0,1,1.016-3.09,3.764,3.764,0,0,1,5.535,0,4.639,4.639,0,0,1,1.02,3.094v.172a4.631,4.631,0,0,1-1.016,3.094,3.781,3.781,0,0,1-5.535,0,4.623,4.623,0,0,1-1.02-3.09Zm1.539.172a4.009,4.009,0,0,0,.566,2.219,2.046,2.046,0,0,0,3.355,0,3.988,3.988,0,0,0,.57-2.219V178.7a3.976,3.976,0,0,0-.574-2.211,1.882,1.882,0,0,0-1.684-.883,1.856,1.856,0,0,0-1.668.883,4.018,4.018,0,0,0-.566,2.211ZM202.547,183h-1.539v-1.578h1.539Zm0-6.844h-1.539v-1.578h1.539Zm10.148,9.688a3.72,3.72,0,0,1-2.164-1.367,3.919,3.919,0,0,1-.641-2.266v-1.6a2.086,2.086,0,0,0-.4-1.363,1.5,1.5,0,0,0-1.23-.488v-1.148a1.514,1.514,0,0,0,1.23-.48,2.066,2.066,0,0,0,.4-1.363v-1.609a3.914,3.914,0,0,1,.641-2.27,3.729,3.729,0,0,1,2.164-1.363l.313.914a1.957,1.957,0,0,0-1.219.98,3.808,3.808,0,0,0-.359,1.738v1.609a3.035,3.035,0,0,1-.332,1.445,2.328,2.328,0,0,1-1,.977,2.368,2.368,0,0,1,1,.988,3.024,3.024,0,0,1,.332,1.434v1.6a3.758,3.758,0,0,0,.359,1.73,1.991,1.991,0,0,0,1.219.98Zm8.828-6.75a4.659,4.659,0,0,1-.875,2.949,2.893,2.893,0,0,1-2.414,1.121,3.354,3.354,0,0,1-1.371-.262,2.622,2.622,0,0,1-1-.785v4.133H214.32v-11.7h1.18l.242,1.094a2.792,2.792,0,0,1,1.031-.93,3.078,3.078,0,0,1,1.438-.32,2.809,2.809,0,0,1,2.441,1.246,5.637,5.637,0,0,1,.871,3.293Zm-1.539-.164a4.467,4.467,0,0,0-.566-2.363,1.835,1.835,0,0,0-1.668-.926,2.054,2.054,0,0,0-1.133.3,2.25,2.25,0,0,0-.758.824v4.086a2.186,2.186,0,0,0,.758.816,2.126,2.126,0,0,0,1.148.293,1.894,1.894,0,0,0,1.656-.8,3.516,3.516,0,0,0,.563-2.066Zm7.43-3.023-.789-.047a1.762,1.762,0,0,0-1.027.289,1.855,1.855,0,0,0-.645.813V183h-1.539v-8.453h1.375l.148,1.234a2.934,2.934,0,0,1,.887-1.023,2.073,2.073,0,0,1,1.215-.367,1.9,1.9,0,0,1,.328.027,2.176,2.176,0,0,1,.258.059Zm4.953,7.258a3.576,3.576,0,0,1-2.84-1.164,4.48,4.48,0,0,1-1.02-3.062v-.344a4.386,4.386,0,0,1,1.051-3.012,3.3,3.3,0,0,1,2.566-1.191,3.067,3.067,0,0,1,2.543,1.055,4.345,4.345,0,0,1,.848,2.8v.813h-5.406l-.023.039a3.494,3.494,0,0,0,.563,2.066,1.965,1.965,0,0,0,1.719.793,3.872,3.872,0,0,0,1.371-.223,3.06,3.06,0,0,0,1.012-.613l.6,1a3.7,3.7,0,0,1-1.2.738A4.762,4.762,0,0,1,232.367,183.164Zm-.242-7.562a1.673,1.673,0,0,0-1.332.621,2.938,2.938,0,0,0-.645,1.59l.016.039h3.813v-.125a2.462,2.462,0,0,0-.453-1.523A1.638,1.638,0,0,0,232.125,175.6Zm8.477,6.359a1.81,1.81,0,0,0,1.242-.473,1.494,1.494,0,0,0,.531-1.16h1.391l.023.047a2.428,2.428,0,0,1-.937,1.941,3.582,3.582,0,0,1-5-.363,4.674,4.674,0,0,1-.969-3.016v-.328a4.654,4.654,0,0,1,.973-3,3.317,3.317,0,0,1,2.746-1.215,3.189,3.189,0,0,1,2.316.875,2.775,2.775,0,0,1,.871,2.148l-.016.047h-1.4a1.865,1.865,0,0,0-.5-1.316,1.658,1.658,0,0,0-1.27-.543,1.777,1.777,0,0,0-1.652.879,4.114,4.114,0,0,0-.52,2.129v.328a4.192,4.192,0,0,0,.512,2.148A1.776,1.776,0,0,0,240.6,181.961Zm6.68,1.039h-1.539v-8.453h1.539Zm0-10.617h-1.539v-1.57h1.539Zm7.281,8.344a1.026,1.026,0,0,0-.387-.828,3.732,3.732,0,0,0-1.465-.562,6.146,6.146,0,0,1-2.293-.9,1.814,1.814,0,0,1-.8-1.547,2.229,2.229,0,0,1,.879-1.766,3.879,3.879,0,0,1,4.605.047,2.239,2.239,0,0,1,.852,1.82l-.016.047h-1.469a1.331,1.331,0,0,0-.48-.992,1.717,1.717,0,0,0-1.215-.445,1.751,1.751,0,0,0-1.215.367,1.146,1.146,0,0,0-.4.875.927.927,0,0,0,.348.773,3.848,3.848,0,0,0,1.434.5,6.058,6.058,0,0,1,2.359.93,1.872,1.872,0,0,1,.8,1.57,2.226,2.226,0,0,1-.91,1.836,3.754,3.754,0,0,1-2.379.711,3.715,3.715,0,0,1-2.547-.82,2.341,2.341,0,0,1-.883-1.914l.016-.047h1.469a1.424,1.424,0,0,0,.609,1.2,2.358,2.358,0,0,0,1.336.379,2.1,2.1,0,0,0,1.285-.348A1.063,1.063,0,0,0,254.563,180.727ZM259.68,183h-1.539v-8.453h1.539Zm0-10.617h-1.539v-1.57h1.539Zm2.008,6.313a4.654,4.654,0,0,1,1.016-3.09,3.764,3.764,0,0,1,5.535,0,4.639,4.639,0,0,1,1.02,3.094v.172a4.631,4.631,0,0,1-1.016,3.094,3.781,3.781,0,0,1-5.535,0,4.623,4.623,0,0,1-1.02-3.09Zm1.539.172a4.009,4.009,0,0,0,.566,2.219,2.046,2.046,0,0,0,3.355,0,3.988,3.988,0,0,0,.57-2.219V178.7a3.976,3.976,0,0,0-.574-2.211,1.882,1.882,0,0,0-1.684-.883,1.856,1.856,0,0,0-1.668.883,4.018,4.018,0,0,0-.566,2.211Zm9.289-4.32.109,1.258a3.069,3.069,0,0,1,1.059-1.043,2.825,2.825,0,0,1,1.449-.371,2.759,2.759,0,0,1,2.117.8,3.515,3.515,0,0,1,.75,2.473V183h-1.539v-5.3a2.287,2.287,0,0,0-.441-1.586,1.768,1.768,0,0,0-1.348-.469,2.386,2.386,0,0,0-1.207.285,2.073,2.073,0,0,0-.785.8V183h-1.539v-8.453Zm6.766,10.375a2.02,2.02,0,0,0,1.219-.98,3.691,3.691,0,0,0,.367-1.73v-1.6a2.93,2.93,0,0,1,.352-1.461,2.292,2.292,0,0,1,1.086-.961,2.212,2.212,0,0,1-1.086-.945,2.964,2.964,0,0,1-.352-1.477v-1.609a3.739,3.739,0,0,0-.367-1.738,1.985,1.985,0,0,0-1.219-.98l.32-.914a3.744,3.744,0,0,1,2.16,1.363,3.9,3.9,0,0,1,.645,2.27v1.609a2.1,2.1,0,0,0,.395,1.363,1.51,1.51,0,0,0,1.238.48v1.148a1.5,1.5,0,0,0-1.238.488,2.114,2.114,0,0,0-.395,1.363v1.6a3.9,3.9,0,0,1-.645,2.266,3.735,3.735,0,0,1-2.16,1.367ZM289.5,173.734l-.789,1.953h-.758v-4.062H289.5Zm-2.414,0-.789,1.953h-.758l.008-1.875v-2.187h1.539Zm7.438,4.719a10.426,10.426,0,0,1-1.246,5.262,7.244,7.244,0,0,1-2.605,2.9h-.047l-.3-.844a6.653,6.653,0,0,0,1.855-2.7,11.749,11.749,0,0,0,.8-4.605v-.1a11.354,11.354,0,0,0-.824-4.559,7.532,7.532,0,0,0-1.832-2.746l.3-.844h.047a7.241,7.241,0,0,1,2.605,2.906,10.431,10.431,0,0,1,1.246,5.258Z" transform="translate(858.148 4863.883)" fill="#12263f"/>
    <g id="Trazado_879713" data-name="Trazado 879713" transform="translate(834.574 4843.414)" fill="none">
      <path d="M0,0H395.426V224.246H0Z" stroke="none"/>
      <path d="M 1 1 L 1 223.24609375 L 394.42578125 223.24609375 L 394.42578125 1 L 1 1 M 0 0 L 395.42578125 0 L 395.42578125 224.24609375 L 0 224.24609375 L 0 0 Z" stroke="none" fill="#3ba935"/>
    </g>
  </g>
</svg>
